<svg xmlns="http://www.w3.org/2000/svg" xmlns:xlink="http://www.w3.org/1999/xlink" width="1080" zoomAndPan="magnify" viewBox="0 0 810 809.999993" height="1080" preserveAspectRatio="xMidYMid meet" version="1.0"><defs><clipPath id="5a72d75e0d"><path d="M 710 579 L 730 579 L 730 610 L 710 610 Z M 710 579 " clip-rule="nonzero"/></clipPath><clipPath id="341e1d6319"><path d="M -83.171875 318.484375 L 403.507812 -90.957031 L 893.578125 491.5625 L 406.902344 901.003906 Z M -83.171875 318.484375 " clip-rule="nonzero"/></clipPath><clipPath id="79a6902148"><path d="M -83.171875 318.484375 L 1176.566406 -741.328125 L 2249.414062 533.902344 L 989.679688 1593.714844 Z M -83.171875 318.484375 " clip-rule="nonzero"/></clipPath><clipPath id="1e8ed29e2a"><path d="M 32 160 L 799 160 L 799 703 L 32 703 Z M 32 160 " clip-rule="nonzero"/></clipPath><clipPath id="6673007dac"><path d="M -83.171875 318.484375 L 403.507812 -90.957031 L 893.578125 491.5625 L 406.902344 901.003906 Z M -83.171875 318.484375 " clip-rule="nonzero"/></clipPath><clipPath id="caf0082183"><path d="M -83.171875 318.484375 L 1176.566406 -741.328125 L 2249.414062 533.902344 L 989.679688 1593.714844 Z M -83.171875 318.484375 " clip-rule="nonzero"/></clipPath><clipPath id="88e9374e16"><path d="M 710 579 L 730 579 L 730 610 L 710 610 Z M 710 579 " clip-rule="nonzero"/></clipPath><clipPath id="f55ff9a445"><path d="M -83.171875 318.484375 L 403.507812 -90.957031 L 893.578125 491.5625 L 406.902344 901.003906 Z M -83.171875 318.484375 " clip-rule="nonzero"/></clipPath><clipPath id="2f9ab971fe"><path d="M -83.171875 318.484375 L 1176.566406 -741.328125 L 2249.414062 533.902344 L 989.679688 1593.714844 Z M -83.171875 318.484375 " clip-rule="nonzero"/></clipPath><clipPath id="3b4708a7ed"><path d="M 714 441 L 770 441 L 770 486 L 714 486 Z M 714 441 " clip-rule="nonzero"/></clipPath><clipPath id="38db2197ce"><path d="M -83.171875 318.484375 L 403.507812 -90.957031 L 893.578125 491.5625 L 406.902344 901.003906 Z M -83.171875 318.484375 " clip-rule="nonzero"/></clipPath><clipPath id="29dda4af71"><path d="M -83.171875 318.484375 L 1176.566406 -741.328125 L 2249.414062 533.902344 L 989.679688 1593.714844 Z M -83.171875 318.484375 " clip-rule="nonzero"/></clipPath><clipPath id="eeae56bc60"><path d="M 430 502 L 689 502 L 689 564 L 430 564 Z M 430 502 " clip-rule="nonzero"/></clipPath><clipPath id="9ccfc0f69b"><path d="M -83.171875 318.484375 L 403.507812 -90.957031 L 893.578125 491.5625 L 406.902344 901.003906 Z M -83.171875 318.484375 " clip-rule="nonzero"/></clipPath><clipPath id="0a64a3b778"><path d="M -83.171875 318.484375 L 1176.566406 -741.328125 L 2249.414062 533.902344 L 989.679688 1593.714844 Z M -83.171875 318.484375 " clip-rule="nonzero"/></clipPath><clipPath id="04a862ef3c"><path d="M 53 324 L 403 324 L 403 551 L 53 551 Z M 53 324 " clip-rule="nonzero"/></clipPath><clipPath id="af1f78cd67"><path d="M -83.171875 318.484375 L 403.507812 -90.957031 L 893.578125 491.5625 L 406.902344 901.003906 Z M -83.171875 318.484375 " clip-rule="nonzero"/></clipPath><clipPath id="acb110fab9"><path d="M -83.171875 318.484375 L 1176.566406 -741.328125 L 2249.414062 533.902344 L 989.679688 1593.714844 Z M -83.171875 318.484375 " clip-rule="nonzero"/></clipPath><clipPath id="8fcf8daa4b"><path d="M 719 451 L 776 451 L 776 495 L 719 495 Z M 719 451 " clip-rule="nonzero"/></clipPath><clipPath id="9096c050ae"><path d="M -83.171875 318.484375 L 403.507812 -90.957031 L 893.578125 491.5625 L 406.902344 901.003906 Z M -83.171875 318.484375 " clip-rule="nonzero"/></clipPath><clipPath id="0bdb029779"><path d="M -83.171875 318.484375 L 1176.566406 -741.328125 L 2249.414062 533.902344 L 989.679688 1593.714844 Z M -83.171875 318.484375 " clip-rule="nonzero"/></clipPath><clipPath id="cb36251795"><path d="M 224 496 L 694 496 L 694 574 L 224 574 Z M 224 496 " clip-rule="nonzero"/></clipPath><clipPath id="c0d8eca266"><path d="M -83.171875 318.484375 L 403.507812 -90.957031 L 893.578125 491.5625 L 406.902344 901.003906 Z M -83.171875 318.484375 " clip-rule="nonzero"/></clipPath><clipPath id="217fe9715d"><path d="M -83.171875 318.484375 L 1176.566406 -741.328125 L 2249.414062 533.902344 L 989.679688 1593.714844 Z M -83.171875 318.484375 " clip-rule="nonzero"/></clipPath><clipPath id="69067931c8"><path d="M 54 352 L 219 352 L 219 493 L 54 493 Z M 54 352 " clip-rule="nonzero"/></clipPath><clipPath id="d8b2ed8099"><path d="M -83.171875 318.484375 L 403.507812 -90.957031 L 893.578125 491.5625 L 406.902344 901.003906 Z M -83.171875 318.484375 " clip-rule="nonzero"/></clipPath><clipPath id="13cd792fc4"><path d="M -83.171875 318.484375 L 1176.566406 -741.328125 L 2249.414062 533.902344 L 989.679688 1593.714844 Z M -83.171875 318.484375 " clip-rule="nonzero"/></clipPath><clipPath id="501cb31794"><path d="M 726 468 L 777 468 L 777 509 L 726 509 Z M 726 468 " clip-rule="nonzero"/></clipPath><clipPath id="ca010aa0fa"><path d="M -83.171875 318.484375 L 403.507812 -90.957031 L 893.578125 491.5625 L 406.902344 901.003906 Z M -83.171875 318.484375 " clip-rule="nonzero"/></clipPath><clipPath id="c2093cc413"><path d="M -83.171875 318.484375 L 1176.566406 -741.328125 L 2249.414062 533.902344 L 989.679688 1593.714844 Z M -83.171875 318.484375 " clip-rule="nonzero"/></clipPath><clipPath id="174986656d"><path d="M 228 512 L 701 512 L 701 591 L 228 591 Z M 228 512 " clip-rule="nonzero"/></clipPath><clipPath id="c4dc455871"><path d="M -83.171875 318.484375 L 403.507812 -90.957031 L 893.578125 491.5625 L 406.902344 901.003906 Z M -83.171875 318.484375 " clip-rule="nonzero"/></clipPath><clipPath id="148b28c697"><path d="M -83.171875 318.484375 L 1176.566406 -741.328125 L 2249.414062 533.902344 L 989.679688 1593.714844 Z M -83.171875 318.484375 " clip-rule="nonzero"/></clipPath><clipPath id="2ad11c9b02"><path d="M 69 390 L 203 390 L 203 497 L 69 497 Z M 69 390 " clip-rule="nonzero"/></clipPath><clipPath id="b2f885e9b2"><path d="M -83.171875 318.484375 L 403.507812 -90.957031 L 893.578125 491.5625 L 406.902344 901.003906 Z M -83.171875 318.484375 " clip-rule="nonzero"/></clipPath><clipPath id="e234c143f4"><path d="M -83.171875 318.484375 L 1176.566406 -741.328125 L 2249.414062 533.902344 L 989.679688 1593.714844 Z M -83.171875 318.484375 " clip-rule="nonzero"/></clipPath><clipPath id="3faadf3d36"><path d="M 733 485 L 778 485 L 778 526 L 733 526 Z M 733 485 " clip-rule="nonzero"/></clipPath><clipPath id="bbe811fd28"><path d="M -83.171875 318.484375 L 403.507812 -90.957031 L 893.578125 491.5625 L 406.902344 901.003906 Z M -83.171875 318.484375 " clip-rule="nonzero"/></clipPath><clipPath id="ce91159e7b"><path d="M -83.171875 318.484375 L 1176.566406 -741.328125 L 2249.414062 533.902344 L 989.679688 1593.714844 Z M -83.171875 318.484375 " clip-rule="nonzero"/></clipPath><clipPath id="7ee4dae9f1"><path d="M 562 544 L 708 544 L 708 606 L 562 606 Z M 562 544 " clip-rule="nonzero"/></clipPath><clipPath id="c49c1b8e80"><path d="M -83.171875 318.484375 L 403.507812 -90.957031 L 893.578125 491.5625 L 406.902344 901.003906 Z M -83.171875 318.484375 " clip-rule="nonzero"/></clipPath><clipPath id="acc952a68e"><path d="M -83.171875 318.484375 L 1176.566406 -741.328125 L 2249.414062 533.902344 L 989.679688 1593.714844 Z M -83.171875 318.484375 " clip-rule="nonzero"/></clipPath><clipPath id="3bfd83964b"><path d="M 350 594 L 534 594 L 534 619 L 350 619 Z M 350 594 " clip-rule="nonzero"/></clipPath><clipPath id="ea4fabdf82"><path d="M -83.171875 318.484375 L 403.507812 -90.957031 L 893.578125 491.5625 L 406.902344 901.003906 Z M -83.171875 318.484375 " clip-rule="nonzero"/></clipPath><clipPath id="3db5143090"><path d="M -83.171875 318.484375 L 1176.566406 -741.328125 L 2249.414062 533.902344 L 989.679688 1593.714844 Z M -83.171875 318.484375 " clip-rule="nonzero"/></clipPath><clipPath id="afc28ae57b"><path d="M 71 426 L 325 426 L 325 586 L 71 586 Z M 71 426 " clip-rule="nonzero"/></clipPath><clipPath id="7a29b351e2"><path d="M -83.171875 318.484375 L 403.507812 -90.957031 L 893.578125 491.5625 L 406.902344 901.003906 Z M -83.171875 318.484375 " clip-rule="nonzero"/></clipPath><clipPath id="5db2d83e14"><path d="M -83.171875 318.484375 L 1176.566406 -741.328125 L 2249.414062 533.902344 L 989.679688 1593.714844 Z M -83.171875 318.484375 " clip-rule="nonzero"/></clipPath><clipPath id="657da348db"><path d="M 735 506 L 773 506 L 773 538 L 735 538 Z M 735 506 " clip-rule="nonzero"/></clipPath><clipPath id="2fc284a012"><path d="M -83.171875 318.484375 L 403.507812 -90.957031 L 893.578125 491.5625 L 406.902344 901.003906 Z M -83.171875 318.484375 " clip-rule="nonzero"/></clipPath><clipPath id="25f6965b34"><path d="M -83.171875 318.484375 L 1176.566406 -741.328125 L 2249.414062 533.902344 L 989.679688 1593.714844 Z M -83.171875 318.484375 " clip-rule="nonzero"/></clipPath><clipPath id="08f2ca3187"><path d="M 108 480 L 710 480 L 710 632 L 108 632 Z M 108 480 " clip-rule="nonzero"/></clipPath><clipPath id="c17c9efd84"><path d="M -83.171875 318.484375 L 403.507812 -90.957031 L 893.578125 491.5625 L 406.902344 901.003906 Z M -83.171875 318.484375 " clip-rule="nonzero"/></clipPath><clipPath id="1469f959b2"><path d="M -83.171875 318.484375 L 1176.566406 -741.328125 L 2249.414062 533.902344 L 989.679688 1593.714844 Z M -83.171875 318.484375 " clip-rule="nonzero"/></clipPath><clipPath id="c87807671f"><path d="M 738 543 L 755 543 L 755 558 L 738 558 Z M 738 543 " clip-rule="nonzero"/></clipPath><clipPath id="7caf041629"><path d="M -83.171875 318.484375 L 403.507812 -90.957031 L 893.578125 491.5625 L 406.902344 901.003906 Z M -83.171875 318.484375 " clip-rule="nonzero"/></clipPath><clipPath id="a2fca6f2a4"><path d="M -83.171875 318.484375 L 1176.566406 -741.328125 L 2249.414062 533.902344 L 989.679688 1593.714844 Z M -83.171875 318.484375 " clip-rule="nonzero"/></clipPath><clipPath id="2a5cb84f49"><path d="M 255 580 L 710 580 L 710 660 L 255 660 Z M 255 580 " clip-rule="nonzero"/></clipPath><clipPath id="b44f5909a4"><path d="M -83.171875 318.484375 L 403.507812 -90.957031 L 893.578125 491.5625 L 406.902344 901.003906 Z M -83.171875 318.484375 " clip-rule="nonzero"/></clipPath><clipPath id="439897a1b3"><path d="M -83.171875 318.484375 L 1176.566406 -741.328125 L 2249.414062 533.902344 L 989.679688 1593.714844 Z M -83.171875 318.484375 " clip-rule="nonzero"/></clipPath><clipPath id="27848833f4"><path d="M 109 507 L 230 507 L 230 583 L 109 583 Z M 109 507 " clip-rule="nonzero"/></clipPath><clipPath id="819b82ea5e"><path d="M -83.171875 318.484375 L 403.507812 -90.957031 L 893.578125 491.5625 L 406.902344 901.003906 Z M -83.171875 318.484375 " clip-rule="nonzero"/></clipPath><clipPath id="429d6c4356"><path d="M -83.171875 318.484375 L 1176.566406 -741.328125 L 2249.414062 533.902344 L 989.679688 1593.714844 Z M -83.171875 318.484375 " clip-rule="nonzero"/></clipPath><clipPath id="3490f7b2bf"><path d="M 478 671 L 528 671 L 528 679 L 478 679 Z M 478 671 " clip-rule="nonzero"/></clipPath><clipPath id="80f9833700"><path d="M -83.171875 318.484375 L 403.507812 -90.957031 L 893.578125 491.5625 L 406.902344 901.003906 Z M -83.171875 318.484375 " clip-rule="nonzero"/></clipPath><clipPath id="f92670122d"><path d="M -83.171875 318.484375 L 1176.566406 -741.328125 L 2249.414062 533.902344 L 989.679688 1593.714844 Z M -83.171875 318.484375 " clip-rule="nonzero"/></clipPath><clipPath id="fd595317bd"><path d="M 174 569 L 452 569 L 452 675 L 174 675 Z M 174 569 " clip-rule="nonzero"/></clipPath><clipPath id="480b8a6158"><path d="M -83.171875 318.484375 L 403.507812 -90.957031 L 893.578125 491.5625 L 406.902344 901.003906 Z M -83.171875 318.484375 " clip-rule="nonzero"/></clipPath><clipPath id="5d7ccbc329"><path d="M -83.171875 318.484375 L 1176.566406 -741.328125 L 2249.414062 533.902344 L 989.679688 1593.714844 Z M -83.171875 318.484375 " clip-rule="nonzero"/></clipPath><clipPath id="c3a79fc573"><path d="M 246 625 L 467 625 L 467 688 L 246 688 Z M 246 625 " clip-rule="nonzero"/></clipPath><clipPath id="d28d5cc453"><path d="M -83.171875 318.484375 L 403.507812 -90.957031 L 893.578125 491.5625 L 406.902344 901.003906 Z M -83.171875 318.484375 " clip-rule="nonzero"/></clipPath><clipPath id="6974da827b"><path d="M -83.171875 318.484375 L 1176.566406 -741.328125 L 2249.414062 533.902344 L 989.679688 1593.714844 Z M -83.171875 318.484375 " clip-rule="nonzero"/></clipPath><clipPath id="fc62436028"><path d="M 227 194 L 331 194 L 331 272 L 227 272 Z M 227 194 " clip-rule="nonzero"/></clipPath><clipPath id="b175f301dc"><path d="M -83.171875 318.484375 L 403.507812 -90.957031 L 893.578125 491.5625 L 406.902344 901.003906 Z M -83.171875 318.484375 " clip-rule="nonzero"/></clipPath><clipPath id="ff8a73a44e"><path d="M -83.171875 318.484375 L 1176.566406 -741.328125 L 2249.414062 533.902344 L 989.679688 1593.714844 Z M -83.171875 318.484375 " clip-rule="nonzero"/></clipPath><clipPath id="69c44915fd"><path d="M 411 418 L 516 418 L 516 562 L 411 562 Z M 411 418 " clip-rule="nonzero"/></clipPath><clipPath id="f0fb5591f6"><path d="M -83.171875 318.484375 L 403.507812 -90.957031 L 893.578125 491.5625 L 406.902344 901.003906 Z M -83.171875 318.484375 " clip-rule="nonzero"/></clipPath><clipPath id="d5a2da1236"><path d="M -83.171875 318.484375 L 1176.566406 -741.328125 L 2249.414062 533.902344 L 989.679688 1593.714844 Z M -83.171875 318.484375 " clip-rule="nonzero"/></clipPath><clipPath id="6120ea088d"><path d="M 456 416 L 563 416 L 563 514 L 456 514 Z M 456 416 " clip-rule="nonzero"/></clipPath><clipPath id="c120322b83"><path d="M -83.171875 318.484375 L 403.507812 -90.957031 L 893.578125 491.5625 L 406.902344 901.003906 Z M -83.171875 318.484375 " clip-rule="nonzero"/></clipPath><clipPath id="50ddb86740"><path d="M -83.171875 318.484375 L 1176.566406 -741.328125 L 2249.414062 533.902344 L 989.679688 1593.714844 Z M -83.171875 318.484375 " clip-rule="nonzero"/></clipPath><clipPath id="d733100ba9"><path d="M 501 423 L 593 423 L 593 489 L 501 489 Z M 501 423 " clip-rule="nonzero"/></clipPath><clipPath id="621a1a046a"><path d="M -83.171875 318.484375 L 403.507812 -90.957031 L 893.578125 491.5625 L 406.902344 901.003906 Z M -83.171875 318.484375 " clip-rule="nonzero"/></clipPath><clipPath id="010c50442a"><path d="M -83.171875 318.484375 L 1176.566406 -741.328125 L 2249.414062 533.902344 L 989.679688 1593.714844 Z M -83.171875 318.484375 " clip-rule="nonzero"/></clipPath><clipPath id="a598ce5e2d"><path d="M 211 189 L 300 189 L 300 263 L 211 263 Z M 211 189 " clip-rule="nonzero"/></clipPath><clipPath id="eace5da023"><path d="M -83.171875 318.484375 L 403.507812 -90.957031 L 893.578125 491.5625 L 406.902344 901.003906 Z M -83.171875 318.484375 " clip-rule="nonzero"/></clipPath><clipPath id="de1e93a5e6"><path d="M -83.171875 318.484375 L 1176.566406 -741.328125 L 2249.414062 533.902344 L 989.679688 1593.714844 Z M -83.171875 318.484375 " clip-rule="nonzero"/></clipPath><clipPath id="5050230fd3"><path d="M 195 186 L 254 186 L 254 238 L 195 238 Z M 195 186 " clip-rule="nonzero"/></clipPath><clipPath id="02dfa3bdd0"><path d="M -83.171875 318.484375 L 403.507812 -90.957031 L 893.578125 491.5625 L 406.902344 901.003906 Z M -83.171875 318.484375 " clip-rule="nonzero"/></clipPath><clipPath id="39a7a5913a"><path d="M -83.171875 318.484375 L 1176.566406 -741.328125 L 2249.414062 533.902344 L 989.679688 1593.714844 Z M -83.171875 318.484375 " clip-rule="nonzero"/></clipPath></defs><g clip-path="url(#5a72d75e0d)"><g clip-path="url(#341e1d6319)"><g clip-path="url(#79a6902148)"><path fill="#ffffff" d="M 710.691406 596.722656 C 708.957031 610.625 710.347656 618.328125 724.632812 593.152344 C 727.058594 588.863281 728.757812 584.144531 729.859375 579.152344 C 723.878906 585.265625 717.476562 591.125 710.691406 596.722656 " fill-opacity="1" fill-rule="nonzero"/></g></g></g><g clip-path="url(#1e8ed29e2a)"><g clip-path="url(#6673007dac)"><g clip-path="url(#caf0082183)"><path fill="#ffffff" d="M 778.527344 494.496094 C 770.933594 526.746094 753.589844 554.945312 729.859375 579.152344 C 728.757812 584.144531 727.058594 588.863281 724.632812 593.152344 C 710.347656 618.328125 708.957031 610.625 710.691406 596.722656 C 629.722656 663.914062 497.976562 694.472656 409.160156 689.59375 C 285.222656 682.804688 130.007812 571.910156 81.121094 457.535156 C 66.71875 423.824219 7.011719 242.597656 94.636719 261.320312 C 95.433594 261.492188 96.164062 261.617188 96.828125 261.683594 C 97.617188 261.777344 98.324219 261.8125 98.9375 261.777344 C 100.054688 261.738281 105.714844 261.6875 109.800781 261.660156 C 112.355469 261.644531 114.90625 261.882812 117.382812 262.46875 C 130.902344 265.664062 144.917969 265.976562 158.566406 270.226562 C 194.566406 281.394531 226.855469 301.609375 260.503906 318.074219 C 333.5 353.789062 412.324219 376.914062 491.988281 392.113281 C 575.898438 408.136719 729.382812 449.25 715.765625 566.226562 C 715.03125 572.40625 711.992188 586.308594 710.691406 596.722656 C 717.476562 591.125 723.878906 585.265625 729.859375 579.152344 C 734.582031 557.761719 728.195312 531.496094 720.59375 513.339844 C 694.949219 451.910156 629.542969 405.113281 566.632812 388.996094 C 482.023438 367.355469 397.964844 355.855469 315.792969 323.503906 C 245.144531 295.699219 180.128906 243.625 101.089844 246.152344 C 113.195312 187.675781 165.085938 182.796875 223.65625 179.628906 C 308.246094 175.0625 392.460938 184.203125 472.546875 212.53125 C 547.585938 239.066406 616.550781 279.511719 682.460938 323.59375 C 744.8125 365.28125 797.761719 412.886719 778.527344 494.496094 Z M 552.726562 229.542969 C 475.578125 192.363281 392.605469 168.421875 306.875 163.792969 C 239.695312 160.167969 129.417969 148.214844 95.925781 216.226562 C 91.625 224.949219 86.695312 236.265625 85.730469 245.273438 C 84.78125 245.074219 83.839844 244.9375 82.886719 244.878906 C 71.050781 244.058594 59.785156 248.433594 51.105469 256.25 C 32.339844 273.117188 31.925781 304.671875 32.746094 327.738281 C 35.085938 392.625 57.148438 460.722656 95.835938 512.753906 C 198.109375 650.367188 360.855469 733.785156 530.757812 691.390625 C 602.886719 673.398438 683.980469 642.84375 739.511719 591.78125 C 791.527344 543.972656 818.871094 453.589844 779.117188 390.082031 C 733.65625 317.480469 627.519531 265.59375 552.726562 229.542969 " fill-opacity="1" fill-rule="nonzero"/></g></g></g><g clip-path="url(#88e9374e16)"><g clip-path="url(#f55ff9a445)"><g clip-path="url(#2f9ab971fe)"><path fill="#ffffff" d="M 729.859375 579.152344 C 728.757812 584.144531 727.058594 588.863281 724.632812 593.152344 C 710.347656 618.328125 708.957031 610.625 710.691406 596.722656 C 717.476562 591.125 723.878906 585.265625 729.859375 579.152344 " fill-opacity="1" fill-rule="nonzero"/></g></g></g><g clip-path="url(#3b4708a7ed)"><g clip-path="url(#38db2197ce)"><g clip-path="url(#29dda4af71)"><path fill="#ffffff" d="M 714.742188 485.222656 C 735.652344 475.417969 755.574219 459.324219 769.738281 441.085938 C 750.171875 453.523438 731.195312 468.90625 714.742188 485.222656 " fill-opacity="1" fill-rule="nonzero"/></g></g></g><g clip-path="url(#eeae56bc60)"><g clip-path="url(#9ccfc0f69b)"><g clip-path="url(#0a64a3b778)"><path fill="#ffffff" d="M 430.136719 556.898438 C 520.195312 576.335938 612.292969 552.378906 688.484375 502.3125 C 608.234375 544.332031 521.777344 570.238281 430.136719 556.898438 " fill-opacity="1" fill-rule="nonzero"/></g></g></g><g clip-path="url(#04a862ef3c)"><g clip-path="url(#af1f78cd67)"><g clip-path="url(#acb110fab9)"><path fill="#ffffff" d="M 53.058594 324.402344 C 139.550781 440.214844 263.238281 514.597656 402.21875 550.761719 C 267.019531 508.03125 142.605469 436.871094 53.058594 324.402344 " fill-opacity="1" fill-rule="nonzero"/></g></g></g><g clip-path="url(#8fcf8daa4b)"><g clip-path="url(#9096c050ae)"><g clip-path="url(#0bdb029779)"><path fill="#ffffff" d="M 719.890625 494.003906 C 740.761719 484.597656 760.847656 469.148438 775.414062 451.5 C 755.636719 463.175781 736.390625 478.042969 719.890625 494.003906 " fill-opacity="1" fill-rule="nonzero"/></g></g></g><g clip-path="url(#cb36251795)"><g clip-path="url(#c0d8eca266)"><g clip-path="url(#217fe9715d)"><path fill="#ffffff" d="M 224.804688 496.191406 C 368.921875 588.824219 545.875 603.734375 693.074219 511.085938 C 539.027344 597.070312 376.089844 580.222656 224.804688 496.191406 " fill-opacity="1" fill-rule="nonzero"/></g></g></g><g clip-path="url(#69067931c8)"><g clip-path="url(#d8b2ed8099)"><g clip-path="url(#13cd792fc4)"><path fill="#ffffff" d="M 54.457031 352.730469 C 99.558594 408.167969 156.800781 455.976562 218.382812 492.183594 C 161.140625 448.40625 106.269531 402.933594 54.457031 352.730469 " fill-opacity="1" fill-rule="nonzero"/></g></g></g><g clip-path="url(#501cb31794)"><g clip-path="url(#ca010aa0fa)"><g clip-path="url(#c2093cc413)"><path fill="#ffffff" d="M 726.820312 508.71875 C 745.652344 500.035156 763.738281 485.453125 776.277344 468.945312 C 758.449219 479.617188 741.117188 493.648438 726.820312 508.71875 " fill-opacity="1" fill-rule="nonzero"/></g></g></g><g clip-path="url(#174986656d)"><g clip-path="url(#c4dc455871)"><g clip-path="url(#148b28c697)"><path fill="#ffffff" d="M 228.675781 512.816406 C 372.683594 610.390625 551.121094 617.039062 700.460938 526.398438 C 556.03125 612.398438 368.289062 605.660156 228.675781 512.816406 " fill-opacity="1" fill-rule="nonzero"/></g></g></g><g clip-path="url(#2ad11c9b02)"><g clip-path="url(#b2f885e9b2)"><g clip-path="url(#e234c143f4)"><path fill="#ffffff" d="M 69.246094 390.730469 C 108.132812 431.160156 153.117188 469.582031 202.550781 496.515625 C 157.433594 462.089844 114.222656 425.296875 69.246094 390.730469 " fill-opacity="1" fill-rule="nonzero"/></g></g></g><g clip-path="url(#3faadf3d36)"><g clip-path="url(#bbe811fd28)"><g clip-path="url(#ce91159e7b)"><path fill="#ffffff" d="M 733.496094 525.390625 C 750.765625 516.71875 767.019531 501.871094 777.089844 485.371094 C 761.269531 496.523438 745.957031 510.570312 733.496094 525.390625 " fill-opacity="1" fill-rule="nonzero"/></g></g></g><g clip-path="url(#7ee4dae9f1)"><g clip-path="url(#c49c1b8e80)"><g clip-path="url(#acc952a68e)"><path fill="#ffffff" d="M 562.523438 605.527344 C 613.941406 598.292969 666.375 576.527344 707.277344 544.433594 C 660.417969 569.085938 613.191406 589.792969 562.523438 605.527344 " fill-opacity="1" fill-rule="nonzero"/></g></g></g><g clip-path="url(#3bfd83964b)"><g clip-path="url(#ea4fabdf82)"><g clip-path="url(#3db5143090)"><path fill="#ffffff" d="M 350.203125 594.175781 C 406.179688 619.667969 473.523438 624.527344 533.445312 611 C 471.152344 615.085938 410.539062 612.199219 350.203125 594.175781 " fill-opacity="1" fill-rule="nonzero"/></g></g></g><g clip-path="url(#afc28ae57b)"><g clip-path="url(#7a29b351e2)"><g clip-path="url(#5db2d83e14)"><path fill="#ffffff" d="M 71.019531 426.789062 C 144.609375 493.527344 228.976562 555.128906 324.644531 585.46875 C 231.292969 545.957031 151.140625 487.921875 71.019531 426.789062 " fill-opacity="1" fill-rule="nonzero"/></g></g></g><g clip-path="url(#657da348db)"><g clip-path="url(#2fc284a012)"><g clip-path="url(#25f6965b34)"><path fill="#ffffff" d="M 735.84375 537.699219 C 750.300781 531.308594 764.277344 519.449219 772.953125 506.234375 C 759.074219 513.746094 745.558594 525.265625 735.84375 537.699219 " fill-opacity="1" fill-rule="nonzero"/></g></g></g><g clip-path="url(#08f2ca3187)"><g clip-path="url(#c17c9efd84)"><g clip-path="url(#1469f959b2)"><path fill="#ffffff" d="M 108.328125 480.589844 C 284.21875 619.160156 509.578125 698.878906 709.394531 557.027344 C 629.628906 609.230469 534.152344 635.648438 438.816406 628.511719 C 317.410156 619.414062 204.738281 550.507812 108.328125 480.589844 " fill-opacity="1" fill-rule="nonzero"/></g></g></g><g clip-path="url(#c87807671f)"><g clip-path="url(#7caf041629)"><g clip-path="url(#a2fca6f2a4)"><path fill="#ffffff" d="M 738.378906 557.480469 C 745.894531 555.484375 751.152344 550.902344 754.148438 543.726562 C 746.636719 545.71875 741.375 550.304688 738.378906 557.480469 " fill-opacity="1" fill-rule="nonzero"/></g></g></g><g clip-path="url(#2a5cb84f49)"><g clip-path="url(#b44f5909a4)"><g clip-path="url(#439897a1b3)"><path fill="#ffffff" d="M 255.160156 596.105469 C 396.109375 685.472656 577.027344 681.046875 709.457031 580.078125 C 574.433594 681.910156 398.441406 670.898438 255.160156 596.105469 " fill-opacity="1" fill-rule="nonzero"/></g></g></g><g clip-path="url(#27848833f4)"><g clip-path="url(#819b82ea5e)"><g clip-path="url(#429d6c4356)"><path fill="#ffffff" d="M 109.660156 507.570312 C 145.242188 537.585938 186.664062 564.398438 229.671875 582.679688 C 190.933594 556.214844 150.332031 530.90625 109.660156 507.570312 " fill-opacity="1" fill-rule="nonzero"/></g></g></g><g clip-path="url(#3490f7b2bf)"><g clip-path="url(#80f9833700)"><g clip-path="url(#f92670122d)"><path fill="#ffffff" d="M 478.785156 675.707031 C 494.058594 679.785156 512.59375 678.769531 527.257812 672.78125 C 511.574219 671.101562 494.136719 672.09375 478.785156 675.707031 " fill-opacity="1" fill-rule="nonzero"/></g></g></g><g clip-path="url(#fd595317bd)"><g clip-path="url(#480b8a6158)"><g clip-path="url(#5d7ccbc329)"><path fill="#ffffff" d="M 174.90625 569.851562 C 257.125 625.566406 352.113281 666.492188 451.800781 674.253906 C 352.9375 659.9375 261.460938 618.285156 174.90625 569.851562 " fill-opacity="1" fill-rule="nonzero"/></g></g></g><g clip-path="url(#c3a79fc573)"><g clip-path="url(#d28d5cc453)"><g clip-path="url(#6974da827b)"><path fill="#ffffff" d="M 246.066406 625.410156 C 308.363281 671.683594 389.292969 694.730469 466.511719 685.785156 C 388.785156 687.617188 312.9375 664.523438 246.066406 625.410156 " fill-opacity="1" fill-rule="nonzero"/></g></g></g><g clip-path="url(#fc62436028)"><g clip-path="url(#b175f301dc)"><g clip-path="url(#ff8a73a44e)"><path fill="#ffffff" d="M 330.007812 194.542969 C 295.527344 199.289062 218.054688 223.347656 228.613281 271.84375 C 227.160156 225.8125 296.273438 205.921875 330.007812 194.542969 " fill-opacity="1" fill-rule="nonzero"/></g></g></g><g clip-path="url(#69c44915fd)"><g clip-path="url(#f0fb5591f6)"><g clip-path="url(#d5a2da1236)"><path fill="#ffffff" d="M 515.25 418.484375 C 453.742188 440.484375 411.921875 496.984375 411.296875 561.742188 C 421.855469 497.730469 456.46875 449.320312 515.25 418.484375 " fill-opacity="1" fill-rule="nonzero"/></g></g></g><g clip-path="url(#6120ea088d)"><g clip-path="url(#c120322b83)"><g clip-path="url(#50ddb86740)"><path fill="#ffffff" d="M 562.890625 416.128906 C 518.035156 430.894531 466.90625 463.777344 456.65625 513.09375 C 475.445312 466.601562 520.175781 439.027344 562.890625 416.128906 " fill-opacity="1" fill-rule="nonzero"/></g></g></g><g clip-path="url(#d733100ba9)"><g clip-path="url(#621a1a046a)"><g clip-path="url(#010c50442a)"><path fill="#ffffff" d="M 592.953125 423.683594 C 555.171875 425.589844 508.605469 446.882812 501.902344 488.207031 C 516.339844 450.484375 556.390625 433.109375 592.953125 423.683594 " fill-opacity="1" fill-rule="nonzero"/></g></g></g><g clip-path="url(#a598ce5e2d)"><g clip-path="url(#eace5da023)"><g clip-path="url(#de1e93a5e6)"><path fill="#ffffff" d="M 211.367188 262.363281 C 215.550781 217.9375 264.542969 202.339844 299.429688 189.597656 C 263.121094 194.101562 206.632812 216.109375 211.367188 262.363281 " fill-opacity="1" fill-rule="nonzero"/></g></g></g><g clip-path="url(#5050230fd3)"><g clip-path="url(#02dfa3bdd0)"><g clip-path="url(#39a7a5913a)"><path fill="#ffffff" d="M 195.929688 237.3125 C 204.261719 207.34375 227.277344 196.867188 253.460938 186.707031 C 225.828125 187.628906 195.03125 206.203125 195.929688 237.3125 " fill-opacity="1" fill-rule="nonzero"/></g></g></g></svg>