<svg xmlns="http://www.w3.org/2000/svg" xmlns:xlink="http://www.w3.org/1999/xlink" width="1080" zoomAndPan="magnify" viewBox="0 0 810 809.999993" height="1080" preserveAspectRatio="xMidYMid meet" version="1.0"><defs><clipPath id="72286ff9d8"><path d="M 0 172 L 794 172 L 794 696.898438 L 0 696.898438 Z M 0 172 " clip-rule="nonzero"/></clipPath></defs><g clip-path="url(#72286ff9d8)"><path fill="#32620e" d="M 732.976562 180.875 C 724.25 176.53125 713.320312 174.34375 713.320312 174.34375 C 709.457031 173.496094 700.714844 172.21875 694.429688 172.21875 C 648.488281 172.21875 600.035156 212.980469 573.847656 273.65625 C 558.738281 308.683594 553.265625 345.582031 558.429688 377.574219 C 563.683594 410.074219 579.335938 435.671875 602.53125 447.457031 L 578.410156 500.953125 C 573.34375 502.433594 568.367188 504.425781 563.730469 507.492188 L 470.996094 568.882812 C 470.996094 568.882812 338.027344 368.703125 337.695312 368.246094 C 322.039062 340.179688 272.179688 312.304688 224.269531 325.753906 C 111.488281 360.1875 12.050781 571.535156 0.144531 696.410156 L 342.101562 696.507812 L 348.40625 613.058594 L 249.148438 461.65625 C 246.277344 457.28125 247.496094 451.417969 251.871094 448.546875 C 256.238281 445.667969 262.09375 446.914062 264.972656 451.273438 L 413.394531 675.609375 C 423.828125 689.3125 439.710938 696.769531 455.964844 696.769531 C 466.132812 696.769531 476.394531 693.882812 485.503906 687.839844 L 622.910156 596.875 C 647.59375 580.539062 654.359375 547.277344 638.003906 522.59375 C 631.5625 512.859375 622.449219 506.035156 612.3125 502.1875 L 630.914062 460.957031 C 639.363281 463.691406 648.03125 465.074219 656.792969 465.074219 C 675.519531 465.074219 694.574219 458.84375 712.589844 446.605469 C 738.589844 428.921875 761.59375 399.050781 777.371094 362.496094 C 810.503906 285.695312 789.539062 209.0625 732.976562 180.875 Z M 729.941406 341.011719 C 708.652344 390.375 668.339844 426.191406 634.09375 426.191406 C 627.945312 426.191406 622.121094 425.019531 616.746094 422.703125 C 600.277344 415.609375 589 398.050781 584.980469 373.265625 C 580.621094 346.273438 585.445312 314.6875 598.539062 284.300781 C 619.84375 234.945312 660.167969 199.113281 694.429688 199.113281 C 700.550781 199.113281 706.382812 200.285156 711.71875 202.578125 C 747.332031 217.957031 755.675781 281.351562 729.941406 341.011719 Z M 729.941406 341.011719 " fill-opacity="1" fill-rule="nonzero"/></g><path fill="#32620e" d="M 352.480469 341.261719 C 406.457031 373.25 476.207031 355.363281 508.167969 301.40625 C 540.179688 247.371094 522.304688 177.636719 468.335938 145.660156 C 414.261719 113.632812 344.574219 131.515625 312.566406 185.550781 C 280.582031 239.515625 298.40625 309.246094 352.480469 341.261719 Z M 352.480469 341.261719 " fill-opacity="1" fill-rule="nonzero"/><path fill="#32620e" d="M 662.703125 261.554688 C 672.601562 251.953125 682.75 247.867188 690.53125 250.359375 C 695.078125 251.789062 698.917969 255.398438 701.925781 261.085938 C 704.121094 265.183594 709.1875 266.761719 713.3125 264.566406 C 717.425781 262.386719 718.972656 257.285156 716.800781 253.179688 C 711.710938 243.589844 704.382812 237.070312 695.617188 234.296875 C 681.523438 229.816406 665.671875 235.207031 650.976562 249.464844 C 637.632812 262.417969 626.464844 281.539062 619.542969 303.308594 C 615.300781 316.734375 612.867188 330.617188 612.519531 343.449219 C 612.386719 348.101562 616.0625 351.964844 620.714844 352.09375 C 620.789062 352.09375 620.871094 352.09375 620.933594 352.09375 C 625.488281 352.09375 629.222656 348.476562 629.34375 343.898438 C 629.652344 332.617188 631.808594 320.347656 635.605469 308.398438 C 641.6875 289.238281 651.308594 272.609375 662.703125 261.554688 Z M 662.703125 261.554688 " fill-opacity="1" fill-rule="nonzero"/></svg>