<svg xmlns="http://www.w3.org/2000/svg" xmlns:xlink="http://www.w3.org/1999/xlink" width="1080" zoomAndPan="magnify" viewBox="0 0 810 809.999993" height="1080" preserveAspectRatio="xMidYMid meet" version="1.0"><defs><clipPath id="f9300da03f"><path d="M 0 54.167969 L 810 54.167969 L 810 538 L 0 538 Z M 0 54.167969 " clip-rule="nonzero"/></clipPath></defs><rect x="-81" width="972" fill="#ffffff" y="-80.999999" height="971.999992" fill-opacity="1"/><rect x="-81" width="972" fill="#ffffff" y="-80.999999" height="971.999992" fill-opacity="1"/><path fill="#32620e" d="M 549.398438 552.628906 L 585.503906 516.523438 C 586.097656 515.933594 586.714844 515.371094 587.363281 514.839844 C 588.007812 514.308594 588.679688 513.8125 589.375 513.347656 C 590.070312 512.882812 590.785156 512.453125 591.523438 512.058594 C 592.261719 511.664062 593.015625 511.308594 593.789062 510.988281 C 594.5625 510.667969 595.347656 510.386719 596.148438 510.144531 C 596.949219 509.902344 597.757812 509.699219 598.578125 509.535156 C 599.398438 509.371094 600.222656 509.25 601.054688 509.167969 C 601.886719 509.085938 602.722656 509.046875 603.558594 509.046875 C 604.394531 509.046875 605.230469 509.085938 606.0625 509.167969 C 606.894531 509.25 607.71875 509.371094 608.539062 509.535156 C 609.359375 509.699219 610.171875 509.902344 610.96875 510.144531 C 611.769531 510.386719 612.558594 510.667969 613.328125 510.988281 C 614.101562 511.308594 614.855469 511.667969 615.59375 512.058594 C 616.332031 512.453125 617.046875 512.882812 617.742188 513.347656 C 618.4375 513.8125 619.109375 514.3125 619.757812 514.839844 C 620.402344 515.371094 621.019531 515.933594 621.613281 516.523438 L 770.609375 665.527344 C 771.199219 666.117188 771.761719 666.734375 772.292969 667.382812 C 772.820312 668.027344 773.320312 668.699219 773.785156 669.394531 C 774.25 670.089844 774.679688 670.804688 775.070312 671.542969 C 775.464844 672.28125 775.824219 673.035156 776.144531 673.808594 C 776.464844 674.582031 776.746094 675.367188 776.988281 676.167969 C 777.230469 676.96875 777.433594 677.777344 777.597656 678.597656 C 777.757812 679.417969 777.882812 680.246094 777.964844 681.078125 C 778.046875 681.910156 778.085938 682.742188 778.085938 683.578125 C 778.085938 684.414062 778.046875 685.25 777.964844 686.082031 C 777.882812 686.914062 777.757812 687.738281 777.597656 688.558594 C 777.433594 689.378906 777.230469 690.191406 776.988281 690.992188 C 776.746094 691.792969 776.464844 692.578125 776.144531 693.351562 C 775.824219 694.121094 775.464844 694.878906 775.070312 695.613281 C 774.675781 696.351562 774.246094 697.070312 773.785156 697.765625 C 773.320312 698.460938 772.820312 699.128906 772.289062 699.777344 C 771.761719 700.421875 771.199219 701.042969 770.609375 701.632812 L 734.5 737.738281 C 733.910156 738.332031 733.289062 738.890625 732.644531 739.421875 C 731.996094 739.953125 731.328125 740.449219 730.632812 740.914062 C 729.9375 741.378906 729.21875 741.808594 728.480469 742.203125 C 727.746094 742.597656 726.988281 742.953125 726.214844 743.273438 C 725.445312 743.59375 724.65625 743.875 723.859375 744.117188 C 723.058594 744.359375 722.246094 744.5625 721.425781 744.726562 C 720.605469 744.890625 719.78125 745.011719 718.949219 745.09375 C 718.117188 745.175781 717.28125 745.21875 716.445312 745.21875 C 715.609375 745.21875 714.777344 745.175781 713.945312 745.09375 C 713.109375 745.011719 712.285156 744.890625 711.464844 744.726562 C 710.644531 744.5625 709.835938 744.359375 709.035156 744.117188 C 708.234375 743.875 707.449219 743.59375 706.675781 743.273438 C 705.902344 742.953125 705.148438 742.597656 704.410156 742.203125 C 703.671875 741.808594 702.957031 741.378906 702.261719 740.914062 C 701.566406 740.449219 700.894531 739.953125 700.25 739.421875 C 699.601562 738.890625 698.984375 738.332031 698.390625 737.738281 L 549.394531 588.738281 C 548.804688 588.144531 548.242188 587.527344 547.714844 586.882812 C 547.183594 586.234375 546.683594 585.5625 546.222656 584.867188 C 545.757812 584.171875 545.328125 583.457031 544.933594 582.71875 C 544.539062 581.980469 544.179688 581.226562 543.863281 580.453125 C 543.542969 579.683594 543.261719 578.894531 543.015625 578.09375 C 542.773438 577.296875 542.570312 576.484375 542.410156 575.664062 C 542.246094 574.84375 542.121094 574.019531 542.042969 573.1875 C 541.960938 572.355469 541.917969 571.519531 541.917969 570.683594 C 541.917969 569.847656 541.960938 569.011719 542.042969 568.179688 C 542.125 567.347656 542.246094 566.523438 542.410156 565.703125 C 542.570312 564.882812 542.773438 564.074219 543.019531 563.273438 C 543.261719 562.472656 543.542969 561.6875 543.863281 560.914062 C 544.183594 560.140625 544.539062 559.386719 544.933594 558.648438 C 545.328125 557.910156 545.757812 557.195312 546.222656 556.5 C 546.6875 555.804688 547.183594 555.132812 547.714844 554.488281 C 548.246094 553.839844 548.804688 553.222656 549.398438 552.628906 Z M 549.398438 552.628906 " fill-opacity="1" fill-rule="nonzero"/><path fill="#32620e" d="M 465.074219 275.425781 L 355.191406 379.203125 C 354.621094 379.742188 354.023438 380.253906 353.40625 380.738281 C 352.789062 381.222656 352.148438 381.675781 351.488281 382.101562 C 350.828125 382.527344 350.148438 382.921875 349.453125 383.285156 C 348.757812 383.648438 348.042969 383.976562 347.316406 384.273438 C 346.589844 384.570312 345.851562 384.835938 345.101562 385.0625 C 344.347656 385.292969 343.585938 385.488281 342.820312 385.644531 C 342.050781 385.804688 341.273438 385.925781 340.492188 386.015625 C 339.714844 386.101562 338.929688 386.152344 338.144531 386.167969 C 337.359375 386.183594 336.574219 386.160156 335.792969 386.101562 C 335.007812 386.046875 334.230469 385.953125 333.453125 385.824219 C 332.679688 385.695312 331.914062 385.527344 331.152344 385.328125 C 330.394531 385.128906 329.644531 384.894531 328.90625 384.625 C 328.167969 384.355469 327.445312 384.050781 326.734375 383.714844 C 326.023438 383.378906 325.332031 383.011719 324.65625 382.613281 C 323.980469 382.210938 323.324219 381.78125 322.6875 381.320312 C 322.050781 380.859375 321.4375 380.371094 320.847656 379.855469 L 237.21875 306.679688 L 182.09375 365.046875 C 183.183594 366.796875 184.308594 368.523438 185.46875 370.230469 C 186.628906 371.9375 187.820312 373.617188 189.050781 375.273438 C 190.277344 376.929688 191.539062 378.5625 192.832031 380.167969 C 194.128906 381.773438 195.453125 383.355469 196.8125 384.90625 C 198.167969 386.460938 199.558594 387.984375 200.976562 389.480469 C 202.394531 390.976562 203.84375 392.445312 205.324219 393.882812 C 206.800781 395.320312 208.308594 396.726562 209.84375 398.105469 C 211.378906 399.484375 212.941406 400.828125 214.53125 402.140625 C 216.121094 403.457031 217.738281 404.738281 219.378906 405.984375 C 221.019531 407.234375 222.6875 408.449219 224.378906 409.632812 C 226.070312 410.8125 227.78125 411.960938 229.519531 413.070312 C 231.257812 414.183594 233.015625 415.261719 234.796875 416.300781 C 236.574219 417.34375 238.375 418.347656 240.199219 419.316406 C 242.019531 420.285156 243.859375 421.214844 245.71875 422.109375 C 247.578125 423.003906 249.453125 423.859375 251.34375 424.679688 C 253.238281 425.496094 255.148438 426.277344 257.074219 427.019531 C 258.996094 427.761719 260.9375 428.460938 262.890625 429.125 C 264.84375 429.789062 266.808594 430.410156 268.785156 430.996094 C 270.765625 431.578125 272.753906 432.121094 274.753906 432.625 C 276.753906 433.128906 278.765625 433.589844 280.78125 434.011719 C 282.800781 434.433594 284.828125 434.816406 286.863281 435.15625 C 288.898438 435.496094 290.9375 435.796875 292.984375 436.054688 C 295.03125 436.3125 297.082031 436.527344 299.136719 436.703125 C 301.191406 436.878906 303.25 437.011719 305.308594 437.101562 C 307.371094 437.195312 309.433594 437.242188 311.496094 437.253906 C 313.558594 437.261719 315.617188 437.226562 317.679688 437.152344 C 319.742188 437.078125 321.800781 436.960938 323.855469 436.804688 C 325.914062 436.644531 327.964844 436.445312 330.015625 436.207031 C 332.0625 435.964844 334.105469 435.683594 336.140625 435.359375 C 338.179688 435.035156 340.207031 434.671875 342.230469 434.265625 C 344.253906 433.863281 346.265625 433.414062 348.269531 432.929688 C 350.277344 432.441406 352.269531 431.914062 354.253906 431.347656 C 356.234375 430.78125 358.207031 430.175781 360.164062 429.527344 C 362.125 428.878906 364.066406 428.195312 366 427.46875 C 367.929688 426.742188 369.84375 425.980469 371.746094 425.175781 C 373.644531 424.375 375.527344 423.535156 377.394531 422.65625 C 379.261719 421.777344 381.109375 420.859375 382.9375 419.90625 C 384.765625 418.953125 386.574219 417.964844 388.363281 416.9375 C 390.152344 415.910156 391.921875 414.847656 393.667969 413.75 C 395.414062 412.652344 397.136719 411.519531 398.835938 410.351562 C 400.535156 409.1875 402.210938 407.984375 403.863281 406.75 C 405.515625 405.515625 407.140625 404.246094 408.742188 402.945312 C 410.34375 401.644531 411.917969 400.3125 413.464844 398.949219 C 415.011719 397.582031 416.53125 396.1875 418.019531 394.761719 C 419.511719 393.335938 420.972656 391.882812 422.402344 390.394531 C 423.835938 388.910156 425.234375 387.398438 426.605469 385.855469 C 427.976562 384.316406 429.316406 382.746094 430.625 381.152344 C 431.929688 379.558594 433.203125 377.9375 434.445312 376.289062 C 435.6875 374.640625 436.894531 372.96875 438.070312 371.273438 C 439.246094 369.578125 440.382812 367.859375 441.488281 366.117188 C 442.59375 364.378906 443.664062 362.613281 444.695312 360.828125 C 445.730469 359.042969 446.726562 357.238281 447.6875 355.414062 C 448.648438 353.589844 449.570312 351.746094 450.457031 349.882812 C 451.34375 348.019531 452.191406 346.140625 453.003906 344.242188 C 453.8125 342.347656 454.585938 340.433594 455.316406 338.507812 C 456.050781 336.578125 456.746094 334.636719 457.398438 332.679688 C 458.054688 330.726562 458.667969 328.757812 459.242188 326.777344 C 459.820312 324.792969 460.355469 322.804688 460.847656 320.800781 C 461.34375 318.796875 461.796875 316.785156 462.210938 314.765625 C 462.625 312.746094 462.996094 310.71875 463.328125 308.679688 C 463.660156 306.644531 463.949219 304.605469 464.199219 302.558594 C 464.449219 300.507812 464.65625 298.457031 464.820312 296.402344 C 464.988281 294.347656 465.113281 292.289062 465.195312 290.226562 C 465.277344 288.164062 465.320312 286.105469 465.320312 284.042969 C 465.320312 281.148438 465.230469 278.273438 465.074219 275.425781 Z M 465.074219 275.425781 " fill-opacity="1" fill-rule="nonzero"/><path fill="#32620e" d="M 252.34375 252.0625 L 337.003906 326.136719 L 450.730469 218.730469 C 449.746094 216.648438 448.714844 214.585938 447.640625 212.550781 C 446.5625 210.511719 445.441406 208.5 444.277344 206.515625 C 443.109375 204.527344 441.898438 202.570312 440.640625 200.636719 C 439.386719 198.707031 438.089844 196.804688 436.746094 194.929688 C 435.40625 193.058594 434.023438 191.214844 432.601562 189.40625 C 431.175781 187.59375 429.710938 185.816406 428.207031 184.074219 C 426.703125 182.328125 425.160156 180.617188 423.578125 178.941406 C 421.996094 177.265625 420.378906 175.628906 418.722656 174.027344 C 417.066406 172.425781 415.378906 170.859375 413.652344 169.335938 C 411.925781 167.808594 410.164062 166.324219 408.371094 164.875 C 406.578125 163.429688 404.753906 162.023438 402.898438 160.660156 C 401.042969 159.296875 399.15625 157.972656 397.242188 156.695312 C 395.324219 155.414062 393.378906 154.179688 391.410156 152.988281 C 389.4375 151.796875 387.441406 150.652344 385.417969 149.550781 C 383.394531 148.449219 381.347656 147.394531 379.273438 146.382812 C 377.203125 145.375 375.109375 144.414062 372.996094 143.5 C 370.882812 142.582031 368.75 141.71875 366.59375 140.898438 C 364.441406 140.082031 362.269531 139.3125 360.082031 138.589844 C 357.894531 137.871094 355.691406 137.199219 353.472656 136.578125 C 351.253906 135.957031 349.023438 135.386719 346.777344 134.867188 C 344.535156 134.34375 342.28125 133.875 340.015625 133.457031 C 337.75 133.039062 335.476562 132.671875 333.195312 132.355469 C 330.914062 132.039062 328.625 131.773438 326.332031 131.5625 C 324.035156 131.347656 321.738281 131.1875 319.4375 131.078125 C 317.136719 130.96875 314.835938 130.910156 312.53125 130.90625 C 310.226562 130.898438 307.925781 130.945312 305.621094 131.042969 C 303.320312 131.140625 301.023438 131.292969 298.726562 131.492188 C 296.433594 131.695312 294.144531 131.949219 291.859375 132.253906 C 289.578125 132.558594 287.300781 132.917969 285.035156 133.324219 C 282.765625 133.730469 280.511719 134.191406 278.261719 134.699219 C 276.015625 135.210938 273.78125 135.769531 271.5625 136.382812 C 269.339844 136.992188 267.132812 137.652344 264.941406 138.363281 C 262.75 139.070312 260.574219 139.832031 258.417969 140.636719 C 256.261719 141.445312 254.125 142.300781 252.003906 143.207031 C 249.886719 144.113281 247.789062 145.0625 245.710938 146.0625 C 243.636719 147.0625 241.585938 148.105469 239.554688 149.199219 C 237.527344 150.289062 235.523438 151.425781 233.546875 152.609375 C 231.570312 153.789062 229.621094 155.015625 227.699219 156.285156 C 225.777344 157.554688 223.882812 158.867188 222.019531 160.222656 C 220.15625 161.578125 218.324219 162.976562 216.527344 164.414062 C 214.726562 165.851562 212.960938 167.328125 211.226562 168.847656 C 209.492188 170.363281 207.792969 171.921875 206.132812 173.515625 C 204.46875 175.109375 202.84375 176.738281 201.253906 178.40625 C 199.664062 180.074219 198.113281 181.777344 196.597656 183.515625 C 195.085938 185.253906 193.613281 187.023438 192.179688 188.828125 C 190.75 190.628906 189.355469 192.464844 188.007812 194.332031 C 186.65625 196.199219 185.347656 198.09375 184.085938 200.019531 C 182.820312 201.945312 181.601562 203.898438 180.421875 205.878906 C 179.246094 207.859375 178.117188 209.867188 177.03125 211.898438 C 175.945312 213.929688 174.902344 215.984375 173.910156 218.0625 C 172.917969 220.144531 171.972656 222.242188 171.074219 224.363281 C 170.175781 226.484375 169.324219 228.625 168.523438 230.785156 C 167.71875 232.945312 166.96875 235.121094 166.261719 237.316406 C 165.558594 239.507812 164.90625 241.714844 164.300781 243.941406 C 163.695312 246.164062 163.144531 248.398438 162.640625 250.648438 C 162.136719 252.894531 161.683594 255.152344 161.28125 257.421875 C 160.878906 259.691406 160.53125 261.964844 160.230469 264.25 C 159.933594 266.535156 159.6875 268.824219 159.488281 271.121094 C 159.292969 273.414062 159.152344 275.714844 159.058594 278.015625 C 158.96875 280.316406 158.925781 282.621094 158.9375 284.925781 C 158.949219 287.226562 159.015625 289.53125 159.128906 291.832031 C 159.246094 294.132812 159.414062 296.429688 159.632812 298.722656 C 159.851562 301.015625 160.125 303.300781 160.445312 305.582031 C 160.769531 307.863281 161.140625 310.136719 161.566406 312.402344 L 216.96875 253.738281 C 217.53125 253.148438 218.117188 252.582031 218.734375 252.046875 C 219.347656 251.507812 219.984375 251.003906 220.648438 250.527344 C 221.3125 250.050781 221.996094 249.609375 222.703125 249.199219 C 223.40625 248.789062 224.128906 248.414062 224.871094 248.074219 C 225.613281 247.730469 226.371094 247.425781 227.140625 247.160156 C 227.910156 246.890625 228.691406 246.660156 229.484375 246.46875 C 230.277344 246.273438 231.078125 246.121094 231.886719 246.003906 C 232.691406 245.886719 233.503906 245.808594 234.320312 245.769531 C 235.132812 245.730469 235.949219 245.730469 236.765625 245.773438 C 237.578125 245.8125 238.390625 245.890625 239.199219 246.007812 C 240.003906 246.125 240.804688 246.28125 241.597656 246.472656 C 242.390625 246.667969 243.171875 246.898438 243.941406 247.167969 C 244.710938 247.4375 245.46875 247.742188 246.210938 248.082031 C 246.949219 248.425781 247.671875 248.800781 248.378906 249.210938 C 249.082031 249.621094 249.765625 250.066406 250.429688 250.539062 C 251.09375 251.015625 251.730469 251.523438 252.34375 252.0625 Z M 252.34375 252.0625 " fill-opacity="1" fill-rule="nonzero"/><g clip-path="url(#f9300da03f)"><path fill="#32620e" d="M 784.46875 54.253906 L 656.808594 54.253906 L 656.808594 105.316406 L 722.828125 105.316406 L 644.042969 184.105469 L 585.5 125.5625 C 584.917969 124.984375 584.3125 124.429688 583.679688 123.910156 C 583.042969 123.386719 582.386719 122.898438 581.707031 122.4375 C 581.023438 121.980469 580.324219 121.554688 579.601562 121.164062 C 578.878906 120.773438 578.140625 120.417969 577.382812 120.097656 C 576.628906 119.777344 575.859375 119.496094 575.074219 119.25 C 574.292969 119.003906 573.496094 118.796875 572.695312 118.628906 C 571.890625 118.460938 571.082031 118.332031 570.265625 118.242188 C 569.449219 118.148438 568.632812 118.097656 567.808594 118.085938 C 566.988281 118.074219 566.167969 118.101562 565.351562 118.171875 C 564.535156 118.238281 563.71875 118.34375 562.914062 118.488281 C 562.105469 118.636719 561.304688 118.820312 560.515625 119.042969 C 559.726562 119.265625 558.945312 119.527344 558.183594 119.824219 C 557.417969 120.121094 556.667969 120.457031 555.933594 120.824219 C 555.203125 121.195312 554.488281 121.601562 553.796875 122.039062 C 553.101562 122.476562 552.429688 122.949219 551.78125 123.453125 C 551.132812 123.957031 550.511719 124.492188 549.914062 125.054688 L 508.246094 164.410156 C 505.695312 160.226562 503.011719 156.132812 500.199219 152.121094 C 497.386719 148.113281 494.449219 144.195312 491.386719 140.371094 C 488.320312 136.550781 485.140625 132.828125 481.839844 129.210938 C 478.539062 125.589844 475.125 122.082031 471.597656 118.679688 C 468.074219 115.28125 464.441406 111.996094 460.707031 108.828125 C 456.972656 105.65625 453.140625 102.613281 449.210938 99.6875 C 445.277344 96.765625 441.257812 93.96875 437.152344 91.300781 C 433.042969 88.636719 428.851562 86.101562 424.582031 83.703125 C 420.308594 81.304688 415.96875 79.046875 411.550781 76.925781 C 407.136719 74.804688 402.65625 72.824219 398.117188 70.988281 C 393.574219 69.15625 388.980469 67.46875 384.328125 65.925781 C 379.679688 64.386719 374.984375 62.992188 370.246094 61.753906 C 365.507812 60.511719 360.734375 59.421875 355.925781 58.488281 C 351.117188 57.550781 346.285156 56.769531 341.425781 56.144531 C 336.570312 55.515625 331.695312 55.046875 326.808594 54.730469 C 321.917969 54.414062 317.027344 54.257812 312.128906 54.253906 C 185.425781 54.253906 82.339844 157.339844 82.339844 284.042969 C 82.324219 299.859375 83.933594 315.511719 87.171875 330.996094 C 90.40625 346.480469 95.199219 361.46875 101.546875 375.957031 L -0.0507812 483.53125 L 37.074219 518.59375 L 128.398438 421.890625 C 130.695312 424.960938 133.070312 427.96875 135.515625 430.917969 C 137.964844 433.867188 140.484375 436.753906 143.078125 439.574219 C 145.671875 442.398438 148.332031 445.15625 151.0625 447.84375 C 153.792969 450.535156 156.589844 453.152344 159.449219 455.703125 C 162.3125 458.253906 165.234375 460.726562 168.222656 463.132812 C 171.207031 465.535156 174.253906 467.859375 177.355469 470.113281 C 180.457031 472.363281 183.613281 474.53125 186.824219 476.625 C 190.035156 478.71875 193.296875 480.726562 196.609375 482.65625 C 199.921875 484.585938 203.28125 486.429688 206.683594 488.191406 C 210.089844 489.949219 213.535156 491.625 217.023438 493.210938 C 220.511719 494.800781 224.039062 496.300781 227.601562 497.710938 C 231.164062 499.121094 234.761719 500.441406 238.390625 501.671875 C 242.023438 502.902344 245.679688 504.042969 249.367188 505.089844 C 253.054688 506.136719 256.765625 507.09375 260.5 507.953125 C 264.234375 508.816406 267.988281 509.582031 271.761719 510.257812 C 275.535156 510.929688 279.320312 511.507812 283.125 511.992188 C 286.925781 512.476562 290.738281 512.863281 294.558594 513.15625 C 298.378906 513.449219 302.207031 513.644531 306.039062 513.746094 C 309.871094 513.847656 313.699219 513.851562 317.53125 513.761719 C 321.363281 513.667969 325.191406 513.480469 329.011719 513.199219 C 332.835938 512.917969 336.648438 512.539062 340.453125 512.0625 C 344.253906 511.589844 348.042969 511.019531 351.820312 510.355469 C 355.59375 509.691406 359.347656 508.933594 363.085938 508.082031 C 366.824219 507.230469 370.535156 506.285156 374.226562 505.246094 C 377.914062 504.210938 381.574219 503.078125 385.207031 501.859375 C 388.839844 500.636719 392.441406 499.324219 396.007812 497.921875 C 399.574219 496.519531 403.105469 495.03125 406.597656 493.449219 C 410.089844 491.871094 413.539062 490.207031 416.949219 488.453125 C 420.359375 486.703125 423.722656 484.867188 427.039062 482.945312 C 430.355469 481.027344 433.621094 479.023438 436.835938 476.9375 C 440.054688 474.855469 443.214844 472.691406 446.324219 470.449219 C 449.433594 468.207031 452.484375 465.886719 455.476562 463.492188 L 529.039062 537.054688 C 529.78125 536.210938 530.542969 535.378906 531.347656 534.574219 L 565.054688 500.859375 L 491.582031 427.390625 C 494.535156 423.699219 497.371094 419.925781 500.089844 416.0625 C 502.808594 412.199219 505.40625 408.253906 507.882812 404.230469 C 510.359375 400.207031 512.707031 396.113281 514.929688 391.945312 C 517.152344 387.773438 519.246094 383.542969 521.207031 379.242188 C 523.167969 374.945312 524.992188 370.589844 526.6875 366.179688 C 528.378906 361.769531 529.933594 357.3125 531.351562 352.804688 C 532.765625 348.296875 534.042969 343.753906 535.179688 339.167969 C 536.316406 334.582031 537.308594 329.964844 538.160156 325.316406 C 539.011719 320.671875 539.71875 316.003906 540.28125 311.3125 C 540.84375 306.621094 541.261719 301.917969 541.535156 297.199219 C 541.804688 292.484375 541.933594 287.765625 541.914062 283.039062 C 541.894531 278.316406 541.730469 273.597656 541.417969 268.882812 C 541.105469 264.167969 540.652344 259.46875 540.050781 254.785156 C 539.449219 250.097656 538.703125 245.433594 537.816406 240.792969 C 536.925781 236.15625 535.894531 231.546875 534.722656 226.972656 C 533.546875 222.394531 532.234375 217.859375 530.78125 213.363281 L 566.9375 179.214844 L 625.988281 238.257812 C 626.582031 238.847656 627.199219 239.410156 627.847656 239.941406 C 628.492188 240.46875 629.164062 240.96875 629.859375 241.433594 C 630.554688 241.898438 631.269531 242.328125 632.007812 242.71875 C 632.746094 243.113281 633.5 243.472656 634.273438 243.792969 C 635.046875 244.113281 635.832031 244.394531 636.632812 244.636719 C 637.429688 244.878906 638.242188 245.082031 639.0625 245.246094 C 639.882812 245.40625 640.707031 245.53125 641.539062 245.613281 C 642.371094 245.695312 643.207031 245.734375 644.042969 245.734375 C 644.878906 245.734375 645.710938 245.695312 646.542969 245.613281 C 647.375 245.53125 648.203125 245.40625 649.023438 245.246094 C 649.84375 245.082031 650.652344 244.878906 651.453125 244.636719 C 652.253906 244.394531 653.039062 244.113281 653.8125 243.792969 C 654.585938 243.472656 655.339844 243.113281 656.078125 242.71875 C 656.816406 242.328125 657.53125 241.898438 658.226562 241.433594 C 658.921875 240.96875 659.59375 240.46875 660.238281 239.941406 C 660.886719 239.410156 661.503906 238.847656 662.09375 238.257812 L 758.9375 141.425781 L 758.9375 207.445312 L 810 207.445312 L 810 79.785156 C 810 78.949219 809.957031 78.117188 809.878906 77.285156 C 809.796875 76.453125 809.671875 75.625 809.507812 74.804688 C 809.347656 73.984375 809.144531 73.175781 808.902344 72.375 C 808.65625 71.574219 808.375 70.789062 808.054688 70.015625 C 807.738281 69.242188 807.378906 68.488281 806.984375 67.75 C 806.589844 67.011719 806.160156 66.296875 805.695312 65.601562 C 805.234375 64.90625 804.734375 64.234375 804.203125 63.589844 C 803.675781 62.941406 803.113281 62.324219 802.523438 61.730469 C 801.929688 61.140625 801.3125 60.582031 800.664062 60.050781 C 800.019531 59.519531 799.347656 59.023438 798.652344 58.558594 C 797.957031 58.09375 797.242188 57.664062 796.503906 57.269531 C 795.765625 56.875 795.011719 56.519531 794.238281 56.199219 C 793.464844 55.878906 792.679688 55.597656 791.878906 55.355469 C 791.078125 55.109375 790.269531 54.90625 789.449219 54.746094 C 788.628906 54.582031 787.804688 54.460938 786.96875 54.378906 C 786.136719 54.296875 785.304688 54.253906 784.46875 54.253906 Z M 133.402344 284.042969 C 133.402344 281.117188 133.476562 278.191406 133.621094 275.273438 C 133.761719 272.351562 133.976562 269.433594 134.265625 266.523438 C 134.550781 263.613281 134.910156 260.710938 135.339844 257.816406 C 135.769531 254.925781 136.269531 252.042969 136.839844 249.175781 C 137.410156 246.304688 138.050781 243.453125 138.761719 240.613281 C 139.472656 237.777344 140.25 234.960938 141.101562 232.160156 C 141.949219 229.363281 142.867188 226.585938 143.851562 223.832031 C 144.835938 221.078125 145.890625 218.347656 147.007812 215.648438 C 148.128906 212.945312 149.3125 210.269531 150.5625 207.628906 C 151.8125 204.984375 153.128906 202.371094 154.507812 199.792969 C 155.886719 197.210938 157.328125 194.667969 158.832031 192.160156 C 160.335938 189.648438 161.898438 187.179688 163.523438 184.746094 C 165.148438 182.316406 166.832031 179.925781 168.574219 177.574219 C 170.316406 175.226562 172.117188 172.921875 173.972656 170.660156 C 175.828125 168.398438 177.738281 166.183594 179.703125 164.019531 C 181.667969 161.851562 183.683594 159.734375 185.75 157.664062 C 187.820312 155.597656 189.9375 153.582031 192.105469 151.617188 C 194.273438 149.652344 196.484375 147.742188 198.746094 145.886719 C 201.007812 144.03125 203.3125 142.230469 205.664062 140.488281 C 208.011719 138.746094 210.402344 137.0625 212.835938 135.4375 C 215.265625 133.8125 217.738281 132.25 220.246094 130.746094 C 222.753906 129.242188 225.296875 127.800781 227.878906 126.421875 C 230.457031 125.042969 233.070312 123.726562 235.714844 122.476562 C 238.359375 121.226562 241.03125 120.042969 243.734375 118.921875 C 246.433594 117.804688 249.164062 116.75 251.917969 115.765625 C 254.671875 114.78125 257.449219 113.863281 260.246094 113.015625 C 263.046875 112.164062 265.863281 111.386719 268.703125 110.675781 C 271.539062 109.964844 274.390625 109.324219 277.261719 108.753906 C 280.128906 108.179688 283.011719 107.679688 285.902344 107.253906 C 288.796875 106.824219 291.699219 106.464844 294.609375 106.179688 C 297.519531 105.890625 300.4375 105.675781 303.359375 105.535156 C 306.28125 105.390625 309.203125 105.316406 312.128906 105.316406 C 315.050781 105.316406 317.976562 105.390625 320.898438 105.535156 C 323.820312 105.675781 326.734375 105.890625 329.644531 106.179688 C 332.554688 106.464844 335.457031 106.824219 338.351562 107.253906 C 341.246094 107.679688 344.125 108.179688 346.996094 108.753906 C 349.863281 109.324219 352.714844 109.964844 355.554688 110.675781 C 358.390625 111.386719 361.210938 112.164062 364.007812 113.015625 C 366.808594 113.863281 369.582031 114.78125 372.335938 115.765625 C 375.089844 116.75 377.820312 117.804688 380.523438 118.921875 C 383.222656 120.042969 385.898438 121.226562 388.542969 122.476562 C 391.1875 123.726562 393.796875 125.042969 396.378906 126.421875 C 398.957031 127.800781 401.5 129.242188 404.011719 130.746094 C 406.519531 132.25 408.988281 133.8125 411.421875 135.4375 C 413.851562 137.0625 416.242188 138.746094 418.59375 140.488281 C 420.941406 142.230469 423.246094 144.03125 425.507812 145.886719 C 427.769531 147.742188 429.984375 149.652344 432.152344 151.617188 C 434.316406 153.582031 436.4375 155.597656 438.503906 157.664062 C 440.574219 159.734375 442.589844 161.851562 444.554688 164.019531 C 446.515625 166.183594 448.425781 168.398438 450.28125 170.660156 C 452.136719 172.921875 453.9375 175.226562 455.679688 177.574219 C 457.421875 179.925781 459.105469 182.316406 460.730469 184.746094 C 462.355469 187.179688 463.921875 189.648438 465.421875 192.160156 C 466.925781 194.667969 468.367188 197.210938 469.746094 199.792969 C 471.125 202.371094 472.441406 204.984375 473.691406 207.628906 C 474.941406 210.269531 476.128906 212.945312 477.246094 215.648438 C 478.367188 218.347656 479.417969 221.078125 480.402344 223.832031 C 481.390625 226.585938 482.304688 229.363281 483.15625 232.160156 C 484.003906 234.960938 484.785156 237.777344 485.496094 240.613281 C 486.207031 243.453125 486.847656 246.304688 487.417969 249.175781 C 487.988281 252.042969 488.488281 254.925781 488.917969 257.816406 C 489.347656 260.710938 489.703125 263.613281 489.992188 266.523438 C 490.277344 269.433594 490.492188 272.351562 490.636719 275.273438 C 490.777344 278.191406 490.851562 281.117188 490.851562 284.042969 C 490.851562 286.964844 490.777344 289.890625 490.636719 292.8125 C 490.492188 295.730469 490.277344 298.648438 489.992188 301.558594 C 489.703125 304.46875 489.347656 307.371094 488.917969 310.265625 C 488.488281 313.160156 487.988281 316.039062 487.417969 318.910156 C 486.847656 321.777344 486.207031 324.628906 485.496094 327.46875 C 484.785156 330.304688 484.003906 333.125 483.15625 335.921875 C 482.304688 338.722656 481.390625 341.496094 480.402344 344.25 C 479.417969 347.003906 478.367188 349.734375 477.246094 352.4375 C 476.128906 355.136719 474.941406 357.8125 473.691406 360.457031 C 472.441406 363.097656 471.125 365.710938 469.746094 368.289062 C 468.367188 370.871094 466.925781 373.414062 465.421875 375.921875 C 463.921875 378.433594 462.355469 380.902344 460.730469 383.335938 C 459.105469 385.765625 457.421875 388.15625 455.679688 390.507812 C 453.9375 392.855469 452.136719 395.160156 450.28125 397.421875 C 448.425781 399.683594 446.515625 401.898438 444.554688 404.066406 C 442.589844 406.230469 440.574219 408.351562 438.503906 410.417969 C 436.4375 412.484375 434.316406 414.503906 432.152344 416.464844 C 429.984375 418.429688 427.769531 420.339844 425.507812 422.195312 C 423.246094 424.050781 420.941406 425.851562 418.59375 427.59375 C 416.242188 429.335938 413.851562 431.019531 411.421875 432.644531 C 408.988281 434.269531 406.519531 435.832031 404.011719 437.335938 C 401.5 438.839844 398.957031 440.28125 396.378906 441.660156 C 393.796875 443.039062 391.1875 444.355469 388.542969 445.605469 C 385.898438 446.855469 383.222656 448.039062 380.523438 449.160156 C 377.820312 450.28125 375.089844 451.332031 372.335938 452.316406 C 369.582031 453.300781 366.808594 454.21875 364.007812 455.070312 C 361.210938 455.917969 358.390625 456.699219 355.554688 457.410156 C 352.714844 458.121094 349.863281 458.761719 346.996094 459.332031 C 344.125 459.902344 341.246094 460.402344 338.351562 460.832031 C 335.457031 461.257812 332.554688 461.617188 329.644531 461.902344 C 326.734375 462.191406 323.820312 462.40625 320.898438 462.550781 C 317.976562 462.691406 315.050781 462.765625 312.128906 462.765625 C 309.203125 462.761719 306.28125 462.6875 303.359375 462.539062 C 300.441406 462.394531 297.527344 462.175781 294.617188 461.886719 C 291.707031 461.597656 288.804688 461.234375 285.914062 460.804688 C 283.023438 460.371094 280.140625 459.871094 277.273438 459.296875 C 274.40625 458.722656 271.554688 458.082031 268.71875 457.367188 C 265.882812 456.65625 263.066406 455.875 260.269531 455.023438 C 257.472656 454.171875 254.695312 453.253906 251.945312 452.265625 C 249.191406 451.28125 246.464844 450.226562 243.765625 449.105469 C 241.0625 447.984375 238.390625 446.800781 235.75 445.546875 C 233.105469 444.296875 230.496094 442.980469 227.917969 441.601562 C 225.339844 440.222656 222.796875 438.78125 220.289062 437.277344 C 217.78125 435.773438 215.3125 434.207031 212.882812 432.582031 C 210.453125 430.957031 208.0625 429.273438 205.714844 427.53125 C 203.367188 425.789062 201.0625 423.988281 198.800781 422.132812 C 196.542969 420.277344 194.328125 418.371094 192.160156 416.40625 C 189.996094 414.441406 187.878906 412.425781 185.808594 410.359375 C 183.742188 408.292969 181.726562 406.175781 179.761719 404.007812 C 177.800781 401.839844 175.890625 399.628906 174.035156 397.367188 C 172.179688 395.109375 170.378906 392.804688 168.636719 390.457031 C 166.894531 388.105469 165.210938 385.71875 163.585938 383.285156 C 161.960938 380.855469 160.398438 378.386719 158.894531 375.878906 C 157.386719 373.371094 155.945312 370.828125 154.566406 368.25 C 153.1875 365.671875 151.871094 363.0625 150.621094 360.417969 C 149.371094 357.777344 148.183594 355.105469 147.0625 352.40625 C 145.941406 349.703125 144.890625 346.976562 143.902344 344.222656 C 142.914062 341.472656 141.996094 338.695312 141.144531 335.898438 C 140.292969 333.101562 139.511719 330.285156 138.800781 327.449219 C 138.085938 324.613281 137.445312 321.761719 136.871094 318.894531 C 136.300781 316.027344 135.796875 313.148438 135.363281 310.253906 C 134.933594 307.363281 134.574219 304.460938 134.28125 301.554688 C 133.992188 298.644531 133.777344 295.726562 133.628906 292.808594 C 133.484375 289.886719 133.40625 286.964844 133.402344 284.042969 Z M 133.402344 284.042969 " fill-opacity="1" fill-rule="nonzero"/></g></svg>