<svg xmlns="http://www.w3.org/2000/svg" xmlns:xlink="http://www.w3.org/1999/xlink" width="1080" zoomAndPan="magnify" viewBox="0 0 810 809.999993" height="1080" preserveAspectRatio="xMidYMid meet" version="1.0"><defs><clipPath id="8b685764b7"><path d="M 31.082031 115 L 585 115 L 585 786.972656 L 31.082031 786.972656 Z M 31.082031 115 " clip-rule="nonzero"/></clipPath><clipPath id="b9f11071ac"><path d="M 314 219 L 778.832031 219 L 778.832031 684 L 314 684 Z M 314 219 " clip-rule="nonzero"/></clipPath></defs><rect x="-81" width="972" fill="#ffffff" y="-80.999999" height="971.999992" fill-opacity="1"/><rect x="-81" width="972" fill="#ffffff" y="-80.999999" height="971.999992" fill-opacity="1"/><path fill="#252627" d="M 510.238281 734.742188 L 105.84375 734.742188 C 93.417969 734.742188 83.308594 724.632812 83.308594 712.207031 L 83.308594 190.234375 C 83.308594 177.808594 93.417969 167.699219 105.84375 167.699219 L 176.765625 167.699219 C 183.359375 167.699219 188.703125 173.039062 188.703125 179.628906 C 188.703125 186.226562 183.359375 191.570312 176.765625 191.570312 L 107.175781 191.570312 L 107.175781 710.871094 L 508.902344 710.871094 L 508.902344 669.898438 C 508.902344 663.300781 514.246094 657.960938 520.84375 657.960938 C 527.429688 657.960938 532.773438 663.300781 532.773438 669.898438 L 532.773438 712.207031 C 532.773438 724.632812 522.664062 734.742188 510.238281 734.742188 " fill-opacity="1" fill-rule="evenodd"/><path fill="#252627" d="M 520.84375 244.488281 C 514.253906 244.488281 508.910156 239.144531 508.910156 232.550781 L 508.910156 191.570312 L 439.324219 191.570312 C 432.730469 191.570312 427.386719 186.226562 427.386719 179.628906 C 427.386719 173.039062 432.730469 167.699219 439.324219 167.699219 L 510.238281 167.699219 C 522.671875 167.699219 532.78125 177.808594 532.78125 190.234375 L 532.78125 232.550781 C 532.78125 239.144531 527.441406 244.488281 520.84375 244.488281 Z M 510.238281 191.570312 L 510.246094 191.570312 L 510.238281 191.570312 " fill-opacity="1" fill-rule="evenodd"/><path fill="#252627" d="M 439.316406 215.105469 L 176.765625 215.105469 C 170.175781 215.105469 164.832031 209.765625 164.832031 203.167969 L 164.832031 108.300781 C 164.832031 88.925781 180.59375 73.164062 199.976562 73.164062 L 238.125 73.164062 C 244.714844 73.164062 250.058594 78.507812 250.058594 85.097656 C 250.058594 91.691406 244.714844 97.035156 238.125 97.035156 L 199.976562 97.035156 C 193.761719 97.035156 188.703125 102.085938 188.703125 108.300781 L 188.703125 191.238281 L 427.378906 191.238281 L 427.378906 108.300781 C 427.378906 102.085938 422.320312 97.035156 416.101562 97.035156 L 377.953125 97.035156 C 371.367188 97.035156 366.023438 91.691406 366.023438 85.097656 C 366.023438 78.507812 371.367188 73.164062 377.953125 73.164062 L 416.101562 73.164062 C 435.488281 73.164062 451.25 88.925781 451.25 108.300781 L 451.25 203.167969 C 451.25 209.765625 445.90625 215.105469 439.316406 215.105469 " fill-opacity="1" fill-rule="evenodd"/><g clip-path="url(#8b685764b7)"><path fill="#252627" d="M 551.859375 786.972656 L 64.222656 786.972656 C 45.945312 786.972656 31.082031 772.105469 31.082031 753.835938 L 31.082031 148.613281 C 31.082031 130.335938 45.945312 115.472656 64.222656 115.472656 L 176.765625 115.472656 C 183.351562 115.472656 188.695312 120.816406 188.695312 127.414062 C 188.695312 134.003906 183.351562 139.34375 176.765625 139.34375 L 64.222656 139.34375 C 59.113281 139.34375 54.953125 143.496094 54.953125 148.613281 L 54.953125 753.835938 C 54.953125 758.945312 59.113281 763.105469 64.222656 763.105469 L 551.859375 763.105469 C 556.96875 763.105469 561.128906 758.945312 561.128906 753.835938 L 561.128906 669.875 C 561.128906 663.277344 566.46875 657.933594 573.066406 657.933594 C 579.65625 657.933594 584.996094 663.277344 584.996094 669.875 L 584.996094 753.835938 C 584.996094 772.105469 570.136719 786.972656 551.859375 786.972656 " fill-opacity="1" fill-rule="evenodd"/></g><path fill="#252627" d="M 573.058594 244.511719 C 566.46875 244.511719 561.128906 239.171875 561.128906 232.574219 L 561.128906 148.613281 C 561.128906 143.503906 556.96875 139.34375 551.859375 139.34375 L 439.316406 139.34375 C 432.730469 139.34375 427.386719 134.003906 427.386719 127.414062 C 427.386719 120.816406 432.730469 115.472656 439.316406 115.472656 L 551.859375 115.472656 C 570.136719 115.472656 584.996094 130.335938 584.996094 148.613281 L 584.996094 232.574219 C 584.996094 239.171875 579.65625 244.511719 573.058594 244.511719 " fill-opacity="1" fill-rule="evenodd"/><path fill="#252627" d="M 377.953125 124.726562 L 238.125 124.726562 C 231.53125 124.726562 226.1875 119.382812 226.1875 112.785156 L 226.1875 44.980469 C 226.1875 32.921875 236.003906 23.101562 248.074219 23.101562 L 368.015625 23.101562 C 380.074219 23.101562 389.894531 32.921875 389.894531 44.980469 L 389.894531 112.785156 C 389.894531 119.382812 384.550781 124.726562 377.953125 124.726562 Z M 250.058594 100.855469 L 366.023438 100.855469 L 366.023438 46.972656 L 250.058594 46.972656 L 250.058594 100.855469 " fill-opacity="1" fill-rule="evenodd"/><path fill="#252627" d="M 375.777344 324.484375 L 265.945312 324.484375 C 259.347656 324.484375 254.007812 319.140625 254.007812 312.546875 C 254.007812 305.957031 259.347656 300.613281 265.945312 300.613281 L 375.777344 300.613281 C 382.367188 300.613281 387.707031 305.957031 387.707031 312.546875 C 387.707031 319.140625 382.367188 324.484375 375.777344 324.484375 " fill-opacity="1" fill-rule="evenodd"/><path fill="#252627" d="M 179.78125 334.058594 C 176.730469 334.058594 173.679688 332.894531 171.347656 330.5625 L 154.804688 314.027344 C 150.140625 309.363281 150.140625 301.8125 154.804688 297.148438 C 159.464844 292.488281 167.019531 292.488281 171.679688 297.140625 L 179.78125 305.246094 L 209.632812 275.390625 C 214.296875 270.730469 221.855469 270.730469 226.519531 275.390625 C 231.179688 280.046875 231.179688 287.605469 226.519531 292.269531 L 188.226562 330.5625 C 185.894531 332.894531 182.835938 334.058594 179.78125 334.058594 " fill-opacity="1" fill-rule="evenodd"/><path fill="#252627" d="M 329.550781 427.183594 L 265.945312 427.183594 C 259.347656 427.183594 254.007812 421.84375 254.007812 415.246094 C 254.007812 408.65625 259.347656 403.3125 265.945312 403.3125 L 329.550781 403.3125 C 336.148438 403.3125 341.488281 408.65625 341.488281 415.246094 C 341.488281 421.84375 336.148438 427.183594 329.550781 427.183594 " fill-opacity="1" fill-rule="evenodd"/><path fill="#252627" d="M 179.78125 436.757812 C 176.730469 436.757812 173.679688 435.59375 171.347656 433.261719 L 154.804688 416.726562 C 150.140625 412.0625 150.140625 404.503906 154.804688 399.851562 C 159.464844 395.1875 167.019531 395.1875 171.679688 399.84375 L 179.78125 407.945312 L 209.632812 378.085938 C 214.296875 373.429688 221.855469 373.429688 226.519531 378.085938 C 231.179688 382.746094 231.179688 390.308594 226.519531 394.96875 L 188.226562 433.261719 C 185.894531 435.59375 182.835938 436.757812 179.78125 436.757812 " fill-opacity="1" fill-rule="evenodd"/><path fill="#252627" d="M 336.933594 529.882812 L 265.945312 529.882812 C 259.347656 529.882812 254.007812 524.542969 254.007812 517.945312 C 254.007812 511.355469 259.347656 506.015625 265.945312 506.015625 L 336.933594 506.015625 C 343.53125 506.015625 348.871094 511.355469 348.871094 517.945312 C 348.871094 524.542969 343.53125 529.882812 336.933594 529.882812 " fill-opacity="1" fill-rule="evenodd"/><path fill="#252627" d="M 179.78125 539.460938 C 176.617188 539.460938 173.582031 538.207031 171.339844 535.964844 L 154.804688 519.425781 C 150.140625 514.765625 150.140625 507.203125 154.804688 502.550781 C 159.464844 497.886719 167.019531 497.886719 171.679688 502.550781 L 179.78125 510.644531 L 209.632812 480.792969 C 214.296875 476.128906 221.855469 476.128906 226.519531 480.785156 C 231.179688 485.445312 231.179688 493.007812 226.519531 497.667969 L 188.226562 535.964844 C 185.984375 538.207031 182.949219 539.460938 179.78125 539.460938 " fill-opacity="1" fill-rule="evenodd"/><path fill="#252627" d="M 406.171875 632.585938 L 265.945312 632.585938 C 259.347656 632.585938 254.007812 627.242188 254.007812 620.644531 C 254.007812 614.054688 259.347656 608.714844 265.945312 608.714844 L 406.171875 608.714844 C 412.761719 608.714844 418.101562 614.054688 418.101562 620.644531 C 418.101562 627.242188 412.761719 632.585938 406.171875 632.585938 " fill-opacity="1" fill-rule="evenodd"/><path fill="#252627" d="M 179.78125 642.160156 C 176.730469 642.160156 173.679688 640.992188 171.347656 638.664062 L 154.804688 622.132812 C 150.140625 617.472656 150.140625 609.914062 154.804688 605.25 C 159.464844 600.585938 167.019531 600.585938 171.679688 605.25 L 179.78125 613.34375 L 209.632812 583.484375 C 214.296875 578.832031 221.855469 578.820312 226.519531 583.484375 C 231.179688 588.148438 231.179688 595.707031 226.519531 600.367188 L 188.226562 638.664062 C 185.894531 640.992188 182.835938 642.160156 179.78125 642.160156 " fill-opacity="1" fill-rule="evenodd"/><g clip-path="url(#b9f11071ac)"><path fill="#252627" d="M 546.824219 683.351562 C 515.515625 683.351562 485.113281 677.207031 456.460938 665.089844 C 428.804688 653.394531 403.984375 636.664062 382.691406 615.367188 C 361.394531 594.070312 344.664062 569.253906 332.964844 541.597656 C 320.851562 512.941406 314.707031 482.53125 314.707031 451.222656 C 314.707031 419.921875 320.851562 389.511719 332.964844 360.859375 C 344.664062 333.203125 361.394531 308.382812 382.691406 287.089844 C 403.984375 265.792969 428.804688 249.0625 456.460938 237.367188 C 485.113281 225.25 515.523438 219.105469 546.824219 219.105469 C 578.132812 219.105469 608.542969 225.25 637.199219 237.367188 C 664.855469 249.0625 689.671875 265.792969 710.96875 287.089844 C 732.265625 308.382812 748.996094 333.203125 760.691406 360.851562 C 772.808594 389.511719 778.953125 419.921875 778.953125 451.222656 C 778.953125 482.539062 772.808594 512.941406 760.691406 541.597656 C 748.996094 569.246094 732.265625 594.070312 710.96875 615.367188 C 689.671875 636.664062 664.855469 653.394531 637.199219 665.089844 C 608.542969 677.207031 578.140625 683.351562 546.824219 683.351562 Z M 546.824219 242.976562 C 518.738281 242.976562 491.460938 248.488281 465.753906 259.351562 C 440.953125 269.847656 418.683594 284.855469 399.566406 303.972656 C 380.457031 323.082031 365.449219 345.351562 354.957031 370.152344 C 344.089844 395.851562 338.574219 423.128906 338.574219 451.222656 C 338.574219 479.328125 344.089844 506.597656 354.957031 532.296875 C 365.449219 557.105469 380.457031 579.371094 399.566406 598.484375 C 418.683594 617.601562 440.953125 632.609375 465.761719 643.105469 C 491.453125 653.96875 518.730469 659.480469 546.832031 659.480469 C 574.929688 659.480469 602.207031 653.96875 627.90625 643.097656 C 652.707031 632.609375 674.972656 617.601562 694.09375 598.484375 C 713.203125 579.371094 728.210938 557.105469 738.707031 532.296875 C 749.570312 506.605469 755.082031 479.328125 755.082031 451.222656 C 755.082031 423.128906 749.570312 395.851562 738.707031 370.152344 C 728.210938 345.351562 713.203125 323.082031 694.09375 303.972656 C 674.972656 284.855469 652.707031 269.847656 627.898438 259.351562 C 602.199219 248.488281 574.921875 242.976562 546.824219 242.976562 " fill-opacity="1" fill-rule="evenodd"/></g><path fill="#252627" d="M 546.824219 635.0625 C 522.015625 635.0625 497.945312 630.195312 475.273438 620.605469 C 453.378906 611.34375 433.714844 598.09375 416.839844 581.21875 C 399.964844 564.332031 386.703125 544.679688 377.445312 522.785156 C 367.851562 500.113281 362.996094 476.03125 362.996094 451.222656 C 362.996094 426.40625 367.851562 402.335938 377.445312 379.664062 C 386.703125 357.769531 399.964844 338.105469 416.839844 321.230469 C 433.714844 304.355469 453.378906 291.09375 475.273438 281.835938 C 497.945312 272.242188 522.015625 267.386719 546.824219 267.386719 C 571.640625 267.386719 595.714844 272.242188 618.394531 281.835938 C 640.28125 291.09375 659.941406 304.355469 676.820312 321.230469 C 693.703125 338.105469 706.953125 357.769531 716.214844 379.664062 C 725.804688 402.335938 730.660156 426.40625 730.660156 451.222656 C 730.660156 476.03125 725.804688 500.113281 716.214844 522.785156 C 706.953125 544.671875 693.703125 564.332031 676.820312 581.210938 C 659.941406 598.09375 640.28125 611.34375 618.394531 620.605469 C 595.714844 630.195312 571.640625 635.0625 546.824219 635.0625 Z M 546.824219 291.257812 C 458.621094 291.257812 386.867188 363.019531 386.867188 451.222656 C 386.867188 539.425781 458.621094 611.191406 546.824219 611.191406 C 635.035156 611.191406 706.792969 539.425781 706.792969 451.222656 C 706.792969 363.019531 635.035156 291.257812 546.824219 291.257812 " fill-opacity="1" fill-rule="evenodd"/><path fill="#252627" d="M 546.824219 315.402344 C 540.238281 315.402344 534.894531 310.058594 534.894531 303.464844 L 534.894531 279.328125 C 534.894531 272.730469 540.238281 267.386719 546.824219 267.386719 C 553.421875 267.386719 558.765625 272.730469 558.765625 279.328125 L 558.765625 303.464844 C 558.765625 310.058594 553.421875 315.402344 546.824219 315.402344 " fill-opacity="1" fill-rule="evenodd"/><path fill="#252627" d="M 472.957031 335.183594 C 468.835938 335.183594 464.824219 333.039062 462.613281 329.210938 L 450.535156 308.304688 C 447.242188 302.597656 449.199219 295.296875 454.90625 292.003906 C 460.613281 288.707031 467.914062 290.660156 471.207031 296.371094 L 483.285156 317.273438 C 486.578125 322.988281 484.628906 330.28125 478.914062 333.582031 C 477.035156 334.667969 474.988281 335.183594 472.957031 335.183594 " fill-opacity="1" fill-rule="evenodd"/><path fill="#252627" d="M 418.847656 389.253906 C 416.824219 389.253906 414.765625 388.738281 412.890625 387.652344 L 391.972656 375.574219 C 386.265625 372.28125 384.316406 364.980469 387.609375 359.273438 C 390.90625 353.566406 398.207031 351.609375 403.914062 354.910156 L 424.828125 366.980469 C 430.535156 370.28125 432.492188 377.574219 429.191406 383.28125 C 426.980469 387.117188 422.96875 389.253906 418.847656 389.253906 " fill-opacity="1" fill-rule="evenodd"/><path fill="#252627" d="M 399.039062 463.128906 L 374.902344 463.128906 C 368.304688 463.128906 362.964844 457.789062 362.964844 451.191406 C 362.964844 444.601562 368.304688 439.261719 374.902344 439.261719 L 399.039062 439.261719 C 405.636719 439.261719 410.980469 444.601562 410.980469 451.191406 C 410.980469 457.789062 405.636719 463.128906 399.039062 463.128906 " fill-opacity="1" fill-rule="evenodd"/><path fill="#252627" d="M 397.921875 549.082031 C 393.804688 549.082031 389.789062 546.9375 387.578125 543.109375 C 384.285156 537.402344 386.234375 530.101562 391.949219 526.808594 L 412.855469 514.738281 C 418.5625 511.445312 425.863281 513.394531 429.160156 519.101562 C 432.453125 524.816406 430.496094 532.117188 424.789062 535.414062 L 403.878906 547.480469 C 402.003906 548.566406 399.953125 549.082031 397.921875 549.082031 " fill-opacity="1" fill-rule="evenodd"/><path fill="#252627" d="M 460.808594 612.015625 C 458.785156 612.015625 456.726562 611.5 454.851562 610.414062 C 449.144531 607.121094 447.183594 599.820312 450.480469 594.113281 L 462.554688 573.195312 C 465.851562 567.488281 473.160156 565.53125 478.867188 568.824219 C 484.570312 572.128906 486.53125 579.429688 483.230469 585.136719 L 471.160156 606.042969 C 468.941406 609.871094 464.9375 612.015625 460.808594 612.015625 " fill-opacity="1" fill-rule="evenodd"/><path fill="#252627" d="M 546.769531 635.0625 C 540.179688 635.0625 534.835938 629.71875 534.835938 623.121094 L 534.835938 598.976562 C 534.835938 592.386719 540.179688 587.046875 546.769531 587.046875 C 553.367188 587.046875 558.707031 592.386719 558.707031 598.976562 L 558.707031 623.121094 C 558.707031 629.71875 553.367188 635.0625 546.769531 635.0625 " fill-opacity="1" fill-rule="evenodd"/><path fill="#252627" d="M 632.730469 612.050781 C 628.601562 612.050781 624.59375 609.902344 622.386719 606.074219 L 610.316406 585.160156 C 607.015625 579.453125 608.972656 572.152344 614.6875 568.859375 C 620.394531 565.5625 627.695312 567.523438 630.988281 573.230469 L 643.058594 594.144531 C 646.351562 599.851562 644.394531 607.152344 638.6875 610.445312 C 636.808594 611.53125 634.753906 612.050781 632.730469 612.050781 " fill-opacity="1" fill-rule="evenodd"/><path fill="#252627" d="M 695.644531 549.132812 C 693.613281 549.132812 691.566406 548.621094 689.6875 547.539062 L 668.773438 535.460938 C 663.066406 532.175781 661.109375 524.875 664.402344 519.160156 C 667.703125 513.453125 675.007812 511.492188 680.710938 514.789062 L 701.621094 526.855469 C 707.328125 530.160156 709.285156 537.453125 705.992188 543.167969 C 703.78125 546.996094 699.765625 549.132812 695.644531 549.132812 " fill-opacity="1" fill-rule="evenodd"/><path fill="#252627" d="M 718.699219 463.1875 L 694.554688 463.1875 C 687.964844 463.1875 682.621094 457.84375 682.621094 451.25 C 682.621094 444.660156 687.964844 439.316406 694.554688 439.316406 L 718.699219 439.316406 C 725.296875 439.316406 730.636719 444.660156 730.636719 451.25 C 730.636719 457.84375 725.296875 463.1875 718.699219 463.1875 " fill-opacity="1" fill-rule="evenodd"/><path fill="#252627" d="M 674.78125 389.3125 C 670.660156 389.3125 666.644531 387.167969 664.433594 383.335938 C 661.140625 377.632812 663.097656 370.332031 668.804688 367.035156 L 689.714844 354.960938 C 695.417969 351.664062 702.71875 353.625 706.023438 359.328125 C 709.316406 365.035156 707.359375 372.335938 701.652344 375.632812 L 680.738281 387.707031 C 678.859375 388.792969 676.8125 389.3125 674.78125 389.3125 " fill-opacity="1" fill-rule="evenodd"/><path fill="#252627" d="M 620.695312 335.21875 C 618.667969 335.21875 616.621094 334.699219 614.734375 333.613281 C 609.03125 330.320312 607.070312 323.019531 610.363281 317.3125 L 622.441406 296.40625 C 625.734375 290.691406 633.027344 288.730469 638.742188 292.027344 C 644.449219 295.320312 646.410156 302.621094 643.113281 308.335938 L 631.039062 329.242188 C 628.835938 333.070312 624.820312 335.21875 620.695312 335.21875 " fill-opacity="1" fill-rule="evenodd"/><path fill="#252627" d="M 546.824219 484.257812 C 528.71875 484.257812 513.988281 469.523438 513.988281 451.417969 C 513.988281 433.3125 528.71875 418.570312 546.824219 418.570312 C 564.941406 418.570312 579.671875 433.3125 579.671875 451.417969 C 579.671875 469.523438 564.941406 484.257812 546.824219 484.257812 Z M 546.824219 442.441406 C 541.878906 442.441406 537.855469 446.472656 537.855469 451.417969 C 537.855469 456.363281 541.878906 460.386719 546.824219 460.386719 C 551.777344 460.386719 555.800781 456.363281 555.800781 451.417969 C 555.800781 446.472656 551.777344 442.441406 546.824219 442.441406 " fill-opacity="1" fill-rule="evenodd"/><path fill="#252627" d="M 561.597656 448.585938 C 558.539062 448.585938 555.484375 447.417969 553.15625 445.089844 C 548.492188 440.433594 548.492188 432.875 553.148438 428.210938 L 597.753906 383.574219 C 602.417969 378.902344 609.96875 378.902344 614.628906 383.554688 C 619.292969 388.21875 619.300781 395.777344 614.640625 400.441406 L 570.039062 445.082031 C 567.707031 447.410156 564.648438 448.585938 561.597656 448.585938 " fill-opacity="1" fill-rule="evenodd"/><path fill="#252627" d="M 606.210938 522.746094 C 603.152344 522.746094 600.101562 521.578125 597.769531 519.257812 L 553.128906 474.65625 C 548.46875 469.996094 548.460938 462.441406 553.121094 457.773438 C 557.777344 453.109375 565.335938 453.109375 570 457.765625 L 614.640625 502.363281 C 619.308594 507.027344 619.308594 514.585938 614.65625 519.25 C 612.324219 521.578125 609.265625 522.746094 606.210938 522.746094 " fill-opacity="1" fill-rule="evenodd"/></svg>