<svg xmlns="http://www.w3.org/2000/svg" xmlns:xlink="http://www.w3.org/1999/xlink" width="1080" zoomAndPan="magnify" viewBox="0 0 810 809.999993" height="1080" preserveAspectRatio="xMidYMid meet" version="1.0"><defs><clipPath id="a18823f1ef"><path d="M 0 176 L 690 176 L 690 785.304688 L 0 785.304688 Z M 0 176 " clip-rule="nonzero"/></clipPath><clipPath id="a4d1a38c51"><path d="M 46 24.804688 L 232 24.804688 L 232 210 L 46 210 Z M 46 24.804688 " clip-rule="nonzero"/></clipPath></defs><path fill="#252627" d="M 484.230469 336.628906 L 459.136719 325.566406 L 569.679688 74.9375 C 570.464844 73.140625 570.878906 71.300781 570.878906 69.417969 C 570.878906 61.847656 564.734375 55.703125 557.160156 55.703125 C 551.757812 55.703125 546.839844 58.925781 544.628906 63.917969 L 441.285156 298.148438 L 416.191406 287.082031 L 519.550781 52.835938 C 526.152344 37.910156 540.90625 28.285156 557.160156 28.285156 C 579.847656 28.285156 598.296875 46.734375 598.296875 69.417969 C 598.296875 75.136719 597.097656 80.726562 594.761719 86.015625 L 484.230469 336.617188 Z M 484.230469 336.628906 " fill-opacity="1" fill-rule="nonzero"/><path fill="#252627" d="M 325.410156 599.550781 L 312.238281 522.742188 L 346.796875 444.421875 L 371.878906 455.472656 L 340.652344 526.25 L 345.085938 552.097656 L 365.621094 537.597656 L 425.832031 401.0625 L 450.925781 412.125 L 387.632812 555.621094 Z M 325.410156 599.550781 " fill-opacity="1" fill-rule="nonzero"/><path fill="#252627" d="M 344.675781 467.007812 C 318.226562 467.007812 296.695312 445.476562 296.695312 419.027344 L 296.695312 336.773438 C 296.695312 327.347656 299.449219 318.207031 304.679688 310.324219 L 378.664062 196.585938 C 391.355469 177.054688 412.84375 165.40625 436.125 165.40625 L 478.84375 165.40625 L 478.84375 192.824219 L 436.125 192.824219 C 422.152344 192.824219 409.261719 199.808594 401.636719 211.53125 L 327.59375 325.351562 C 325.296875 328.832031 324.113281 332.753906 324.113281 336.773438 L 324.113281 419.027344 C 324.113281 430.363281 333.339844 439.585938 344.675781 439.585938 C 356.007812 439.585938 365.234375 430.363281 365.234375 419.027344 L 365.234375 323.054688 L 392.652344 323.054688 L 392.652344 419.027344 C 392.652344 445.476562 371.121094 467.007812 344.675781 467.007812 Z M 344.675781 467.007812 " fill-opacity="1" fill-rule="nonzero"/><path fill="#252627" d="M 792.519531 430.164062 L 739.238281 394.632812 L 620.96875 217.234375 C 610.757812 201.949219 593.707031 192.808594 575.339844 192.808594 L 538.742188 192.808594 L 538.742188 165.390625 L 575.339844 165.390625 C 602.886719 165.390625 628.480469 179.09375 643.78125 202.019531 L 759 374.871094 L 807.734375 407.351562 Z M 792.519531 430.164062 " fill-opacity="1" fill-rule="nonzero"/><path fill="#252627" d="M 789.3125 580.484375 C 788.144531 579.261719 759.128906 549.261719 707.984375 549.261719 C 689.648438 549.261719 681.09375 552.113281 671.199219 555.40625 C 660.5625 558.957031 648.511719 562.976562 625.730469 562.976562 C 578.09375 562.976562 533.28125 541.976562 502.78125 505.359375 L 376.371094 353.554688 C 369.082031 344.730469 365.25 334.207031 365.25 323.070312 C 365.25 296.621094 386.777344 275.09375 413.226562 275.09375 C 426.246094 275.09375 438.105469 280.109375 447.546875 289.605469 L 561.382812 396.398438 L 542.617188 416.402344 L 428.441406 309.269531 C 423.734375 304.550781 419.015625 302.511719 413.226562 302.511719 C 401.890625 302.511719 392.667969 311.734375 392.667969 323.070312 C 392.667969 328.988281 395.277344 333.394531 397.472656 336.058594 L 523.855469 487.835938 C 549.121094 518.179688 586.261719 535.574219 625.730469 535.574219 C 644.066406 535.574219 652.621094 532.722656 662.515625 529.429688 C 673.152344 525.878906 685.199219 521.855469 707.984375 521.855469 C 771.488281 521.855469 807.875 560.183594 809.402344 561.808594 L 789.3125 580.5 Z M 789.3125 580.484375 " fill-opacity="1" fill-rule="nonzero"/><path fill="#252627" d="M 468.0625 521.84375 C 451.964844 521.84375 437.039062 513.828125 428.125 500.425781 L 404.53125 465.09375 L 427.34375 449.855469 L 450.941406 485.214844 C 454.773438 491.003906 461.164062 494.425781 468.050781 494.425781 C 477.53125 494.425781 485.730469 488.007812 488.011719 478.839844 L 514.628906 485.457031 C 509.296875 506.871094 490.164062 521.84375 468.050781 521.84375 Z M 468.0625 521.84375 " fill-opacity="1" fill-rule="nonzero"/><g clip-path="url(#a18823f1ef)"><path fill="#252627" d="M 547.980469 785.132812 L 0.441406 568.992188 L 305.890625 176.285156 L 384.710938 207.394531 L 374.644531 232.902344 L 314.917969 209.335938 L 44.570312 556.929688 L 538.953125 752.097656 L 668.347656 585.734375 L 689.976562 602.570312 Z M 547.980469 785.132812 " fill-opacity="1" fill-rule="nonzero"/></g><path fill="#252627" d="M 100.296875 552.289062 L 110.359375 526.796875 L 162.71875 547.464844 L 152.65625 572.957031 Z M 100.296875 552.289062 " fill-opacity="1" fill-rule="nonzero"/><path fill="#252627" d="M 183.589844 585.253906 L 193.65625 559.765625 L 217.019531 568.996094 L 206.957031 594.484375 Z M 183.589844 585.253906 " fill-opacity="1" fill-rule="nonzero"/><path fill="#252627" d="M 60.6875 253.667969 L 74.753906 230.132812 L 163.199219 283.003906 L 149.132812 306.539062 Z M 60.6875 253.667969 " fill-opacity="1" fill-rule="nonzero"/><g clip-path="url(#a4d1a38c51)"><path fill="#252627" d="M 46.367188 44.128906 L 65.753906 24.742188 L 231.621094 190.609375 L 212.234375 210 Z M 46.367188 44.128906 " fill-opacity="1" fill-rule="nonzero"/></g><path fill="#252627" d="M 252.535156 37.085938 L 277.992188 26.902344 L 313.464844 115.589844 L 288.003906 125.769531 Z M 252.535156 37.085938 " fill-opacity="1" fill-rule="nonzero"/><path fill="#252627" d="M 406.367188 42 L 433.785156 42 L 433.785156 124.257812 L 406.367188 124.257812 Z M 406.367188 42 " fill-opacity="1" fill-rule="nonzero"/></svg>