<svg xmlns="http://www.w3.org/2000/svg" xmlns:xlink="http://www.w3.org/1999/xlink" width="1920" zoomAndPan="magnify" viewBox="0 0 1440 809.999993" height="1080" preserveAspectRatio="xMidYMid meet" version="1.0"><defs><clipPath id="d832b48f87"><path d="M 873.207031 375.847656 L 1425.496094 375.847656 L 1425.496094 810 L 873.207031 810 Z M 873.207031 375.847656 " clip-rule="nonzero"/></clipPath><clipPath id="62f2626040"><path d="M 20.523438 0 L 472.398438 0 L 472.398438 375.84375 L 20.523438 375.84375 Z M 20.523438 0 " clip-rule="nonzero"/></clipPath></defs><rect x="-144" width="1728" fill="#ffffff" y="-80.999999" height="971.999992" fill-opacity="1"/><rect x="-144" width="1728" fill="#ffffff" y="-80.999999" height="971.999992" fill-opacity="1"/><g clip-path="url(#d832b48f87)"><path fill="#216b39" d="M 1425.496094 604.515625 C 1425.496094 604.515625 1345.765625 655.046875 1287.605469 621.789062 C 1229.449219 588.539062 1190.71875 528.464844 1174.066406 531.449219 C 1164.445312 533.171875 1143.570312 555.832031 1140.957031 559.121094 C 1138.308594 562.507812 1135.085938 566.625 1131.5625 571.480469 C 1128.003906 576.300781 1124.128906 581.847656 1120.011719 587.96875 C 1118 591.058594 1115.835938 594.234375 1113.746094 597.613281 C 1112.6875 599.292969 1111.613281 601.003906 1110.519531 602.734375 C 1109.464844 604.496094 1108.390625 606.277344 1107.308594 608.085938 C 1105.09375 611.679688 1103.011719 615.480469 1100.800781 619.316406 C 1098.664062 623.191406 1096.503906 627.164062 1094.382812 631.234375 C 1092.328125 635.34375 1090.128906 639.460938 1088.167969 643.761719 C 1087.160156 645.890625 1086.144531 648.039062 1085.125 650.195312 C 1084.171875 652.382812 1083.207031 654.574219 1082.246094 656.78125 C 1080.257812 661.160156 1078.550781 665.695312 1076.726562 670.199219 C 1075.789062 672.441406 1075.027344 674.753906 1074.1875 677.035156 L 1071.71875 683.90625 L 1069.503906 690.855469 C 1068.773438 693.171875 1067.988281 695.46875 1067.386719 697.8125 C 1066.132812 702.480469 1064.714844 707.085938 1063.738281 711.753906 C 1063.199219 714.074219 1062.664062 716.386719 1062.128906 718.6875 C 1061.628906 720.988281 1061.261719 723.3125 1060.824219 725.601562 C 1060.414062 727.890625 1059.957031 730.164062 1059.597656 732.429688 C 1059.289062 734.703125 1058.988281 736.960938 1058.6875 739.203125 C 1058.421875 741.441406 1058.015625 743.648438 1057.871094 745.859375 C 1057.695312 748.0625 1057.519531 750.25 1057.34375 752.40625 C 1056.886719 756.71875 1056.867188 760.957031 1056.753906 765.070312 C 1056.734375 767.125 1056.574219 769.152344 1056.667969 771.148438 C 1056.734375 773.140625 1056.800781 775.101562 1056.867188 777.03125 C 1056.929688 778.960938 1056.992188 780.855469 1057.050781 782.714844 C 1057.226562 784.566406 1057.402344 786.382812 1057.574219 788.164062 C 1057.738281 789.9375 1057.90625 791.679688 1058.066406 793.378906 C 1058.15625 794.226562 1058.210938 795.070312 1058.320312 795.894531 C 1058.453125 796.71875 1058.585938 797.527344 1058.71875 798.332031 C 1059.234375 801.535156 1059.722656 804.574219 1060.183594 807.429688 C 1060.363281 808.863281 1060.777344 810.207031 1061.050781 811.53125 C 1061.359375 812.84375 1061.648438 814.109375 1061.933594 815.324219 C 1062.511719 817.757812 1062.972656 820.003906 1063.511719 822 C 1065.929688 829.910156 1067.316406 834.429688 1067.316406 834.429688 L 1067.496094 835.027344 C 1068.96875 839.832031 1066.261719 844.921875 1061.449219 846.398438 C 1056.632812 847.867188 1051.539062 845.160156 1050.070312 840.355469 C 1050.035156 840.234375 1049.988281 840.078125 1049.957031 839.957031 C 1049.957031 839.957031 1048.667969 834.953125 1046.414062 826.195312 C 1045.933594 823.988281 1045.53125 821.515625 1045.019531 818.847656 C 1044.773438 817.507812 1044.515625 816.117188 1044.25 814.671875 C 1044.015625 813.222656 1043.648438 811.742188 1043.519531 810.179688 C 1043.15625 807.0625 1042.773438 803.746094 1042.375 800.25 C 1042.273438 799.378906 1042.171875 798.492188 1042.066406 797.597656 C 1041.992188 796.699219 1041.96875 795.789062 1041.917969 794.871094 C 1041.828125 793.027344 1041.730469 791.148438 1041.628906 789.222656 C 1041.539062 787.300781 1041.445312 785.339844 1041.351562 783.34375 C 1041.371094 781.34375 1041.394531 779.304688 1041.421875 777.238281 C 1041.445312 775.167969 1041.46875 773.066406 1041.5 770.929688 C 1041.5 768.792969 1041.757812 766.636719 1041.882812 764.441406 C 1042.199219 760.070312 1042.433594 755.570312 1043.117188 751.019531 C 1043.402344 748.742188 1043.699219 746.441406 1043.996094 744.117188 C 1044.257812 741.785156 1044.78125 739.480469 1045.175781 737.132812 C 1045.597656 734.792969 1046.023438 732.429688 1046.449219 730.054688 C 1046.941406 727.691406 1047.523438 725.328125 1048.066406 722.945312 C 1048.632812 720.570312 1049.128906 718.167969 1049.761719 715.777344 C 1050.425781 713.40625 1051.09375 711.019531 1051.761719 708.621094 C 1053.011719 703.804688 1054.691406 699.085938 1056.21875 694.304688 C 1056.957031 691.90625 1057.871094 689.566406 1058.734375 687.203125 L 1061.351562 680.128906 L 1064.214844 673.160156 C 1065.1875 670.847656 1066.082031 668.503906 1067.152344 666.242188 C 1069.230469 661.695312 1071.195312 657.128906 1073.433594 652.726562 C 1074.523438 650.515625 1075.613281 648.3125 1076.691406 646.128906 C 1077.832031 643.96875 1078.964844 641.824219 1080.097656 639.6875 C 1082.300781 635.394531 1084.734375 631.289062 1087.011719 627.203125 C 1089.367188 623.15625 1091.746094 619.207031 1094.097656 615.371094 C 1096.519531 611.574219 1098.808594 607.8125 1101.21875 604.269531 C 1102.410156 602.484375 1103.578125 600.722656 1104.726562 598.992188 C 1105.917969 597.28125 1107.085938 595.601562 1108.234375 593.945312 C 1110.503906 590.617188 1112.839844 587.5 1115.015625 584.464844 C 1119.464844 578.460938 1123.636719 573.035156 1127.457031 568.324219 C 1131.242188 563.585938 1134.683594 559.566406 1137.519531 556.265625 C 1139.941406 553.484375 1141.960938 551.242188 1143.492188 549.574219 C 1143.492188 549.574219 1138.601562 521.675781 1130.984375 512.664062 C 1117.820312 497.070312 1053.773438 518.363281 986 501.40625 C 918.222656 484.453125 873.207031 378.652344 873.207031 378.652344 C 873.207031 378.652344 925.609375 378.671875 989 375.9375 C 1070.382812 372.4375 1122.566406 474.914062 1135.25 505.199219 C 1142.835938 523.316406 1146.214844 536.664062 1147.707031 544.46875 C 1152.210938 539.492188 1160.546875 531.542969 1174.117188 522.804688 C 1196.792969 508.199219 1280.445312 465.121094 1339.90625 523.382812 C 1386.222656 568.757812 1425.496094 604.515625 1425.496094 604.515625 " fill-opacity="1" fill-rule="nonzero"/></g><path fill="#2d9d49" d="M 1232.320312 555.109375 C 1232.066406 554.585938 1231.773438 554 1231.457031 553.351562 C 1231.117188 552.722656 1230.863281 551.984375 1230.554688 551.226562 C 1230.226562 550.472656 1229.960938 549.652344 1229.695312 548.792969 C 1229.398438 547.949219 1229.179688 547.050781 1228.953125 546.140625 C 1228.695312 545.238281 1228.542969 544.292969 1228.351562 543.359375 C 1228.003906 541.484375 1227.769531 539.59375 1227.632812 537.808594 C 1227.496094 536.027344 1227.445312 534.363281 1227.457031 532.933594 C 1227.460938 530.074219 1227.699219 528.191406 1227.699219 528.191406 L 1227 528.121094 C 1227 528.121094 1226.808594 530.058594 1226.871094 532.9375 C 1226.890625 534.382812 1226.980469 536.058594 1227.15625 537.851562 C 1227.335938 539.644531 1227.613281 541.546875 1228.007812 543.425781 C 1228.226562 544.363281 1228.394531 545.308594 1228.675781 546.214844 C 1228.925781 547.121094 1229.167969 548.019531 1229.484375 548.863281 C 1229.777344 549.714844 1230.058594 550.539062 1230.402344 551.285156 C 1230.734375 552.042969 1231 552.777344 1231.355469 553.402344 C 1231.6875 554.039062 1231.996094 554.621094 1232.265625 555.144531 C 1232.570312 555.636719 1232.84375 556.066406 1233.070312 556.421875 C 1233.515625 557.128906 1233.773438 557.53125 1233.773438 557.53125 C 1233.773438 557.53125 1233.527344 557.125 1233.09375 556.402344 C 1232.878906 556.046875 1232.617188 555.609375 1232.320312 555.109375 Z M 1309.03125 608.1875 L 1309.503906 607.675781 C 1309.511719 607.664062 1309.320312 607.78125 1309.160156 607.765625 C 1309.097656 607.75 1309.039062 607.699219 1308.984375 607.636719 C 1309.046875 607.695312 1309.097656 607.753906 1309.109375 607.820312 C 1309.125 607.984375 1309.019531 608.195312 1309.03125 608.1875 Z M 1308.828125 607.476562 C 1308.886719 607.53125 1308.941406 607.589844 1308.984375 607.636719 C 1308.941406 607.589844 1308.886719 607.53125 1308.828125 607.476562 Z M 1394.917969 602.003906 C 1388.089844 601.710938 1378.339844 600.457031 1367.09375 597.203125 C 1366.324219 596.980469 1365.542969 596.730469 1364.757812 596.488281 C 1364.917969 596.324219 1365.113281 596.132812 1365.355469 595.886719 C 1365.6875 595.558594 1366.0625 595.128906 1366.605469 594.757812 C 1367.136719 594.378906 1367.691406 593.890625 1368.371094 593.464844 C 1369.070312 593.058594 1369.808594 592.582031 1370.625 592.152344 C 1371.46875 591.765625 1372.332031 591.304688 1373.273438 590.925781 C 1374.226562 590.582031 1375.179688 590.132812 1376.203125 589.839844 C 1377.222656 589.519531 1378.246094 589.167969 1379.304688 588.914062 C 1380.347656 588.621094 1381.402344 588.367188 1382.449219 588.160156 C 1383.492188 587.914062 1384.53125 587.742188 1385.53125 587.554688 C 1387.539062 587.210938 1389.425781 586.964844 1391.046875 586.792969 C 1394.292969 586.457031 1396.46875 586.402344 1396.46875 586.402344 C 1396.46875 586.402344 1394.292969 586.414062 1391.035156 586.6875 C 1389.410156 586.828125 1387.511719 587.035156 1385.496094 587.339844 C 1384.492188 587.507812 1383.441406 587.652344 1382.390625 587.878906 C 1381.339844 588.074219 1380.273438 588.304688 1379.214844 588.574219 C 1378.152344 588.808594 1377.105469 589.140625 1376.078125 589.449219 C 1375.039062 589.722656 1374.066406 590.148438 1373.097656 590.484375 C 1372.132812 590.847656 1371.242188 591.296875 1370.378906 591.675781 C 1369.542969 592.097656 1368.777344 592.566406 1368.054688 592.96875 C 1367.347656 593.390625 1366.765625 593.882812 1366.214844 594.269531 C 1365.648438 594.632812 1365.246094 595.070312 1364.894531 595.40625 C 1364.488281 595.800781 1364.195312 596.082031 1364.011719 596.257812 C 1353.554688 592.980469 1342.058594 587.9375 1330.640625 581.105469 C 1330.039062 580.75 1329.441406 580.363281 1328.839844 579.996094 C 1329.1875 579.527344 1330.226562 578.1875 1331.929688 576.550781 C 1332.445312 576.03125 1333.039062 575.5 1333.675781 574.953125 C 1334.300781 574.382812 1335.027344 573.871094 1335.746094 573.296875 C 1336.507812 572.789062 1337.261719 572.203125 1338.09375 571.722656 C 1338.921875 571.222656 1339.761719 570.710938 1340.652344 570.296875 C 1341.089844 570.085938 1341.527344 569.851562 1341.96875 569.648438 C 1342.425781 569.46875 1342.878906 569.289062 1343.324219 569.109375 C 1344.214844 568.710938 1345.132812 568.472656 1346.015625 568.199219 C 1346.886719 567.894531 1347.773438 567.761719 1348.59375 567.589844 C 1349.011719 567.507812 1349.414062 567.414062 1349.804688 567.351562 C 1350.203125 567.3125 1350.582031 567.273438 1350.953125 567.238281 C 1351.6875 567.175781 1352.359375 567.066406 1352.960938 567.0625 C 1353.558594 567.066406 1354.085938 567.066406 1354.519531 567.070312 C 1355.382812 567.078125 1355.875 567.078125 1355.875 567.078125 C 1355.875 567.078125 1355.382812 567.0625 1354.519531 567.042969 C 1354.085938 567.03125 1353.558594 567.015625 1352.957031 567 C 1352.355469 566.992188 1351.683594 567.082031 1350.9375 567.132812 C 1350.574219 567.15625 1350.1875 567.1875 1349.789062 567.214844 C 1349.394531 567.265625 1348.988281 567.355469 1348.570312 567.425781 C 1347.730469 567.582031 1346.839844 567.699219 1345.953125 567.984375 C 1345.0625 568.238281 1344.128906 568.464844 1343.222656 568.84375 C 1342.765625 569.011719 1342.3125 569.1875 1341.84375 569.359375 C 1341.390625 569.554688 1340.949219 569.78125 1340.5 569.984375 C 1339.589844 570.382812 1338.730469 570.882812 1337.882812 571.363281 C 1337.023438 571.835938 1336.25 572.410156 1335.464844 572.910156 C 1334.726562 573.476562 1333.976562 573.976562 1333.332031 574.539062 C 1332.671875 575.082031 1332.0625 575.609375 1331.519531 576.125 C 1329.695312 577.800781 1328.578125 579.199219 1328.25 579.632812 C 1322.777344 576.246094 1317.34375 572.492188 1312.046875 568.394531 C 1308.96875 566.078125 1306.015625 563.523438 1303.015625 560.980469 C 1303.027344 560.941406 1303.027344 560.921875 1303.039062 560.875 C 1303.074219 560.652344 1303.152344 560.316406 1303.257812 559.882812 C 1303.382812 559.457031 1303.519531 558.933594 1303.75 558.359375 C 1303.960938 557.777344 1304.25 557.140625 1304.601562 556.457031 C 1304.960938 555.785156 1305.386719 555.066406 1305.898438 554.359375 C 1306.164062 554.011719 1306.441406 553.652344 1306.722656 553.289062 C 1307.019531 552.9375 1307.359375 552.609375 1307.691406 552.257812 C 1308.3125 551.523438 1309.160156 550.980469 1309.917969 550.3125 C 1310.78125 549.796875 1311.605469 549.164062 1312.539062 548.734375 C 1313.476562 548.316406 1314.382812 547.796875 1315.367188 547.535156 C 1316.335938 547.234375 1317.261719 546.847656 1318.226562 546.703125 C 1319.179688 546.527344 1320.089844 546.285156 1320.972656 546.175781 C 1321.855469 546.089844 1322.695312 546.007812 1323.46875 545.9375 C 1324.238281 545.832031 1324.953125 545.84375 1325.585938 545.847656 C 1326.21875 545.847656 1326.769531 545.847656 1327.222656 545.847656 C 1328.128906 545.847656 1328.648438 545.847656 1328.648438 545.847656 C 1328.648438 545.847656 1328.128906 545.839844 1327.222656 545.820312 C 1326.769531 545.808594 1326.21875 545.796875 1325.585938 545.785156 C 1324.953125 545.761719 1324.234375 545.742188 1323.460938 545.828125 C 1322.683594 545.890625 1321.839844 545.949219 1320.953125 546.015625 C 1320.0625 546.105469 1319.140625 546.332031 1318.179688 546.484375 C 1317.207031 546.609375 1316.257812 546.984375 1315.273438 547.261719 C 1314.269531 547.515625 1313.347656 548.019531 1312.382812 548.421875 C 1311.425781 548.839844 1310.570312 549.460938 1309.679688 549.976562 C 1308.890625 550.640625 1308.011719 551.179688 1307.355469 551.917969 C 1307.007812 552.269531 1306.652344 552.601562 1306.335938 552.957031 C 1306.039062 553.328125 1305.746094 553.6875 1305.464844 554.039062 C 1304.925781 554.761719 1304.46875 555.488281 1304.082031 556.183594 C 1303.703125 556.875 1303.386719 557.527344 1303.164062 558.128906 C 1302.90625 558.71875 1302.757812 559.265625 1302.609375 559.707031 C 1302.53125 560.015625 1302.46875 560.253906 1302.417969 560.476562 C 1299.664062 558.136719 1296.867188 555.808594 1293.90625 553.679688 C 1284.128906 546.464844 1273.332031 540.761719 1262.464844 536.472656 C 1262.550781 536.1875 1262.699219 535.691406 1262.957031 534.972656 C 1263.355469 533.851562 1263.988281 532.25 1264.917969 530.410156 C 1265.863281 528.585938 1267.082031 526.496094 1268.691406 524.484375 C 1269.476562 523.46875 1270.390625 522.496094 1271.351562 521.546875 C 1272.34375 520.632812 1273.382812 519.726562 1274.53125 518.96875 C 1275.660156 518.1875 1276.871094 517.527344 1278.105469 516.972656 C 1279.347656 516.445312 1280.609375 515.992188 1281.871094 515.71875 C 1282.496094 515.558594 1283.113281 515.425781 1283.738281 515.355469 C 1284.347656 515.257812 1284.953125 515.175781 1285.542969 515.15625 C 1286.726562 515.042969 1287.851562 515.097656 1288.886719 515.117188 C 1289.914062 515.230469 1290.871094 515.261719 1291.691406 515.433594 C 1292.527344 515.582031 1293.253906 515.667969 1293.835938 515.832031 C 1295.015625 516.121094 1295.6875 516.285156 1295.6875 516.285156 C 1295.6875 516.285156 1295.015625 516.109375 1293.847656 515.804688 C 1293.265625 515.632812 1292.53125 515.53125 1291.703125 515.367188 C 1290.878906 515.179688 1289.925781 515.140625 1288.890625 515.007812 C 1287.851562 514.976562 1286.726562 514.894531 1285.535156 514.992188 C 1284.9375 515 1284.328125 515.074219 1283.707031 515.167969 C 1283.085938 515.230469 1282.457031 515.351562 1281.820312 515.503906 C 1280.539062 515.757812 1279.257812 516.199219 1277.988281 516.710938 C 1276.730469 517.253906 1275.496094 517.90625 1274.335938 518.683594 C 1273.15625 519.429688 1272.089844 520.332031 1271.066406 521.246094 C 1270.078125 522.195312 1269.132812 523.167969 1268.320312 524.191406 C 1266.65625 526.207031 1265.378906 528.296875 1264.394531 530.140625 C 1262.84375 533.097656 1262.066406 535.40625 1261.816406 536.226562 C 1258.820312 535.066406 1255.816406 533.980469 1252.835938 533.03125 C 1242.175781 529.65625 1231.75 527.617188 1222.222656 526.417969 C 1222.332031 526.238281 1222.480469 525.996094 1222.679688 525.679688 C 1222.890625 525.339844 1223.144531 524.921875 1223.441406 524.445312 C 1223.742188 523.980469 1224.046875 523.421875 1224.449219 522.867188 C 1224.851562 522.304688 1225.285156 521.695312 1225.738281 521.054688 C 1226.175781 520.398438 1226.695312 519.75 1227.25 519.09375 C 1227.8125 518.441406 1228.332031 517.714844 1228.976562 517.085938 C 1229.621094 516.449219 1230.207031 515.738281 1230.910156 515.152344 C 1231.613281 514.566406 1232.253906 513.902344 1233.011719 513.40625 C 1233.378906 513.140625 1233.742188 512.878906 1234.101562 512.617188 C 1234.464844 512.371094 1234.855469 512.171875 1235.222656 511.953125 C 1235.949219 511.484375 1236.734375 511.195312 1237.445312 510.859375 C 1238.195312 510.613281 1238.890625 510.335938 1239.574219 510.226562 C 1240.242188 510.058594 1240.875 510.019531 1241.429688 509.96875 C 1241.992188 509.964844 1242.480469 509.96875 1242.882812 510.023438 C 1243.683594 510.117188 1244.117188 510.28125 1244.117188 510.28125 C 1244.117188 510.28125 1243.691406 510.105469 1242.886719 509.996094 C 1242.484375 509.929688 1241.992188 509.914062 1241.429688 509.90625 C 1240.871094 509.945312 1240.230469 509.964844 1239.554688 510.121094 C 1238.863281 510.214844 1238.148438 510.476562 1237.390625 510.707031 C 1236.664062 511.027344 1235.859375 511.304688 1235.117188 511.753906 C 1234.742188 511.972656 1234.339844 512.167969 1233.960938 512.40625 C 1233.597656 512.664062 1233.222656 512.917969 1232.847656 513.175781 C 1232.070312 513.660156 1231.402344 514.3125 1230.679688 514.890625 C 1229.953125 515.472656 1229.34375 516.175781 1228.675781 516.800781 C 1228.003906 517.421875 1227.46875 518.144531 1226.882812 518.789062 C 1226.308594 519.441406 1225.769531 520.082031 1225.308594 520.734375 C 1224.832031 521.371094 1224.378906 521.972656 1223.96875 522.53125 C 1223.546875 523.082031 1223.226562 523.636719 1222.910156 524.105469 C 1222.601562 524.578125 1222.332031 524.988281 1222.109375 525.328125 C 1221.765625 525.855469 1221.539062 526.203125 1221.457031 526.332031 C 1218.699219 525.996094 1216.007812 525.71875 1213.421875 525.519531 C 1207.558594 525.042969 1202.164062 524.941406 1197.390625 524.96875 C 1192.617188 525.007812 1188.460938 525.214844 1185.042969 525.464844 C 1178.210938 525.976562 1174.347656 526.664062 1174.347656 526.664062 C 1174.347656 526.664062 1178.21875 526.050781 1185.054688 525.679688 C 1188.472656 525.496094 1192.625 525.375 1197.390625 525.433594 C 1202.152344 525.484375 1207.523438 525.75 1213.355469 526.261719 C 1223.988281 527.214844 1236.199219 529.242188 1248.808594 533.03125 C 1248.796875 533.089844 1248.78125 533.144531 1248.765625 533.207031 C 1248.609375 533.71875 1248.449219 534.476562 1248.238281 535.4375 C 1248.085938 536.402344 1247.828125 537.574219 1247.722656 538.933594 C 1247.660156 539.609375 1247.558594 540.332031 1247.519531 541.09375 C 1247.496094 541.855469 1247.464844 542.664062 1247.441406 543.5 C 1247.378906 544.339844 1247.464844 545.210938 1247.484375 546.113281 C 1247.539062 547.019531 1247.515625 547.957031 1247.660156 548.902344 C 1247.777344 549.863281 1247.890625 550.839844 1248.011719 551.839844 C 1248.132812 552.839844 1248.398438 553.839844 1248.589844 554.867188 C 1248.925781 556.9375 1249.660156 558.980469 1250.265625 561.09375 C 1250.550781 562.15625 1251.054688 563.148438 1251.445312 564.1875 C 1251.878906 565.210938 1252.242188 566.269531 1252.734375 567.265625 C 1253.246094 568.261719 1253.765625 569.25 1254.277344 570.230469 C 1254.804688 571.210938 1255.253906 572.222656 1255.894531 573.121094 C 1256.492188 574.039062 1257.082031 574.953125 1257.667969 575.855469 C 1258.273438 576.742188 1258.789062 577.675781 1259.476562 578.46875 C 1260.773438 580.097656 1262.027344 581.675781 1263.222656 583.175781 C 1264.542969 584.5625 1265.785156 585.871094 1266.9375 587.078125 C 1267.519531 587.683594 1268.070312 588.257812 1268.597656 588.804688 C 1269.144531 589.332031 1269.707031 589.789062 1270.207031 590.238281 C 1271.234375 591.132812 1272.121094 591.910156 1272.855469 592.546875 C 1274.320312 593.832031 1275.160156 594.558594 1275.160156 594.558594 C 1275.160156 594.558594 1274.324219 593.820312 1272.875 592.527344 C 1272.144531 591.878906 1271.269531 591.09375 1270.253906 590.195312 C 1269.753906 589.738281 1269.199219 589.273438 1268.652344 588.746094 C 1268.136719 588.195312 1267.589844 587.613281 1267.015625 587.003906 C 1265.878906 585.785156 1264.648438 584.464844 1263.34375 583.070312 C 1262.167969 581.566406 1260.933594 579.976562 1259.652344 578.335938 C 1258.976562 577.539062 1258.46875 576.605469 1257.878906 575.714844 C 1257.304688 574.8125 1256.722656 573.894531 1256.132812 572.976562 C 1255.507812 572.078125 1255.070312 571.058594 1254.558594 570.085938 C 1254.054688 569.097656 1253.554688 568.109375 1253.050781 567.121094 C 1252.574219 566.125 1252.21875 565.070312 1251.800781 564.046875 C 1251.425781 563.011719 1250.933594 562.019531 1250.65625 560.960938 C 1250.074219 558.859375 1249.371094 556.828125 1249.054688 554.773438 C 1248.875 553.75 1248.625 552.753906 1248.515625 551.769531 C 1248.402344 550.773438 1248.296875 549.800781 1248.199219 548.859375 C 1248.0625 547.914062 1248.09375 546.988281 1248.050781 546.09375 C 1248.039062 545.203125 1247.960938 544.339844 1248.027344 543.511719 C 1248.0625 542.683594 1248.097656 541.890625 1248.132812 541.140625 C 1248.179688 540.386719 1248.285156 539.675781 1248.347656 539.007812 C 1248.464844 537.664062 1248.734375 536.519531 1248.890625 535.570312 C 1249.105469 534.628906 1249.273438 533.890625 1249.421875 533.40625 C 1249.441406 533.34375 1249.457031 533.292969 1249.472656 533.234375 C 1250.472656 533.539062 1251.46875 533.835938 1252.472656 534.160156 C 1262.886719 537.515625 1273.476562 542.191406 1283.394531 548.230469 C 1283.660156 549.636719 1284.355469 553.117188 1285.5 557.738281 C 1285.894531 559.246094 1286.320312 560.882812 1286.773438 562.617188 C 1287.285156 564.332031 1287.730469 566.167969 1288.324219 568.03125 C 1288.886719 569.894531 1289.472656 571.828125 1290.148438 573.765625 C 1290.773438 575.71875 1291.503906 577.671875 1292.238281 579.617188 C 1292.9375 581.582031 1293.800781 583.476562 1294.578125 585.375 C 1295.367188 587.265625 1296.304688 589.054688 1297.128906 590.828125 C 1298.011719 592.566406 1298.960938 594.203125 1299.816406 595.773438 C 1300.742188 597.300781 1301.691406 598.707031 1302.53125 600.019531 C 1303.414062 601.308594 1304.34375 602.402344 1305.105469 603.417969 C 1305.84375 604.453125 1306.652344 605.210938 1307.277344 605.875 C 1307.910156 606.527344 1308.414062 607.042969 1308.75 607.394531 C 1308.773438 607.425781 1308.800781 607.445312 1308.828125 607.476562 C 1308.800781 607.445312 1308.785156 607.417969 1308.75 607.390625 C 1308.414062 607.039062 1307.921875 606.523438 1307.292969 605.859375 C 1306.671875 605.199219 1305.867188 604.429688 1305.136719 603.390625 C 1304.382812 602.375 1303.457031 601.273438 1302.585938 599.980469 C 1301.757812 598.660156 1300.824219 597.253906 1299.90625 595.722656 C 1299.066406 594.140625 1298.128906 592.503906 1297.257812 590.761719 C 1296.453125 588.984375 1295.527344 587.195312 1294.753906 585.300781 C 1293.992188 583.398438 1293.136719 581.503906 1292.460938 579.53125 C 1291.734375 577.585938 1291.023438 575.632812 1290.414062 573.675781 C 1289.75 571.742188 1289.183594 569.808594 1288.628906 567.9375 C 1288.058594 566.074219 1287.605469 564.242188 1287.144531 562.515625 C 1286.726562 560.78125 1286.332031 559.140625 1285.96875 557.621094 C 1285.050781 553.5625 1284.464844 550.398438 1284.171875 548.734375 C 1287.226562 550.617188 1290.210938 552.621094 1293.101562 554.773438 C 1299.386719 559.355469 1305.003906 564.8125 1311.222656 569.457031 C 1314.347656 571.851562 1317.519531 574.128906 1320.710938 576.285156 L 1320.695312 576.289062 C 1320.695312 576.289062 1321.449219 579.070312 1323.003906 583.058594 C 1323.386719 584.058594 1323.824219 585.132812 1324.308594 586.261719 C 1324.773438 587.402344 1325.335938 588.570312 1325.882812 589.789062 C 1326.457031 590.996094 1327.070312 592.234375 1327.714844 593.484375 C 1328.402344 594.714844 1329.023438 596 1329.777344 597.210938 C 1330.503906 598.441406 1331.21875 599.679688 1332.003906 600.84375 C 1332.761719 602.027344 1333.535156 603.171875 1334.339844 604.246094 C 1334.730469 604.78125 1335.117188 605.3125 1335.5 605.835938 C 1335.902344 606.335938 1336.296875 606.828125 1336.683594 607.304688 C 1337.460938 608.253906 1338.167969 609.171875 1338.917969 609.9375 C 1339.640625 610.726562 1340.308594 611.441406 1340.894531 612.085938 C 1341.527344 612.679688 1342.074219 613.203125 1342.527344 613.628906 C 1343.433594 614.488281 1343.953125 614.972656 1343.953125 614.972656 C 1343.953125 614.972656 1343.441406 614.476562 1342.546875 613.609375 C 1342.105469 613.171875 1341.5625 612.644531 1340.941406 612.039062 C 1340.363281 611.390625 1339.710938 610.660156 1338.996094 609.863281 C 1338.265625 609.089844 1337.566406 608.160156 1336.808594 607.203125 C 1336.433594 606.722656 1336.046875 606.226562 1335.648438 605.722656 C 1335.28125 605.199219 1334.902344 604.660156 1334.519531 604.113281 C 1333.730469 603.035156 1332.984375 601.882812 1332.246094 600.6875 C 1331.476562 599.519531 1330.785156 598.277344 1330.078125 597.042969 C 1329.351562 595.824219 1328.746094 594.527344 1328.085938 593.300781 C 1327.460938 592.046875 1326.871094 590.796875 1326.3125 589.585938 C 1325.785156 588.363281 1325.242188 587.195312 1324.808594 586.054688 C 1324.335938 584.929688 1323.921875 583.847656 1323.558594 582.851562 C 1322.523438 580.066406 1321.875 577.921875 1321.574219 576.851562 C 1324.371094 578.71875 1327.179688 580.507812 1330.003906 582.175781 C 1336.34375 585.917969 1342.695312 589.160156 1348.921875 591.757812 C 1349.199219 591.875 1349.46875 591.976562 1349.738281 592.085938 L 1349.484375 592.214844 C 1349.484375 592.214844 1349.800781 592.757812 1350.355469 593.707031 C 1350.496094 593.941406 1350.652344 594.203125 1350.824219 594.488281 C 1351.015625 594.753906 1351.226562 595.046875 1351.453125 595.351562 C 1351.90625 595.964844 1352.375 596.691406 1352.996094 597.386719 C 1353.609375 598.089844 1354.21875 598.90625 1354.96875 599.667969 C 1355.707031 600.441406 1356.449219 601.289062 1357.300781 602.085938 C 1358.949219 603.734375 1360.773438 605.421875 1362.660156 607.027344 C 1370.164062 613.539062 1378.453125 619.011719 1378.453125 619.011719 C 1378.453125 619.011719 1370.261719 613.386719 1362.890625 606.765625 C 1361.035156 605.132812 1359.25 603.417969 1357.636719 601.757812 C 1356.808594 600.945312 1356.085938 600.089844 1355.367188 599.308594 C 1354.632812 598.542969 1354.050781 597.722656 1353.460938 597.019531 C 1352.851562 596.320312 1352.410156 595.597656 1351.96875 594.988281 C 1351.757812 594.683594 1351.558594 594.398438 1351.371094 594.132812 C 1351.210938 593.851562 1351.066406 593.59375 1350.933594 593.363281 C 1350.683594 592.921875 1350.492188 592.582031 1350.351562 592.332031 C 1356.0625 594.675781 1361.632812 596.558594 1366.867188 598 C 1372.542969 599.558594 1377.84375 600.636719 1382.582031 601.265625 C 1387.320312 601.90625 1391.484375 602.183594 1394.90625 602.257812 C 1401.773438 602.398438 1405.652344 601.738281 1405.652344 601.738281 C 1405.652344 601.738281 1401.757812 602.304688 1394.917969 602.003906 Z M 974.429688 472.519531 C 974.359375 472.519531 974.28125 472.53125 974.222656 472.53125 C 974.28125 472.527344 974.359375 472.527344 974.429688 472.519531 Z M 973.832031 472.175781 L 973.835938 472.921875 C 973.835938 472.9375 973.894531 472.695312 974.015625 472.582031 C 974.070312 472.542969 974.140625 472.535156 974.222656 472.53125 C 974.140625 472.535156 974.070312 472.535156 974.015625 472.496094 C 973.890625 472.394531 973.832031 472.160156 973.832031 472.175781 Z M 1125.078125 499.6875 C 1130.351562 505.050781 1133.125 508.335938 1133.125 508.335938 C 1133.125 508.335938 1130.289062 505.105469 1124.917969 499.851562 C 1122.230469 497.222656 1118.90625 494.097656 1114.988281 490.644531 C 1111.070312 487.171875 1106.535156 483.402344 1101.46875 479.4375 C 1092.867188 472.730469 1082.609375 465.5625 1070.96875 459.074219 C 1070.945312 459.113281 1070.929688 459.132812 1070.898438 459.179688 C 1070.746094 459.425781 1070.511719 459.742188 1070.203125 460.152344 C 1069.890625 460.554688 1069.507812 461.035156 1069.039062 461.554688 C 1068.582031 462.09375 1068.023438 462.65625 1067.421875 463.265625 C 1066.195312 464.476562 1064.671875 465.785156 1062.960938 467.070312 C 1062.097656 467.699219 1061.1875 468.332031 1060.253906 468.949219 C 1059.289062 469.527344 1058.351562 470.171875 1057.34375 470.699219 C 1056.332031 471.230469 1055.363281 471.828125 1054.339844 472.285156 C 1053.320312 472.75 1052.359375 473.277344 1051.363281 473.667969 C 1050.378906 474.074219 1049.429688 474.46875 1048.53125 474.84375 C 1047.613281 475.167969 1046.746094 475.476562 1045.941406 475.761719 C 1044.355469 476.363281 1042.972656 476.6875 1042.03125 476.996094 C 1041.078125 477.277344 1040.535156 477.4375 1040.535156 477.4375 C 1040.535156 477.4375 1041.074219 477.257812 1042.011719 476.941406 C 1042.945312 476.597656 1044.3125 476.226562 1045.878906 475.570312 C 1046.660156 475.257812 1047.519531 474.921875 1048.421875 474.566406 C 1049.300781 474.160156 1050.234375 473.734375 1051.191406 473.296875 C 1052.167969 472.878906 1053.109375 472.320312 1054.097656 471.820312 C 1055.097656 471.332031 1056.035156 470.710938 1057.015625 470.148438 C 1057.996094 469.589844 1058.898438 468.917969 1059.828125 468.316406 C 1060.726562 467.675781 1061.597656 467.027344 1062.421875 466.375 C 1064.058594 465.050781 1065.5 463.726562 1066.644531 462.507812 C 1067.210938 461.898438 1067.726562 461.332031 1068.148438 460.804688 C 1068.582031 460.28125 1068.933594 459.816406 1069.214844 459.425781 C 1069.484375 459.03125 1069.707031 458.710938 1069.820312 458.507812 C 1069.839844 458.480469 1069.847656 458.472656 1069.859375 458.445312 C 1068.140625 457.5 1066.390625 456.570312 1064.617188 455.664062 C 1052.960938 449.648438 1039.960938 444.488281 1026.332031 441.496094 C 1025.371094 442.519531 1023.074219 444.921875 1019.832031 447.941406 C 1015.484375 451.957031 1009.511719 457.152344 1002.949219 461.546875 C 1001.3125 462.648438 999.652344 463.714844 997.96875 464.6875 C 996.296875 465.679688 994.613281 466.578125 992.957031 467.40625 C 991.292969 468.21875 989.65625 468.929688 988.082031 469.5625 C 987.285156 469.847656 986.511719 470.132812 985.757812 470.402344 C 985 470.640625 984.261719 470.867188 983.554688 471.085938 C 982.128906 471.46875 980.808594 471.796875 979.625 471.988281 C 978.445312 472.234375 977.394531 472.304688 976.542969 472.410156 C 975.683594 472.5 975 472.492188 974.542969 472.515625 C 974.5 472.519531 974.46875 472.519531 974.429688 472.519531 C 974.46875 472.519531 974.5 472.515625 974.542969 472.515625 C 975 472.480469 975.683594 472.492188 976.535156 472.390625 C 977.394531 472.28125 978.4375 472.199219 979.613281 471.945312 C 980.796875 471.75 982.109375 471.402344 983.535156 471.011719 C 984.238281 470.785156 984.96875 470.554688 985.726562 470.3125 C 986.476562 470.039062 987.242188 469.746094 988.035156 469.457031 C 989.609375 468.8125 991.234375 468.09375 992.886719 467.257812 C 994.53125 466.421875 996.207031 465.515625 997.863281 464.515625 C 999.535156 463.527344 1001.1875 462.453125 1002.808594 461.339844 C 1006.0625 459.117188 1009.175781 456.707031 1012.003906 454.332031 C 1014.839844 451.976562 1017.367188 449.628906 1019.472656 447.566406 C 1022.371094 444.742188 1024.457031 442.484375 1025.503906 441.320312 C 1022.746094 440.738281 1019.976562 440.234375 1017.175781 439.835938 C 1008.730469 438.492188 1000.152344 438.859375 991.65625 437.953125 C 987.554688 437.566406 983.5 437.035156 979.511719 436.382812 C 979.390625 436.488281 977.375 438.242188 974.082031 440.414062 C 973.238281 440.980469 972.304688 441.574219 971.304688 442.167969 C 970.320312 442.796875 969.226562 443.359375 968.125 443.992188 C 966.992188 444.570312 965.828125 445.183594 964.621094 445.746094 C 963.394531 446.28125 962.179688 446.882812 960.90625 447.347656 C 959.644531 447.851562 958.378906 448.335938 957.105469 448.71875 C 956.46875 448.925781 955.839844 449.125 955.21875 449.328125 C 954.585938 449.488281 953.957031 449.648438 953.347656 449.808594 C 952.726562 449.964844 952.125 450.113281 951.535156 450.265625 C 950.929688 450.375 950.34375 450.484375 949.773438 450.585938 C 948.628906 450.808594 947.546875 451.007812 946.535156 451.082031 C 945.523438 451.1875 944.597656 451.285156 943.777344 451.363281 C 942.957031 451.382812 942.238281 451.398438 941.644531 451.414062 C 940.460938 451.4375 939.789062 451.453125 939.789062 451.453125 C 939.789062 451.453125 940.460938 451.425781 941.644531 451.378906 C 942.230469 451.359375 942.949219 451.328125 943.773438 451.296875 C 944.589844 451.199219 945.511719 451.089844 946.519531 450.96875 C 947.527344 450.878906 948.601562 450.65625 949.738281 450.421875 C 950.304688 450.304688 950.890625 450.183594 951.484375 450.070312 C 952.070312 449.910156 952.671875 449.742188 953.285156 449.578125 C 953.894531 449.414062 954.515625 449.242188 955.136719 449.070312 C 955.753906 448.859375 956.378906 448.644531 957.003906 448.429688 C 958.269531 448.027344 959.519531 447.523438 960.765625 447 C 962.023438 446.519531 963.222656 445.902344 964.429688 445.34375 C 965.617188 444.769531 966.761719 444.140625 967.878906 443.542969 C 968.960938 442.898438 970.035156 442.320312 971.003906 441.683594 C 971.988281 441.070312 972.902344 440.46875 973.726562 439.890625 C 976.113281 438.253906 977.796875 436.878906 978.5625 436.222656 C 974.660156 435.558594 970.824219 434.777344 967.078125 433.863281 C 959.679688 432.066406 952.644531 429.835938 946.101562 427.273438 L 946.226562 427.527344 C 946.226562 427.527344 945.652344 427.757812 944.632812 428.160156 C 944.136719 428.390625 943.496094 428.5625 942.765625 428.738281 C 942.03125 428.933594 941.214844 429.160156 940.292969 429.277344 C 939.382812 429.429688 938.398438 429.613281 937.34375 429.691406 C 936.292969 429.796875 935.183594 429.910156 934.035156 429.9375 C 932.890625 430.007812 931.703125 430.035156 930.496094 430.019531 C 929.292969 430.042969 928.066406 430 926.84375 429.960938 C 917.042969 429.644531 907.402344 427.917969 907.402344 427.917969 C 907.402344 427.917969 917.078125 429.464844 926.851562 429.589844 C 928.070312 429.605469 929.292969 429.625 930.492188 429.578125 C 931.691406 429.570312 932.871094 429.515625 934.011719 429.429688 C 935.148438 429.378906 936.242188 429.25 937.277344 429.117188 C 938.320312 429.027344 939.285156 428.820312 940.179688 428.660156 C 941.082031 428.527344 941.875 428.285156 942.582031 428.085938 C 943.292969 427.898438 943.910156 427.71875 944.378906 427.492188 C 944.851562 427.296875 945.21875 427.140625 945.480469 427.035156 C 945.285156 426.960938 945.078125 426.886719 944.886719 426.8125 C 938.007812 424.0625 931.6875 421.015625 926.039062 417.882812 C 914.730469 411.609375 906.171875 404.980469 900.519531 400.035156 C 894.851562 395.074219 892.0625 391.789062 892.0625 391.789062 C 892.0625 391.789062 894.933594 395.003906 900.699219 399.824219 C 906.441406 404.652344 915.171875 410.960938 926.472656 417.09375 C 927.816406 417.824219 929.210938 418.539062 930.636719 419.25 C 930.578125 418.996094 930.511719 418.707031 930.425781 418.34375 C 930.300781 417.789062 930.171875 417.113281 929.878906 416.371094 C 929.601562 415.628906 929.355469 414.765625 928.96875 413.875 C 928.558594 412.988281 928.152344 412.007812 927.65625 411.003906 C 927.113281 410.023438 926.585938 408.960938 925.957031 407.90625 C 925.300781 406.871094 924.683594 405.757812 923.945312 404.707031 C 923.214844 403.640625 922.5 402.542969 921.703125 401.5 C 920.167969 399.378906 918.503906 397.34375 916.917969 395.464844 C 915.328125 393.585938 913.777344 391.890625 912.425781 390.457031 C 909.71875 387.597656 907.789062 385.8125 907.789062 385.8125 C 907.789062 385.8125 909.75 387.5625 912.511719 390.375 C 913.886719 391.785156 915.46875 393.460938 917.09375 395.3125 C 918.71875 397.160156 920.421875 399.171875 922 401.28125 C 922.820312 402.308594 923.558594 403.402344 924.3125 404.453125 C 925.074219 405.503906 925.71875 406.613281 926.394531 407.644531 C 927.046875 408.691406 927.601562 409.757812 928.167969 410.738281 C 928.691406 411.746094 929.121094 412.734375 929.554688 413.628906 C 929.964844 414.53125 930.230469 415.410156 930.523438 416.160156 C 930.832031 416.910156 930.984375 417.601562 931.117188 418.167969 C 931.300781 418.890625 931.421875 419.386719 931.492188 419.671875 C 941.820312 424.765625 954.007812 429.375 967.390625 432.570312 C 968.414062 432.816406 969.457031 433.027344 970.496094 433.25 C 970.414062 432.492188 970.144531 430.496094 969.480469 427.808594 C 969.277344 426.953125 969.015625 426.023438 968.726562 425.050781 C 968.453125 424.078125 968.078125 423.070312 967.730469 422.019531 C 967.316406 420.992188 966.953125 419.902344 966.457031 418.851562 C 965.980469 417.789062 965.507812 416.703125 964.9375 415.664062 L 964.113281 414.09375 C 963.808594 413.59375 963.503906 413.09375 963.203125 412.589844 C 962.632812 411.574219 961.960938 410.644531 961.320312 409.738281 C 960.714844 408.804688 960.015625 407.984375 959.375 407.199219 C 959.054688 406.800781 958.742188 406.417969 958.4375 406.042969 C 958.109375 405.699219 957.789062 405.363281 957.480469 405.042969 C 956.859375 404.40625 956.316406 403.796875 955.789062 403.300781 C 955.25 402.820312 954.777344 402.402344 954.390625 402.058594 C 953.613281 401.371094 953.164062 400.980469 953.164062 400.980469 C 953.164062 400.980469 953.617188 401.363281 954.410156 402.039062 C 954.804688 402.375 955.289062 402.78125 955.835938 403.25 C 956.371094 403.738281 956.929688 404.335938 957.566406 404.960938 C 957.878906 405.277344 958.203125 405.609375 958.546875 405.949219 C 958.855469 406.316406 959.179688 406.695312 959.503906 407.082031 C 960.167969 407.867188 960.886719 408.671875 961.511719 409.597656 C 962.171875 410.5 962.867188 411.421875 963.464844 412.429688 C 963.777344 412.925781 964.09375 413.429688 964.402344 413.929688 L 965.265625 415.488281 C 965.859375 416.527344 966.363281 417.605469 966.859375 418.671875 C 967.378906 419.722656 967.765625 420.8125 968.207031 421.839844 C 968.582031 422.894531 968.976562 423.902344 969.277344 424.882812 C 969.585938 425.859375 969.871094 426.785156 970.089844 427.652344 C 970.917969 430.71875 971.210938 432.949219 971.265625 433.417969 C 977.898438 434.832031 984.773438 435.882812 991.785156 436.515625 C 993.882812 436.667969 995.976562 436.867188 998.101562 436.972656 C 999.640625 437.039062 1001.183594 437.097656 1002.730469 437.164062 C 1002.742188 437.125 1002.753906 437.097656 1002.769531 437.054688 C 1002.859375 436.800781 1002.960938 436.402344 1003.09375 435.898438 C 1003.195312 435.382812 1003.347656 434.765625 1003.417969 434.035156 C 1003.535156 433.3125 1003.546875 432.484375 1003.59375 431.582031 C 1003.558594 430.679688 1003.570312 429.695312 1003.410156 428.667969 C 1003.332031 427.628906 1003.070312 426.566406 1002.828125 425.457031 C 1002.539062 424.363281 1002.191406 423.234375 1001.769531 422.121094 C 1001.277344 421.03125 1000.886719 419.875 1000.257812 418.832031 C 999.683594 417.761719 999.125 416.679688 998.417969 415.707031 C 997.746094 414.71875 997.121094 413.710938 996.363281 412.847656 C 995.636719 411.972656 994.984375 411.074219 994.265625 410.308594 C 993.539062 409.550781 992.851562 408.839844 992.21875 408.175781 C 991.601562 407.496094 990.96875 406.941406 990.410156 406.449219 C 989.851562 405.960938 989.367188 405.527344 988.96875 405.171875 C 988.171875 404.460938 987.714844 404.054688 987.714844 404.054688 C 987.714844 404.054688 988.175781 404.449219 988.988281 405.148438 C 989.398438 405.492188 989.886719 405.914062 990.457031 406.402344 C 991.027344 406.882812 991.671875 407.425781 992.296875 408.089844 C 992.945312 408.742188 993.648438 409.445312 994.390625 410.191406 C 995.125 410.945312 995.796875 411.832031 996.550781 412.699219 C 997.328125 413.554688 997.976562 414.550781 998.667969 415.539062 C 999.402344 416.503906 999.984375 417.585938 1000.589844 418.65625 C 1001.242188 419.699219 1001.664062 420.863281 1002.179688 421.957031 C 1002.632812 423.078125 1003.003906 424.21875 1003.324219 425.324219 C 1003.59375 426.449219 1003.878906 427.539062 1003.980469 428.597656 C 1004.164062 429.644531 1004.167969 430.652344 1004.222656 431.582031 C 1004.195312 432.507812 1004.199219 433.363281 1004.09375 434.113281 C 1004.027344 434.871094 1003.886719 435.519531 1003.792969 436.054688 C 1003.671875 436.542969 1003.585938 436.914062 1003.496094 437.199219 C 1003.828125 437.207031 1004.160156 437.222656 1004.492188 437.238281 C 1008.796875 437.382812 1013.109375 437.78125 1017.382812 438.40625 C 1028.960938 440.089844 1040.183594 443.464844 1050.660156 447.773438 C 1050.738281 447.410156 1050.851562 446.847656 1050.976562 446.058594 C 1051.191406 444.671875 1051.4375 442.679688 1051.507812 440.273438 C 1051.589844 437.871094 1051.480469 435.050781 1051.042969 432.074219 C 1050.820312 430.585938 1050.519531 429.058594 1050.109375 427.53125 C 1049.726562 426 1049.183594 424.484375 1048.601562 422.988281 C 1047.992188 421.5 1047.296875 420.050781 1046.503906 418.679688 C 1045.710938 417.3125 1044.859375 416 1043.925781 414.8125 C 1043.46875 414.214844 1043.011719 413.628906 1042.515625 413.097656 C 1042.03125 412.554688 1041.570312 412.007812 1041.0625 411.539062 C 1040.105469 410.539062 1039.101562 409.691406 1038.1875 408.902344 C 1037.222656 408.175781 1036.363281 407.464844 1035.535156 406.933594 C 1034.707031 406.40625 1034.019531 405.890625 1033.394531 405.558594 C 1032.167969 404.855469 1031.464844 404.453125 1031.464844 404.453125 C 1031.464844 404.453125 1032.171875 404.847656 1033.410156 405.527344 C 1034.042969 405.855469 1034.738281 406.359375 1035.578125 406.878906 C 1036.414062 407.394531 1037.285156 408.097656 1038.257812 408.8125 C 1039.191406 409.589844 1040.210938 410.421875 1041.1875 411.410156 C 1041.699219 411.882812 1042.171875 412.421875 1042.667969 412.960938 C 1043.175781 413.488281 1043.636719 414.070312 1044.109375 414.667969 C 1045.070312 415.851562 1045.949219 417.15625 1046.765625 418.523438 C 1047.585938 419.894531 1048.308594 421.351562 1048.945312 422.84375 C 1049.558594 424.34375 1050.128906 425.867188 1050.535156 427.414062 C 1050.976562 428.953125 1051.304688 430.492188 1051.550781 431.996094 C 1052.03125 435 1052.1875 437.851562 1052.136719 440.289062 C 1052.078125 444.265625 1051.550781 447.136719 1051.359375 448.058594 C 1056.140625 450.050781 1060.769531 452.230469 1065.199219 454.539062 C 1074.445312 459.390625 1082.863281 464.746094 1090.386719 470.097656 C 1090.546875 469.3125 1090.773438 468.082031 1090.980469 466.515625 C 1091.144531 465.140625 1091.335938 463.53125 1091.410156 461.800781 C 1091.515625 460.070312 1091.503906 458.21875 1091.441406 456.371094 C 1091.359375 455.445312 1091.324219 454.519531 1091.210938 453.617188 C 1091.074219 452.71875 1091.015625 451.816406 1090.816406 450.972656 C 1090.632812 450.125 1090.527344 449.28125 1090.28125 448.523438 C 1090.050781 447.761719 1089.890625 447.019531 1089.636719 446.371094 C 1089.390625 445.722656 1089.167969 445.125 1088.964844 444.59375 C 1088.753906 444.070312 1088.507812 443.640625 1088.332031 443.273438 C 1087.972656 442.539062 1087.761719 442.125 1087.761719 442.125 C 1087.761719 442.125 1087.988281 442.53125 1088.382812 443.246094 C 1088.574219 443.609375 1088.839844 444.027344 1089.074219 444.546875 C 1089.300781 445.070312 1089.554688 445.660156 1089.828125 446.300781 C 1090.109375 446.945312 1090.300781 447.683594 1090.566406 448.445312 C 1090.847656 449.203125 1090.988281 450.039062 1091.214844 450.886719 C 1091.449219 451.738281 1091.550781 452.644531 1091.726562 453.550781 C 1091.882812 454.457031 1091.957031 455.390625 1092.078125 456.324219 C 1092.226562 458.191406 1092.320312 460.070312 1092.289062 461.828125 C 1092.289062 463.585938 1092.167969 465.226562 1092.058594 466.632812 C 1091.878906 468.683594 1091.632812 470.222656 1091.515625 470.910156 C 1095.214844 473.574219 1098.71875 476.234375 1101.960938 478.816406 C 1107.007812 482.832031 1111.449219 486.742188 1115.3125 490.277344 C 1119.171875 493.820312 1122.441406 497.007812 1125.078125 499.6875 " fill-opacity="1" fill-rule="nonzero"/><g clip-path="url(#62f2626040)"><path fill="#216b39" d="M 472.398438 188.6875 C 472.398438 188.6875 407.160156 147.332031 359.578125 174.550781 C 311.996094 201.765625 280.304688 250.933594 266.683594 248.492188 C 258.808594 247.078125 241.730469 228.535156 239.59375 225.84375 C 237.425781 223.070312 234.789062 219.699219 231.90625 215.726562 C 228.992188 211.78125 225.824219 207.242188 222.453125 202.230469 C 220.808594 199.703125 219.039062 197.105469 217.328125 194.335938 C 216.460938 192.960938 215.582031 191.5625 214.6875 190.144531 C 213.824219 188.703125 212.945312 187.246094 212.058594 185.765625 C 210.25 182.824219 208.542969 179.714844 206.738281 176.574219 C 204.988281 173.402344 203.222656 170.152344 201.484375 166.820312 C 199.804688 163.457031 198.007812 160.085938 196.398438 156.566406 C 195.574219 154.824219 194.746094 153.066406 193.910156 151.300781 C 193.132812 149.511719 192.34375 147.714844 191.554688 145.910156 C 189.925781 142.328125 188.53125 138.613281 187.039062 134.929688 C 186.273438 133.09375 185.648438 131.199219 184.960938 129.332031 L 182.941406 123.707031 L 181.128906 118.023438 C 180.53125 116.125 179.890625 114.246094 179.398438 112.328125 C 178.371094 108.507812 177.210938 104.738281 176.410156 100.914062 C 175.972656 99.019531 175.53125 97.125 175.097656 95.242188 C 174.6875 93.355469 174.386719 91.457031 174.03125 89.585938 C 173.691406 87.707031 173.320312 85.847656 173.023438 83.992188 C 172.773438 82.132812 172.527344 80.285156 172.28125 78.449219 C 172.0625 76.621094 171.730469 74.8125 171.609375 73.003906 C 171.464844 71.199219 171.324219 69.410156 171.179688 67.644531 C 170.804688 64.113281 170.789062 60.644531 170.699219 57.277344 C 170.683594 55.597656 170.550781 53.9375 170.628906 52.304688 C 170.683594 50.671875 170.734375 49.066406 170.789062 47.488281 C 170.84375 45.910156 170.890625 44.359375 170.941406 42.835938 C 171.085938 41.320312 171.230469 39.835938 171.367188 38.378906 C 171.503906 36.925781 171.640625 35.5 171.769531 34.109375 C 171.84375 33.414062 171.890625 32.726562 171.980469 32.050781 C 172.085938 31.375 172.199219 30.714844 172.304688 30.054688 C 172.726562 27.433594 173.125 24.945312 173.503906 22.609375 C 173.652344 21.433594 173.988281 20.335938 174.214844 19.25 C 174.464844 18.179688 174.703125 17.140625 174.9375 16.148438 C 175.410156 14.15625 175.789062 12.316406 176.226562 10.683594 C 178.207031 4.207031 179.339844 0.507812 179.339844 0.507812 L 179.488281 0.0195312 C 180.691406 -3.910156 178.476562 -8.078125 174.539062 -9.285156 C 170.601562 -10.488281 166.429688 -8.273438 165.226562 -4.339844 C 165.199219 -4.242188 165.164062 -4.113281 165.136719 -4.015625 C 165.136719 -4.015625 164.082031 0.0820312 162.238281 7.25 C 161.84375 9.058594 161.515625 11.082031 161.097656 13.265625 C 160.894531 14.359375 160.6875 15.5 160.46875 16.679688 C 160.273438 17.867188 159.976562 19.078125 159.867188 20.359375 C 159.574219 22.910156 159.261719 25.621094 158.933594 28.484375 C 158.851562 29.199219 158.769531 29.925781 158.683594 30.65625 C 158.621094 31.390625 158.601562 32.136719 158.558594 32.890625 C 158.484375 34.394531 158.40625 35.933594 158.324219 37.511719 C 158.25 39.082031 158.171875 40.6875 158.09375 42.324219 C 158.109375 43.960938 158.132812 45.628906 158.152344 47.320312 C 158.171875 49.015625 158.191406 50.734375 158.21875 52.484375 C 158.21875 54.234375 158.425781 56 158.53125 57.792969 C 158.789062 61.371094 158.980469 65.054688 159.539062 68.777344 C 159.773438 70.640625 160.015625 72.527344 160.257812 74.425781 C 160.472656 76.335938 160.902344 78.226562 161.222656 80.144531 C 161.570312 82.058594 161.917969 83.992188 162.265625 85.9375 C 162.667969 87.871094 163.144531 89.804688 163.589844 91.757812 C 164.054688 93.703125 164.460938 95.667969 164.976562 97.621094 C 165.519531 99.566406 166.066406 101.519531 166.613281 103.480469 C 167.636719 107.421875 169.011719 111.285156 170.257812 115.199219 C 170.863281 117.160156 171.609375 119.078125 172.316406 121.011719 L 174.460938 126.800781 L 176.800781 132.507812 C 177.597656 134.398438 178.328125 136.316406 179.203125 138.167969 C 180.90625 141.886719 182.515625 145.628906 184.347656 149.226562 C 185.238281 151.039062 186.128906 152.839844 187.011719 154.628906 C 187.945312 156.394531 188.871094 158.152344 189.796875 159.902344 C 191.597656 163.414062 193.589844 166.773438 195.457031 170.121094 C 197.382812 173.433594 199.328125 176.664062 201.25 179.804688 C 203.234375 182.914062 205.105469 185.992188 207.078125 188.890625 C 208.050781 190.351562 209.007812 191.792969 209.949219 193.207031 C 210.921875 194.609375 211.878906 195.984375 212.820312 197.339844 C 214.675781 200.066406 216.585938 202.613281 218.367188 205.097656 C 222.007812 210.011719 225.421875 214.453125 228.546875 218.308594 C 231.640625 222.1875 234.460938 225.476562 236.78125 228.179688 C 238.757812 230.457031 240.414062 232.292969 241.667969 233.65625 C 241.667969 233.65625 237.664062 256.488281 231.433594 263.867188 C 220.660156 276.628906 168.257812 259.203125 112.808594 273.078125 C 57.355469 286.957031 20.523438 373.550781 20.523438 373.550781 C 20.523438 373.550781 63.394531 373.535156 115.261719 375.773438 C 181.847656 378.636719 224.546875 294.765625 234.921875 269.976562 C 241.128906 255.148438 243.894531 244.222656 245.113281 237.835938 C 248.800781 241.90625 255.617188 248.414062 266.722656 255.566406 C 285.273438 267.519531 353.71875 302.777344 402.367188 255.09375 C 440.265625 217.957031 472.398438 188.6875 472.398438 188.6875 " fill-opacity="1" fill-rule="nonzero"/></g><path fill="#2d9d49" d="M 314.34375 229.125 C 314.136719 229.554688 313.898438 230.035156 313.636719 230.5625 C 313.359375 231.082031 313.152344 231.683594 312.898438 232.304688 C 312.632812 232.921875 312.414062 233.59375 312.195312 234.296875 C 311.953125 234.984375 311.773438 235.71875 311.589844 236.46875 C 311.378906 237.207031 311.25 237.976562 311.09375 238.742188 C 310.8125 240.277344 310.621094 241.824219 310.507812 243.285156 C 310.398438 244.742188 310.355469 246.105469 310.363281 247.277344 C 310.367188 249.617188 310.5625 251.15625 310.5625 251.15625 L 309.992188 251.214844 C 309.992188 251.214844 309.835938 249.628906 309.882812 247.273438 C 309.902344 246.089844 309.972656 244.71875 310.117188 243.25 C 310.265625 241.785156 310.492188 240.226562 310.816406 238.6875 C 310.992188 237.921875 311.132812 237.148438 311.363281 236.40625 C 311.566406 235.664062 311.765625 234.925781 312.023438 234.238281 C 312.261719 233.539062 312.492188 232.867188 312.777344 232.253906 C 313.046875 231.636719 313.265625 231.035156 313.554688 230.523438 C 313.828125 230 314.078125 229.523438 314.300781 229.097656 C 314.550781 228.695312 314.769531 228.34375 314.957031 228.050781 C 315.320312 227.472656 315.53125 227.144531 315.53125 227.144531 C 315.53125 227.144531 315.328125 227.476562 314.976562 228.066406 C 314.800781 228.359375 314.585938 228.714844 314.34375 229.125 Z M 377.105469 185.683594 L 377.492188 186.101562 C 377.5 186.109375 377.34375 186.015625 377.214844 186.027344 C 377.160156 186.039062 377.117188 186.082031 377.070312 186.136719 C 377.121094 186.085938 377.160156 186.035156 377.171875 185.984375 C 377.183594 185.847656 377.097656 185.675781 377.105469 185.683594 Z M 376.941406 186.265625 C 376.988281 186.222656 377.03125 186.171875 377.070312 186.136719 C 377.03125 186.171875 376.988281 186.222656 376.941406 186.265625 Z M 447.378906 190.746094 C 441.792969 190.984375 433.816406 192.011719 424.613281 194.675781 C 423.984375 194.855469 423.34375 195.058594 422.703125 195.257812 C 422.835938 195.394531 422.996094 195.546875 423.191406 195.75 C 423.460938 196.019531 423.769531 196.371094 424.214844 196.671875 C 424.648438 196.984375 425.101562 197.382812 425.660156 197.734375 C 426.230469 198.066406 426.835938 198.457031 427.503906 198.808594 C 428.195312 199.125 428.898438 199.503906 429.667969 199.808594 C 430.449219 200.09375 431.230469 200.457031 432.066406 200.699219 C 432.898438 200.964844 433.738281 201.25 434.605469 201.457031 C 435.457031 201.699219 436.320312 201.902344 437.175781 202.078125 C 438.03125 202.277344 438.878906 202.417969 439.699219 202.570312 C 441.339844 202.851562 442.882812 203.054688 444.210938 203.191406 C 446.867188 203.46875 448.644531 203.511719 448.644531 203.511719 C 448.644531 203.511719 446.867188 203.503906 444.203125 203.277344 C 442.871094 203.164062 441.320312 202.996094 439.667969 202.746094 C 438.847656 202.609375 437.988281 202.492188 437.128906 202.304688 C 436.269531 202.144531 435.398438 201.957031 434.53125 201.734375 C 433.660156 201.542969 432.804688 201.273438 431.964844 201.019531 C 431.113281 200.796875 430.316406 200.445312 429.523438 200.171875 C 428.734375 199.875 428.007812 199.507812 427.300781 199.199219 C 426.617188 198.855469 425.992188 198.46875 425.402344 198.140625 C 424.820312 197.792969 424.34375 197.390625 423.894531 197.074219 C 423.429688 196.777344 423.101562 196.417969 422.8125 196.144531 C 422.480469 195.820312 422.242188 195.589844 422.089844 195.445312 C 413.535156 198.132812 404.132812 202.257812 394.789062 207.847656 C 394.292969 208.140625 393.804688 208.457031 393.3125 208.753906 C 393.601562 209.140625 394.449219 210.238281 395.84375 211.578125 C 396.265625 212.003906 396.75 212.4375 397.273438 212.886719 C 397.78125 213.351562 398.378906 213.769531 398.964844 214.242188 C 399.589844 214.65625 400.203125 215.136719 400.886719 215.53125 C 401.5625 215.9375 402.25 216.355469 402.980469 216.695312 C 403.339844 216.867188 403.695312 217.0625 404.058594 217.226562 C 404.429688 217.371094 404.800781 217.519531 405.164062 217.667969 C 405.894531 217.992188 406.644531 218.191406 407.367188 218.410156 C 408.082031 218.664062 408.804688 218.769531 409.476562 218.914062 C 409.820312 218.976562 410.148438 219.054688 410.46875 219.105469 C 410.792969 219.136719 411.105469 219.171875 411.410156 219.199219 C 412.007812 219.25 412.558594 219.339844 413.050781 219.34375 C 413.539062 219.339844 413.972656 219.339844 414.324219 219.335938 C 415.03125 219.332031 415.433594 219.332031 415.433594 219.332031 C 415.433594 219.332031 415.03125 219.34375 414.324219 219.359375 C 413.972656 219.367188 413.539062 219.378906 413.046875 219.394531 C 412.554688 219.402344 412.003906 219.328125 411.394531 219.285156 C 411.097656 219.265625 410.78125 219.242188 410.457031 219.214844 C 410.132812 219.175781 409.796875 219.101562 409.457031 219.042969 C 408.773438 218.917969 408.039062 218.820312 407.316406 218.589844 C 406.585938 218.378906 405.824219 218.195312 405.082031 217.886719 C 404.710938 217.746094 404.335938 217.601562 403.953125 217.464844 C 403.585938 217.304688 403.222656 217.117188 402.855469 216.949219 C 402.109375 216.625 401.40625 216.214844 400.714844 215.820312 C 400.011719 215.433594 399.378906 214.96875 398.734375 214.558594 C 398.128906 214.09375 397.519531 213.683594 396.988281 213.222656 C 396.449219 212.777344 395.949219 212.347656 395.507812 211.925781 C 394.015625 210.554688 393.101562 209.410156 392.832031 209.054688 C 388.355469 211.828125 383.910156 214.898438 379.574219 218.25 C 377.058594 220.148438 374.640625 222.238281 372.1875 224.320312 C 372.195312 224.351562 372.195312 224.367188 372.203125 224.40625 C 372.230469 224.589844 372.296875 224.867188 372.382812 225.21875 C 372.488281 225.566406 372.597656 225.996094 372.785156 226.464844 C 372.960938 226.941406 373.195312 227.464844 373.484375 228.023438 C 373.777344 228.574219 374.125 229.160156 374.542969 229.738281 C 374.761719 230.027344 374.988281 230.316406 375.21875 230.617188 C 375.460938 230.90625 375.738281 231.171875 376.011719 231.457031 C 376.519531 232.0625 377.214844 232.503906 377.835938 233.050781 C 378.539062 233.472656 379.214844 233.992188 379.976562 234.34375 C 380.746094 234.683594 381.484375 235.113281 382.289062 235.324219 C 383.082031 235.570312 383.84375 235.886719 384.632812 236.007812 C 385.410156 236.152344 386.15625 236.347656 386.878906 236.4375 C 387.601562 236.507812 388.285156 236.574219 388.917969 236.632812 C 389.550781 236.71875 390.132812 236.710938 390.652344 236.707031 C 391.167969 236.707031 391.621094 236.707031 391.992188 236.707031 C 392.734375 236.707031 393.15625 236.707031 393.15625 236.707031 C 393.15625 236.707031 392.734375 236.714844 391.992188 236.730469 C 391.621094 236.738281 391.167969 236.746094 390.652344 236.757812 C 390.132812 236.773438 389.546875 236.792969 388.914062 236.722656 C 388.277344 236.671875 387.589844 236.625 386.859375 236.570312 C 386.132812 236.496094 385.378906 236.3125 384.59375 236.183594 C 383.796875 236.082031 383.019531 235.777344 382.214844 235.546875 C 381.394531 235.34375 380.640625 234.925781 379.851562 234.597656 C 379.066406 234.257812 378.367188 233.75 377.636719 233.328125 C 376.992188 232.785156 376.273438 232.339844 375.734375 231.738281 C 375.453125 231.449219 375.160156 231.179688 374.902344 230.886719 C 374.660156 230.585938 374.421875 230.289062 374.191406 230 C 373.746094 229.410156 373.375 228.816406 373.058594 228.25 C 372.75 227.683594 372.492188 227.148438 372.304688 226.65625 C 372.097656 226.171875 371.972656 225.722656 371.855469 225.363281 C 371.789062 225.113281 371.738281 224.914062 371.699219 224.734375 C 369.445312 226.648438 367.15625 228.550781 364.734375 230.296875 C 356.730469 236.199219 347.898438 240.867188 339.007812 244.378906 C 339.078125 244.613281 339.199219 245.019531 339.410156 245.605469 C 339.738281 246.527344 340.253906 247.835938 341.015625 249.339844 C 341.785156 250.835938 342.785156 252.542969 344.101562 254.191406 C 344.742188 255.023438 345.492188 255.820312 346.28125 256.597656 C 347.089844 257.34375 347.9375 258.085938 348.878906 258.707031 C 349.804688 259.347656 350.792969 259.882812 351.804688 260.339844 C 352.824219 260.769531 353.851562 261.140625 354.882812 261.367188 C 355.398438 261.496094 355.902344 261.605469 356.410156 261.660156 C 356.914062 261.746094 357.40625 261.808594 357.890625 261.828125 C 358.859375 261.921875 359.78125 261.875 360.625 261.859375 C 361.46875 261.765625 362.25 261.738281 362.921875 261.601562 C 363.601562 261.476562 364.199219 261.40625 364.675781 261.273438 C 365.640625 261.039062 366.191406 260.902344 366.191406 260.902344 C 366.191406 260.902344 365.640625 261.046875 364.683594 261.296875 C 364.207031 261.4375 363.609375 261.519531 362.929688 261.652344 C 362.257812 261.804688 361.476562 261.839844 360.628906 261.949219 C 359.78125 261.972656 358.859375 262.039062 357.882812 261.960938 C 357.394531 261.953125 356.898438 261.890625 356.386719 261.816406 C 355.878906 261.765625 355.363281 261.667969 354.84375 261.542969 C 353.796875 261.332031 352.75 260.972656 351.710938 260.554688 C 350.679688 260.109375 349.667969 259.578125 348.71875 258.941406 C 347.753906 258.328125 346.882812 257.589844 346.046875 256.84375 C 345.238281 256.066406 344.464844 255.269531 343.800781 254.433594 C 342.4375 252.78125 341.394531 251.070312 340.585938 249.5625 C 339.320312 247.140625 338.683594 245.253906 338.476562 244.578125 C 336.023438 245.53125 333.570312 246.417969 331.128906 247.195312 C 322.40625 249.957031 313.875 251.628906 306.082031 252.609375 C 306.171875 252.757812 306.292969 252.953125 306.453125 253.214844 C 306.628906 253.492188 306.835938 253.832031 307.078125 254.222656 C 307.324219 254.605469 307.574219 255.0625 307.90625 255.515625 C 308.234375 255.976562 308.585938 256.472656 308.960938 257 C 309.316406 257.535156 309.742188 258.066406 310.195312 258.605469 C 310.65625 259.136719 311.078125 259.734375 311.609375 260.246094 C 312.132812 260.765625 312.617188 261.351562 313.191406 261.832031 C 313.765625 262.3125 314.289062 262.851562 314.910156 263.257812 C 315.210938 263.476562 315.507812 263.691406 315.800781 263.902344 C 316.097656 264.105469 316.417969 264.269531 316.71875 264.449219 C 317.3125 264.832031 317.953125 265.070312 318.539062 265.34375 C 319.148438 265.546875 319.71875 265.773438 320.277344 265.863281 C 320.824219 265.996094 321.34375 266.03125 321.796875 266.070312 C 322.257812 266.074219 322.65625 266.070312 322.984375 266.027344 C 323.640625 265.953125 323.996094 265.816406 323.996094 265.816406 C 323.996094 265.816406 323.648438 265.960938 322.988281 266.050781 C 322.660156 266.105469 322.257812 266.117188 321.796875 266.125 C 321.339844 266.089844 320.816406 266.074219 320.261719 265.949219 C 319.695312 265.871094 319.113281 265.65625 318.492188 265.46875 C 317.898438 265.203125 317.238281 264.980469 316.632812 264.609375 C 316.324219 264.433594 315.996094 264.273438 315.6875 264.074219 C 315.386719 263.867188 315.082031 263.65625 314.777344 263.449219 C 314.140625 263.050781 313.59375 262.515625 313 262.042969 C 312.40625 261.566406 311.910156 260.992188 311.363281 260.480469 C 310.8125 259.96875 310.371094 259.378906 309.894531 258.855469 C 309.425781 258.320312 308.984375 257.792969 308.605469 257.261719 C 308.214844 256.738281 307.847656 256.246094 307.511719 255.792969 C 307.164062 255.339844 306.902344 254.882812 306.644531 254.503906 C 306.394531 254.117188 306.171875 253.78125 305.992188 253.5 C 305.707031 253.070312 305.523438 252.785156 305.457031 252.679688 C 303.199219 252.953125 300.996094 253.179688 298.882812 253.34375 C 294.085938 253.734375 289.667969 253.816406 285.765625 253.796875 C 281.859375 253.761719 278.457031 253.59375 275.660156 253.390625 C 270.070312 252.972656 266.914062 252.410156 266.914062 252.410156 C 266.914062 252.410156 270.078125 252.910156 275.671875 253.214844 C 278.46875 253.363281 281.867188 253.464844 285.765625 253.414062 C 289.660156 253.375 294.054688 253.15625 298.828125 252.738281 C 307.527344 251.957031 317.519531 250.296875 327.835938 247.195312 C 327.824219 247.148438 327.8125 247.105469 327.796875 247.050781 C 327.671875 246.632812 327.539062 246.011719 327.367188 245.226562 C 327.246094 244.4375 327.03125 243.480469 326.945312 242.367188 C 326.894531 241.8125 326.8125 241.222656 326.78125 240.597656 C 326.757812 239.972656 326.734375 239.3125 326.714844 238.625 C 326.664062 237.941406 326.734375 237.226562 326.75 236.488281 C 326.796875 235.75 326.777344 234.980469 326.894531 234.207031 C 326.988281 233.421875 327.085938 232.621094 327.183594 231.804688 C 327.28125 230.980469 327.5 230.164062 327.65625 229.324219 C 327.929688 227.628906 328.53125 225.957031 329.027344 224.230469 C 329.261719 223.359375 329.671875 222.546875 329.992188 221.695312 C 330.34375 220.859375 330.644531 219.992188 331.046875 219.175781 C 331.464844 218.363281 331.890625 217.554688 332.308594 216.75 C 332.738281 215.949219 333.109375 215.121094 333.628906 214.382812 C 334.121094 213.632812 334.605469 212.886719 335.085938 212.148438 C 335.578125 211.421875 336 210.65625 336.5625 210.007812 C 337.621094 208.671875 338.648438 207.378906 339.625 206.152344 C 340.707031 205.019531 341.726562 203.949219 342.664062 202.957031 C 343.140625 202.464844 343.59375 201.996094 344.027344 201.546875 C 344.472656 201.117188 344.933594 200.742188 345.34375 200.371094 C 346.179688 199.640625 346.910156 199.003906 347.507812 198.484375 C 348.707031 197.433594 349.394531 196.835938 349.394531 196.835938 C 349.394531 196.835938 348.710938 197.441406 347.523438 198.5 C 346.929688 199.03125 346.210938 199.675781 345.378906 200.410156 C 344.96875 200.78125 344.519531 201.164062 344.070312 201.597656 C 343.648438 202.046875 343.199219 202.523438 342.730469 203.019531 C 341.800781 204.019531 340.792969 205.097656 339.726562 206.238281 C 338.765625 207.472656 337.753906 208.773438 336.707031 210.113281 C 336.152344 210.765625 335.738281 211.53125 335.257812 212.261719 C 334.785156 213 334.308594 213.753906 333.828125 214.503906 C 333.3125 215.238281 332.957031 216.070312 332.539062 216.867188 C 332.128906 217.675781 331.71875 218.484375 331.304688 219.292969 C 330.914062 220.109375 330.625 220.972656 330.285156 221.8125 C 329.976562 222.65625 329.574219 223.46875 329.347656 224.335938 C 328.871094 226.054688 328.296875 227.71875 328.035156 229.402344 C 327.890625 230.238281 327.683594 231.050781 327.59375 231.859375 C 327.503906 232.675781 327.417969 233.46875 327.335938 234.242188 C 327.222656 235.015625 327.25 235.773438 327.214844 236.503906 C 327.203125 237.234375 327.140625 237.941406 327.195312 238.617188 C 327.222656 239.296875 327.253906 239.945312 327.28125 240.558594 C 327.316406 241.175781 327.40625 241.757812 327.457031 242.304688 C 327.550781 243.40625 327.773438 244.339844 327.902344 245.117188 C 328.078125 245.890625 328.214844 246.492188 328.335938 246.890625 C 328.351562 246.941406 328.367188 246.980469 328.378906 247.03125 C 329.195312 246.78125 330.011719 246.539062 330.832031 246.269531 C 339.351562 243.523438 348.015625 239.699219 356.132812 234.753906 C 356.351562 233.605469 356.917969 230.757812 357.855469 226.976562 C 358.179688 225.738281 358.527344 224.402344 358.898438 222.980469 C 359.316406 221.578125 359.679688 220.074219 360.164062 218.550781 C 360.625 217.023438 361.105469 215.445312 361.65625 213.855469 C 362.171875 212.257812 362.765625 210.660156 363.371094 209.066406 C 363.941406 207.457031 364.648438 205.90625 365.28125 204.355469 C 365.929688 202.808594 366.695312 201.339844 367.371094 199.890625 C 368.09375 198.46875 368.867188 197.128906 369.566406 195.84375 C 370.328125 194.59375 371.101562 193.441406 371.789062 192.367188 C 372.511719 191.3125 373.269531 190.417969 373.894531 189.585938 C 374.5 188.738281 375.160156 188.117188 375.671875 187.574219 C 376.191406 187.042969 376.601562 186.621094 376.878906 186.332031 C 376.898438 186.308594 376.917969 186.292969 376.941406 186.265625 C 376.917969 186.292969 376.90625 186.3125 376.878906 186.335938 C 376.601562 186.625 376.199219 187.046875 375.6875 187.589844 C 375.175781 188.128906 374.519531 188.757812 373.921875 189.609375 C 373.304688 190.441406 372.546875 191.339844 371.832031 192.398438 C 371.15625 193.480469 370.390625 194.632812 369.640625 195.886719 C 368.953125 197.179688 368.1875 198.519531 367.476562 199.945312 C 366.816406 201.398438 366.058594 202.863281 365.425781 204.417969 C 364.800781 205.972656 364.105469 207.523438 363.550781 209.136719 C 362.953125 210.730469 362.375 212.328125 361.875 213.929688 C 361.332031 215.511719 360.867188 217.09375 360.417969 218.625 C 359.949219 220.152344 359.578125 221.652344 359.199219 223.0625 C 358.859375 224.484375 358.535156 225.824219 358.238281 227.070312 C 357.488281 230.390625 357.007812 232.980469 356.769531 234.34375 C 359.265625 232.800781 361.710938 231.164062 364.074219 229.402344 C 369.21875 225.648438 373.8125 221.183594 378.902344 217.382812 C 381.457031 215.421875 384.050781 213.558594 386.664062 211.792969 L 386.652344 211.789062 C 386.652344 211.789062 387.269531 209.515625 388.539062 206.25 C 388.851562 205.429688 389.210938 204.550781 389.609375 203.628906 C 389.988281 202.695312 390.445312 201.738281 390.894531 200.742188 C 391.367188 199.753906 391.867188 198.738281 392.394531 197.714844 C 392.957031 196.710938 393.464844 195.660156 394.082031 194.667969 C 394.675781 193.660156 395.261719 192.644531 395.90625 191.695312 C 396.523438 190.726562 397.15625 189.789062 397.8125 188.910156 C 398.136719 188.472656 398.449219 188.035156 398.761719 187.609375 C 399.089844 187.199219 399.417969 186.796875 399.730469 186.40625 C 400.367188 185.628906 400.949219 184.878906 401.558594 184.25 C 402.152344 183.605469 402.699219 183.019531 403.179688 182.492188 C 403.695312 182.003906 404.144531 181.578125 404.511719 181.230469 C 405.257812 180.527344 405.679688 180.128906 405.679688 180.128906 C 405.679688 180.128906 405.261719 180.535156 404.53125 181.246094 C 404.167969 181.601562 403.722656 182.035156 403.214844 182.53125 C 402.742188 183.058594 402.207031 183.660156 401.625 184.3125 C 401.027344 184.945312 400.457031 185.703125 399.835938 186.488281 C 399.527344 186.882812 399.210938 187.289062 398.886719 187.699219 C 398.585938 188.128906 398.273438 188.570312 397.960938 189.015625 C 397.316406 189.898438 396.707031 190.84375 396.101562 191.820312 C 395.472656 192.777344 394.90625 193.796875 394.328125 194.804688 C 393.730469 195.804688 393.238281 196.863281 392.695312 197.867188 C 392.1875 198.894531 391.703125 199.917969 391.246094 200.90625 C 390.816406 201.90625 390.371094 202.863281 390.015625 203.796875 C 389.628906 204.71875 389.292969 205.601562 388.992188 206.417969 C 388.148438 208.699219 387.617188 210.457031 387.371094 211.328125 C 389.65625 209.800781 391.957031 208.335938 394.265625 206.972656 C 399.453125 203.910156 404.652344 201.253906 409.746094 199.128906 C 409.972656 199.035156 410.191406 198.953125 410.414062 198.863281 L 410.207031 198.753906 C 410.207031 198.753906 410.464844 198.3125 410.917969 197.535156 C 411.035156 197.34375 411.164062 197.128906 411.300781 196.894531 C 411.457031 196.675781 411.628906 196.441406 411.816406 196.1875 C 412.1875 195.6875 412.570312 195.09375 413.078125 194.523438 C 413.582031 193.949219 414.078125 193.277344 414.695312 192.65625 C 415.296875 192.023438 415.90625 191.328125 416.601562 190.675781 C 417.949219 189.328125 419.441406 187.945312 420.984375 186.632812 C 427.125 181.304688 433.90625 176.824219 433.90625 176.824219 C 433.90625 176.824219 427.203125 181.425781 421.175781 186.84375 C 419.65625 188.183594 418.199219 189.585938 416.875 190.945312 C 416.195312 191.613281 415.605469 192.308594 415.019531 192.949219 C 414.417969 193.578125 413.941406 194.246094 413.457031 194.820312 C 412.960938 195.398438 412.597656 195.988281 412.238281 196.484375 C 412.066406 196.734375 411.902344 196.96875 411.75 197.1875 C 411.617188 197.417969 411.5 197.625 411.390625 197.816406 C 411.1875 198.175781 411.03125 198.457031 410.914062 198.660156 C 415.589844 196.742188 420.144531 195.199219 424.425781 194.023438 C 429.074219 192.746094 433.410156 191.863281 437.285156 191.347656 C 441.164062 190.824219 444.566406 190.597656 447.371094 190.535156 C 452.988281 190.421875 456.164062 190.964844 456.164062 190.964844 C 456.164062 190.964844 452.976562 190.5 447.378906 190.746094 Z M 103.339844 296.722656 C 103.28125 296.722656 103.222656 296.714844 103.171875 296.714844 C 103.222656 296.71875 103.28125 296.71875 103.339844 296.722656 Z M 102.851562 297.003906 L 102.855469 296.394531 C 102.855469 296.382812 102.90625 296.578125 103.003906 296.671875 C 103.046875 296.707031 103.105469 296.710938 103.171875 296.714844 C 103.105469 296.710938 103.046875 296.710938 103.003906 296.742188 C 102.902344 296.824219 102.851562 297.019531 102.851562 297.003906 Z M 226.597656 274.488281 C 230.914062 270.097656 233.183594 267.410156 233.183594 267.410156 C 233.183594 267.410156 230.863281 270.054688 226.46875 274.351562 C 224.269531 276.503906 221.550781 279.0625 218.34375 281.890625 C 215.140625 284.730469 211.425781 287.816406 207.285156 291.0625 C 200.246094 296.550781 191.855469 302.417969 182.328125 307.730469 C 182.308594 307.695312 182.296875 307.679688 182.273438 307.640625 C 182.144531 307.441406 181.957031 307.183594 181.703125 306.847656 C 181.445312 306.519531 181.132812 306.125 180.75 305.695312 C 180.375 305.257812 179.917969 304.796875 179.425781 304.296875 C 178.425781 303.308594 177.175781 302.234375 175.773438 301.183594 C 175.070312 300.667969 174.324219 300.148438 173.5625 299.644531 C 172.773438 299.171875 172.003906 298.644531 171.179688 298.210938 C 170.355469 297.777344 169.5625 297.289062 168.722656 296.914062 C 167.890625 296.535156 167.101562 296.101562 166.289062 295.78125 C 165.484375 295.449219 164.707031 295.128906 163.972656 294.820312 C 163.21875 294.554688 162.507812 294.304688 161.851562 294.070312 C 160.554688 293.578125 159.421875 293.308594 158.652344 293.058594 C 157.871094 292.832031 157.429688 292.699219 157.429688 292.699219 C 157.429688 292.699219 157.867188 292.847656 158.636719 293.105469 C 159.402344 293.382812 160.519531 293.6875 161.800781 294.226562 C 162.441406 294.480469 163.140625 294.753906 163.882812 295.046875 C 164.601562 295.378906 165.363281 295.730469 166.148438 296.085938 C 166.945312 296.429688 167.71875 296.886719 168.527344 297.296875 C 169.34375 297.695312 170.113281 298.203125 170.914062 298.664062 C 171.714844 299.121094 172.453125 299.667969 173.210938 300.164062 C 173.949219 300.6875 174.660156 301.21875 175.335938 301.75 C 176.675781 302.835938 177.851562 303.917969 178.789062 304.917969 C 179.253906 305.417969 179.675781 305.882812 180.023438 306.3125 C 180.375 306.738281 180.664062 307.121094 180.890625 307.441406 C 181.113281 307.761719 181.292969 308.023438 181.390625 308.191406 C 181.40625 308.214844 181.410156 308.222656 181.421875 308.242188 C 180.011719 309.019531 178.585938 309.777344 177.128906 310.519531 C 167.59375 315.441406 156.957031 319.667969 145.804688 322.113281 C 145.023438 321.277344 143.140625 319.308594 140.488281 316.839844 C 136.929688 313.554688 132.042969 309.300781 126.675781 305.703125 C 125.335938 304.800781 123.976562 303.929688 122.601562 303.132812 C 121.234375 302.320312 119.855469 301.585938 118.5 300.910156 C 117.140625 300.246094 115.800781 299.660156 114.511719 299.144531 C 113.859375 298.910156 113.226562 298.675781 112.609375 298.453125 C 111.988281 298.261719 111.386719 298.078125 110.808594 297.894531 C 109.640625 297.585938 108.558594 297.3125 107.589844 297.15625 C 106.625 296.957031 105.765625 296.898438 105.070312 296.8125 C 104.367188 296.738281 103.808594 296.746094 103.433594 296.726562 C 103.398438 296.722656 103.375 296.722656 103.339844 296.722656 C 103.375 296.722656 103.398438 296.726562 103.433594 296.726562 C 103.808594 296.753906 104.367188 296.746094 105.066406 296.828125 C 105.765625 296.917969 106.621094 296.984375 107.582031 297.195312 C 108.550781 297.355469 109.625 297.636719 110.789062 297.957031 C 111.367188 298.144531 111.964844 298.332031 112.585938 298.527344 C 113.195312 298.753906 113.824219 298.992188 114.472656 299.230469 C 115.761719 299.757812 117.089844 300.347656 118.441406 301.027344 C 119.789062 301.714844 121.160156 302.457031 122.515625 303.273438 C 123.882812 304.082031 125.234375 304.960938 126.5625 305.875 C 129.222656 307.691406 131.769531 309.667969 134.085938 311.609375 C 136.40625 313.539062 138.472656 315.460938 140.195312 317.144531 C 142.566406 319.457031 144.273438 321.304688 145.128906 322.257812 C 142.875 322.734375 140.605469 323.148438 138.316406 323.472656 C 131.40625 324.574219 124.386719 324.273438 117.433594 325.015625 C 114.078125 325.332031 110.761719 325.769531 107.5 326.300781 C 107.402344 326.214844 105.75 324.777344 103.058594 323 C 102.367188 322.535156 101.601562 322.050781 100.785156 321.5625 C 99.980469 321.050781 99.085938 320.589844 98.183594 320.074219 C 97.257812 319.597656 96.304688 319.097656 95.316406 318.636719 C 94.3125 318.199219 93.320312 317.703125 92.277344 317.328125 C 91.246094 316.914062 90.210938 316.519531 89.167969 316.203125 C 88.644531 316.035156 88.132812 315.871094 87.621094 315.707031 C 87.105469 315.574219 86.59375 315.441406 86.089844 315.3125 C 85.585938 315.183594 85.09375 315.0625 84.609375 314.9375 C 84.117188 314.847656 83.636719 314.757812 83.167969 314.675781 C 82.230469 314.496094 81.347656 314.332031 80.519531 314.269531 C 79.691406 314.183594 78.933594 314.105469 78.261719 314.039062 C 77.589844 314.023438 77.003906 314.011719 76.519531 313.996094 C 75.546875 313.976562 75 313.964844 75 313.964844 C 75 313.964844 75.546875 313.988281 76.519531 314.027344 C 77 314.042969 77.585938 314.066406 78.257812 314.09375 C 78.929688 314.175781 79.679688 314.265625 80.503906 314.363281 C 81.332031 314.4375 82.210938 314.617188 83.136719 314.808594 C 83.601562 314.90625 84.082031 315.003906 84.566406 315.097656 C 85.046875 315.230469 85.539062 315.363281 86.042969 315.5 C 86.539062 315.636719 87.046875 315.773438 87.558594 315.914062 C 88.0625 316.085938 88.570312 316.265625 89.085938 316.441406 C 90.121094 316.769531 91.144531 317.183594 92.160156 317.609375 C 93.191406 318.003906 94.171875 318.507812 95.160156 318.964844 C 96.132812 319.4375 97.070312 319.949219 97.980469 320.4375 C 98.867188 320.96875 99.746094 321.441406 100.539062 321.960938 C 101.34375 322.464844 102.089844 322.957031 102.765625 323.425781 C 104.71875 324.769531 106.097656 325.894531 106.722656 326.433594 C 103.527344 326.976562 100.390625 327.613281 97.328125 328.363281 C 91.273438 329.832031 85.515625 331.660156 80.164062 333.757812 L 80.265625 333.546875 C 80.265625 333.546875 79.796875 333.359375 78.960938 333.03125 C 78.554688 332.839844 78.03125 332.703125 77.433594 332.558594 C 76.832031 332.398438 76.164062 332.214844 75.414062 332.113281 C 74.664062 331.992188 73.859375 331.839844 72.996094 331.777344 C 72.140625 331.691406 71.230469 331.597656 70.292969 331.578125 C 69.355469 331.519531 68.382812 331.496094 67.394531 331.507812 C 66.410156 331.492188 65.410156 331.523438 64.40625 331.554688 C 56.390625 331.816406 48.5 333.226562 48.5 333.226562 C 48.5 333.226562 56.417969 331.960938 64.414062 331.859375 C 65.414062 331.847656 66.410156 331.832031 67.390625 331.867188 C 68.375 331.875 69.339844 331.921875 70.269531 331.992188 C 71.203125 332.03125 72.097656 332.140625 72.945312 332.246094 C 73.796875 332.320312 74.585938 332.488281 75.320312 332.621094 C 76.058594 332.730469 76.707031 332.925781 77.285156 333.09375 C 77.863281 333.242188 78.371094 333.390625 78.757812 333.578125 C 79.140625 333.738281 79.441406 333.863281 79.65625 333.949219 C 79.496094 334.011719 79.328125 334.074219 79.171875 334.132812 C 73.539062 336.382812 68.371094 338.875 63.75 341.441406 C 54.496094 346.578125 47.492188 352 42.871094 356.050781 C 38.234375 360.109375 35.949219 362.796875 35.949219 362.796875 C 35.949219 362.796875 38.296875 360.167969 43.015625 356.222656 C 47.714844 352.273438 54.859375 347.109375 64.101562 342.085938 C 65.203125 341.492188 66.34375 340.90625 67.511719 340.320312 C 67.460938 340.53125 67.410156 340.769531 67.339844 341.066406 C 67.234375 341.519531 67.128906 342.070312 66.890625 342.679688 C 66.664062 343.285156 66.464844 343.992188 66.148438 344.722656 C 65.8125 345.449219 65.476562 346.25 65.070312 347.070312 C 64.628906 347.875 64.195312 348.746094 63.683594 349.609375 C 63.144531 350.453125 62.640625 351.363281 62.035156 352.226562 C 61.4375 353.097656 60.855469 353.996094 60.199219 354.851562 C 58.945312 356.585938 57.585938 358.253906 56.285156 359.789062 C 54.984375 361.328125 53.714844 362.714844 52.609375 363.890625 C 50.398438 366.230469 48.816406 367.691406 48.816406 367.691406 C 48.816406 367.691406 50.421875 366.257812 52.679688 363.957031 C 53.804688 362.800781 55.101562 361.429688 56.429688 359.917969 C 57.761719 358.402344 59.152344 356.753906 60.441406 355.03125 C 61.117188 354.191406 61.71875 353.292969 62.335938 352.433594 C 62.960938 351.574219 63.484375 350.667969 64.039062 349.820312 C 64.574219 348.964844 65.027344 348.09375 65.492188 347.289062 C 65.917969 346.464844 66.269531 345.65625 66.625 344.921875 C 66.960938 344.183594 67.179688 343.464844 67.417969 342.851562 C 67.671875 342.238281 67.792969 341.671875 67.90625 341.207031 C 68.054688 340.617188 68.152344 340.210938 68.210938 339.976562 C 76.660156 335.808594 86.632812 332.035156 97.582031 329.421875 C 98.421875 329.21875 99.273438 329.046875 100.125 328.863281 C 100.054688 329.484375 99.835938 331.117188 99.289062 333.316406 C 99.125 334.019531 98.914062 334.777344 98.675781 335.574219 C 98.453125 336.371094 98.144531 337.195312 97.863281 338.054688 C 97.519531 338.898438 97.226562 339.789062 96.820312 340.648438 C 96.429688 341.519531 96.042969 342.40625 95.574219 343.257812 L 94.902344 344.542969 C 94.648438 344.953125 94.402344 345.363281 94.15625 345.773438 C 93.6875 346.605469 93.136719 347.367188 92.617188 348.109375 C 92.121094 348.871094 91.550781 349.542969 91.023438 350.1875 C 90.761719 350.511719 90.507812 350.828125 90.253906 351.132812 C 89.988281 351.414062 89.726562 351.6875 89.476562 351.953125 C 88.964844 352.472656 88.523438 352.96875 88.089844 353.375 C 87.648438 353.769531 87.261719 354.113281 86.945312 354.394531 C 86.308594 354.957031 85.941406 355.277344 85.941406 355.277344 C 85.941406 355.277344 86.3125 354.960938 86.960938 354.410156 C 87.285156 354.136719 87.679688 353.804688 88.128906 353.417969 C 88.566406 353.019531 89.023438 352.53125 89.546875 352.019531 C 89.800781 351.757812 90.066406 351.488281 90.347656 351.207031 C 90.601562 350.910156 90.863281 350.597656 91.128906 350.28125 C 91.671875 349.640625 92.257812 348.980469 92.773438 348.222656 C 93.3125 347.484375 93.882812 346.730469 94.371094 345.90625 C 94.625 345.5 94.882812 345.085938 95.136719 344.675781 L 95.84375 343.402344 C 96.328125 342.550781 96.742188 341.667969 97.148438 340.796875 C 97.574219 339.933594 97.890625 339.042969 98.25 338.203125 C 98.554688 337.339844 98.878906 336.515625 99.125 335.710938 C 99.378906 334.914062 99.609375 334.15625 99.792969 333.445312 C 100.46875 330.9375 100.707031 329.109375 100.753906 328.726562 C 106.179688 327.570312 111.804688 326.707031 117.542969 326.191406 C 119.257812 326.066406 120.972656 325.902344 122.707031 325.816406 C 123.96875 325.765625 125.230469 325.714844 126.496094 325.660156 C 126.507812 325.695312 126.515625 325.714844 126.527344 325.75 C 126.601562 325.957031 126.683594 326.285156 126.796875 326.695312 C 126.878906 327.117188 127 327.625 127.058594 328.222656 C 127.15625 328.8125 127.164062 329.492188 127.203125 330.230469 C 127.171875 330.96875 127.183594 331.773438 127.054688 332.617188 C 126.988281 333.464844 126.773438 334.335938 126.578125 335.242188 C 126.339844 336.136719 126.054688 337.0625 125.710938 337.972656 C 125.308594 338.863281 124.988281 339.8125 124.476562 340.667969 C 124.003906 341.539062 123.546875 342.425781 122.96875 343.222656 C 122.417969 344.03125 121.90625 344.859375 121.289062 345.5625 C 120.691406 346.277344 120.160156 347.011719 119.570312 347.640625 C 118.976562 348.261719 118.414062 348.84375 117.894531 349.386719 C 117.390625 349.945312 116.871094 350.394531 116.417969 350.796875 C 115.960938 351.199219 115.5625 351.554688 115.238281 351.84375 C 114.585938 352.429688 114.210938 352.761719 114.210938 352.761719 C 114.210938 352.761719 114.589844 352.4375 115.253906 351.867188 C 115.585938 351.582031 115.988281 351.238281 116.453125 350.839844 C 116.921875 350.445312 117.449219 350 117.960938 349.457031 C 118.492188 348.921875 119.066406 348.347656 119.671875 347.734375 C 120.273438 347.121094 120.824219 346.394531 121.441406 345.683594 C 122.078125 344.984375 122.605469 344.167969 123.171875 343.359375 C 123.773438 342.570312 124.25 341.683594 124.746094 340.808594 C 125.28125 339.957031 125.625 339.003906 126.046875 338.109375 C 126.417969 337.1875 126.722656 336.257812 126.984375 335.351562 C 127.203125 334.429688 127.4375 333.539062 127.519531 332.671875 C 127.671875 331.816406 127.675781 330.988281 127.71875 330.230469 C 127.695312 329.472656 127.699219 328.773438 127.613281 328.15625 C 127.558594 327.539062 127.445312 327.007812 127.367188 326.566406 C 127.265625 326.171875 127.199219 325.867188 127.125 325.632812 C 127.394531 325.625 127.664062 325.613281 127.9375 325.597656 C 131.460938 325.480469 134.988281 325.15625 138.484375 324.644531 C 147.957031 323.269531 157.140625 320.503906 165.714844 316.976562 C 165.773438 317.273438 165.867188 317.734375 165.972656 318.382812 C 166.148438 319.515625 166.347656 321.144531 166.40625 323.117188 C 166.472656 325.082031 166.382812 327.390625 166.023438 329.828125 C 165.84375 331.042969 165.597656 332.296875 165.261719 333.542969 C 164.949219 334.800781 164.503906 336.039062 164.027344 337.261719 C 163.527344 338.480469 162.960938 339.667969 162.3125 340.789062 C 161.664062 341.910156 160.964844 342.980469 160.203125 343.953125 C 159.828125 344.441406 159.453125 344.921875 159.046875 345.359375 C 158.652344 345.800781 158.273438 346.25 157.859375 346.636719 C 157.074219 347.453125 156.253906 348.144531 155.507812 348.789062 C 154.71875 349.386719 154.015625 349.96875 153.339844 350.402344 C 152.660156 350.835938 152.097656 351.257812 151.585938 351.527344 C 150.582031 352.105469 150.007812 352.433594 150.007812 352.433594 C 150.007812 352.433594 150.585938 352.113281 151.597656 351.554688 C 152.113281 351.285156 152.6875 350.871094 153.371094 350.449219 C 154.058594 350.027344 154.769531 349.453125 155.566406 348.863281 C 156.328125 348.226562 157.164062 347.546875 157.964844 346.738281 C 158.382812 346.351562 158.769531 345.914062 159.175781 345.46875 C 159.589844 345.039062 159.96875 344.5625 160.351562 344.074219 C 161.136719 343.105469 161.855469 342.039062 162.527344 340.917969 C 163.195312 339.796875 163.785156 338.601562 164.308594 337.382812 C 164.808594 336.15625 165.277344 334.90625 165.609375 333.640625 C 165.972656 332.382812 166.238281 331.121094 166.441406 329.890625 C 166.835938 327.429688 166.960938 325.097656 166.921875 323.101562 C 166.871094 319.847656 166.441406 317.5 166.285156 316.742188 C 170.199219 315.113281 173.984375 313.328125 177.605469 311.441406 C 185.171875 307.46875 192.058594 303.085938 198.214844 298.703125 C 198.347656 299.347656 198.53125 300.355469 198.699219 301.636719 C 198.835938 302.761719 198.992188 304.078125 199.054688 305.496094 C 199.140625 306.910156 199.132812 308.425781 199.078125 309.941406 C 199.011719 310.695312 198.984375 311.457031 198.890625 312.195312 C 198.777344 312.929688 198.730469 313.667969 198.570312 314.359375 C 198.417969 315.050781 198.332031 315.742188 198.128906 316.363281 C 197.941406 316.988281 197.808594 317.59375 197.605469 318.125 C 197.402344 318.65625 197.21875 319.144531 197.054688 319.582031 C 196.878906 320.007812 196.679688 320.359375 196.535156 320.660156 C 196.238281 321.261719 196.066406 321.601562 196.066406 321.601562 C 196.066406 321.601562 196.253906 321.269531 196.578125 320.679688 C 196.734375 320.386719 196.949219 320.042969 197.144531 319.617188 C 197.328125 319.191406 197.535156 318.707031 197.757812 318.179688 C 197.988281 317.65625 198.144531 317.050781 198.363281 316.429688 C 198.59375 315.808594 198.707031 315.121094 198.894531 314.429688 C 199.085938 313.730469 199.167969 312.992188 199.3125 312.25 C 199.4375 311.503906 199.5 310.742188 199.597656 309.976562 C 199.722656 308.453125 199.796875 306.910156 199.773438 305.476562 C 199.773438 304.035156 199.671875 302.691406 199.582031 301.542969 C 199.433594 299.863281 199.234375 298.601562 199.140625 298.039062 C 202.167969 295.859375 205.03125 293.683594 207.6875 291.570312 C 211.8125 288.28125 215.449219 285.082031 218.609375 282.1875 C 221.769531 279.289062 224.441406 276.679688 226.597656 274.488281 " fill-opacity="1" fill-rule="nonzero"/></svg>