<svg xmlns="http://www.w3.org/2000/svg" xmlns:xlink="http://www.w3.org/1999/xlink" width="1920" zoomAndPan="magnify" viewBox="0 0 1440 809.999993" height="1080" preserveAspectRatio="xMidYMid meet" version="1.0"><defs><clipPath id="8339ce055a"><path d="M 796.066406 308.347656 L 1348.351562 308.347656 L 1348.351562 779.300781 L 796.066406 779.300781 Z M 796.066406 308.347656 " clip-rule="nonzero"/></clipPath><clipPath id="f4ee4a6e3e"><path d="M 51 0 L 352 0 L 352 307 L 51 307 Z M 51 0 " clip-rule="nonzero"/></clipPath><clipPath id="60ecb2abe8"><path d="M 382.964844 233.8125 L 51.488281 308.324219 L -12.003906 25.871094 L 319.476562 -48.640625 Z M 382.964844 233.8125 " clip-rule="nonzero"/></clipPath><clipPath id="c07dbd52da"><path d="M 51.429688 308.335938 L 382.90625 233.824219 L 319.417969 -48.625 L -12.0625 25.886719 Z M 51.429688 308.335938 " clip-rule="nonzero"/></clipPath><clipPath id="793b19663d"><path d="M 51.429688 308.335938 L 382.90625 233.824219 L 319.417969 -48.625 L -12.0625 25.886719 Z M 51.429688 308.335938 " clip-rule="nonzero"/></clipPath><clipPath id="14f2b87f0e"><path d="M 51.566406 308.304688 L 382.925781 233.824219 L 319.398438 -48.785156 L -11.957031 25.699219 Z M 51.566406 308.304688 " clip-rule="nonzero"/></clipPath><clipPath id="5ab9d679a0"><path d="M 51.566406 308.304688 L 382.761719 233.859375 L 319.277344 -48.5625 L -11.917969 25.882812 Z M 51.566406 308.304688 " clip-rule="nonzero"/></clipPath><clipPath id="ddaa0f6ace"><path d="M 60 94 L 341 94 L 341 298 L 60 298 Z M 60 94 " clip-rule="nonzero"/></clipPath><clipPath id="2fc285892a"><path d="M 382.964844 233.8125 L 51.488281 308.324219 L -12.003906 25.871094 L 319.476562 -48.640625 Z M 382.964844 233.8125 " clip-rule="nonzero"/></clipPath><clipPath id="a4ade0e4ca"><path d="M 51.429688 308.335938 L 382.90625 233.824219 L 319.417969 -48.625 L -12.0625 25.886719 Z M 51.429688 308.335938 " clip-rule="nonzero"/></clipPath><clipPath id="59df6f2ec6"><path d="M 51.429688 308.335938 L 382.90625 233.824219 L 319.417969 -48.625 L -12.0625 25.886719 Z M 51.429688 308.335938 " clip-rule="nonzero"/></clipPath></defs><rect x="-144" width="1728" fill="#ffffff" y="-80.999999" height="971.999992" fill-opacity="1"/><rect x="-144" width="1728" fill="#ffffff" y="-80.999999" height="971.999992" fill-opacity="1"/><g clip-path="url(#8339ce055a)"><path fill="#216b39" d="M 1348.351562 537.015625 C 1348.351562 537.015625 1268.621094 587.546875 1210.464844 554.289062 C 1152.308594 521.039062 1113.574219 460.964844 1096.925781 463.949219 C 1087.304688 465.671875 1066.425781 488.332031 1063.816406 491.621094 C 1061.164062 495.007812 1057.941406 499.125 1054.417969 503.980469 C 1050.859375 508.800781 1046.984375 514.347656 1042.867188 520.46875 C 1040.855469 523.558594 1038.691406 526.734375 1036.605469 530.113281 C 1035.546875 531.792969 1034.472656 533.503906 1033.378906 535.234375 C 1032.324219 536.996094 1031.25 538.777344 1030.164062 540.585938 C 1027.949219 544.179688 1025.867188 547.980469 1023.660156 551.816406 C 1021.519531 555.691406 1019.363281 559.664062 1017.238281 563.734375 C 1015.1875 567.84375 1012.988281 571.960938 1011.023438 576.261719 C 1010.015625 578.390625 1009 580.539062 1007.984375 582.695312 C 1007.027344 584.882812 1006.066406 587.074219 1005.101562 589.28125 C 1003.113281 593.660156 1001.40625 598.195312 999.585938 602.699219 C 998.644531 604.941406 997.882812 607.253906 997.046875 609.535156 L 994.574219 616.40625 L 992.363281 623.355469 C 991.628906 625.671875 990.847656 627.96875 990.242188 630.3125 C 988.988281 634.980469 987.574219 639.585938 986.59375 644.257812 C 986.058594 646.574219 985.519531 648.886719 984.988281 651.1875 C 984.484375 653.488281 984.121094 655.8125 983.683594 658.101562 C 983.269531 660.390625 982.816406 662.664062 982.453125 664.929688 C 982.148438 667.203125 981.84375 669.460938 981.542969 671.703125 C 981.277344 673.941406 980.871094 676.148438 980.726562 678.359375 C 980.550781 680.5625 980.375 682.75 980.199219 684.90625 C 979.742188 689.21875 979.722656 693.457031 979.613281 697.570312 C 979.59375 699.625 979.429688 701.652344 979.527344 703.648438 C 979.59375 705.640625 979.65625 707.601562 979.722656 709.535156 C 979.789062 711.460938 979.847656 713.355469 979.90625 715.214844 C 980.082031 717.066406 980.257812 718.882812 980.429688 720.664062 C 980.597656 722.4375 980.761719 724.179688 980.921875 725.878906 C 981.011719 726.726562 981.066406 727.570312 981.179688 728.394531 C 981.308594 729.222656 981.445312 730.027344 981.574219 730.832031 C 982.089844 734.035156 982.578125 737.074219 983.039062 739.929688 C 983.222656 741.363281 983.632812 742.707031 983.910156 744.03125 C 984.214844 745.34375 984.507812 746.609375 984.792969 747.824219 C 985.371094 750.257812 985.832031 752.503906 986.367188 754.5 C 988.789062 762.410156 990.171875 766.929688 990.171875 766.929688 L 990.355469 767.527344 C 991.824219 772.332031 989.117188 777.425781 984.304688 778.898438 C 979.492188 780.367188 974.398438 777.660156 972.925781 772.855469 C 972.890625 772.734375 972.84375 772.578125 972.816406 772.457031 C 972.816406 772.457031 971.523438 767.453125 969.273438 758.695312 C 968.789062 756.488281 968.386719 754.015625 967.875 751.347656 C 967.628906 750.007812 967.375 748.617188 967.109375 747.171875 C 966.871094 745.722656 966.503906 744.242188 966.375 742.679688 C 966.015625 739.5625 965.632812 736.25 965.230469 732.753906 C 965.128906 731.878906 965.03125 730.992188 964.925781 730.097656 C 964.847656 729.199219 964.824219 728.289062 964.773438 727.371094 C 964.683594 725.527344 964.589844 723.648438 964.488281 721.722656 C 964.398438 719.800781 964.300781 717.839844 964.207031 715.84375 C 964.226562 713.84375 964.253906 711.804688 964.277344 709.738281 C 964.300781 707.667969 964.328125 705.566406 964.355469 703.429688 C 964.355469 701.292969 964.613281 699.136719 964.738281 696.941406 C 965.054688 692.570312 965.289062 688.070312 965.972656 683.519531 C 966.261719 681.242188 966.554688 678.941406 966.851562 676.617188 C 967.113281 674.285156 967.640625 671.980469 968.03125 669.632812 C 968.453125 667.292969 968.878906 664.929688 969.308594 662.554688 C 969.796875 660.191406 970.382812 657.828125 970.921875 655.445312 C 971.492188 653.070312 971.988281 650.667969 972.621094 648.277344 C 973.28125 645.90625 973.949219 643.519531 974.617188 641.121094 C 975.867188 636.304688 977.550781 631.585938 979.074219 626.804688 C 979.8125 624.40625 980.726562 622.066406 981.589844 619.703125 L 984.210938 612.628906 L 987.070312 605.660156 C 988.042969 603.347656 988.9375 601.003906 990.007812 598.742188 C 992.085938 594.195312 994.054688 589.628906 996.292969 585.226562 C 997.382812 583.015625 998.46875 580.8125 999.550781 578.628906 C 1000.6875 576.46875 1001.824219 574.324219 1002.953125 572.1875 C 1005.15625 567.894531 1007.589844 563.789062 1009.871094 559.703125 C 1012.222656 555.65625 1014.605469 551.707031 1016.953125 547.871094 C 1019.378906 544.074219 1021.667969 540.3125 1024.074219 536.769531 C 1025.265625 534.984375 1026.433594 533.222656 1027.585938 531.492188 C 1028.773438 529.78125 1029.945312 528.101562 1031.09375 526.445312 C 1033.363281 523.117188 1035.695312 520 1037.875 516.964844 C 1042.320312 510.960938 1046.492188 505.535156 1050.3125 500.824219 C 1054.097656 496.085938 1057.542969 492.066406 1060.378906 488.765625 C 1062.796875 485.984375 1064.820312 483.742188 1066.351562 482.074219 C 1066.351562 482.074219 1061.457031 454.175781 1053.84375 445.164062 C 1040.675781 429.570312 976.628906 450.863281 908.855469 433.90625 C 841.082031 416.953125 796.066406 311.152344 796.066406 311.152344 C 796.066406 311.152344 848.464844 311.171875 911.855469 308.4375 C 993.238281 304.9375 1045.425781 407.414062 1058.109375 437.699219 C 1065.691406 455.816406 1069.070312 469.164062 1070.5625 476.96875 C 1075.070312 471.992188 1083.402344 464.042969 1096.976562 455.304688 C 1119.648438 440.699219 1203.300781 397.621094 1262.761719 455.882812 C 1309.078125 501.257812 1348.351562 537.015625 1348.351562 537.015625 " fill-opacity="1" fill-rule="nonzero"/></g><path fill="#2d9d49" d="M 1155.179688 487.609375 C 1154.921875 487.085938 1154.628906 486.5 1154.316406 485.851562 C 1153.972656 485.222656 1153.722656 484.484375 1153.410156 483.726562 C 1153.085938 482.972656 1152.820312 482.152344 1152.550781 481.292969 C 1152.257812 480.449219 1152.035156 479.554688 1151.808594 478.640625 C 1151.554688 477.738281 1151.398438 476.792969 1151.207031 475.859375 C 1150.859375 473.984375 1150.625 472.09375 1150.488281 470.308594 C 1150.355469 468.527344 1150.304688 466.863281 1150.3125 465.433594 C 1150.320312 462.574219 1150.554688 460.691406 1150.554688 460.691406 L 1149.855469 460.621094 C 1149.855469 460.621094 1149.667969 462.558594 1149.726562 465.4375 C 1149.746094 466.882812 1149.835938 468.558594 1150.011719 470.355469 C 1150.195312 472.144531 1150.46875 474.046875 1150.867188 475.925781 C 1151.082031 476.863281 1151.253906 477.808594 1151.535156 478.714844 C 1151.785156 479.621094 1152.027344 480.519531 1152.34375 481.363281 C 1152.632812 482.214844 1152.914062 483.039062 1153.261719 483.785156 C 1153.589844 484.542969 1153.859375 485.277344 1154.214844 485.902344 C 1154.546875 486.539062 1154.851562 487.121094 1155.121094 487.644531 C 1155.429688 488.136719 1155.699219 488.566406 1155.925781 488.921875 C 1156.371094 489.628906 1156.628906 490.03125 1156.628906 490.03125 C 1156.628906 490.03125 1156.382812 489.625 1155.949219 488.902344 C 1155.734375 488.546875 1155.472656 488.109375 1155.179688 487.609375 Z M 1231.886719 540.6875 L 1232.359375 540.175781 C 1232.371094 540.164062 1232.179688 540.28125 1232.019531 540.265625 C 1231.953125 540.25 1231.898438 540.199219 1231.84375 540.136719 C 1231.902344 540.195312 1231.953125 540.253906 1231.96875 540.320312 C 1231.984375 540.484375 1231.878906 540.695312 1231.886719 540.6875 Z M 1231.6875 539.976562 C 1231.742188 540.03125 1231.796875 540.089844 1231.84375 540.136719 C 1231.796875 540.089844 1231.742188 540.03125 1231.6875 539.976562 Z M 1317.773438 534.503906 C 1310.945312 534.210938 1301.199219 532.957031 1289.949219 529.703125 C 1289.179688 529.480469 1288.398438 529.230469 1287.617188 528.988281 C 1287.777344 528.824219 1287.972656 528.632812 1288.210938 528.386719 C 1288.542969 528.058594 1288.921875 527.628906 1289.460938 527.257812 C 1289.996094 526.878906 1290.546875 526.390625 1291.230469 525.964844 C 1291.925781 525.558594 1292.664062 525.082031 1293.484375 524.652344 C 1294.328125 524.265625 1295.191406 523.804688 1296.128906 523.425781 C 1297.082031 523.082031 1298.035156 522.632812 1299.058594 522.339844 C 1300.078125 522.019531 1301.101562 521.667969 1302.164062 521.414062 C 1303.207031 521.121094 1304.261719 520.867188 1305.304688 520.660156 C 1306.347656 520.414062 1307.386719 520.242188 1308.386719 520.054688 C 1310.394531 519.710938 1312.28125 519.464844 1313.902344 519.292969 C 1317.152344 518.957031 1319.324219 518.902344 1319.324219 518.902344 C 1319.324219 518.902344 1317.152344 518.914062 1313.894531 519.1875 C 1312.265625 519.328125 1310.371094 519.535156 1308.351562 519.839844 C 1307.347656 520.007812 1306.296875 520.152344 1305.25 520.378906 C 1304.195312 520.574219 1303.132812 520.804688 1302.070312 521.074219 C 1301.007812 521.308594 1299.964844 521.640625 1298.933594 521.949219 C 1297.894531 522.222656 1296.921875 522.648438 1295.953125 522.984375 C 1294.988281 523.347656 1294.101562 523.796875 1293.238281 524.175781 C 1292.398438 524.597656 1291.636719 525.066406 1290.914062 525.46875 C 1290.207031 525.890625 1289.625 526.382812 1289.070312 526.769531 C 1288.503906 527.132812 1288.101562 527.570312 1287.75 527.90625 C 1287.34375 528.300781 1287.054688 528.582031 1286.867188 528.757812 C 1276.410156 525.480469 1264.917969 520.4375 1253.496094 513.605469 C 1252.894531 513.25 1252.296875 512.863281 1251.695312 512.496094 C 1252.046875 512.027344 1253.085938 510.6875 1254.789062 509.050781 C 1255.304688 508.53125 1255.898438 508 1256.535156 507.453125 C 1257.15625 506.882812 1257.882812 506.371094 1258.601562 505.796875 C 1259.363281 505.289062 1260.117188 504.703125 1260.953125 504.222656 C 1261.78125 503.722656 1262.617188 503.214844 1263.511719 502.796875 C 1263.949219 502.585938 1264.382812 502.351562 1264.828125 502.148438 C 1265.28125 501.96875 1265.734375 501.789062 1266.183594 501.609375 C 1267.070312 501.210938 1267.988281 500.972656 1268.871094 500.699219 C 1269.746094 500.394531 1270.628906 500.261719 1271.453125 500.089844 C 1271.867188 500.007812 1272.269531 499.914062 1272.660156 499.851562 C 1273.058594 499.8125 1273.441406 499.773438 1273.8125 499.738281 C 1274.542969 499.675781 1275.21875 499.566406 1275.820312 499.5625 C 1276.417969 499.566406 1276.945312 499.566406 1277.375 499.570312 C 1278.238281 499.578125 1278.730469 499.578125 1278.730469 499.578125 C 1278.730469 499.578125 1278.238281 499.5625 1277.375 499.542969 C 1276.945312 499.53125 1276.417969 499.515625 1275.8125 499.5 C 1275.210938 499.492188 1274.539062 499.582031 1273.796875 499.632812 C 1273.429688 499.65625 1273.042969 499.6875 1272.648438 499.71875 C 1272.25 499.765625 1271.84375 499.855469 1271.425781 499.925781 C 1270.589844 500.082031 1269.695312 500.199219 1268.8125 500.484375 C 1267.917969 500.738281 1266.984375 500.964844 1266.082031 501.34375 C 1265.625 501.511719 1265.167969 501.6875 1264.699219 501.859375 C 1264.25 502.054688 1263.808594 502.28125 1263.355469 502.484375 C 1262.445312 502.882812 1261.589844 503.382812 1260.742188 503.863281 C 1259.882812 504.335938 1259.109375 504.910156 1258.320312 505.410156 C 1257.582031 505.976562 1256.835938 506.476562 1256.1875 507.039062 C 1255.53125 507.582031 1254.917969 508.109375 1254.375 508.625 C 1252.554688 510.300781 1251.433594 511.699219 1251.109375 512.132812 C 1245.636719 508.746094 1240.199219 504.992188 1234.90625 500.894531 C 1231.828125 498.578125 1228.871094 496.023438 1225.875 493.480469 C 1225.882812 493.441406 1225.882812 493.421875 1225.894531 493.375 C 1225.929688 493.152344 1226.007812 492.816406 1226.113281 492.382812 C 1226.242188 491.957031 1226.375 491.433594 1226.605469 490.859375 C 1226.816406 490.277344 1227.109375 489.640625 1227.460938 488.957031 C 1227.816406 488.285156 1228.242188 487.566406 1228.753906 486.859375 C 1229.019531 486.511719 1229.296875 486.152344 1229.578125 485.789062 C 1229.875 485.4375 1230.214844 485.109375 1230.546875 484.757812 C 1231.167969 484.023438 1232.019531 483.480469 1232.777344 482.8125 C 1233.640625 482.296875 1234.460938 481.664062 1235.394531 481.234375 C 1236.335938 480.816406 1237.238281 480.296875 1238.222656 480.035156 C 1239.191406 479.734375 1240.121094 479.347656 1241.082031 479.203125 C 1242.039062 479.027344 1242.945312 478.785156 1243.828125 478.675781 C 1244.710938 478.589844 1245.550781 478.507812 1246.324219 478.4375 C 1247.097656 478.332031 1247.808594 478.34375 1248.441406 478.347656 C 1249.074219 478.347656 1249.628906 478.347656 1250.078125 478.347656 C 1250.988281 478.347656 1251.503906 478.347656 1251.503906 478.347656 C 1251.503906 478.347656 1250.988281 478.339844 1250.078125 478.320312 C 1249.628906 478.308594 1249.074219 478.296875 1248.441406 478.285156 C 1247.808594 478.261719 1247.09375 478.242188 1246.320312 478.328125 C 1245.542969 478.390625 1244.699219 478.449219 1243.808594 478.515625 C 1242.921875 478.605469 1241.996094 478.832031 1241.039062 478.984375 C 1240.066406 479.113281 1239.117188 479.484375 1238.132812 479.761719 C 1237.128906 480.015625 1236.203125 480.519531 1235.242188 480.921875 C 1234.28125 481.339844 1233.429688 481.960938 1232.535156 482.476562 C 1231.746094 483.140625 1230.867188 483.679688 1230.210938 484.417969 C 1229.863281 484.769531 1229.507812 485.101562 1229.191406 485.457031 C 1228.894531 485.828125 1228.605469 486.1875 1228.324219 486.539062 C 1227.78125 487.261719 1227.324219 487.988281 1226.9375 488.683594 C 1226.5625 489.375 1226.246094 490.027344 1226.019531 490.628906 C 1225.765625 491.21875 1225.613281 491.765625 1225.46875 492.207031 C 1225.386719 492.515625 1225.328125 492.753906 1225.277344 492.976562 C 1222.519531 490.636719 1219.726562 488.3125 1216.761719 486.179688 C 1206.984375 478.964844 1196.1875 473.261719 1185.320312 468.972656 C 1185.40625 468.6875 1185.558594 468.191406 1185.8125 467.472656 C 1186.214844 466.351562 1186.847656 464.75 1187.773438 462.910156 C 1188.71875 461.085938 1189.9375 458.996094 1191.550781 456.984375 C 1192.332031 455.96875 1193.246094 454.996094 1194.210938 454.046875 C 1195.199219 453.132812 1196.238281 452.226562 1197.386719 451.46875 C 1198.515625 450.6875 1199.726562 450.027344 1200.960938 449.472656 C 1202.207031 448.945312 1203.464844 448.492188 1204.726562 448.21875 C 1205.355469 448.058594 1205.972656 447.925781 1206.59375 447.855469 C 1207.207031 447.757812 1207.808594 447.675781 1208.402344 447.65625 C 1209.585938 447.542969 1210.710938 447.597656 1211.742188 447.617188 C 1212.773438 447.730469 1213.726562 447.761719 1214.550781 447.933594 C 1215.382812 448.082031 1216.109375 448.167969 1216.691406 448.332031 C 1217.871094 448.621094 1218.546875 448.785156 1218.546875 448.785156 C 1218.546875 448.785156 1217.871094 448.609375 1216.703125 448.304688 C 1216.121094 448.132812 1215.386719 448.03125 1214.558594 447.867188 C 1213.738281 447.679688 1212.78125 447.640625 1211.75 447.507812 C 1210.710938 447.476562 1209.585938 447.394531 1208.390625 447.492188 C 1207.792969 447.5 1207.1875 447.578125 1206.5625 447.667969 C 1205.941406 447.730469 1205.3125 447.851562 1204.675781 448.003906 C 1203.394531 448.257812 1202.117188 448.699219 1200.847656 449.210938 C 1199.585938 449.753906 1198.351562 450.40625 1197.191406 451.183594 C 1196.011719 451.929688 1194.949219 452.832031 1193.925781 453.746094 C 1192.933594 454.695312 1191.992188 455.667969 1191.179688 456.691406 C 1189.511719 458.707031 1188.238281 460.796875 1187.253906 462.640625 C 1185.703125 465.597656 1184.925781 467.90625 1184.671875 468.726562 C 1181.675781 467.566406 1178.675781 466.480469 1175.691406 465.535156 C 1165.03125 462.15625 1154.605469 460.117188 1145.078125 458.917969 C 1145.1875 458.738281 1145.339844 458.496094 1145.535156 458.179688 C 1145.746094 457.839844 1146.003906 457.421875 1146.296875 456.945312 C 1146.597656 456.480469 1146.90625 455.921875 1147.308594 455.367188 C 1147.707031 454.804688 1148.140625 454.195312 1148.597656 453.554688 C 1149.035156 452.898438 1149.550781 452.25 1150.109375 451.59375 C 1150.671875 450.941406 1151.1875 450.214844 1151.835938 449.585938 C 1152.476562 448.949219 1153.066406 448.238281 1153.765625 447.652344 C 1154.46875 447.066406 1155.113281 446.402344 1155.871094 445.90625 C 1156.238281 445.640625 1156.597656 445.378906 1156.960938 445.117188 C 1157.320312 444.871094 1157.710938 444.671875 1158.078125 444.453125 C 1158.808594 443.984375 1159.589844 443.695312 1160.304688 443.359375 C 1161.050781 443.113281 1161.75 442.835938 1162.429688 442.726562 C 1163.097656 442.558594 1163.730469 442.519531 1164.289062 442.46875 C 1164.851562 442.464844 1165.335938 442.46875 1165.738281 442.523438 C 1166.542969 442.617188 1166.972656 442.78125 1166.972656 442.78125 C 1166.972656 442.78125 1166.546875 442.605469 1165.746094 442.496094 C 1165.34375 442.429688 1164.851562 442.414062 1164.289062 442.40625 C 1163.726562 442.445312 1163.089844 442.464844 1162.410156 442.621094 C 1161.71875 442.714844 1161.003906 442.976562 1160.246094 443.207031 C 1159.519531 443.527344 1158.714844 443.804688 1157.972656 444.253906 C 1157.597656 444.472656 1157.195312 444.667969 1156.820312 444.90625 C 1156.453125 445.164062 1156.082031 445.417969 1155.703125 445.675781 C 1154.925781 446.160156 1154.257812 446.8125 1153.535156 447.390625 C 1152.808594 447.972656 1152.203125 448.675781 1151.535156 449.300781 C 1150.859375 449.921875 1150.324219 450.644531 1149.742188 451.289062 C 1149.164062 451.941406 1148.628906 452.582031 1148.164062 453.234375 C 1147.6875 453.871094 1147.238281 454.472656 1146.824219 455.03125 C 1146.402344 455.582031 1146.082031 456.136719 1145.765625 456.605469 C 1145.460938 457.078125 1145.1875 457.488281 1144.96875 457.828125 C 1144.621094 458.355469 1144.394531 458.703125 1144.316406 458.832031 C 1141.554688 458.496094 1138.863281 458.21875 1136.277344 458.019531 C 1130.417969 457.542969 1125.019531 457.441406 1120.246094 457.46875 C 1115.472656 457.507812 1111.316406 457.714844 1107.898438 457.964844 C 1101.066406 458.476562 1097.207031 459.164062 1097.207031 459.164062 C 1097.207031 459.164062 1101.078125 458.550781 1107.914062 458.179688 C 1111.332031 457.996094 1115.484375 457.875 1120.246094 457.933594 C 1125.011719 457.984375 1130.382812 458.25 1136.214844 458.761719 C 1146.84375 459.714844 1159.058594 461.742188 1171.667969 465.535156 C 1171.652344 465.589844 1171.636719 465.644531 1171.621094 465.707031 C 1171.464844 466.21875 1171.304688 466.976562 1171.09375 467.9375 C 1170.945312 468.902344 1170.683594 470.074219 1170.578125 471.433594 C 1170.519531 472.109375 1170.417969 472.832031 1170.378906 473.59375 C 1170.351562 474.355469 1170.320312 475.164062 1170.296875 476 C 1170.238281 476.839844 1170.320312 477.710938 1170.34375 478.613281 C 1170.398438 479.519531 1170.371094 480.457031 1170.519531 481.402344 C 1170.632812 482.363281 1170.75 483.339844 1170.871094 484.339844 C 1170.988281 485.339844 1171.253906 486.339844 1171.445312 487.367188 C 1171.78125 489.4375 1172.515625 491.480469 1173.125 493.59375 C 1173.410156 494.65625 1173.910156 495.648438 1174.300781 496.6875 C 1174.734375 497.710938 1175.101562 498.769531 1175.59375 499.765625 C 1176.105469 500.761719 1176.621094 501.75 1177.132812 502.730469 C 1177.660156 503.710938 1178.113281 504.722656 1178.75 505.621094 C 1179.347656 506.539062 1179.941406 507.453125 1180.527344 508.355469 C 1181.128906 509.242188 1181.644531 510.175781 1182.335938 510.96875 C 1183.628906 512.597656 1184.882812 514.175781 1186.078125 515.675781 C 1187.398438 517.0625 1188.644531 518.371094 1189.792969 519.578125 C 1190.375 520.183594 1190.925781 520.757812 1191.453125 521.304688 C 1192 521.832031 1192.5625 522.289062 1193.066406 522.738281 C 1194.089844 523.632812 1194.976562 524.410156 1195.710938 525.046875 C 1197.175781 526.332031 1198.015625 527.058594 1198.015625 527.058594 C 1198.015625 527.058594 1197.183594 526.320312 1195.730469 525.027344 C 1195.003906 524.378906 1194.125 523.59375 1193.109375 522.695312 C 1192.609375 522.238281 1192.058594 521.773438 1191.511719 521.246094 C 1190.992188 520.695312 1190.445312 520.113281 1189.875 519.503906 C 1188.734375 518.285156 1187.503906 516.964844 1186.199219 515.570312 C 1185.023438 514.066406 1183.789062 512.476562 1182.507812 510.835938 C 1181.832031 510.039062 1181.324219 509.105469 1180.738281 508.214844 C 1180.160156 507.3125 1179.578125 506.394531 1178.992188 505.476562 C 1178.363281 504.578125 1177.925781 503.558594 1177.414062 502.585938 C 1176.914062 501.597656 1176.410156 500.609375 1175.910156 499.621094 C 1175.433594 498.625 1175.074219 497.570312 1174.660156 496.546875 C 1174.28125 495.511719 1173.789062 494.519531 1173.515625 493.460938 C 1172.933594 491.359375 1172.230469 489.328125 1171.914062 487.273438 C 1171.734375 486.25 1171.480469 485.257812 1171.371094 484.269531 C 1171.261719 483.273438 1171.15625 482.300781 1171.054688 481.359375 C 1170.917969 480.414062 1170.949219 479.488281 1170.910156 478.59375 C 1170.894531 477.703125 1170.820312 476.839844 1170.882812 476.011719 C 1170.917969 475.183594 1170.953125 474.390625 1170.988281 473.640625 C 1171.035156 472.886719 1171.140625 472.175781 1171.207031 471.507812 C 1171.320312 470.164062 1171.59375 469.019531 1171.746094 468.070312 C 1171.964844 467.128906 1172.128906 466.390625 1172.28125 465.90625 C 1172.300781 465.84375 1172.316406 465.792969 1172.328125 465.734375 C 1173.328125 466.039062 1174.328125 466.335938 1175.332031 466.660156 C 1185.742188 470.015625 1196.332031 474.691406 1206.253906 480.730469 C 1206.519531 482.136719 1207.210938 485.617188 1208.355469 490.238281 C 1208.753906 491.746094 1209.179688 493.382812 1209.628906 495.117188 C 1210.144531 496.832031 1210.589844 498.667969 1211.183594 500.53125 C 1211.742188 502.394531 1212.332031 504.328125 1213.003906 506.269531 C 1213.632812 508.21875 1214.359375 510.171875 1215.097656 512.117188 C 1215.792969 514.082031 1216.65625 515.976562 1217.4375 517.875 C 1218.222656 519.765625 1219.164062 521.554688 1219.984375 523.328125 C 1220.871094 525.066406 1221.816406 526.703125 1222.671875 528.273438 C 1223.601562 529.800781 1224.550781 531.207031 1225.386719 532.519531 C 1226.269531 533.808594 1227.199219 534.902344 1227.960938 535.917969 C 1228.699219 536.953125 1229.507812 537.710938 1230.136719 538.375 C 1230.769531 539.027344 1231.269531 539.542969 1231.605469 539.894531 C 1231.632812 539.925781 1231.65625 539.945312 1231.6875 539.976562 C 1231.65625 539.945312 1231.640625 539.917969 1231.605469 539.890625 C 1231.269531 539.539062 1230.777344 539.023438 1230.152344 538.359375 C 1229.527344 537.699219 1228.726562 536.929688 1227.992188 535.890625 C 1227.238281 534.875 1226.316406 533.773438 1225.441406 532.480469 C 1224.613281 531.160156 1223.679688 529.753906 1222.761719 528.222656 C 1221.921875 526.640625 1220.984375 525.003906 1220.117188 523.261719 C 1219.308594 521.484375 1218.386719 519.695312 1217.613281 517.800781 C 1216.847656 515.898438 1215.996094 514.003906 1215.316406 512.03125 C 1214.589844 510.085938 1213.882812 508.132812 1213.269531 506.175781 C 1212.605469 504.242188 1212.039062 502.308594 1211.488281 500.4375 C 1210.914062 498.574219 1210.464844 496.742188 1210.003906 495.015625 C 1209.585938 493.28125 1209.1875 491.640625 1208.828125 490.121094 C 1207.910156 486.0625 1207.320312 482.898438 1207.03125 481.234375 C 1210.082031 483.117188 1213.070312 485.121094 1215.960938 487.273438 C 1222.246094 491.855469 1227.863281 497.3125 1234.082031 501.957031 C 1237.203125 504.351562 1240.375 506.628906 1243.566406 508.785156 L 1243.554688 508.789062 C 1243.554688 508.789062 1244.304688 511.570312 1245.863281 515.558594 C 1246.242188 516.558594 1246.679688 517.632812 1247.167969 518.761719 C 1247.628906 519.902344 1248.191406 521.070312 1248.738281 522.289062 C 1249.316406 523.496094 1249.929688 524.734375 1250.570312 525.984375 C 1251.257812 527.214844 1251.878906 528.5 1252.632812 529.710938 C 1253.363281 530.941406 1254.074219 532.179688 1254.863281 533.34375 C 1255.621094 534.527344 1256.394531 535.671875 1257.195312 536.746094 C 1257.589844 537.28125 1257.976562 537.8125 1258.355469 538.335938 C 1258.757812 538.835938 1259.152344 539.328125 1259.539062 539.804688 C 1260.320312 540.753906 1261.027344 541.671875 1261.773438 542.4375 C 1262.496094 543.226562 1263.164062 543.941406 1263.753906 544.585938 C 1264.382812 545.179688 1264.933594 545.703125 1265.382812 546.128906 C 1266.292969 546.988281 1266.808594 547.472656 1266.808594 547.472656 C 1266.808594 547.472656 1266.296875 546.976562 1265.402344 546.109375 C 1264.960938 545.671875 1264.417969 545.144531 1263.796875 544.539062 C 1263.21875 543.890625 1262.566406 543.160156 1261.855469 542.363281 C 1261.121094 541.589844 1260.425781 540.660156 1259.667969 539.703125 C 1259.289062 539.222656 1258.902344 538.726562 1258.507812 538.222656 C 1258.140625 537.699219 1257.757812 537.160156 1257.378906 536.613281 C 1256.589844 535.535156 1255.839844 534.382812 1255.101562 533.1875 C 1254.335938 532.019531 1253.644531 530.777344 1252.933594 529.542969 C 1252.207031 528.324219 1251.605469 527.027344 1250.941406 525.800781 C 1250.320312 524.546875 1249.726562 523.296875 1249.171875 522.085938 C 1248.644531 520.863281 1248.101562 519.695312 1247.664062 518.554688 C 1247.191406 517.429688 1246.78125 516.351562 1246.414062 515.351562 C 1245.378906 512.566406 1244.734375 510.421875 1244.433594 509.351562 C 1247.226562 511.21875 1250.039062 513.007812 1252.859375 514.675781 C 1259.199219 518.417969 1265.554688 521.660156 1271.777344 524.257812 C 1272.054688 524.375 1272.324219 524.476562 1272.597656 524.585938 L 1272.339844 524.714844 C 1272.339844 524.714844 1272.65625 525.257812 1273.214844 526.207031 C 1273.355469 526.441406 1273.511719 526.703125 1273.679688 526.988281 C 1273.871094 527.253906 1274.082031 527.546875 1274.308594 527.851562 C 1274.765625 528.464844 1275.230469 529.191406 1275.855469 529.886719 C 1276.46875 530.589844 1277.074219 531.40625 1277.828125 532.167969 C 1278.566406 532.941406 1279.308594 533.789062 1280.15625 534.585938 C 1281.808594 536.234375 1283.628906 537.921875 1285.515625 539.527344 C 1293.023438 546.039062 1301.308594 551.511719 1301.308594 551.511719 C 1301.308594 551.511719 1293.117188 545.886719 1285.75 539.265625 C 1283.890625 537.632812 1282.109375 535.917969 1280.492188 534.257812 C 1279.664062 533.445312 1278.941406 532.589844 1278.222656 531.808594 C 1277.492188 531.042969 1276.910156 530.222656 1276.316406 529.519531 C 1275.707031 528.820312 1275.265625 528.097656 1274.824219 527.488281 C 1274.613281 527.183594 1274.414062 526.898438 1274.226562 526.632812 C 1274.066406 526.351562 1273.921875 526.09375 1273.792969 525.863281 C 1273.539062 525.421875 1273.351562 525.082031 1273.210938 524.832031 C 1278.921875 527.175781 1284.488281 529.058594 1289.722656 530.5 C 1295.402344 532.058594 1300.703125 533.136719 1305.441406 533.765625 C 1310.179688 534.40625 1314.339844 534.683594 1317.761719 534.757812 C 1324.628906 534.898438 1328.511719 534.238281 1328.511719 534.238281 C 1328.511719 534.238281 1324.613281 534.804688 1317.773438 534.503906 Z M 897.285156 405.019531 C 897.214844 405.019531 897.140625 405.03125 897.078125 405.03125 C 897.140625 405.027344 897.214844 405.027344 897.285156 405.019531 Z M 896.6875 404.675781 L 896.691406 405.421875 C 896.691406 405.4375 896.753906 405.195312 896.875 405.082031 C 896.929688 405.042969 897 405.035156 897.078125 405.03125 C 897 405.035156 896.929688 405.035156 896.875 404.996094 C 896.75 404.894531 896.6875 404.660156 896.6875 404.675781 Z M 1047.933594 432.1875 C 1053.210938 437.550781 1055.980469 440.835938 1055.980469 440.835938 C 1055.980469 440.835938 1053.144531 437.605469 1047.773438 432.351562 C 1045.085938 429.722656 1041.765625 426.597656 1037.84375 423.144531 C 1033.929688 419.671875 1029.390625 415.902344 1024.328125 411.9375 C 1015.722656 405.230469 1005.46875 398.0625 993.828125 391.574219 C 993.800781 391.613281 993.789062 391.632812 993.757812 391.679688 C 993.601562 391.925781 993.371094 392.242188 993.058594 392.652344 C 992.75 393.054688 992.367188 393.535156 991.894531 394.054688 C 991.4375 394.59375 990.882812 395.15625 990.277344 395.765625 C 989.054688 396.976562 987.527344 398.285156 985.816406 399.570312 C 984.953125 400.199219 984.042969 400.832031 983.109375 401.449219 C 982.148438 402.027344 981.207031 402.671875 980.199219 403.199219 C 979.191406 403.730469 978.222656 404.328125 977.199219 404.785156 C 976.179688 405.25 975.214844 405.777344 974.222656 406.167969 C 973.238281 406.574219 972.289062 406.96875 971.390625 407.34375 C 970.472656 407.667969 969.601562 407.976562 968.800781 408.261719 C 967.214844 408.863281 965.828125 409.1875 964.890625 409.496094 C 963.9375 409.777344 963.394531 409.9375 963.394531 409.9375 C 963.394531 409.9375 963.929688 409.757812 964.871094 409.441406 C 965.804688 409.097656 967.167969 408.726562 968.734375 408.070312 C 969.515625 407.757812 970.375 407.421875 971.28125 407.066406 C 972.15625 406.660156 973.089844 406.234375 974.050781 405.796875 C 975.023438 405.378906 975.96875 404.820312 976.957031 404.320312 C 977.957031 403.832031 978.894531 403.210938 979.871094 402.648438 C 980.851562 402.089844 981.753906 401.417969 982.683594 400.816406 C 983.582031 400.175781 984.457031 399.527344 985.277344 398.875 C 986.914062 397.550781 988.355469 396.226562 989.5 395.007812 C 990.066406 394.398438 990.585938 393.832031 991.007812 393.304688 C 991.4375 392.78125 991.789062 392.316406 992.070312 391.925781 C 992.339844 391.53125 992.5625 391.210938 992.679688 391.007812 C 992.699219 390.980469 992.703125 390.972656 992.71875 390.945312 C 990.996094 390 989.25 389.070312 987.472656 388.164062 C 975.816406 382.148438 962.816406 376.988281 949.1875 373.996094 C 948.230469 375.019531 945.929688 377.421875 942.6875 380.441406 C 938.339844 384.457031 932.367188 389.652344 925.808594 394.046875 C 924.171875 395.148438 922.507812 396.214844 920.828125 397.1875 C 919.15625 398.179688 917.46875 399.078125 915.8125 399.90625 C 914.152344 400.71875 912.515625 401.429688 910.9375 402.0625 C 910.140625 402.347656 909.367188 402.632812 908.613281 402.90625 C 907.855469 403.140625 907.117188 403.367188 906.410156 403.585938 C 904.984375 403.96875 903.664062 404.296875 902.480469 404.488281 C 901.300781 404.734375 900.25 404.804688 899.398438 404.910156 C 898.539062 405 897.859375 404.992188 897.402344 405.015625 C 897.355469 405.019531 897.324219 405.019531 897.285156 405.019531 C 897.324219 405.019531 897.355469 405.015625 897.402344 405.015625 C 897.859375 404.980469 898.539062 404.992188 899.394531 404.890625 C 900.25 404.78125 901.296875 404.699219 902.46875 404.445312 C 903.65625 404.25 904.964844 403.902344 906.390625 403.511719 C 907.09375 403.285156 907.828125 403.054688 908.585938 402.8125 C 909.332031 402.539062 910.101562 402.246094 910.894531 401.957031 C 912.464844 401.3125 914.089844 400.59375 915.742188 399.757812 C 917.390625 398.921875 919.066406 398.015625 920.722656 397.015625 C 922.394531 396.027344 924.042969 394.953125 925.667969 393.839844 C 928.917969 391.617188 932.03125 389.207031 934.863281 386.832031 C 937.699219 384.476562 940.222656 382.128906 942.332031 380.066406 C 945.226562 377.242188 947.316406 374.984375 948.359375 373.820312 C 945.605469 373.238281 942.832031 372.734375 940.03125 372.335938 C 931.589844 370.992188 923.011719 371.359375 914.511719 370.453125 C 910.410156 370.066406 906.355469 369.535156 902.371094 368.882812 C 902.25 368.988281 900.230469 370.742188 896.9375 372.914062 C 896.09375 373.480469 895.160156 374.074219 894.164062 374.667969 C 893.179688 375.296875 892.085938 375.859375 890.980469 376.492188 C 889.851562 377.070312 888.6875 377.683594 887.476562 378.246094 C 886.253906 378.78125 885.039062 379.382812 883.761719 379.847656 C 882.503906 380.351562 881.238281 380.835938 879.960938 381.21875 C 879.324219 381.425781 878.699219 381.625 878.074219 381.828125 C 877.441406 381.988281 876.816406 382.148438 876.203125 382.308594 C 875.585938 382.464844 874.984375 382.613281 874.390625 382.765625 C 873.789062 382.875 873.203125 382.984375 872.628906 383.085938 C 871.484375 383.308594 870.40625 383.507812 869.390625 383.582031 C 868.382812 383.6875 867.453125 383.785156 866.636719 383.863281 C 865.8125 383.882812 865.09375 383.898438 864.503906 383.914062 C 863.316406 383.9375 862.644531 383.953125 862.644531 383.953125 C 862.644531 383.953125 863.316406 383.925781 864.503906 383.878906 C 865.089844 383.859375 865.808594 383.828125 866.628906 383.796875 C 867.449219 383.699219 868.367188 383.589844 869.375 383.46875 C 870.386719 383.378906 871.460938 383.15625 872.59375 382.921875 C 873.160156 382.804688 873.75 382.683594 874.339844 382.570312 C 874.929688 382.410156 875.53125 382.242188 876.144531 382.078125 C 876.75 381.914062 877.371094 381.742188 877.996094 381.570312 C 878.613281 381.359375 879.234375 381.144531 879.863281 380.929688 C 881.128906 380.527344 882.378906 380.023438 883.621094 379.5 C 884.882812 379.019531 886.082031 378.402344 887.285156 377.84375 C 888.476562 377.269531 889.621094 376.640625 890.734375 376.042969 C 891.820312 375.398438 892.894531 374.820312 893.863281 374.183594 C 894.847656 373.570312 895.757812 372.96875 896.582031 372.390625 C 898.972656 370.753906 900.652344 369.378906 901.421875 368.722656 C 897.515625 368.058594 893.679688 367.277344 889.9375 366.363281 C 882.539062 364.566406 875.5 362.335938 868.960938 359.773438 L 869.085938 360.027344 C 869.085938 360.027344 868.507812 360.257812 867.488281 360.660156 C 866.992188 360.890625 866.355469 361.0625 865.621094 361.238281 C 864.890625 361.433594 864.070312 361.660156 863.152344 361.777344 C 862.238281 361.929688 861.253906 362.113281 860.199219 362.191406 C 859.152344 362.296875 858.042969 362.410156 856.890625 362.4375 C 855.746094 362.507812 854.558594 362.535156 853.355469 362.519531 C 852.148438 362.542969 850.925781 362.5 849.699219 362.460938 C 839.902344 362.144531 830.257812 360.417969 830.257812 360.417969 C 830.257812 360.417969 839.9375 361.964844 849.710938 362.089844 C 850.929688 362.105469 852.148438 362.125 853.347656 362.078125 C 854.546875 362.070312 855.726562 362.015625 856.867188 361.929688 C 858.007812 361.878906 859.101562 361.75 860.136719 361.617188 C 861.179688 361.527344 862.144531 361.320312 863.035156 361.160156 C 863.941406 361.027344 864.734375 360.785156 865.441406 360.585938 C 866.148438 360.398438 866.765625 360.21875 867.238281 359.992188 C 867.710938 359.796875 868.074219 359.640625 868.335938 359.535156 C 868.140625 359.460938 867.9375 359.386719 867.746094 359.3125 C 860.863281 356.5625 854.542969 353.515625 848.894531 350.382812 C 837.585938 344.109375 829.027344 337.480469 823.375 332.535156 C 817.710938 327.574219 814.917969 324.289062 814.917969 324.289062 C 814.917969 324.289062 817.789062 327.503906 823.558594 332.324219 C 829.300781 337.152344 838.027344 343.460938 849.328125 349.59375 C 850.671875 350.324219 852.070312 351.039062 853.496094 351.75 C 853.433594 351.496094 853.367188 351.207031 853.285156 350.84375 C 853.15625 350.289062 853.027344 349.613281 852.734375 348.871094 C 852.460938 348.128906 852.214844 347.269531 851.828125 346.375 C 851.417969 345.488281 851.007812 344.507812 850.511719 343.503906 C 849.96875 342.523438 849.445312 341.460938 848.816406 340.40625 C 848.160156 339.371094 847.539062 338.257812 846.804688 337.207031 C 846.070312 336.140625 845.355469 335.042969 844.558594 334 C 843.023438 331.878906 841.363281 329.84375 839.777344 327.964844 C 838.183594 326.085938 836.632812 324.390625 835.28125 322.957031 C 832.578125 320.097656 830.644531 318.3125 830.644531 318.3125 C 830.644531 318.3125 832.609375 320.0625 835.367188 322.875 C 836.742188 324.285156 838.324219 325.960938 839.953125 327.8125 C 841.578125 329.660156 843.277344 331.671875 844.855469 333.78125 C 845.679688 334.808594 846.417969 335.902344 847.167969 336.953125 C 847.933594 338.003906 848.574219 339.113281 849.253906 340.144531 C 849.90625 341.191406 850.457031 342.257812 851.023438 343.238281 C 851.546875 344.246094 851.976562 345.234375 852.410156 346.128906 C 852.820312 347.03125 853.085938 347.910156 853.378906 348.660156 C 853.691406 349.410156 853.839844 350.101562 853.976562 350.667969 C 854.15625 351.390625 854.277344 351.886719 854.347656 352.171875 C 864.679688 357.265625 876.867188 361.875 890.246094 365.070312 C 891.273438 365.316406 892.316406 365.527344 893.355469 365.75 C 893.269531 364.992188 893.003906 362.996094 892.335938 360.308594 C 892.136719 359.453125 891.875 358.523438 891.582031 357.550781 C 891.3125 356.578125 890.933594 355.570312 890.589844 354.519531 C 890.171875 353.492188 889.8125 352.402344 889.3125 351.351562 C 888.835938 350.289062 888.367188 349.203125 887.792969 348.164062 L 886.96875 346.59375 C 886.664062 346.09375 886.363281 345.59375 886.0625 345.089844 C 885.488281 344.074219 884.816406 343.144531 884.179688 342.238281 C 883.570312 341.304688 882.875 340.484375 882.230469 339.699219 C 881.910156 339.300781 881.597656 338.917969 881.292969 338.542969 C 880.964844 338.199219 880.644531 337.863281 880.339844 337.542969 C 879.714844 336.90625 879.175781 336.296875 878.648438 335.800781 C 878.105469 335.320312 877.632812 334.902344 877.246094 334.558594 C 876.46875 333.871094 876.023438 333.480469 876.023438 333.480469 C 876.023438 333.480469 876.472656 333.863281 877.265625 334.539062 C 877.664062 334.875 878.144531 335.28125 878.691406 335.75 C 879.230469 336.238281 879.785156 336.835938 880.425781 337.460938 C 880.734375 337.777344 881.0625 338.109375 881.402344 338.449219 C 881.714844 338.816406 882.035156 339.195312 882.363281 339.582031 C 883.023438 340.367188 883.742188 341.171875 884.371094 342.097656 C 885.027344 343 885.726562 343.921875 886.324219 344.929688 C 886.632812 345.425781 886.949219 345.929688 887.261719 346.429688 L 888.125 347.988281 C 888.71875 349.027344 889.21875 350.105469 889.714844 351.171875 C 890.238281 352.222656 890.625 353.3125 891.066406 354.339844 C 891.4375 355.394531 891.835938 356.402344 892.136719 357.382812 C 892.441406 358.359375 892.726562 359.285156 892.949219 360.152344 C 893.777344 363.21875 894.066406 365.449219 894.121094 365.917969 C 900.753906 367.332031 907.628906 368.382812 914.644531 369.015625 C 916.742188 369.167969 918.835938 369.367188 920.957031 369.472656 C 922.5 369.539062 924.039062 369.597656 925.585938 369.664062 C 925.601562 369.625 925.609375 369.597656 925.625 369.554688 C 925.714844 369.300781 925.816406 368.902344 925.953125 368.398438 C 926.050781 367.882812 926.203125 367.265625 926.273438 366.535156 C 926.394531 365.8125 926.402344 364.984375 926.449219 364.082031 C 926.414062 363.179688 926.429688 362.195312 926.269531 361.167969 C 926.1875 360.128906 925.925781 359.066406 925.6875 357.957031 C 925.394531 356.863281 925.046875 355.734375 924.628906 354.621094 C 924.136719 353.53125 923.742188 352.375 923.117188 351.332031 C 922.539062 350.261719 921.980469 349.179688 921.273438 348.207031 C 920.601562 347.21875 919.980469 346.210938 919.222656 345.347656 C 918.492188 344.472656 917.839844 343.574219 917.121094 342.808594 C 916.394531 342.050781 915.707031 341.339844 915.074219 340.675781 C 914.457031 339.996094 913.824219 339.441406 913.269531 338.949219 C 912.710938 338.460938 912.222656 338.027344 911.828125 337.671875 C 911.027344 336.960938 910.570312 336.554688 910.570312 336.554688 C 910.570312 336.554688 911.035156 336.949219 911.847656 337.648438 C 912.253906 337.992188 912.746094 338.414062 913.3125 338.902344 C 913.886719 339.382812 914.527344 339.925781 915.15625 340.589844 C 915.800781 341.242188 916.503906 341.945312 917.25 342.691406 C 917.980469 343.445312 918.652344 344.332031 919.40625 345.199219 C 920.183594 346.054688 920.832031 347.050781 921.523438 348.039062 C 922.257812 349.003906 922.839844 350.085938 923.449219 351.15625 C 924.101562 352.199219 924.523438 353.363281 925.039062 354.457031 C 925.492188 355.578125 925.863281 356.71875 926.183594 357.824219 C 926.449219 358.949219 926.734375 360.039062 926.835938 361.097656 C 927.019531 362.144531 927.027344 363.152344 927.082031 364.082031 C 927.050781 365.007812 927.054688 365.863281 926.953125 366.613281 C 926.886719 367.371094 926.746094 368.019531 926.648438 368.554688 C 926.53125 369.042969 926.445312 369.414062 926.355469 369.699219 C 926.683594 369.707031 927.015625 369.722656 927.347656 369.738281 C 931.65625 369.882812 935.964844 370.28125 940.238281 370.90625 C 951.820312 372.589844 963.042969 375.964844 973.519531 380.273438 C 973.59375 379.910156 973.707031 379.347656 973.835938 378.558594 C 974.050781 377.171875 974.296875 375.179688 974.367188 372.773438 C 974.445312 370.371094 974.335938 367.550781 973.898438 364.574219 C 973.679688 363.085938 973.378906 361.558594 972.964844 360.03125 C 972.585938 358.5 972.042969 356.984375 971.460938 355.488281 C 970.847656 354 970.15625 352.550781 969.363281 351.179688 C 968.570312 349.8125 967.714844 348.5 966.78125 347.3125 C 966.324219 346.714844 965.867188 346.128906 965.371094 345.597656 C 964.890625 345.054688 964.425781 344.507812 963.921875 344.039062 C 962.960938 343.039062 961.957031 342.191406 961.042969 341.402344 C 960.082031 340.675781 959.222656 339.964844 958.394531 339.433594 C 957.566406 338.90625 956.878906 338.390625 956.25 338.058594 C 955.027344 337.355469 954.324219 336.953125 954.324219 336.953125 C 954.324219 336.953125 955.03125 337.347656 956.265625 338.027344 C 956.898438 338.355469 957.597656 338.859375 958.433594 339.378906 C 959.273438 339.894531 960.140625 340.597656 961.113281 341.3125 C 962.046875 342.089844 963.066406 342.921875 964.046875 343.910156 C 964.558594 344.382812 965.03125 344.921875 965.527344 345.460938 C 966.035156 345.988281 966.496094 346.570312 966.96875 347.167969 C 967.925781 348.351562 968.804688 349.65625 969.621094 351.023438 C 970.441406 352.394531 971.164062 353.851562 971.800781 355.34375 C 972.414062 356.84375 972.984375 358.367188 973.394531 359.914062 C 973.835938 361.453125 974.160156 362.992188 974.40625 364.496094 C 974.886719 367.5 975.042969 370.351562 974.992188 372.789062 C 974.933594 376.765625 974.40625 379.636719 974.214844 380.558594 C 979 382.550781 983.628906 384.730469 988.054688 387.039062 C 997.300781 391.890625 1005.71875 397.246094 1013.242188 402.597656 C 1013.402344 401.8125 1013.628906 400.582031 1013.835938 399.015625 C 1014 397.644531 1014.191406 396.03125 1014.265625 394.300781 C 1014.371094 392.570312 1014.363281 390.71875 1014.296875 388.871094 C 1014.21875 387.945312 1014.183594 387.019531 1014.066406 386.117188 C 1013.929688 385.21875 1013.871094 384.316406 1013.675781 383.472656 C 1013.488281 382.625 1013.382812 381.78125 1013.136719 381.023438 C 1012.90625 380.261719 1012.746094 379.519531 1012.496094 378.871094 C 1012.25 378.222656 1012.023438 377.625 1011.824219 377.09375 C 1011.613281 376.570312 1011.367188 376.140625 1011.191406 375.773438 C 1010.828125 375.039062 1010.617188 374.625 1010.617188 374.625 C 1010.617188 374.625 1010.84375 375.03125 1011.242188 375.746094 C 1011.429688 376.109375 1011.699219 376.527344 1011.933594 377.046875 C 1012.160156 377.570312 1012.410156 378.160156 1012.6875 378.804688 C 1012.96875 379.445312 1013.15625 380.183594 1013.425781 380.945312 C 1013.707031 381.703125 1013.847656 382.539062 1014.070312 383.386719 C 1014.308594 384.238281 1014.40625 385.144531 1014.582031 386.050781 C 1014.738281 386.957031 1014.816406 387.890625 1014.933594 388.824219 C 1015.085938 390.691406 1015.175781 392.570312 1015.144531 394.328125 C 1015.144531 396.085938 1015.023438 397.726562 1014.914062 399.132812 C 1014.734375 401.183594 1014.488281 402.722656 1014.371094 403.410156 C 1018.070312 406.074219 1021.574219 408.734375 1024.820312 411.316406 C 1029.863281 415.332031 1034.304688 419.242188 1038.171875 422.777344 C 1042.03125 426.320312 1045.296875 429.507812 1047.933594 432.1875 " fill-opacity="1" fill-rule="nonzero"/><g clip-path="url(#f4ee4a6e3e)"><g clip-path="url(#60ecb2abe8)"><g clip-path="url(#c07dbd52da)"><g clip-path="url(#793b19663d)"><g clip-path="url(#14f2b87f0e)"><g clip-path="url(#5ab9d679a0)"><path fill="#216b39" d="M 351.9375 96.730469 C 351.9375 96.730469 297.3125 77.175781 266.921875 104.957031 C 236.527344 132.738281 221.398438 173.984375 211.011719 174.441406 C 205.007812 174.703125 189.433594 163.929688 187.425781 162.308594 C 185.378906 160.636719 182.894531 158.601562 180.125 156.164062 C 177.339844 153.753906 174.269531 150.949219 170.976562 147.832031 C 169.351562 146.25 167.628906 144.640625 165.917969 142.894531 C 165.058594 142.027344 164.183594 141.148438 163.292969 140.257812 C 162.425781 139.34375 161.539062 138.421875 160.644531 137.480469 C 158.835938 135.625 157.074219 133.625 155.230469 131.621094 C 153.425781 129.589844 151.597656 127.496094 149.773438 125.339844 C 147.988281 123.152344 146.117188 120.980469 144.359375 118.667969 C 143.46875 117.523438 142.570312 116.375 141.667969 115.21875 C 140.800781 114.035156 139.929688 112.851562 139.050781 111.65625 C 137.269531 109.300781 135.636719 106.808594 133.933594 104.355469 C 133.070312 103.136719 132.300781 101.851562 131.492188 100.597656 L 129.082031 96.808594 L 126.820312 92.941406 C 126.066406 91.648438 125.289062 90.378906 124.613281 89.054688 C 123.230469 86.421875 121.761719 83.851562 120.542969 81.183594 C 119.910156 79.867188 119.273438 78.554688 118.644531 77.242188 C 118.035156 75.929688 117.5 74.585938 116.929688 73.273438 C 116.375 71.957031 115.796875 70.65625 115.273438 69.34375 C 114.78125 68.023438 114.296875 66.710938 113.816406 65.40625 C 113.355469 64.101562 112.8125 62.832031 112.425781 61.523438 C 112.023438 60.226562 111.625 58.941406 111.230469 57.667969 C 110.375 55.144531 109.789062 52.605469 109.167969 50.152344 C 108.878906 48.921875 108.511719 47.730469 108.300781 46.519531 C 108.070312 45.316406 107.84375 44.132812 107.625 42.964844 C 107.402344 41.800781 107.183594 40.65625 106.96875 39.53125 C 106.824219 38.398438 106.683594 37.285156 106.546875 36.195312 C 106.40625 35.109375 106.273438 34.042969 106.140625 33 C 106.078125 32.480469 106 31.964844 105.953125 31.457031 C 105.921875 30.945312 105.894531 30.441406 105.863281 29.941406 C 105.742188 27.953125 105.625 26.0625 105.515625 24.289062 C 105.429688 23.40625 105.496094 22.542969 105.484375 21.710938 C 105.488281 20.886719 105.492188 20.085938 105.5 19.320312 C 105.519531 17.78125 105.492188 16.371094 105.546875 15.101562 C 105.929688 10.03125 106.152344 7.136719 106.152344 7.136719 L 106.179688 6.753906 C 106.414062 3.671875 104.105469 0.984375 101.019531 0.75 C 97.9375 0.515625 95.246094 2.828125 95.011719 5.90625 C 95.007812 5.984375 95 6.085938 95 6.160156 C 95 6.160156 94.898438 9.335938 94.730469 14.890625 C 94.738281 16.28125 94.832031 17.816406 94.882812 19.488281 C 94.914062 20.324219 94.949219 21.191406 94.984375 22.09375 C 95.039062 22.996094 95.019531 23.929688 95.152344 24.886719 C 95.355469 26.804688 95.574219 28.84375 95.804688 30.996094 C 95.859375 31.53125 95.917969 32.078125 95.976562 32.625 C 96.054688 33.175781 96.160156 33.726562 96.253906 34.285156 C 96.449219 35.398438 96.644531 36.539062 96.84375 37.710938 C 97.050781 38.875 97.257812 40.0625 97.46875 41.273438 C 97.75 42.46875 98.039062 43.6875 98.332031 44.921875 C 98.628906 46.164062 98.925781 47.417969 99.230469 48.695312 C 99.519531 49.976562 99.964844 51.238281 100.335938 52.535156 C 101.113281 55.113281 101.863281 57.78125 102.886719 60.417969 C 103.363281 61.746094 103.851562 63.085938 104.34375 64.4375 C 104.8125 65.800781 105.441406 67.113281 105.992188 68.46875 C 106.558594 69.8125 107.132812 71.171875 107.710938 72.542969 C 108.324219 73.890625 108.992188 75.230469 109.636719 76.585938 C 110.296875 77.933594 110.917969 79.308594 111.621094 80.65625 C 112.339844 81.988281 113.058594 83.332031 113.785156 84.679688 C 115.183594 87.398438 116.828125 90 118.386719 92.664062 C 119.152344 94 120.015625 95.28125 120.851562 96.582031 L 123.375 100.472656 L 126.03125 104.265625 C 126.929688 105.523438 127.78125 106.804688 128.726562 108.019531 C 130.585938 110.464844 132.378906 112.9375 134.316406 115.273438 C 135.265625 116.453125 136.21875 117.628906 137.160156 118.792969 C 138.132812 119.933594 139.101562 121.070312 140.066406 122.199219 C 141.96875 124.476562 143.980469 126.609375 145.898438 128.753906 C 147.855469 130.863281 149.816406 132.910156 151.742188 134.894531 C 153.707031 136.84375 155.585938 138.792969 157.507812 140.589844 C 158.464844 141.5 159.402344 142.398438 160.324219 143.28125 C 161.269531 144.148438 162.195312 144.996094 163.109375 145.835938 C 164.917969 147.527344 166.738281 149.078125 168.453125 150.605469 C 171.929688 153.605469 175.164062 156.300781 178.089844 158.609375 C 180.996094 160.941406 183.605469 162.886719 185.75 164.484375 C 187.574219 165.828125 189.089844 166.898438 190.234375 167.691406 C 190.234375 167.691406 191.058594 185.082031 187.707031 191.511719 C 181.914062 202.640625 140.636719 198.503906 102.28125 217.804688 C 63.921875 237.109375 51.191406 306.625 51.191406 306.625 C 51.191406 306.625 82.609375 299.550781 120.992188 292.644531 C 170.269531 283.773438 187.75 215.285156 191.273438 195.414062 C 193.378906 183.527344 193.605469 175.066406 193.445312 170.183594 C 196.820312 172.5625 202.890625 176.207031 212.207031 179.617188 C 227.773438 185.320312 283.742188 199.875 311.546875 156.921875 C 333.207031 123.46875 351.9375 96.730469 351.9375 96.730469 " fill-opacity="1" fill-rule="nonzero"/></g></g></g></g></g></g><g clip-path="url(#ddaa0f6ace)"><g clip-path="url(#2fc285892a)"><g clip-path="url(#a4ade0e4ca)"><g clip-path="url(#59df6f2ec6)"><path fill="#2d9d49" d="M 242.753906 152.398438 C 242.671875 152.746094 242.578125 153.136719 242.472656 153.566406 C 242.355469 153.992188 242.304688 154.46875 242.21875 154.964844 C 242.125 155.460938 242.074219 155.988281 242.03125 156.539062 C 241.96875 157.085938 241.957031 157.652344 241.945312 158.230469 C 241.914062 158.808594 241.945312 159.394531 241.957031 159.980469 C 242.003906 161.152344 242.117188 162.316406 242.277344 163.40625 C 242.433594 164.492188 242.628906 165.496094 242.828125 166.351562 C 243.214844 168.066406 243.609375 169.164062 243.609375 169.164062 L 243.203125 169.300781 C 243.203125 169.300781 242.828125 168.164062 242.472656 166.429688 C 242.292969 165.558594 242.121094 164.542969 241.984375 163.441406 C 241.851562 162.34375 241.761719 161.167969 241.742188 159.984375 C 241.746094 159.394531 241.722656 158.804688 241.769531 158.222656 C 241.796875 157.644531 241.820312 157.074219 241.894531 156.527344 C 241.957031 155.976562 242.011719 155.445312 242.121094 154.949219 C 242.21875 154.449219 242.277344 153.976562 242.40625 153.550781 C 242.519531 153.125 242.625 152.734375 242.71875 152.386719 C 242.835938 152.050781 242.9375 151.753906 243.027344 151.511719 C 243.199219 151.027344 243.296875 150.75 243.296875 150.75 C 243.296875 150.75 243.207031 151.027344 243.042969 151.519531 C 242.960938 151.761719 242.863281 152.058594 242.753906 152.398438 Z M 281.601562 110.226562 L 281.953125 110.472656 C 281.960938 110.476562 281.832031 110.433594 281.734375 110.464844 C 281.699219 110.480469 281.671875 110.519531 281.648438 110.566406 C 281.675781 110.519531 281.699219 110.476562 281.699219 110.4375 C 281.683594 110.335938 281.59375 110.222656 281.601562 110.226562 Z M 281.578125 110.683594 C 281.601562 110.640625 281.628906 110.597656 281.648438 110.566406 C 281.628906 110.597656 281.601562 110.640625 281.578125 110.683594 Z M 333.9375 102.359375 C 329.882812 103.453125 324.207031 105.519531 317.898438 108.988281 C 317.46875 109.226562 317.035156 109.480469 316.597656 109.730469 C 316.714844 109.808594 316.859375 109.898438 317.035156 110.011719 C 317.277344 110.164062 317.5625 110.371094 317.9375 110.519531 C 318.308594 110.675781 318.703125 110.894531 319.171875 111.058594 C 319.644531 111.207031 320.152344 111.394531 320.699219 111.542969 C 321.257812 111.660156 321.839844 111.820312 322.453125 111.917969 C 323.070312 112 323.703125 112.136719 324.355469 112.175781 C 325.011719 112.230469 325.671875 112.304688 326.339844 112.3125 C 327.007812 112.347656 327.671875 112.355469 328.328125 112.34375 C 328.988281 112.347656 329.632812 112.3125 330.257812 112.289062 C 331.507812 112.226562 332.671875 112.117188 333.667969 112.003906 C 335.660156 111.765625 336.972656 111.503906 336.972656 111.503906 C 336.972656 111.503906 335.667969 111.792969 333.675781 112.066406 C 332.679688 112.203125 331.515625 112.332031 330.265625 112.421875 C 329.640625 112.457031 328.992188 112.511719 328.332031 112.519531 C 327.671875 112.542969 327.003906 112.546875 326.332031 112.527344 C 325.664062 112.53125 324.992188 112.472656 324.332031 112.429688 C 323.671875 112.402344 323.03125 112.277344 322.40625 112.207031 C 321.777344 112.121094 321.183594 111.96875 320.617188 111.859375 C 320.058594 111.722656 319.535156 111.542969 319.046875 111.398438 C 318.566406 111.242188 318.152344 111.023438 317.769531 110.867188 C 317.378906 110.722656 317.078125 110.515625 316.824219 110.363281 C 316.527344 110.179688 316.3125 110.050781 316.179688 109.96875 C 310.351562 113.347656 304.136719 117.917969 298.210938 123.554688 C 297.898438 123.851562 297.589844 124.164062 297.277344 124.464844 C 297.554688 124.699219 298.355469 125.363281 299.597656 126.113281 C 299.976562 126.355469 300.40625 126.59375 300.859375 126.835938 C 301.3125 127.09375 301.816406 127.300781 302.324219 127.550781 C 302.851562 127.75 303.378906 128.003906 303.945312 128.179688 C 304.507812 128.363281 305.082031 128.558594 305.671875 128.6875 C 305.964844 128.753906 306.257812 128.835938 306.546875 128.898438 C 306.847656 128.945312 307.140625 128.992188 307.433594 129.039062 C 308.019531 129.160156 308.605469 129.179688 309.171875 129.222656 C 309.734375 129.289062 310.28125 129.246094 310.800781 129.242188 C 311.058594 129.234375 311.3125 129.238281 311.558594 129.21875 C 311.800781 129.191406 312.035156 129.164062 312.261719 129.132812 C 312.710938 129.070312 313.128906 129.046875 313.488281 128.96875 C 313.847656 128.886719 314.164062 128.8125 314.421875 128.753906 C 314.9375 128.632812 315.234375 128.566406 315.234375 128.566406 C 315.234375 128.566406 314.941406 128.644531 314.425781 128.769531 C 314.167969 128.835938 313.855469 128.914062 313.496094 129.003906 C 313.136719 129.09375 312.71875 129.128906 312.265625 129.199219 C 312.042969 129.234375 311.808594 129.269531 311.566406 129.304688 C 311.320312 129.328125 311.066406 129.328125 310.804688 129.339844 C 310.28125 129.359375 309.730469 129.414062 309.164062 129.359375 C 308.59375 129.328125 308.003906 129.316406 307.410156 129.214844 C 307.113281 129.171875 306.816406 129.128906 306.511719 129.089844 C 306.214844 129.035156 305.917969 128.957031 305.621094 128.894531 C 305.023438 128.78125 304.441406 128.59375 303.867188 128.421875 C 303.289062 128.253906 302.75 128.015625 302.207031 127.820312 C 301.6875 127.578125 301.171875 127.378906 300.707031 127.128906 C 300.242188 126.894531 299.804688 126.660156 299.410156 126.425781 C 298.089844 125.664062 297.230469 124.976562 296.976562 124.761719 C 294.152344 127.53125 291.398438 130.511719 288.773438 133.683594 C 287.242188 135.488281 285.8125 137.417969 284.359375 139.347656 C 284.371094 139.371094 284.371094 139.382812 284.382812 139.40625 C 284.4375 139.539062 284.53125 139.730469 284.652344 139.972656 C 284.785156 140.210938 284.933594 140.507812 285.152344 140.820312 C 285.355469 141.140625 285.617188 141.484375 285.917969 141.847656 C 286.222656 142.203125 286.574219 142.574219 286.976562 142.929688 C 287.183594 143.105469 287.398438 143.28125 287.617188 143.460938 C 287.839844 143.632812 288.089844 143.78125 288.335938 143.949219 C 288.808594 144.304688 289.390625 144.515625 289.933594 144.816406 C 290.523438 145.007812 291.101562 145.277344 291.71875 145.410156 C 292.339844 145.53125 292.949219 145.722656 293.574219 145.746094 C 294.199219 145.796875 294.804688 145.902344 295.402344 145.859375 C 296 145.835938 296.578125 145.859375 297.121094 145.804688 C 297.664062 145.738281 298.175781 145.671875 298.648438 145.613281 C 299.128906 145.570312 299.554688 145.46875 299.933594 145.378906 C 300.3125 145.292969 300.640625 145.21875 300.914062 145.160156 C 301.457031 145.035156 301.769531 144.96875 301.769531 144.96875 C 301.769531 144.96875 301.460938 145.042969 300.917969 145.175781 C 300.648438 145.246094 300.316406 145.324219 299.941406 145.417969 C 299.5625 145.515625 299.136719 145.625 298.660156 145.679688 C 298.1875 145.746094 297.671875 145.824219 297.132812 145.90625 C 296.585938 145.972656 296 145.960938 295.40625 145.996094 C 294.804688 146.050781 294.1875 145.957031 293.558594 145.921875 C 292.921875 145.90625 292.300781 145.726562 291.667969 145.617188 C 291.035156 145.496094 290.441406 145.238281 289.835938 145.046875 C 289.273438 144.757812 288.675781 144.550781 288.179688 144.199219 C 287.925781 144.035156 287.667969 143.882812 287.429688 143.710938 C 287.203125 143.53125 286.980469 143.351562 286.761719 143.179688 C 286.339844 142.820312 285.96875 142.445312 285.644531 142.082031 C 285.324219 141.71875 285.046875 141.371094 284.832031 141.039062 C 284.597656 140.71875 284.433594 140.410156 284.285156 140.164062 C 284.195312 139.992188 284.128906 139.855469 284.066406 139.730469 C 282.730469 141.503906 281.367188 143.277344 279.878906 144.953125 C 274.988281 150.597656 269.28125 155.472656 263.34375 159.511719 C 263.433594 159.671875 263.589844 159.949219 263.839844 160.34375 C 264.230469 160.964844 264.828125 161.835938 265.632812 162.816406 C 266.445312 163.785156 267.457031 164.871094 268.695312 165.859375 C 269.300781 166.363281 269.980469 166.824219 270.6875 167.265625 C 271.402344 167.679688 272.148438 168.082031 272.9375 168.382812 C 273.722656 168.699219 274.535156 168.929688 275.351562 169.097656 C 276.167969 169.246094 276.984375 169.347656 277.777344 169.34375 C 278.175781 169.351562 278.5625 169.347656 278.945312 169.308594 C 279.328125 169.285156 279.699219 169.25 280.058594 169.183594 C 280.78125 169.09375 281.449219 168.910156 282.066406 168.757812 C 282.667969 168.550781 283.238281 168.402344 283.707031 168.1875 C 284.1875 167.988281 284.613281 167.835938 284.9375 167.660156 C 285.609375 167.328125 285.988281 167.140625 285.988281 167.140625 C 285.988281 167.140625 285.609375 167.335938 284.949219 167.675781 C 284.621094 167.855469 284.195312 168.015625 283.722656 168.226562 C 283.253906 168.449219 282.6875 168.601562 282.085938 168.824219 C 281.464844 168.980469 280.800781 169.179688 280.074219 169.285156 C 279.714844 169.359375 279.339844 169.394531 278.953125 169.425781 C 278.570312 169.46875 278.179688 169.480469 277.777344 169.476562 C 276.976562 169.496094 276.148438 169.40625 275.316406 169.269531 C 274.488281 169.113281 273.660156 168.890625 272.859375 168.578125 C 272.050781 168.289062 271.292969 167.890625 270.554688 167.484375 C 269.835938 167.046875 269.136719 166.589844 268.511719 166.085938 C 267.242188 165.101562 266.195312 164.019531 265.355469 163.050781 C 264.027344 161.484375 263.25 160.203125 262.988281 159.746094 C 261.347656 160.847656 259.695312 161.902344 258.035156 162.871094 C 252.09375 166.332031 246.117188 168.964844 240.566406 170.964844 C 240.65625 171.058594 240.78125 171.183594 240.941406 171.347656 C 241.113281 171.523438 241.320312 171.738281 241.5625 171.984375 C 241.808594 172.222656 242.066406 172.515625 242.382812 172.796875 C 242.699219 173.078125 243.039062 173.382812 243.398438 173.707031 C 243.75 174.042969 244.148438 174.359375 244.570312 174.679688 C 244.996094 174.996094 245.402344 175.363281 245.875 175.648438 C 246.347656 175.945312 246.792969 176.292969 247.296875 176.550781 C 247.796875 176.808594 248.269531 177.117188 248.792969 177.3125 C 249.046875 177.425781 249.300781 177.53125 249.550781 177.640625 C 249.800781 177.738281 250.0625 177.804688 250.3125 177.890625 C 250.8125 178.070312 251.320312 178.140625 251.792969 178.246094 C 252.273438 178.292969 252.730469 178.363281 253.15625 178.335938 C 253.578125 178.347656 253.960938 178.285156 254.304688 178.238281 C 254.640625 178.167969 254.933594 178.097656 255.164062 178.011719 C 255.636719 177.847656 255.871094 177.691406 255.871094 177.691406 C 255.871094 177.691406 255.640625 177.855469 255.171875 178.027344 C 254.941406 178.121094 254.648438 178.195312 254.3125 178.277344 C 253.96875 178.332031 253.585938 178.40625 253.15625 178.402344 C 252.730469 178.4375 252.265625 178.378906 251.78125 178.34375 C 251.300781 178.246094 250.78125 178.191406 250.277344 178.019531 C 250.019531 177.941406 249.753906 177.878906 249.496094 177.785156 C 249.242188 177.679688 248.984375 177.578125 248.722656 177.476562 C 248.191406 177.289062 247.703125 176.988281 247.191406 176.738281 C 246.675781 176.488281 246.21875 176.148438 245.734375 175.863281 C 245.246094 175.578125 244.828125 175.21875 244.390625 174.914062 C 243.957031 174.597656 243.546875 174.285156 243.183594 173.957031 C 242.8125 173.640625 242.460938 173.339844 242.136719 173.0625 C 241.808594 172.789062 241.542969 172.496094 241.289062 172.261719 C 241.042969 172.019531 240.824219 171.808594 240.648438 171.632812 C 240.367188 171.363281 240.1875 171.1875 240.121094 171.121094 C 238.511719 171.695312 236.933594 172.222656 235.410156 172.691406 C 231.957031 173.765625 228.738281 174.554688 225.871094 175.183594 C 223.003906 175.800781 220.480469 176.238281 218.398438 176.550781 C 214.234375 177.164062 211.824219 177.273438 211.824219 177.273438 C 211.824219 177.273438 214.230469 177.117188 218.378906 176.417969 C 220.453125 176.070312 222.960938 175.582031 225.808594 174.902344 C 228.65625 174.230469 231.84375 173.347656 235.269531 172.253906 C 241.519531 170.25 248.570312 167.386719 255.617188 163.414062 C 255.601562 163.382812 255.585938 163.351562 255.566406 163.316406 C 255.40625 163.03125 255.207031 162.597656 254.953125 162.050781 C 254.730469 161.492188 254.417969 160.824219 254.171875 160.023438 C 254.042969 159.625 253.886719 159.207031 253.757812 158.753906 C 253.640625 158.300781 253.515625 157.820312 253.386719 157.320312 C 253.238281 156.828125 253.171875 156.292969 253.0625 155.75 C 252.972656 155.199219 252.832031 154.640625 252.789062 154.050781 C 252.730469 153.460938 252.667969 152.859375 252.605469 152.246094 C 252.542969 151.628906 252.566406 150.992188 252.542969 150.351562 C 252.464844 149.0625 252.628906 147.738281 252.710938 146.390625 C 252.738281 145.714844 252.90625 145.050781 253 144.375 C 253.121094 143.703125 253.199219 143.019531 253.359375 142.355469 C 253.53125 141.691406 253.707031 141.027344 253.882812 140.371094 C 254.066406 139.710938 254.203125 139.042969 254.460938 138.421875 C 254.695312 137.789062 254.929688 137.160156 255.160156 136.542969 C 255.402344 135.925781 255.585938 135.296875 255.890625 134.730469 C 256.449219 133.578125 256.988281 132.460938 257.5 131.402344 C 258.105469 130.394531 258.675781 129.441406 259.203125 128.558594 C 259.472656 128.121094 259.726562 127.699219 259.96875 127.300781 C 260.222656 126.910156 260.5 126.5625 260.738281 126.222656 C 261.234375 125.550781 261.660156 124.964844 262.015625 124.484375 C 262.722656 123.515625 263.125 122.96875 263.125 122.96875 C 263.125 122.96875 262.726562 123.519531 262.03125 124.492188 C 261.679688 124.980469 261.261719 125.570312 260.773438 126.246094 C 260.535156 126.585938 260.265625 126.941406 260.007812 127.332031 C 259.773438 127.730469 259.523438 128.152344 259.261719 128.59375 C 258.742188 129.480469 258.183594 130.4375 257.589844 131.449219 C 257.085938 132.507812 256.5625 133.628906 256.015625 134.785156 C 255.714844 135.355469 255.535156 135.980469 255.304688 136.597656 C 255.082031 137.214844 254.855469 137.84375 254.625 138.476562 C 254.371094 139.097656 254.246094 139.765625 254.070312 140.417969 C 253.902344 141.078125 253.734375 141.742188 253.566406 142.402344 C 253.417969 143.0625 253.34375 143.742188 253.234375 144.414062 C 253.144531 145.082031 252.984375 145.746094 252.960938 146.417969 C 252.894531 147.757812 252.75 149.070312 252.835938 150.34375 C 252.867188 150.984375 252.847656 151.613281 252.917969 152.21875 C 252.984375 152.832031 253.050781 153.429688 253.117188 154.007812 C 253.164062 154.589844 253.308594 155.144531 253.402344 155.683594 C 253.515625 156.222656 253.585938 156.75 253.738281 157.238281 C 253.871094 157.726562 253.996094 158.199219 254.121094 158.644531 C 254.25 159.089844 254.40625 159.503906 254.535156 159.894531 C 254.789062 160.683594 255.105469 161.335938 255.324219 161.882812 C 255.582031 162.417969 255.78125 162.839844 255.9375 163.109375 C 255.957031 163.144531 255.972656 163.171875 255.988281 163.203125 C 256.546875 162.886719 257.105469 162.574219 257.664062 162.242188 C 263.453125 158.828125 269.175781 154.597656 274.308594 149.636719 C 274.28125 148.761719 274.226562 146.578125 274.289062 143.65625 C 274.324219 142.695312 274.359375 141.65625 274.398438 140.554688 C 274.472656 139.457031 274.492188 138.296875 274.597656 137.101562 C 274.683594 135.90625 274.773438 134.667969 274.917969 133.414062 C 275.03125 132.160156 275.203125 130.890625 275.382812 129.625 C 275.535156 128.351562 275.800781 127.097656 276.011719 125.855469 C 276.226562 124.617188 276.550781 123.417969 276.804688 122.242188 C 277.097656 121.082031 277.449219 119.972656 277.746094 118.914062 C 278.097656 117.871094 278.476562 116.902344 278.804688 116 C 279.160156 115.109375 279.570312 114.328125 279.890625 113.617188 C 280.191406 112.894531 280.574219 112.332031 280.863281 111.851562 C 281.152344 111.375 281.386719 110.996094 281.539062 110.742188 C 281.550781 110.71875 281.5625 110.703125 281.578125 110.683594 C 281.5625 110.703125 281.558594 110.722656 281.539062 110.746094 C 281.386719 111 281.160156 111.375 280.875 111.859375 C 280.589844 112.339844 280.210938 112.90625 279.910156 113.628906 C 279.597656 114.339844 279.191406 115.125 278.84375 116.019531 C 278.523438 116.921875 278.152344 117.890625 277.808594 118.933594 C 277.519531 119.992188 277.175781 121.105469 276.890625 122.265625 C 276.644531 123.4375 276.332031 124.636719 276.125 125.878906 C 275.925781 127.121094 275.667969 128.375 275.527344 129.648438 C 275.351562 130.910156 275.191406 132.175781 275.089844 133.433594 C 274.953125 134.683594 274.871094 135.917969 274.792969 137.113281 C 274.703125 138.308594 274.675781 139.46875 274.632812 140.566406 C 274.617188 141.664062 274.601562 142.699219 274.589844 143.660156 C 274.585938 146.21875 274.660156 148.195312 274.710938 149.234375 C 276.285156 147.691406 277.804688 146.085938 279.25 144.40625 C 282.402344 140.8125 285.035156 136.78125 288.136719 133.15625 C 289.6875 131.300781 291.28125 129.507812 292.90625 127.785156 L 292.894531 127.785156 C 292.894531 127.785156 292.972656 126.015625 293.367188 123.414062 C 293.460938 122.761719 293.578125 122.058594 293.71875 121.316406 C 293.84375 120.570312 294.023438 119.792969 294.1875 118.988281 C 294.371094 118.1875 294.570312 117.363281 294.785156 116.527344 C 295.035156 115.695312 295.234375 114.84375 295.519531 114.011719 C 295.792969 113.179688 296.050781 112.339844 296.367188 111.535156 C 296.664062 110.722656 296.972656 109.933594 297.308594 109.179688 C 297.472656 108.804688 297.632812 108.433594 297.789062 108.070312 C 297.964844 107.714844 298.136719 107.367188 298.304688 107.03125 C 298.640625 106.355469 298.941406 105.710938 299.289062 105.148438 C 299.613281 104.582031 299.917969 104.058594 300.183594 103.597656 C 300.484375 103.152344 300.742188 102.765625 300.953125 102.449219 C 301.382812 101.8125 301.628906 101.453125 301.628906 101.453125 C 301.628906 101.453125 301.386719 101.816406 300.96875 102.457031 C 300.761719 102.78125 300.507812 103.167969 300.21875 103.617188 C 299.957031 104.082031 299.664062 104.609375 299.347656 105.183594 C 299.011719 105.746094 298.71875 106.398438 298.390625 107.074219 C 298.230469 107.414062 298.066406 107.761719 297.894531 108.117188 C 297.746094 108.480469 297.589844 108.855469 297.4375 109.234375 C 297.109375 109.988281 296.816406 110.78125 296.535156 111.597656 C 296.230469 112.398438 295.984375 113.238281 295.726562 114.074219 C 295.453125 114.902344 295.265625 115.761719 295.035156 116.585938 C 294.832031 117.421875 294.644531 118.253906 294.472656 119.050781 C 294.320312 119.855469 294.152344 120.632812 294.046875 121.371094 C 293.914062 122.113281 293.8125 122.816406 293.726562 123.464844 C 293.484375 125.273438 293.382812 126.648438 293.347656 127.328125 C 294.773438 125.832031 296.214844 124.378906 297.683594 123 C 300.980469 119.902344 304.355469 117.097656 307.738281 114.703125 C 307.886719 114.597656 308.035156 114.5 308.183594 114.398438 L 308.011719 114.351562 C 308.011719 114.351562 308.128906 113.984375 308.335938 113.339844 C 308.386719 113.179688 308.445312 113.003906 308.511719 112.808594 C 308.589844 112.625 308.675781 112.421875 308.769531 112.207031 C 308.960938 111.777344 309.144531 111.28125 309.421875 110.777344 C 309.695312 110.273438 309.949219 109.703125 310.296875 109.144531 C 310.636719 108.582031 310.96875 107.972656 311.367188 107.378906 C 312.136719 106.171875 313.003906 104.910156 313.917969 103.695312 C 317.539062 98.777344 321.773438 94.378906 321.773438 94.378906 C 321.773438 94.378906 317.617188 98.855469 314.089844 103.820312 C 313.199219 105.050781 312.359375 106.320312 311.613281 107.53125 C 311.226562 108.132812 310.910156 108.742188 310.585938 109.304688 C 310.25 109.867188 310.007812 110.433594 309.75 110.933594 C 309.480469 111.4375 309.3125 111.929688 309.128906 112.355469 C 309.042969 112.566406 308.960938 112.765625 308.886719 112.949219 C 308.828125 113.140625 308.773438 113.3125 308.726562 113.46875 C 308.636719 113.765625 308.570312 113.996094 308.519531 114.167969 C 311.628906 111.992188 314.710938 110.109375 317.65625 108.542969 C 320.851562 106.839844 323.886719 105.480469 326.640625 104.464844 C 329.398438 103.441406 331.855469 102.714844 333.898438 102.207031 C 337.996094 101.199219 340.414062 101.070312 340.414062 101.070312 C 340.414062 101.070312 338 101.257812 333.9375 102.359375 Z M 99.234375 236.6875 C 99.195312 236.699219 99.148438 236.703125 99.109375 236.710938 C 99.148438 236.707031 99.191406 236.695312 99.234375 236.6875 Z M 98.925781 236.976562 L 98.828125 236.527344 C 98.824219 236.519531 98.894531 236.65625 98.980469 236.707031 C 99.019531 236.726562 99.0625 236.71875 99.109375 236.710938 C 99.0625 236.71875 99.019531 236.726562 98.992188 236.757812 C 98.929688 236.835938 98.925781 236.984375 98.925781 236.976562 Z M 185.914062 200.089844 C 188.355469 196.164062 189.574219 193.820312 189.574219 193.820312 C 189.574219 193.820312 188.308594 196.140625 185.796875 200.011719 C 184.539062 201.949219 182.96875 204.273438 181.082031 206.875 C 179.203125 209.484375 176.988281 212.355469 174.488281 215.414062 C 170.230469 220.597656 165.046875 226.277344 158.941406 231.738281 C 158.921875 231.71875 158.910156 231.707031 158.886719 231.6875 C 158.757812 231.558594 158.578125 231.402344 158.335938 231.195312 C 158.097656 230.996094 157.800781 230.761719 157.449219 230.511719 C 157.101562 230.25 156.691406 229.988281 156.25 229.703125 C 155.351562 229.144531 154.261719 228.5625 153.058594 228.023438 C 152.457031 227.761719 151.828125 227.503906 151.183594 227.261719 C 150.527344 227.046875 149.878906 226.785156 149.203125 226.605469 C 148.527344 226.421875 147.863281 226.195312 147.1875 226.058594 C 146.515625 225.914062 145.867188 225.730469 145.21875 225.628906 C 144.574219 225.519531 143.949219 225.410156 143.363281 225.308594 C 142.765625 225.234375 142.203125 225.167969 141.683594 225.105469 C 140.652344 224.957031 139.777344 224.949219 139.171875 224.894531 C 138.5625 224.851562 138.214844 224.828125 138.214844 224.828125 C 138.214844 224.828125 138.5625 224.867188 139.167969 224.929688 C 139.773438 225.007812 140.644531 225.046875 141.671875 225.230469 C 142.183594 225.308594 142.742188 225.394531 143.332031 225.488281 C 143.914062 225.613281 144.53125 225.742188 145.164062 225.875 C 145.804688 225.996094 146.445312 226.203125 147.105469 226.371094 C 147.773438 226.527344 148.417969 226.773438 149.082031 226.980469 C 149.742188 227.179688 150.375 227.460938 151.015625 227.699219 C 151.640625 227.960938 152.25 228.230469 152.832031 228.511719 C 153.992188 229.085938 155.035156 229.6875 155.882812 230.261719 C 156.308594 230.554688 156.695312 230.824219 157.015625 231.082031 C 157.347656 231.335938 157.621094 231.570312 157.839844 231.765625 C 158.058594 231.964844 158.234375 232.125 158.328125 232.234375 C 158.34375 232.246094 158.347656 232.253906 158.363281 232.265625 C 157.457031 233.066406 156.535156 233.859375 155.589844 234.640625 C 149.414062 239.820312 142.3125 244.667969 134.542969 248.296875 C 133.828125 247.8125 132.128906 246.679688 129.777344 245.308594 C 126.628906 243.488281 122.34375 241.175781 117.820312 239.425781 C 116.6875 238.984375 115.550781 238.570312 114.410156 238.214844 C 113.273438 237.84375 112.140625 237.53125 111.035156 237.257812 C 109.929688 236.996094 108.851562 236.789062 107.820312 236.625 C 107.304688 236.558594 106.804688 236.492188 106.316406 236.429688 C 105.828125 236.390625 105.355469 236.355469 104.902344 236.320312 C 103.996094 236.28125 103.160156 236.261719 102.421875 236.308594 C 101.683594 236.320312 101.042969 236.417969 100.519531 236.46875 C 99.992188 236.53125 99.582031 236.628906 99.304688 236.675781 C 99.277344 236.679688 99.257812 236.683594 99.234375 236.6875 C 99.257812 236.683594 99.277344 236.683594 99.304688 236.675781 C 99.585938 236.636719 99.992188 236.539062 100.515625 236.484375 C 101.046875 236.433594 101.683594 236.339844 102.421875 236.335938 C 103.160156 236.292969 103.992188 236.324219 104.898438 236.367188 C 105.351562 236.40625 105.820312 236.445312 106.308594 236.488281 C 106.792969 236.554688 107.292969 236.625 107.808594 236.691406 C 108.839844 236.867188 109.910156 237.078125 111.011719 237.355469 C 112.113281 237.636719 113.242188 237.957031 114.367188 238.332031 C 115.503906 238.699219 116.640625 239.117188 117.761719 239.566406 C 120.011719 240.460938 122.203125 241.488281 124.222656 242.53125 C 126.238281 243.5625 128.070312 244.628906 129.613281 245.582031 C 131.730469 246.882812 133.285156 247.957031 134.070312 248.515625 C 132.496094 249.234375 130.902344 249.910156 129.277344 250.527344 C 124.394531 252.472656 119.199219 253.40625 114.226562 255.097656 C 111.820312 255.882812 109.457031 256.746094 107.15625 257.675781 C 107.070312 257.628906 105.625 256.847656 103.355469 255.988281 C 102.773438 255.761719 102.132812 255.535156 101.453125 255.3125 C 100.78125 255.066406 100.046875 254.878906 99.300781 254.648438 C 98.546875 254.453125 97.765625 254.242188 96.964844 254.066406 C 96.15625 253.910156 95.347656 253.714844 94.519531 253.609375 C 93.695312 253.476562 92.871094 253.355469 92.054688 253.296875 C 91.644531 253.257812 91.242188 253.222656 90.84375 253.1875 C 90.441406 253.175781 90.042969 253.164062 89.65625 253.152344 C 89.261719 253.140625 88.882812 253.132812 88.507812 253.121094 C 88.128906 253.136719 87.761719 253.148438 87.40625 253.167969 C 86.691406 253.1875 86.015625 253.214844 85.398438 253.304688 C 84.777344 253.378906 84.210938 253.445312 83.707031 253.507812 C 83.210938 253.605469 82.777344 253.695312 82.421875 253.765625 C 81.707031 253.910156 81.300781 253.992188 81.300781 253.992188 C 81.300781 253.992188 81.710938 253.917969 82.425781 253.785156 C 82.78125 253.71875 83.214844 253.640625 83.714844 253.546875 C 84.21875 253.496094 84.785156 253.441406 85.40625 253.375 C 86.023438 253.292969 86.695312 253.28125 87.40625 253.269531 C 87.761719 253.261719 88.132812 253.257812 88.503906 253.246094 C 88.875 253.261719 89.261719 253.28125 89.648438 253.296875 C 90.035156 253.316406 90.433594 253.332031 90.828125 253.351562 C 91.226562 253.394531 91.628906 253.441406 92.035156 253.484375 C 92.847656 253.554688 93.664062 253.691406 94.480469 253.835938 C 95.300781 253.953125 96.105469 254.164062 96.902344 254.332031 C 97.695312 254.519531 98.464844 254.742188 99.214844 254.949219 C 99.949219 255.191406 100.671875 255.390625 101.339844 255.644531 C 102.011719 255.878906 102.640625 256.117188 103.210938 256.351562 C 104.867188 257.011719 106.058594 257.609375 106.609375 257.898438 C 104.355469 258.824219 102.164062 259.808594 100.039062 260.863281 C 95.84375 262.9375 91.925781 265.222656 88.347656 267.640625 L 88.390625 267.472656 C 88.390625 267.472656 88.011719 267.410156 87.347656 267.308594 C 87.019531 267.238281 86.613281 267.21875 86.148438 267.214844 C 85.683594 267.195312 85.164062 267.171875 84.597656 267.222656 C 84.027344 267.253906 83.414062 267.277344 82.769531 267.371094 C 82.128906 267.453125 81.445312 267.53125 80.753906 267.671875 C 80.058594 267.785156 79.339844 267.925781 78.621094 268.097656 C 77.894531 268.246094 77.164062 268.4375 76.4375 268.625 C 70.601562 270.136719 65.054688 272.472656 65.054688 272.472656 C 65.054688 272.472656 70.648438 270.238281 76.492188 268.847656 C 77.222656 268.671875 77.949219 268.496094 78.675781 268.363281 C 79.398438 268.207031 80.113281 268.082031 80.808594 267.980469 C 81.496094 267.855469 82.171875 267.785156 82.808594 267.726562 C 83.445312 267.636719 84.050781 267.632812 84.609375 267.605469 C 85.167969 267.566406 85.679688 267.605469 86.128906 267.628906 C 86.578125 267.644531 86.972656 267.671875 87.285156 267.742188 C 87.597656 267.796875 87.835938 267.839844 88.007812 267.867188 C 87.898438 267.9375 87.785156 268.011719 87.683594 268.082031 C 83.925781 270.660156 80.546875 273.335938 77.582031 275.976562 C 71.648438 281.265625 67.40625 286.390625 64.683594 290.121094 C 61.957031 293.859375 60.726562 296.207031 60.726562 296.207031 C 60.726562 296.207031 62.011719 293.890625 64.820312 290.222656 C 67.613281 286.554688 72 281.59375 77.949219 276.390625 C 78.65625 275.773438 79.398438 275.15625 80.15625 274.535156 C 80.152344 274.699219 80.152344 274.882812 80.152344 275.109375 C 80.152344 275.460938 80.164062 275.882812 80.089844 276.367188 C 80.023438 276.847656 79.992188 277.398438 79.882812 277.984375 C 79.753906 278.574219 79.640625 279.214844 79.480469 279.882812 C 79.285156 280.546875 79.113281 281.253906 78.878906 281.972656 C 78.625 282.679688 78.40625 283.429688 78.105469 284.160156 C 77.808594 284.898438 77.527344 285.652344 77.191406 286.386719 C 76.554688 287.867188 75.832031 289.3125 75.136719 290.648438 C 74.433594 291.992188 73.734375 293.21875 73.117188 294.261719 C 71.878906 296.339844 70.960938 297.671875 70.960938 297.671875 C 70.960938 297.671875 71.902344 296.355469 73.179688 294.296875 C 73.8125 293.265625 74.535156 292.046875 75.261719 290.71875 C 75.988281 289.390625 76.738281 287.953125 77.398438 286.480469 C 77.753906 285.75 78.046875 284.996094 78.359375 284.261719 C 78.675781 283.53125 78.910156 282.78125 79.175781 282.070312 C 79.425781 281.351562 79.613281 280.640625 79.820312 279.972656 C 80 279.300781 80.125 278.648438 80.261719 278.054688 C 80.390625 277.457031 80.429688 276.894531 80.503906 276.40625 C 80.589844 275.914062 80.585938 275.480469 80.589844 275.121094 C 80.601562 274.664062 80.605469 274.351562 80.609375 274.167969 C 86.121094 269.722656 92.804688 265.316406 100.402344 261.597656 C 100.980469 261.3125 101.578125 261.042969 102.171875 260.769531 C 102.222656 261.234375 102.332031 262.46875 102.292969 264.167969 C 102.289062 264.710938 102.257812 265.300781 102.214844 265.925781 C 102.183594 266.546875 102.09375 267.199219 102.027344 267.875 C 101.917969 268.546875 101.847656 269.25 101.691406 269.949219 C 101.546875 270.652344 101.410156 271.363281 101.207031 272.0625 L 100.925781 273.117188 C 100.808594 273.457031 100.695312 273.800781 100.582031 274.140625 C 100.378906 274.828125 100.097656 275.476562 99.839844 276.105469 C 99.601562 276.746094 99.292969 277.332031 99.011719 277.890625 C 98.875 278.171875 98.738281 278.445312 98.605469 278.710938 C 98.457031 278.960938 98.308594 279.207031 98.167969 279.441406 C 97.882812 279.90625 97.640625 280.34375 97.390625 280.710938 C 97.128906 281.074219 96.902344 281.386719 96.71875 281.644531 C 96.34375 282.164062 96.128906 282.457031 96.128906 282.457031 C 96.128906 282.457031 96.347656 282.164062 96.730469 281.65625 C 96.925781 281.402344 97.160156 281.09375 97.421875 280.734375 C 97.679688 280.371094 97.933594 279.9375 98.230469 279.476562 C 98.375 279.246094 98.527344 279.003906 98.683594 278.75 C 98.824219 278.488281 98.964844 278.21875 99.109375 277.941406 C 99.398438 277.382812 99.722656 276.804688 99.972656 276.164062 C 100.246094 275.535156 100.539062 274.886719 100.761719 274.203125 C 100.882812 273.863281 101.003906 273.519531 101.121094 273.175781 L 101.429688 272.125 C 101.644531 271.421875 101.800781 270.707031 101.957031 270.003906 C 102.125 269.300781 102.210938 268.597656 102.335938 267.917969 C 102.417969 267.238281 102.519531 266.578125 102.570312 265.949219 C 102.621094 265.324219 102.667969 264.730469 102.683594 264.179688 C 102.765625 262.230469 102.640625 260.851562 102.609375 260.566406 C 106.394531 258.824219 110.378906 257.265625 114.5 255.941406 C 115.734375 255.566406 116.964844 255.164062 118.222656 254.816406 C 119.136719 254.570312 120.054688 254.324219 120.972656 254.078125 C 120.988281 254.097656 120.996094 254.113281 121.011719 254.136719 C 121.101562 254.277344 121.214844 254.503906 121.363281 254.785156 C 121.492188 255.082031 121.667969 255.433594 121.808594 255.863281 C 121.976562 256.277344 122.09375 256.773438 122.242188 257.308594 C 122.34375 257.855469 122.484375 258.441406 122.527344 259.082031 C 122.621094 259.714844 122.605469 260.386719 122.609375 261.085938 C 122.585938 261.78125 122.527344 262.503906 122.425781 263.226562 C 122.277344 263.945312 122.199219 264.695312 121.964844 265.40625 C 121.761719 266.121094 121.574219 266.847656 121.28125 267.527344 C 121.007812 268.210938 120.773438 268.898438 120.433594 269.519531 C 120.117188 270.140625 119.84375 270.765625 119.519531 271.324219 C 119.183594 271.875 118.867188 272.394531 118.578125 272.878906 C 118.300781 273.371094 117.992188 273.785156 117.726562 274.15625 C 117.457031 274.527344 117.222656 274.851562 117.035156 275.117188 C 116.652344 275.652344 116.433594 275.957031 116.433594 275.957031 C 116.433594 275.957031 116.65625 275.65625 117.050781 275.128906 C 117.246094 274.867188 117.484375 274.546875 117.761719 274.179688 C 118.039062 273.8125 118.351562 273.402344 118.636719 272.917969 C 118.9375 272.4375 119.265625 271.921875 119.609375 271.375 C 119.945312 270.824219 120.230469 270.203125 120.566406 269.582031 C 120.917969 268.964844 121.171875 268.277344 121.453125 267.59375 C 121.761719 266.914062 121.964844 266.1875 122.1875 265.464844 C 122.4375 264.75 122.53125 263.996094 122.695312 263.269531 C 122.8125 262.535156 122.882812 261.804688 122.925781 261.09375 C 122.933594 260.386719 122.960938 259.695312 122.878906 259.046875 C 122.847656 258.394531 122.714844 257.789062 122.621094 257.222656 C 122.480469 256.671875 122.367188 256.160156 122.203125 255.722656 C 122.0625 255.277344 121.890625 254.90625 121.761719 254.597656 C 121.621094 254.324219 121.523438 254.113281 121.429688 253.953125 C 121.625 253.902344 121.824219 253.847656 122.019531 253.792969 C 124.582031 253.125 127.113281 252.308594 129.59375 251.355469 C 136.308594 248.789062 142.585938 245.25 148.285156 241.253906 C 148.378906 241.460938 148.527344 241.78125 148.707031 242.242188 C 149.023438 243.042969 149.441406 244.203125 149.804688 245.636719 C 150.179688 247.066406 150.492188 248.773438 150.632812 250.617188 C 150.699219 251.539062 150.726562 252.496094 150.683594 253.464844 C 150.660156 254.4375 150.542969 255.417969 150.394531 256.394531 C 150.226562 257.371094 150.007812 258.332031 149.714844 259.261719 C 149.425781 260.1875 149.089844 261.089844 148.691406 261.929688 C 148.496094 262.347656 148.300781 262.761719 148.074219 263.148438 C 147.859375 263.535156 147.65625 263.925781 147.414062 264.277344 C 146.976562 265.003906 146.488281 265.648438 146.046875 266.246094 C 145.566406 266.8125 145.148438 267.351562 144.722656 267.785156 C 144.296875 268.210938 143.953125 268.613281 143.621094 268.898438 C 142.984375 269.484375 142.613281 269.820312 142.613281 269.820312 C 142.613281 269.820312 142.988281 269.488281 143.636719 268.914062 C 143.972656 268.632812 144.320312 268.234375 144.753906 267.8125 C 145.1875 267.390625 145.613281 266.851562 146.101562 266.289062 C 146.554688 265.695312 147.054688 265.058594 147.507812 264.335938 C 147.75 263.984375 147.960938 263.597656 148.1875 263.207031 C 148.421875 262.824219 148.617188 262.410156 148.820312 261.988281 C 149.238281 261.152344 149.585938 260.25 149.894531 259.320312 C 150.199219 258.386719 150.4375 257.414062 150.617188 256.433594 C 150.78125 255.453125 150.921875 254.460938 150.957031 253.480469 C 151.011719 252.496094 151 251.53125 150.945312 250.59375 C 150.828125 248.726562 150.539062 247 150.179688 245.542969 C 149.609375 243.164062 148.90625 241.515625 148.667969 240.988281 C 151.265625 239.148438 153.75 237.21875 156.09375 235.238281 C 160.984375 231.082031 165.308594 226.734375 169.097656 222.511719 C 169.300781 222.960938 169.601562 223.667969 169.9375 224.578125 C 170.222656 225.378906 170.554688 226.320312 170.832031 227.347656 C 171.128906 228.371094 171.371094 229.484375 171.582031 230.601562 C 171.660156 231.164062 171.761719 231.726562 171.816406 232.285156 C 171.855469 232.839844 171.941406 233.390625 171.9375 233.921875 C 171.9375 234.457031 171.988281 234.976562 171.945312 235.460938 C 171.910156 235.949219 171.914062 236.417969 171.847656 236.839844 C 171.789062 237.261719 171.734375 237.652344 171.6875 237.996094 C 171.628906 238.339844 171.539062 238.632812 171.484375 238.875 C 171.367188 239.363281 171.296875 239.640625 171.296875 239.640625 C 171.296875 239.640625 171.375 239.367188 171.519531 238.882812 C 171.582031 238.640625 171.6875 238.355469 171.757812 238.011719 C 171.824219 237.667969 171.894531 237.277344 171.972656 236.855469 C 172.054688 236.433594 172.070312 235.964844 172.125 235.472656 C 172.191406 234.980469 172.164062 234.457031 172.1875 233.917969 C 172.210938 233.375 172.152344 232.820312 172.132812 232.253906 C 172.105469 231.6875 172.023438 231.117188 171.96875 230.542969 C 171.808594 229.402344 171.609375 228.261719 171.355469 227.214844 C 171.117188 226.160156 170.824219 225.191406 170.570312 224.363281 C 170.183594 223.15625 169.828125 222.269531 169.667969 221.871094 C 171.527344 219.777344 173.269531 217.707031 174.867188 215.722656 C 177.347656 212.632812 179.488281 209.691406 181.328125 207.050781 C 183.164062 204.40625 184.695312 202.050781 185.914062 200.089844 " fill-opacity="1" fill-rule="nonzero"/></g></g></g></g></svg>