<svg xmlns="http://www.w3.org/2000/svg" xmlns:xlink="http://www.w3.org/1999/xlink" width="1920" zoomAndPan="magnify" viewBox="0 0 1440 809.999993" height="1080" preserveAspectRatio="xMidYMid meet" version="1.0"><defs><clipPath id="da0df93581"><path d="M 566 308 L 1070 308 L 1070 676 L 566 676 Z M 566 308 " clip-rule="nonzero"/></clipPath><clipPath id="642f4d3216"><path d="M 564.832031 419.425781 L 963.960938 163.746094 L 1182.019531 504.140625 L 782.890625 759.820312 Z M 564.832031 419.425781 " clip-rule="nonzero"/></clipPath><clipPath id="c4142d949b"><path d="M 564.832031 419.425781 L 963.960938 163.746094 L 1182.019531 504.140625 L 782.890625 759.820312 Z M 564.832031 419.425781 " clip-rule="nonzero"/></clipPath><clipPath id="9d40da4a74"><path d="M 564.832031 419.425781 L 963.960938 163.746094 L 1182.019531 504.140625 L 782.890625 759.820312 Z M 564.832031 419.425781 " clip-rule="nonzero"/></clipPath><clipPath id="451fea554b"><path d="M 565 419.320312 L 963.984375 163.730469 L 1182.15625 504.3125 L 783.171875 759.902344 Z M 565 419.320312 " clip-rule="nonzero"/></clipPath><clipPath id="12f51e2aec"><path d="M 565 419.320312 L 963.789062 163.855469 L 1181.820312 504.21875 L 783.03125 759.679688 Z M 565 419.320312 " clip-rule="nonzero"/></clipPath><clipPath id="cd5eecf7bc"><path d="M 585 325 L 1055 325 L 1055 444 L 585 444 Z M 585 325 " clip-rule="nonzero"/></clipPath><clipPath id="dcec63c6a0"><path d="M 564.832031 419.425781 L 963.960938 163.746094 L 1182.019531 504.140625 L 782.890625 759.820312 Z M 564.832031 419.425781 " clip-rule="nonzero"/></clipPath><clipPath id="52a021166e"><path d="M 564.832031 419.425781 L 963.960938 163.746094 L 1182.019531 504.140625 L 782.890625 759.820312 Z M 564.832031 419.425781 " clip-rule="nonzero"/></clipPath><clipPath id="14e3e93ad1"><path d="M 564.832031 419.425781 L 963.960938 163.746094 L 1182.019531 504.140625 L 782.890625 759.820312 Z M 564.832031 419.425781 " clip-rule="nonzero"/></clipPath><clipPath id="04979c4e89"><path d="M 19 0 L 305 0 L 305 249 L 19 249 Z M 19 0 " clip-rule="nonzero"/></clipPath><clipPath id="e73004c08d"><path d="M 333.847656 179.550781 L 19.929688 250.113281 L -40.269531 -17.703125 L 273.648438 -88.265625 Z M 333.847656 179.550781 " clip-rule="nonzero"/></clipPath><clipPath id="cb913ec063"><path d="M 19.964844 250.105469 L 333.882812 179.542969 L 273.679688 -88.273438 L -40.234375 -17.710938 Z M 19.964844 250.105469 " clip-rule="nonzero"/></clipPath><clipPath id="63c348683d"><path d="M 19.964844 250.105469 L 333.882812 179.542969 L 273.679688 -88.273438 L -40.234375 -17.710938 Z M 19.964844 250.105469 " clip-rule="nonzero"/></clipPath><clipPath id="63fb546a46"><path d="M 20.09375 250.078125 L 333.902344 179.539062 L 273.667969 -88.425781 L -40.140625 -17.886719 Z M 20.09375 250.078125 " clip-rule="nonzero"/></clipPath><clipPath id="143a0e2fb5"><path d="M 20.09375 250.078125 L 333.746094 179.574219 L 273.550781 -88.214844 L -40.101562 -17.710938 Z M 20.09375 250.078125 " clip-rule="nonzero"/></clipPath><clipPath id="ba1aac296d"><path d="M 28 47 L 294 47 L 294 240 L 28 240 Z M 28 47 " clip-rule="nonzero"/></clipPath><clipPath id="b39bc4f646"><path d="M 333.847656 179.550781 L 19.929688 250.113281 L -40.269531 -17.703125 L 273.648438 -88.265625 Z M 333.847656 179.550781 " clip-rule="nonzero"/></clipPath><clipPath id="9ba2698e20"><path d="M 19.964844 250.105469 L 333.882812 179.542969 L 273.679688 -88.273438 L -40.234375 -17.710938 Z M 19.964844 250.105469 " clip-rule="nonzero"/></clipPath><clipPath id="69fd161e38"><path d="M 19.964844 250.105469 L 333.882812 179.542969 L 273.679688 -88.273438 L -40.234375 -17.710938 Z M 19.964844 250.105469 " clip-rule="nonzero"/></clipPath></defs><rect x="-144" width="1728" fill="#ffffff" y="-80.999999" height="971.999992" fill-opacity="1"/><rect x="-144" width="1728" fill="#ffffff" y="-80.999999" height="971.999992" fill-opacity="1"/><g clip-path="url(#da0df93581)"><g clip-path="url(#642f4d3216)"><g clip-path="url(#c4142d949b)"><g clip-path="url(#9d40da4a74)"><g clip-path="url(#451fea554b)"><g clip-path="url(#12f51e2aec)"><path fill="#216b39" d="M 1069.652344 329.117188 C 1069.652344 329.117188 1035.472656 402.515625 978.085938 405.382812 C 920.695312 408.253906 864.917969 382.75 854.277344 392.609375 C 848.128906 398.308594 843.542969 424.335938 843.179688 427.921875 C 842.835938 431.597656 842.414062 436.0625 842.117188 441.203125 C 841.78125 446.332031 841.550781 452.132812 841.410156 458.460938 C 841.386719 461.625 841.296875 464.917969 841.351562 468.328125 C 841.367188 470.03125 841.382812 471.765625 841.394531 473.523438 C 841.449219 475.28125 841.496094 477.066406 841.550781 478.875 C 841.617188 482.496094 841.871094 486.207031 842.054688 490.003906 C 842.300781 493.789062 842.582031 497.660156 842.9375 501.585938 C 843.355469 505.503906 843.675781 509.496094 844.246094 513.511719 C 844.503906 515.519531 844.765625 517.539062 845.03125 519.570312 C 845.355469 521.589844 845.671875 523.621094 846 525.660156 C 846.589844 529.746094 847.457031 533.8125 848.226562 537.910156 C 848.585938 539.964844 849.105469 541.988281 849.558594 544.027344 L 850.957031 550.136719 L 852.574219 556.179688 C 853.117188 558.191406 853.617188 560.214844 854.265625 562.1875 C 855.523438 566.144531 856.632812 570.125 858.085938 573.953125 C 858.773438 575.875 859.453125 577.796875 860.136719 579.707031 C 860.839844 581.601562 861.648438 583.449219 862.394531 585.304688 C 863.15625 587.152344 863.878906 589.003906 864.667969 590.8125 C 865.5 592.59375 866.328125 594.367188 867.148438 596.125 C 867.992188 597.863281 868.71875 599.648438 869.636719 601.3125 C 870.53125 602.988281 871.417969 604.648438 872.289062 606.289062 C 873.957031 609.617188 875.902344 612.691406 877.726562 615.714844 C 878.664062 617.207031 879.488281 618.746094 880.480469 620.144531 C 881.449219 621.554688 882.40625 622.941406 883.34375 624.308594 C 884.285156 625.667969 885.207031 627.011719 886.109375 628.328125 C 887.09375 629.585938 888.0625 630.816406 889.007812 632.023438 C 889.953125 633.230469 890.875 634.414062 891.78125 635.566406 C 892.238281 636.136719 892.667969 636.722656 893.128906 637.265625 C 893.605469 637.800781 894.078125 638.324219 894.542969 638.84375 C 896.398438 640.921875 898.160156 642.890625 899.8125 644.742188 C 900.609375 645.695312 901.527344 646.476562 902.339844 647.304688 C 903.167969 648.109375 903.964844 648.890625 904.734375 649.636719 C 906.277344 651.128906 907.652344 652.539062 908.964844 653.734375 C 914.371094 658.332031 917.464844 660.957031 917.464844 660.957031 L 917.871094 661.304688 C 921.160156 664.097656 921.5625 669.027344 918.769531 672.320312 C 915.972656 675.609375 911.039062 676.007812 907.753906 673.214844 C 907.671875 673.144531 907.566406 673.050781 907.492188 672.980469 C 907.492188 672.980469 904.242188 669.957031 898.558594 664.671875 C 897.191406 663.300781 895.753906 661.699219 894.148438 660.007812 C 893.351562 659.152344 892.523438 658.265625 891.664062 657.34375 C 890.820312 656.40625 889.871094 655.507812 889.054688 654.4375 C 887.351562 652.351562 885.539062 650.132812 883.632812 647.792969 C 883.15625 647.207031 882.671875 646.613281 882.183594 646.015625 C 881.710938 645.402344 881.269531 644.753906 880.808594 644.113281 C 879.890625 642.824219 878.953125 641.507812 877.988281 640.164062 C 877.035156 638.816406 876.058594 637.445312 875.0625 636.046875 C 874.152344 634.589844 873.226562 633.105469 872.289062 631.601562 C 871.347656 630.09375 870.390625 628.5625 869.425781 627.003906 C 868.4375 625.460938 867.621094 623.78125 866.699219 622.140625 C 864.902344 618.832031 862.988281 615.472656 861.375 611.867188 C 860.527344 610.089844 859.675781 608.289062 858.8125 606.472656 C 857.921875 604.667969 857.234375 602.757812 856.429688 600.878906 C 855.652344 598.992188 854.867188 597.089844 854.074219 595.171875 C 853.335938 593.238281 852.664062 591.261719 851.953125 589.289062 C 851.261719 587.308594 850.507812 585.34375 849.859375 583.324219 C 849.238281 581.304688 848.613281 579.269531 847.988281 577.226562 C 846.660156 573.167969 845.6875 568.980469 844.578125 564.820312 C 844 562.746094 843.574219 560.628906 843.105469 558.523438 L 841.722656 552.199219 L 840.5625 545.835938 C 840.195312 543.714844 839.753906 541.609375 839.480469 539.480469 C 838.875 535.234375 838.179688 531.023438 837.761719 526.808594 C 837.523438 524.703125 837.289062 522.609375 837.058594 520.53125 C 836.882812 518.445312 836.707031 516.367188 836.535156 514.300781 C 836.136719 510.179688 835.996094 506.085938 835.746094 502.078125 C 835.574219 498.066406 835.464844 494.109375 835.382812 490.25 C 835.375 486.386719 835.289062 482.609375 835.386719 478.933594 C 835.421875 477.09375 835.449219 475.28125 835.480469 473.496094 C 835.546875 471.710938 835.613281 469.957031 835.675781 468.226562 C 835.773438 464.773438 836.015625 461.441406 836.183594 458.238281 C 836.617188 451.84375 837.113281 445.992188 837.691406 440.820312 C 838.230469 435.644531 838.855469 431.148438 839.378906 427.449219 C 839.835938 424.320312 840.257812 421.765625 840.59375 419.851562 C 840.59375 419.851562 824.140625 401.953125 814.472656 398.960938 C 797.746094 393.78125 761.355469 438.792969 704.570312 457.890625 C 647.785156 476.988281 566.296875 421.347656 566.296875 421.347656 C 566.296875 421.347656 604.140625 397.125 648.648438 365.824219 C 705.792969 325.652344 790.914062 375.574219 814.097656 391.59375 C 827.960938 401.179688 836.578125 409.261719 841.269531 414.214844 C 842.21875 408.53125 844.554688 398.933594 850.3125 386.339844 C 859.921875 365.296875 900.378906 295.46875 970.289062 310.070312 C 1024.738281 321.441406 1069.652344 329.117188 1069.652344 329.117188 " fill-opacity="1" fill-rule="nonzero"/></g></g></g></g></g></g><g clip-path="url(#cd5eecf7bc)"><g clip-path="url(#dcec63c6a0)"><g clip-path="url(#52a021166e)"><g clip-path="url(#14e3e93ad1)"><path fill="#2d9d49" d="M 907.292969 382.761719 C 906.867188 382.503906 906.382812 382.214844 905.855469 381.894531 C 905.316406 381.59375 904.796875 381.179688 904.21875 380.773438 C 903.636719 380.382812 903.0625 379.910156 902.472656 379.414062 C 901.871094 378.941406 901.292969 378.394531 900.707031 377.839844 C 900.105469 377.304688 899.558594 376.695312 898.988281 376.109375 C 897.867188 374.914062 896.824219 373.65625 895.898438 372.429688 C 894.976562 371.203125 894.167969 370.023438 893.515625 368.988281 C 892.195312 366.917969 891.492188 365.449219 891.492188 365.449219 L 890.957031 365.722656 C 890.957031 365.722656 891.714844 367.210938 893.09375 369.261719 C 893.777344 370.296875 894.617188 371.464844 895.574219 372.683594 C 896.535156 373.894531 897.613281 375.140625 898.769531 376.316406 C 899.359375 376.894531 899.921875 377.496094 900.542969 378.023438 C 901.144531 378.5625 901.734375 379.097656 902.355469 379.5625 C 902.957031 380.042969 903.542969 380.507812 904.140625 380.886719 C 904.730469 381.28125 905.261719 381.6875 905.808594 381.976562 C 906.339844 382.285156 906.832031 382.5625 907.269531 382.8125 C 907.71875 383.027344 908.113281 383.214844 908.441406 383.367188 C 909.089844 383.671875 909.460938 383.84375 909.460938 383.84375 C 909.460938 383.84375 909.097656 383.664062 908.449219 383.339844 C 908.128906 383.183594 907.738281 382.988281 907.292969 382.761719 Z M 987.257812 385.640625 L 987.359375 385.054688 C 987.363281 385.042969 987.277344 385.214844 987.15625 385.277344 C 987.101562 385.296875 987.039062 385.285156 986.96875 385.261719 C 987.039062 385.277344 987.101562 385.300781 987.144531 385.339844 C 987.230469 385.453125 987.253906 385.652344 987.257812 385.640625 Z M 986.78125 385.21875 C 986.847656 385.234375 986.914062 385.25 986.96875 385.261719 C 986.914062 385.25 986.847656 385.234375 986.78125 385.21875 Z M 1046.40625 341.445312 C 1041.34375 344.390625 1033.722656 347.996094 1024.09375 350.847656 C 1023.4375 351.042969 1022.757812 351.222656 1022.078125 351.410156 C 1022.117188 351.21875 1022.171875 350.988281 1022.230469 350.699219 C 1022.316406 350.308594 1022.394531 349.824219 1022.613281 349.304688 C 1022.820312 348.785156 1022.992188 348.175781 1023.289062 347.554688 C 1023.605469 346.9375 1023.917969 346.25 1024.308594 345.5625 C 1024.738281 344.890625 1025.148438 344.160156 1025.652344 343.453125 C 1026.179688 342.761719 1026.660156 341.996094 1027.265625 341.308594 C 1027.851562 340.605469 1028.429688 339.878906 1029.078125 339.207031 C 1029.695312 338.511719 1030.339844 337.84375 1030.996094 337.207031 C 1031.636719 336.546875 1032.304688 335.941406 1032.941406 335.347656 C 1034.230469 334.167969 1035.480469 333.117188 1036.574219 332.242188 C 1038.761719 330.5 1040.304688 329.453125 1040.304688 329.453125 C 1040.304688 329.453125 1038.742188 330.464844 1036.515625 332.171875 C 1035.40625 333.027344 1034.132812 334.050781 1032.816406 335.207031 C 1032.167969 335.792969 1031.476562 336.382812 1030.824219 337.03125 C 1030.15625 337.660156 1029.492188 338.316406 1028.855469 339.003906 C 1028.195312 339.667969 1027.59375 340.386719 1026.992188 341.085938 C 1026.371094 341.765625 1025.863281 342.523438 1025.320312 343.214844 C 1024.792969 343.921875 1024.359375 344.660156 1023.910156 345.332031 C 1023.5 346.023438 1023.167969 346.714844 1022.832031 347.339844 C 1022.515625 347.972656 1022.320312 348.597656 1022.101562 349.132812 C 1021.863281 349.660156 1021.773438 350.160156 1021.675781 350.566406 C 1021.566406 351.039062 1021.484375 351.378906 1021.433594 351.589844 C 1012.363281 354.054688 1001.730469 355.730469 990.320312 356.074219 C 989.722656 356.09375 989.113281 356.09375 988.507812 356.105469 C 988.542969 355.601562 988.671875 354.15625 989.144531 352.1875 C 989.277344 351.570312 989.457031 350.910156 989.664062 350.222656 C 989.851562 349.523438 990.140625 348.816406 990.390625 348.070312 C 990.707031 347.351562 990.980469 346.578125 991.359375 345.84375 C 991.726562 345.101562 992.097656 344.34375 992.546875 343.628906 C 992.765625 343.277344 992.972656 342.902344 993.199219 342.554688 C 993.445312 342.210938 993.6875 341.871094 993.925781 341.535156 C 994.382812 340.839844 994.9375 340.238281 995.449219 339.636719 C 995.9375 339.011719 996.515625 338.507812 997.027344 338 C 997.292969 337.75 997.539062 337.496094 997.792969 337.269531 C 998.058594 337.058594 998.316406 336.851562 998.570312 336.65625 C 999.070312 336.273438 999.503906 335.882812 999.9375 335.597656 C 1000.371094 335.328125 1000.753906 335.082031 1001.066406 334.886719 C 1001.691406 334.492188 1002.046875 334.261719 1002.046875 334.261719 C 1002.046875 334.261719 1001.683594 334.480469 1001.050781 334.863281 C 1000.734375 335.058594 1000.347656 335.289062 999.90625 335.558594 C 999.464844 335.828125 999.023438 336.207031 998.507812 336.585938 C 998.257812 336.773438 997.992188 336.972656 997.71875 337.179688 C 997.457031 337.398438 997.203125 337.652344 996.9375 337.894531 C 996.402344 338.394531 995.8125 338.890625 995.304688 339.507812 C 994.777344 340.105469 994.207031 340.699219 993.730469 341.390625 C 993.480469 341.726562 993.230469 342.0625 992.972656 342.402344 C 992.738281 342.753906 992.523438 343.121094 992.292969 343.476562 C 991.820312 344.183594 991.433594 344.945312 991.042969 345.683594 C 990.640625 346.421875 990.347656 347.191406 990.011719 347.917969 C 989.738281 348.671875 989.433594 349.378906 989.226562 350.085938 C 989 350.78125 988.800781 351.445312 988.648438 352.066406 C 988.109375 354.121094 987.949219 355.652344 987.914062 356.113281 C 982.394531 356.199219 976.734375 356 971.011719 355.488281 C 967.71875 355.238281 964.402344 354.757812 961.058594 354.308594 C 961.046875 354.273438 961.039062 354.257812 961.023438 354.222656 C 960.945312 354.042969 960.847656 353.761719 960.726562 353.402344 C 960.617188 353.035156 960.472656 352.597656 960.375 352.074219 C 960.257812 351.554688 960.171875 350.960938 960.109375 350.304688 C 960.054688 349.652344 960.03125 348.9375 960.074219 348.191406 C 960.105469 347.8125 960.140625 347.429688 960.171875 347.035156 C 960.222656 346.640625 960.320312 346.25 960.394531 345.84375 C 960.503906 345.019531 960.867188 344.238281 961.105469 343.40625 C 961.488281 342.632812 961.789062 341.792969 962.265625 341.050781 C 962.75 340.316406 963.160156 339.519531 963.75 338.878906 C 964.308594 338.210938 964.800781 337.503906 965.429688 336.953125 C 966.039062 336.382812 966.582031 335.789062 967.167969 335.300781 C 967.769531 334.832031 968.335938 334.386719 968.863281 333.976562 C 969.371094 333.542969 969.890625 333.222656 970.347656 332.933594 C 970.804688 332.640625 971.203125 332.382812 971.53125 332.175781 C 972.1875 331.753906 972.558594 331.515625 972.558594 331.515625 C 972.558594 331.515625 972.183594 331.746094 971.515625 332.152344 C 971.1875 332.355469 970.78125 332.601562 970.320312 332.882812 C 969.851562 333.164062 969.324219 333.480469 968.808594 333.898438 C 968.273438 334.304688 967.691406 334.738281 967.082031 335.195312 C 966.480469 335.671875 965.917969 336.261719 965.296875 336.816406 C 964.652344 337.359375 964.140625 338.066406 963.558594 338.722656 C 962.949219 339.367188 962.519531 340.160156 962.007812 340.898438 C 961.507812 341.640625 961.179688 342.488281 960.773438 343.273438 C 960.511719 344.117188 960.128906 344.914062 959.996094 345.75 C 959.90625 346.164062 959.804688 346.570312 959.738281 346.972656 C 959.699219 347.378906 959.65625 347.773438 959.613281 348.15625 C 959.558594 348.929688 959.5625 349.667969 959.605469 350.347656 C 959.652344 351.019531 959.726562 351.636719 959.84375 352.175781 C 959.933594 352.722656 960.078125 353.1875 960.175781 353.574219 C 960.257812 353.832031 960.328125 354.035156 960.394531 354.21875 C 957.320312 353.804688 954.226562 353.414062 951.101562 353.242188 C 940.699219 352.554688 930.261719 353.425781 920.429688 355.355469 C 920.359375 355.109375 920.238281 354.679688 920.09375 354.042969 C 919.863281 353.042969 919.578125 351.59375 919.394531 349.835938 C 919.230469 348.078125 919.148438 346.007812 919.378906 343.808594 C 919.472656 342.710938 919.683594 341.585938 919.9375 340.453125 C 920.230469 339.335938 920.558594 338.199219 921.039062 337.121094 C 921.492188 336.03125 922.0625 335 922.695312 334.023438 C 923.351562 333.066406 924.050781 332.160156 924.835938 331.375 C 925.210938 330.972656 925.597656 330.589844 926.015625 330.253906 C 926.410156 329.894531 926.808594 329.558594 927.226562 329.269531 C 928.027344 328.640625 928.867188 328.160156 929.621094 327.695312 C 930.417969 327.304688 931.121094 326.882812 931.792969 326.625 C 932.464844 326.351562 933.03125 326.074219 933.527344 325.925781 C 934.511719 325.585938 935.074219 325.394531 935.074219 325.394531 C 935.074219 325.394531 934.507812 325.578125 933.523438 325.898438 C 933.023438 326.042969 932.445312 326.3125 931.773438 326.574219 C 931.089844 326.820312 930.382812 327.234375 929.574219 327.613281 C 928.8125 328.074219 927.960938 328.535156 927.144531 329.15625 C 926.714844 329.441406 926.3125 329.773438 925.90625 330.128906 C 925.484375 330.464844 925.089844 330.839844 924.699219 331.246094 C 923.890625 332.019531 923.171875 332.933594 922.492188 333.890625 C 921.832031 334.863281 921.242188 335.90625 920.765625 337.003906 C 920.261719 338.089844 919.910156 339.234375 919.59375 340.367188 C 919.316406 341.511719 919.085938 342.652344 918.972656 343.765625 C 918.703125 345.996094 918.75 348.097656 918.894531 349.882812 C 919.144531 352.738281 919.648438 354.765625 919.847656 355.476562 C 917.148438 356.019531 914.476562 356.625 911.886719 357.320312 C 902.625 359.8125 894.152344 363.160156 886.71875 366.699219 C 886.714844 366.519531 886.710938 366.273438 886.707031 365.957031 C 886.699219 365.613281 886.691406 365.191406 886.683594 364.710938 C 886.6875 364.234375 886.648438 363.691406 886.683594 363.101562 C 886.710938 362.511719 886.742188 361.871094 886.777344 361.195312 C 886.785156 360.519531 886.859375 359.8125 886.957031 359.082031 C 887.0625 358.347656 887.097656 357.585938 887.277344 356.832031 C 887.445312 356.074219 887.539062 355.289062 887.777344 354.539062 C 888.011719 353.789062 888.167969 353.015625 888.484375 352.304688 C 888.628906 351.941406 888.769531 351.585938 888.90625 351.230469 C 889.054688 350.886719 889.246094 350.558594 889.40625 350.230469 C 889.71875 349.558594 890.148438 348.984375 890.507812 348.414062 C 890.933594 347.890625 891.308594 347.367188 891.75 346.972656 C 892.15625 346.542969 892.59375 346.222656 892.972656 345.925781 C 893.378906 345.664062 893.730469 345.441406 894.046875 345.296875 C 894.667969 344.988281 895.058594 344.910156 895.058594 344.910156 C 895.058594 344.910156 894.667969 344.980469 894.035156 345.273438 C 893.714844 345.410156 893.355469 345.628906 892.945312 345.878906 C 892.554688 346.167969 892.105469 346.480469 891.6875 346.90625 C 891.230469 347.292969 890.839844 347.8125 890.398438 348.328125 C 890.019531 348.898438 889.566406 349.46875 889.242188 350.140625 C 889.070312 350.46875 888.871094 350.796875 888.710938 351.144531 C 888.5625 351.5 888.414062 351.855469 888.261719 352.214844 C 887.921875 352.925781 887.742188 353.707031 887.488281 354.457031 C 887.230469 355.214844 887.117188 356.003906 886.925781 356.765625 C 886.730469 357.523438 886.675781 358.296875 886.550781 359.027344 C 886.4375 359.765625 886.347656 360.480469 886.316406 361.164062 C 886.265625 361.84375 886.21875 362.488281 886.179688 363.082031 C 886.128906 363.675781 886.15625 364.226562 886.144531 364.710938 C 886.140625 365.191406 886.136719 365.617188 886.132812 365.964844 C 886.128906 366.503906 886.125 366.859375 886.128906 366.992188 C 883.976562 368.023438 881.90625 369.070312 879.949219 370.121094 C 875.492188 372.488281 871.550781 374.910156 868.117188 377.136719 C 864.6875 379.375 861.78125 381.445312 859.429688 383.207031 C 854.734375 386.738281 852.265625 389.019531 852.265625 389.019531 C 852.265625 389.019531 854.777344 386.789062 859.539062 383.359375 C 861.921875 381.640625 864.863281 379.636719 868.332031 377.476562 C 871.792969 375.308594 875.796875 373.015625 880.246094 370.6875 C 888.363281 366.457031 898.117188 362.273438 908.980469 359.183594 C 908.992188 359.230469 909.007812 359.277344 909.027344 359.328125 C 909.152344 359.773438 909.386719 360.394531 909.679688 361.183594 C 910.019531 361.953125 910.371094 362.917969 910.921875 363.949219 C 911.195312 364.464844 911.457031 365.035156 911.78125 365.605469 C 912.113281 366.167969 912.464844 366.765625 912.835938 367.382812 C 913.179688 368.015625 913.644531 368.605469 914.078125 369.25 C 914.535156 369.875 914.953125 370.566406 915.496094 371.183594 C 916.023438 371.824219 916.558594 372.476562 917.109375 373.140625 C 917.660156 373.8125 918.316406 374.410156 918.929688 375.0625 C 920.128906 376.40625 921.605469 377.542969 923.019531 378.789062 C 923.71875 379.421875 924.542969 379.910156 925.304688 380.480469 C 926.089844 381.019531 926.84375 381.613281 927.664062 382.109375 C 928.492188 382.589844 929.324219 383.0625 930.148438 383.539062 C 930.980469 384 931.777344 384.523438 932.652344 384.878906 C 933.507812 385.265625 934.359375 385.652344 935.199219 386.03125 C 936.046875 386.394531 936.851562 386.828125 937.714844 387.085938 C 939.40625 387.664062 941.042969 388.226562 942.601562 388.757812 C 944.195312 389.144531 945.699219 389.515625 947.089844 389.859375 C 947.789062 390.023438 948.453125 390.183594 949.085938 390.335938 C 949.726562 390.464844 950.34375 390.535156 950.914062 390.628906 C 952.066406 390.800781 953.070312 390.949219 953.894531 391.070312 C 955.546875 391.320312 956.488281 391.460938 956.488281 391.460938 C 956.488281 391.460938 955.546875 391.3125 953.898438 391.046875 C 953.074219 390.917969 952.074219 390.753906 950.925781 390.574219 C 950.351562 390.476562 949.738281 390.394531 949.097656 390.269531 C 948.472656 390.109375 947.804688 389.941406 947.113281 389.765625 C 945.726562 389.414062 944.226562 389.027344 942.636719 388.625 C 941.09375 388.078125 939.464844 387.503906 937.78125 386.910156 C 936.921875 386.644531 936.125 386.207031 935.289062 385.832031 C 934.453125 385.445312 933.609375 385.054688 932.757812 384.660156 C 931.890625 384.300781 931.105469 383.769531 930.285156 383.300781 C 929.464844 382.820312 928.644531 382.339844 927.824219 381.855469 C 927.015625 381.355469 926.273438 380.757812 925.496094 380.210938 C 924.746094 379.640625 923.933594 379.148438 923.242188 378.511719 C 921.851562 377.261719 920.402344 376.121094 919.222656 374.78125 C 918.617188 374.125 917.976562 373.523438 917.4375 372.859375 C 916.898438 372.191406 916.371094 371.539062 915.863281 370.902344 C 915.328125 370.285156 914.921875 369.597656 914.480469 368.972656 C 914.054688 368.335938 913.601562 367.746094 913.265625 367.117188 C 912.90625 366.503906 912.566406 365.914062 912.242188 365.355469 C 911.925781 364.789062 911.671875 364.226562 911.410156 363.714844 C 910.871094 362.6875 910.539062 361.738281 910.210938 360.980469 C 909.929688 360.199219 909.710938 359.589844 909.59375 359.167969 C 909.578125 359.113281 909.566406 359.070312 909.550781 359.019531 C 910.414062 358.78125 911.273438 358.53125 912.148438 358.304688 C 921.21875 355.914062 931.03125 354.390625 940.988281 354.167969 C 941.832031 355.0625 943.941406 357.257812 946.90625 360.066406 C 947.894531 360.972656 948.957031 361.957031 950.085938 363.003906 C 951.25 364.003906 952.425781 365.125 953.714844 366.195312 C 954.984375 367.285156 956.300781 368.410156 957.6875 369.5 C 959.042969 370.621094 960.472656 371.695312 961.90625 372.757812 C 963.320312 373.859375 964.820312 374.828125 966.257812 375.839844 C 967.703125 376.839844 969.210938 377.703125 970.625 378.601562 C 972.070312 379.449219 973.511719 380.191406 974.855469 380.933594 C 976.234375 381.609375 977.566406 382.183594 978.78125 382.746094 C 980.015625 383.269531 981.191406 383.628906 982.214844 384.007812 C 983.226562 384.417969 984.160156 384.59375 984.921875 384.78125 C 985.679688 384.960938 986.28125 385.101562 986.6875 385.199219 C 986.71875 385.207031 986.746094 385.210938 986.78125 385.21875 C 986.746094 385.210938 986.722656 385.199219 986.683594 385.195312 C 986.277344 385.097656 985.683594 384.949219 984.925781 384.761719 C 984.167969 384.570312 983.234375 384.390625 982.222656 383.976562 C 981.207031 383.589844 980.03125 383.222656 978.804688 382.691406 C 977.59375 382.121094 976.265625 381.535156 974.894531 380.855469 C 973.558594 380.101562 972.121094 379.347656 970.6875 378.492188 C 969.285156 377.582031 967.789062 376.714844 966.351562 375.703125 C 964.921875 374.683594 963.425781 373.707031 962.023438 372.597656 C 960.597656 371.527344 959.183594 370.441406 957.835938 369.3125 C 956.460938 368.21875 955.15625 367.085938 953.894531 365.988281 C 952.617188 364.90625 951.441406 363.792969 950.308594 362.757812 C 949.207031 361.695312 948.160156 360.695312 947.195312 359.765625 C 944.652344 357.257812 942.761719 355.238281 941.78125 354.171875 C 944.859375 354.121094 947.941406 354.1875 951.027344 354.40625 C 957.6875 354.8125 964.269531 356.15625 970.910156 356.636719 C 974.273438 356.921875 977.617188 357.101562 980.921875 357.183594 L 980.914062 357.195312 C 980.914062 357.195312 982.742188 358.855469 985.710938 361.015625 C 986.453125 361.566406 987.265625 362.136719 988.136719 362.730469 C 989 363.339844 989.945312 363.921875 990.90625 364.550781 C 991.882812 365.15625 992.898438 365.769531 993.941406 366.375 C 995.003906 366.945312 996.050781 367.585938 997.15625 368.113281 C 998.25 368.664062 999.335938 369.230469 1000.445312 369.707031 C 1001.539062 370.210938 1002.628906 370.679688 1003.707031 371.085938 C 1004.238281 371.292969 1004.761719 371.496094 1005.277344 371.699219 C 1005.800781 371.875 1006.316406 372.046875 1006.816406 372.210938 C 1007.816406 372.539062 1008.75 372.875 1009.648438 373.082031 C 1010.53125 373.316406 1011.347656 373.527344 1012.070312 373.71875 C 1012.800781 373.859375 1013.4375 373.980469 1013.960938 374.082031 C 1015.015625 374.28125 1015.613281 374.394531 1015.613281 374.394531 C 1015.613281 374.394531 1015.015625 374.269531 1013.96875 374.058594 C 1013.445312 373.945312 1012.8125 373.816406 1012.082031 373.664062 C 1011.363281 373.464844 1010.554688 373.238281 1009.667969 372.992188 C 1008.78125 372.773438 1007.847656 372.421875 1006.859375 372.082031 C 1006.363281 371.90625 1005.855469 371.726562 1005.335938 371.550781 C 1004.828125 371.335938 1004.304688 371.125 1003.777344 370.90625 C 1002.707031 370.492188 1001.632812 370.003906 1000.546875 369.484375 C 999.453125 368.992188 998.375 368.414062 997.292969 367.851562 C 996.203125 367.308594 995.167969 366.648438 994.121094 366.070312 C 993.09375 365.449219 992.085938 364.820312 991.125 364.207031 C 990.175781 363.566406 989.246094 362.972656 988.402344 362.351562 C 987.539062 361.753906 986.742188 361.164062 986.015625 360.613281 C 983.980469 359.078125 982.519531 357.828125 981.808594 357.195312 C 984.6875 357.25 987.546875 357.242188 990.355469 357.140625 C 996.667969 356.914062 1002.757812 356.320312 1008.453125 355.316406 C 1008.707031 355.273438 1008.949219 355.21875 1009.195312 355.175781 L 1009.070312 355.386719 C 1009.070312 355.386719 1009.550781 355.632812 1010.390625 356.058594 C 1010.601562 356.164062 1010.835938 356.28125 1011.089844 356.410156 C 1011.351562 356.515625 1011.640625 356.625 1011.945312 356.742188 C 1012.558594 356.972656 1013.230469 357.285156 1014.003906 357.5 C 1014.769531 357.722656 1015.585938 358.035156 1016.484375 358.238281 C 1017.375 358.453125 1018.304688 358.722656 1019.285156 358.90625 C 1021.238281 359.332031 1023.335938 359.710938 1025.445312 359.996094 C 1033.875 361.230469 1042.394531 361.351562 1042.394531 361.351562 C 1042.394531 361.351562 1033.875 361.078125 1025.488281 359.703125 C 1023.390625 359.378906 1021.308594 358.964844 1019.375 358.511719 C 1018.402344 358.308594 1017.484375 358.027344 1016.601562 357.792969 C 1015.71875 357.578125 1014.917969 357.253906 1014.167969 357.023438 C 1013.402344 356.792969 1012.75 356.476562 1012.148438 356.242188 C 1011.855469 356.121094 1011.578125 356.003906 1011.320312 355.898438 C 1011.074219 355.769531 1010.851562 355.652344 1010.652344 355.546875 C 1010.265625 355.34375 1009.96875 355.183594 1009.753906 355.070312 C 1014.960938 354.121094 1019.855469 352.90625 1024.300781 351.527344 C 1029.121094 350.027344 1033.449219 348.355469 1037.160156 346.617188 C 1040.878906 344.890625 1044.011719 343.164062 1046.519531 341.632812 C 1051.542969 338.558594 1054.039062 336.285156 1054.039062 336.285156 C 1054.039062 336.285156 1051.488281 338.496094 1046.40625 341.445312 Z M 682.84375 442.367188 C 682.792969 442.398438 682.742188 442.441406 682.699219 442.46875 C 682.738281 442.4375 682.792969 442.402344 682.84375 442.367188 Z M 682.25 442.390625 L 682.601562 442.929688 C 682.605469 442.941406 682.539062 442.738281 682.574219 442.601562 C 682.59375 442.546875 682.640625 442.507812 682.699219 442.46875 C 682.640625 442.507812 682.589844 442.542969 682.535156 442.539062 C 682.394531 442.523438 682.242188 442.382812 682.25 442.390625 Z M 804.199219 392.316406 C 810.488281 393.75 814.011719 394.84375 814.011719 394.84375 C 814.011719 394.84375 810.46875 393.820312 804.15625 392.511719 C 801.003906 391.851562 797.15625 391.132812 792.726562 390.445312 C 788.292969 389.75 783.269531 389.121094 777.777344 388.601562 C 768.460938 387.734375 757.738281 387.296875 746.328125 387.992188 C 746.328125 388.03125 746.324219 388.054688 746.324219 388.101562 C 746.324219 388.347656 746.304688 388.683594 746.269531 389.125 C 746.230469 389.558594 746.179688 390.085938 746.082031 390.679688 C 746 391.277344 745.855469 391.941406 745.707031 392.664062 C 745.378906 394.101562 744.882812 395.753906 744.242188 397.476562 C 743.914062 398.332031 743.550781 399.207031 743.160156 400.085938 C 742.730469 400.949219 742.351562 401.851562 741.867188 402.699219 C 741.386719 403.546875 740.964844 404.429688 740.433594 405.230469 C 739.914062 406.039062 739.464844 406.867188 738.925781 407.609375 C 738.402344 408.359375 737.898438 409.078125 737.425781 409.765625 C 736.914062 410.425781 736.429688 411.050781 735.980469 411.628906 C 735.113281 412.796875 734.265625 413.671875 733.726562 414.328125 C 733.167969 414.972656 732.851562 415.339844 732.851562 415.339844 C 732.851562 415.339844 733.15625 414.960938 733.6875 414.296875 C 734.203125 413.621094 735.019531 412.71875 735.84375 411.519531 C 736.265625 410.933594 736.730469 410.292969 737.21875 409.617188 C 737.664062 408.917969 738.140625 408.179688 738.632812 407.417969 C 739.140625 406.664062 739.5625 405.824219 740.046875 405.007812 C 740.542969 404.191406 740.929688 403.308594 741.378906 402.449219 C 741.828125 401.59375 742.167969 400.691406 742.558594 399.828125 C 742.910156 398.945312 743.242188 398.074219 743.535156 397.222656 C 744.101562 395.507812 744.53125 393.886719 744.792969 392.476562 C 744.917969 391.769531 745.03125 391.121094 745.089844 390.546875 C 745.160156 389.96875 745.199219 389.46875 745.21875 389.058594 C 745.234375 388.648438 745.246094 388.316406 745.234375 388.113281 C 745.238281 388.085938 745.234375 388.078125 745.234375 388.050781 C 743.554688 388.164062 741.863281 388.300781 740.160156 388.464844 C 728.957031 389.511719 717.179688 391.792969 705.957031 395.9375 C 705.738281 397.121094 705.191406 399.917969 704.246094 403.601562 C 702.964844 408.511719 701.058594 415.03125 698.355469 421.242188 C 697.683594 422.796875 696.976562 424.332031 696.214844 425.8125 C 695.464844 427.304688 694.664062 428.734375 693.851562 430.097656 C 693.027344 431.453125 692.175781 432.726562 691.332031 433.910156 C 690.886719 434.488281 690.460938 435.050781 690.042969 435.59375 C 689.605469 436.117188 689.175781 436.621094 688.765625 437.109375 C 687.914062 438.042969 687.113281 438.894531 686.347656 439.578125 C 685.609375 440.300781 684.882812 440.835938 684.316406 441.308594 C 683.738281 441.769531 683.242188 442.078125 682.921875 442.308594 C 682.894531 442.332031 682.871094 442.347656 682.84375 442.367188 C 682.871094 442.347656 682.890625 442.328125 682.921875 442.308594 C 683.238281 442.070312 683.734375 441.761719 684.304688 441.296875 C 684.871094 440.820312 685.589844 440.277344 686.320312 439.550781 C 687.085938 438.859375 687.871094 438.003906 688.71875 437.0625 C 689.121094 436.574219 689.542969 436.070312 689.980469 435.542969 C 690.390625 435 690.8125 434.433594 691.25 433.855469 C 692.085938 432.664062 692.925781 431.390625 693.734375 430.027344 C 694.535156 428.660156 695.324219 427.226562 696.058594 425.738281 C 696.808594 424.253906 697.503906 422.710938 698.160156 421.15625 C 699.480469 418.046875 700.609375 414.863281 701.554688 411.839844 C 702.511719 408.824219 703.246094 405.960938 703.816406 403.496094 C 704.597656 400.113281 705.0625 397.515625 705.277344 396.191406 C 703.019531 397.046875 700.78125 397.964844 698.578125 398.972656 C 691.859375 401.90625 685.832031 406.136719 679.277344 409.414062 C 676.136719 411.03125 672.960938 412.523438 669.78125 413.894531 C 669.742188 414.027344 669.101562 416.230469 667.726562 419.320312 C 667.382812 420.121094 666.980469 420.980469 666.535156 421.875 C 666.117188 422.78125 665.585938 423.695312 665.082031 424.664062 C 664.535156 425.605469 663.976562 426.585938 663.363281 427.550781 C 662.726562 428.507812 662.128906 429.503906 661.421875 430.425781 C 660.746094 431.375 660.058594 432.308594 659.316406 433.175781 C 658.949219 433.621094 658.589844 434.054688 658.234375 434.488281 C 657.851562 434.898438 657.472656 435.304688 657.105469 435.703125 C 656.730469 436.101562 656.367188 436.488281 656.007812 436.871094 C 655.625 437.230469 655.25 437.582031 654.882812 437.917969 C 654.160156 438.605469 653.472656 439.25 652.777344 439.773438 C 652.097656 440.316406 651.46875 440.816406 650.914062 441.253906 C 650.332031 441.648438 649.820312 441.992188 649.398438 442.277344 C 648.554688 442.839844 648.078125 443.164062 648.078125 443.164062 C 648.078125 443.164062 648.546875 442.832031 649.382812 442.25 C 649.796875 441.964844 650.300781 441.609375 650.882812 441.207031 C 651.425781 440.757812 652.039062 440.253906 652.710938 439.699219 C 653.398438 439.167969 654.070312 438.511719 654.78125 437.816406 C 655.136719 437.46875 655.507812 437.109375 655.878906 436.753906 C 656.230469 436.367188 656.589844 435.96875 656.953125 435.5625 C 657.316406 435.164062 657.6875 434.753906 658.058594 434.339844 C 658.40625 433.902344 658.753906 433.460938 659.109375 433.015625 C 659.835938 432.140625 660.503906 431.195312 661.160156 430.242188 C 661.847656 429.3125 662.429688 428.308594 663.039062 427.351562 C 663.632812 426.382812 664.167969 425.402344 664.695312 424.453125 C 665.179688 423.484375 665.6875 422.570312 666.09375 421.664062 C 666.519531 420.765625 666.902344 419.90625 667.230469 419.109375 C 668.195312 416.820312 668.773438 415.046875 669.023438 414.21875 C 665.898438 415.546875 662.765625 416.753906 659.640625 417.828125 C 653.464844 419.953125 647.351562 421.59375 641.441406 422.765625 L 641.648438 422.894531 C 641.648438 422.894531 641.339844 423.328125 640.789062 424.089844 C 640.539062 424.484375 640.15625 424.902344 639.707031 425.367188 C 639.269531 425.847656 638.785156 426.390625 638.175781 426.902344 C 637.585938 427.433594 636.960938 428.023438 636.234375 428.566406 C 635.527344 429.125 634.777344 429.722656 633.960938 430.273438 C 633.167969 430.851562 632.320312 431.425781 631.445312 431.972656 C 630.585938 432.542969 629.679688 433.082031 628.777344 433.617188 C 621.558594 437.921875 613.796875 441.136719 613.796875 441.136719 C 613.796875 441.136719 621.5 437.773438 628.613281 433.34375 C 629.5 432.792969 630.390625 432.242188 631.238281 431.65625 C 632.097656 431.09375 632.925781 430.507812 633.707031 429.917969 C 634.507812 429.355469 635.238281 428.753906 635.921875 428.183594 C 636.636719 427.632812 637.234375 427.039062 637.808594 426.511719 C 638.398438 425.996094 638.859375 425.453125 639.277344 424.980469 C 639.699219 424.519531 640.0625 424.105469 640.300781 423.722656 C 640.550781 423.363281 640.742188 423.082031 640.882812 422.882812 C 640.707031 422.921875 640.523438 422.960938 640.351562 422.996094 C 634.109375 424.191406 628.136719 424.914062 622.605469 425.261719 C 611.535156 425.957031 602.289062 425.125 595.917969 424.167969 C 589.527344 423.203125 585.992188 422.121094 585.992188 422.121094 C 585.992188 422.121094 589.554688 423.113281 595.949219 423.929688 C 602.332031 424.761719 611.554688 425.285156 622.554688 424.492188 C 623.863281 424.394531 625.203125 424.269531 626.558594 424.125 C 626.398438 423.964844 626.214844 423.785156 625.988281 423.566406 C 625.640625 423.21875 625.234375 422.796875 624.679688 422.394531 C 624.136719 421.984375 623.558594 421.476562 622.867188 421.007812 C 622.160156 420.558594 621.414062 420.039062 620.589844 419.542969 C 619.742188 419.082031 618.871094 418.558594 617.929688 418.085938 C 616.976562 417.644531 616.015625 417.125 614.996094 416.707031 C 613.972656 416.277344 612.949219 415.8125 611.890625 415.425781 C 609.800781 414.605469 607.65625 413.902344 605.644531 413.277344 C 603.621094 412.65625 601.71875 412.148438 600.078125 411.734375 C 596.800781 410.921875 594.578125 410.523438 594.578125 410.523438 C 594.578125 410.523438 596.808594 410.882812 600.101562 411.636719 C 601.75 412.019531 603.667969 412.5 605.699219 413.085938 C 607.730469 413.671875 609.890625 414.335938 612.003906 415.128906 C 613.074219 415.492188 614.113281 415.941406 615.144531 416.355469 C 616.179688 416.757812 617.15625 417.265625 618.125 417.695312 C 619.082031 418.152344 619.972656 418.664062 620.835938 419.113281 C 621.679688 419.601562 622.449219 420.117188 623.175781 420.5625 C 623.890625 421.023438 624.488281 421.535156 625.046875 421.945312 C 625.617188 422.339844 626.046875 422.769531 626.40625 423.117188 C 626.871094 423.554688 627.1875 423.859375 627.371094 424.035156 C 637.1875 422.933594 648.121094 420.628906 659.265625 416.746094 C 660.117188 416.453125 660.96875 416.121094 661.824219 415.804688 C 661.410156 415.296875 660.296875 413.976562 658.566406 412.339844 C 658.027344 411.8125 657.40625 411.265625 656.746094 410.695312 C 656.101562 410.117188 655.363281 409.5625 654.628906 408.964844 C 653.851562 408.414062 653.085938 407.796875 652.238281 407.265625 C 651.402344 406.71875 650.558594 406.152344 649.667969 405.667969 L 648.34375 404.914062 C 647.890625 404.691406 647.441406 404.46875 646.992188 404.246094 C 646.109375 403.773438 645.191406 403.414062 644.3125 403.054688 C 643.441406 402.660156 642.558594 402.390625 641.730469 402.121094 C 641.316406 401.980469 640.910156 401.847656 640.519531 401.71875 C 640.121094 401.621094 639.734375 401.527344 639.367188 401.4375 C 638.621094 401.265625 637.949219 401.074219 637.339844 400.960938 C 636.722656 400.863281 636.191406 400.78125 635.75 400.710938 C 634.871094 400.574219 634.367188 400.496094 634.367188 400.496094 C 634.367188 400.496094 634.871094 400.566406 635.757812 400.6875 C 636.199219 400.746094 636.734375 400.816406 637.347656 400.902344 C 637.960938 401.007812 638.640625 401.179688 639.390625 401.339844 C 639.761719 401.421875 640.148438 401.511719 640.554688 401.601562 C 640.949219 401.722656 641.355469 401.847656 641.769531 401.976562 C 642.613281 402.234375 643.503906 402.488281 644.382812 402.863281 C 645.277344 403.210938 646.207031 403.554688 647.105469 404.007812 C 647.5625 404.222656 648.023438 404.441406 648.476562 404.660156 L 649.824219 405.386719 C 650.734375 405.863281 651.59375 406.410156 652.445312 406.949219 C 653.308594 407.46875 654.09375 408.078125 654.886719 408.613281 C 655.644531 409.203125 656.398438 409.75 657.070312 410.320312 C 657.742188 410.882812 658.378906 411.421875 658.9375 411.945312 C 660.957031 413.777344 662.199219 415.257812 662.453125 415.566406 C 667.898438 413.523438 673.351562 411.101562 678.707031 408.316406 C 680.292969 407.453125 681.894531 406.632812 683.476562 405.726562 C 684.621094 405.058594 685.761719 404.390625 686.90625 403.722656 C 686.898438 403.6875 686.894531 403.664062 686.886719 403.625 C 686.835938 403.402344 686.722656 403.066406 686.585938 402.640625 C 686.421875 402.21875 686.242188 401.703125 685.957031 401.140625 C 685.707031 400.5625 685.332031 399.960938 684.945312 399.289062 C 684.503906 398.652344 684.058594 397.933594 683.46875 397.265625 C 682.929688 396.550781 682.246094 395.90625 681.558594 395.214844 C 680.84375 394.558594 680.070312 393.902344 679.25 393.292969 C 678.390625 392.734375 677.574219 392.078125 676.636719 391.613281 C 675.726562 391.109375 674.820312 390.585938 673.859375 390.207031 C 672.917969 389.804688 672 389.363281 671.054688 389.09375 C 670.125 388.796875 669.238281 388.449219 668.363281 388.226562 C 667.488281 388.019531 666.660156 387.820312 665.898438 387.636719 C 665.136719 387.425781 664.425781 387.320312 663.792969 387.222656 C 663.164062 387.125 662.613281 387.039062 662.164062 386.964844 C 661.257812 386.820312 660.738281 386.738281 660.738281 386.738281 C 660.738281 386.738281 661.253906 386.8125 662.164062 386.9375 C 662.617188 387 663.167969 387.078125 663.804688 387.167969 C 664.441406 387.25 665.15625 387.34375 665.917969 387.535156 C 666.6875 387.707031 667.519531 387.890625 668.402344 388.085938 C 669.277344 388.292969 670.175781 388.621094 671.121094 388.902344 C 672.078125 389.15625 673.007812 389.578125 673.964844 389.972656 C 674.941406 390.328125 675.863281 390.84375 676.796875 391.335938 C 677.75 391.785156 678.59375 392.433594 679.472656 392.984375 C 680.316406 393.585938 681.113281 394.238281 681.859375 394.890625 C 682.570312 395.578125 683.28125 396.234375 683.84375 396.953125 C 684.464844 397.625 684.933594 398.351562 685.402344 398.996094 C 685.8125 399.679688 686.210938 400.292969 686.480469 400.886719 C 686.785156 401.464844 686.984375 401.996094 687.164062 402.429688 C 687.300781 402.835938 687.410156 403.144531 687.480469 403.390625 C 687.722656 403.246094 687.96875 403.105469 688.214844 402.960938 C 691.390625 401.074219 694.6875 399.367188 698.0625 397.84375 C 707.203125 393.703125 716.871094 390.949219 726.429688 389.21875 C 726.316406 388.921875 726.140625 388.460938 725.863281 387.832031 C 725.378906 386.730469 724.632812 385.179688 723.570312 383.40625 C 722.515625 381.632812 721.132812 379.644531 719.4375 377.695312 C 718.589844 376.722656 717.664062 375.757812 716.660156 374.847656 C 715.675781 373.914062 714.582031 373.070312 713.46875 372.257812 C 712.335938 371.464844 711.167969 370.738281 709.960938 370.113281 C 708.753906 369.492188 707.53125 368.941406 706.304688 368.515625 C 705.699219 368.292969 705.097656 368.082031 704.492188 367.925781 C 703.894531 367.757812 703.308594 367.578125 702.722656 367.46875 C 701.570312 367.191406 700.453125 367.042969 699.429688 366.898438 C 698.394531 366.816406 697.445312 366.699219 696.601562 366.699219 C 695.761719 366.699219 695.023438 366.644531 694.417969 366.695312 C 693.207031 366.753906 692.515625 366.789062 692.515625 366.789062 C 692.515625 366.789062 693.207031 366.746094 694.414062 366.667969 C 695.023438 366.609375 695.761719 366.65625 696.605469 366.640625 C 697.449219 366.625 698.402344 366.730469 699.4375 366.800781 C 700.472656 366.929688 701.59375 367.058594 702.757812 367.320312 C 703.34375 367.425781 703.933594 367.59375 704.542969 367.757812 C 705.152344 367.902344 705.757812 368.109375 706.375 368.324219 C 707.613281 368.734375 708.851562 369.269531 710.078125 369.882812 C 711.300781 370.492188 712.5 371.214844 713.648438 371.996094 C 714.785156 372.796875 715.90625 373.632812 716.914062 374.5625 C 717.945312 375.46875 718.894531 376.433594 719.769531 377.40625 C 721.507812 379.355469 722.9375 381.34375 724.03125 383.125 C 725.828125 386.03125 726.777344 388.347656 727.066406 389.101562 C 731.441406 388.328125 735.792969 387.765625 740.058594 387.382812 C 748.980469 386.613281 757.539062 386.589844 765.449219 386.976562 C 765.203125 386.335938 764.796875 385.34375 764.21875 384.117188 C 763.703125 383.046875 763.09375 381.792969 762.347656 380.507812 C 761.625 379.210938 760.757812 377.875 759.855469 376.570312 C 759.371094 375.9375 758.914062 375.285156 758.414062 374.683594 C 757.898438 374.097656 757.4375 373.472656 756.90625 372.957031 C 756.378906 372.429688 755.914062 371.871094 755.386719 371.4375 C 754.867188 370.992188 754.40625 370.527344 753.925781 370.175781 C 753.445312 369.820312 753.007812 369.492188 752.617188 369.203125 C 752.222656 368.921875 751.84375 368.722656 751.546875 368.539062 C 750.949219 368.179688 750.601562 367.976562 750.601562 367.976562 C 750.601562 367.976562 750.953125 368.164062 751.574219 368.5 C 751.878906 368.671875 752.261719 368.851562 752.675781 369.117188 C 753.078125 369.390625 753.535156 369.703125 754.03125 370.039062 C 754.53125 370.371094 755.011719 370.816406 755.554688 371.246094 C 756.109375 371.664062 756.597656 372.203125 757.152344 372.710938 C 757.71875 373.21875 758.210938 373.824219 758.757812 374.398438 C 759.289062 374.984375 759.777344 375.621094 760.292969 376.242188 C 761.265625 377.519531 762.203125 378.835938 762.996094 380.121094 C 763.808594 381.394531 764.480469 382.632812 765.050781 383.699219 C 765.871094 385.265625 766.40625 386.492188 766.640625 387.042969 C 770.546875 387.257812 774.308594 387.558594 777.84375 387.925781 C 783.347656 388.496094 788.363281 389.265625 792.792969 390.03125 C 797.21875 390.804688 801.054688 391.597656 804.199219 392.316406 " fill-opacity="1" fill-rule="nonzero"/></g></g></g></g><g clip-path="url(#04979c4e89)"><g clip-path="url(#e73004c08d)"><g clip-path="url(#cb913ec063)"><g clip-path="url(#63c348683d)"><g clip-path="url(#63fb546a46)"><g clip-path="url(#143a0e2fb5)"><path fill="#216b39" d="M 304.519531 49.550781 C 304.519531 49.550781 252.78125 30.996094 224.003906 57.328125 C 195.222656 83.660156 180.90625 122.765625 171.070312 123.195312 C 165.382812 123.441406 150.632812 113.222656 148.726562 111.683594 C 146.789062 110.097656 144.433594 108.167969 141.8125 105.855469 C 139.175781 103.570312 136.265625 100.910156 133.144531 97.957031 C 131.605469 96.457031 129.972656 94.929688 128.355469 93.273438 C 127.539062 92.453125 126.710938 91.617188 125.867188 90.773438 C 125.042969 89.90625 124.207031 89.03125 123.359375 88.140625 C 121.640625 86.378906 119.972656 84.484375 118.226562 82.582031 C 116.519531 80.65625 114.785156 78.671875 113.058594 76.625 C 111.367188 74.550781 109.59375 72.492188 107.929688 70.296875 C 107.082031 69.214844 106.234375 68.125 105.378906 67.027344 C 104.558594 65.90625 103.730469 64.78125 102.902344 63.648438 C 101.210938 61.414062 99.664062 59.054688 98.050781 56.726562 C 97.234375 55.570312 96.503906 54.351562 95.738281 53.160156 L 93.457031 49.570312 L 91.308594 45.902344 C 90.597656 44.675781 89.859375 43.472656 89.21875 42.214844 C 87.910156 39.722656 86.515625 37.285156 85.363281 34.753906 C 84.761719 33.503906 84.160156 32.257812 83.566406 31.015625 C 82.984375 29.773438 82.480469 28.496094 81.941406 27.253906 C 81.414062 26.003906 80.863281 24.769531 80.367188 23.523438 C 79.90625 22.273438 79.445312 21.027344 78.988281 19.789062 C 78.550781 18.554688 78.039062 17.351562 77.671875 16.109375 C 77.289062 14.882812 76.910156 13.660156 76.535156 12.457031 C 75.726562 10.0625 75.171875 7.652344 74.582031 5.328125 C 74.308594 4.164062 73.960938 3.03125 73.757812 1.882812 C 73.539062 0.742188 73.328125 -0.378906 73.117188 -1.488281 C 72.90625 -2.589844 72.699219 -3.675781 72.496094 -4.742188 C 72.359375 -5.816406 72.226562 -6.871094 72.097656 -7.90625 C 71.964844 -8.9375 71.835938 -9.949219 71.710938 -10.933594 C 71.652344 -11.429688 71.574219 -11.914062 71.535156 -12.398438 C 71.5 -12.882812 71.476562 -13.359375 71.445312 -13.832031 C 71.332031 -15.722656 71.21875 -17.511719 71.117188 -19.195312 C 71.035156 -20.035156 71.097656 -20.851562 71.085938 -21.636719 C 71.089844 -22.421875 71.09375 -23.179688 71.101562 -23.90625 C 71.117188 -25.363281 71.09375 -26.703125 71.144531 -27.90625 C 71.507812 -32.710938 71.714844 -35.457031 71.714844 -35.457031 L 71.742188 -35.820312 C 71.964844 -38.742188 69.777344 -41.289062 66.855469 -41.515625 C 63.933594 -41.734375 61.386719 -39.546875 61.164062 -36.625 C 61.160156 -36.550781 61.152344 -36.457031 61.152344 -36.386719 C 61.152344 -36.386719 61.058594 -33.375 60.898438 -28.105469 C 60.90625 -26.789062 60.996094 -25.332031 61.046875 -23.75 C 61.078125 -22.957031 61.109375 -22.132812 61.140625 -21.277344 C 61.195312 -20.425781 61.175781 -19.535156 61.300781 -18.628906 C 61.492188 -16.8125 61.699219 -14.878906 61.917969 -12.839844 C 61.972656 -12.332031 62.03125 -11.8125 62.085938 -11.292969 C 62.15625 -10.773438 62.257812 -10.25 62.347656 -9.722656 C 62.53125 -8.664062 62.71875 -7.582031 62.90625 -6.472656 C 63.101562 -5.367188 63.296875 -4.242188 63.5 -3.09375 C 63.765625 -1.960938 64.039062 -0.804688 64.320312 0.367188 C 64.597656 1.542969 64.882812 2.734375 65.171875 3.945312 C 65.445312 5.160156 65.867188 6.355469 66.21875 7.585938 C 66.957031 10.03125 67.664062 12.558594 68.632812 15.058594 C 69.085938 16.316406 69.550781 17.589844 70.015625 18.871094 C 70.460938 20.164062 71.054688 21.410156 71.578125 22.695312 C 72.117188 23.96875 72.660156 25.257812 73.207031 26.554688 C 73.789062 27.835938 74.421875 29.105469 75.03125 30.390625 C 75.660156 31.671875 76.25 32.972656 76.914062 34.25 C 77.59375 35.515625 78.277344 36.785156 78.960938 38.066406 C 80.289062 40.644531 81.847656 43.113281 83.324219 45.636719 C 84.050781 46.90625 84.867188 48.121094 85.660156 49.351562 L 88.050781 53.039062 L 90.566406 56.640625 C 91.417969 57.828125 92.222656 59.046875 93.121094 60.199219 C 94.878906 62.515625 96.582031 64.863281 98.414062 67.078125 C 99.316406 68.199219 100.21875 69.3125 101.109375 70.417969 C 102.03125 71.496094 102.949219 72.574219 103.867188 73.644531 C 105.664062 75.804688 107.574219 77.828125 109.390625 79.859375 C 111.242188 81.859375 113.097656 83.800781 114.925781 85.683594 C 116.785156 87.535156 118.566406 89.378906 120.386719 91.085938 C 121.292969 91.949219 122.179688 92.800781 123.054688 93.640625 C 123.949219 94.460938 124.828125 95.265625 125.691406 96.058594 C 127.40625 97.664062 129.128906 99.136719 130.757812 100.585938 C 134.050781 103.429688 137.113281 105.984375 139.882812 108.175781 C 142.636719 110.386719 145.109375 112.234375 147.140625 113.746094 C 148.871094 115.019531 150.304688 116.039062 151.386719 116.789062 C 151.386719 116.789062 152.175781 133.277344 149 139.375 C 143.515625 149.921875 104.421875 145.992188 68.101562 164.285156 C 31.777344 182.578125 19.734375 248.484375 19.734375 248.484375 C 19.734375 248.484375 49.488281 241.78125 85.839844 235.246094 C 132.507812 226.84375 149.046875 161.914062 152.378906 143.074219 C 154.371094 131.804688 154.582031 123.785156 154.433594 119.15625 C 157.628906 121.410156 163.375 124.867188 172.203125 128.101562 C 186.945312 133.511719 239.957031 147.328125 266.28125 106.609375 C 286.785156 74.894531 304.519531 49.550781 304.519531 49.550781 " fill-opacity="1" fill-rule="nonzero"/></g></g></g></g></g></g><g clip-path="url(#ba1aac296d)"><g clip-path="url(#b39bc4f646)"><g clip-path="url(#9ba2698e20)"><g clip-path="url(#69fd161e38)"><path fill="#2d9d49" d="M 201.128906 102.304688 C 201.046875 102.632812 200.957031 103.003906 200.859375 103.414062 C 200.75 103.816406 200.699219 104.265625 200.621094 104.738281 C 200.53125 105.207031 200.484375 105.707031 200.445312 106.230469 C 200.382812 106.746094 200.371094 107.285156 200.359375 107.832031 C 200.332031 108.378906 200.363281 108.9375 200.375 109.492188 C 200.417969 110.601562 200.523438 111.707031 200.675781 112.738281 C 200.828125 113.769531 201.011719 114.722656 201.199219 115.535156 C 201.566406 117.160156 201.941406 118.199219 201.941406 118.199219 L 201.554688 118.328125 C 201.554688 118.328125 201.199219 117.25 200.863281 115.605469 C 200.691406 114.78125 200.527344 113.816406 200.398438 112.773438 C 200.273438 111.734375 200.1875 110.617188 200.171875 109.496094 C 200.175781 108.9375 200.152344 108.378906 200.195312 107.824219 C 200.222656 107.277344 200.242188 106.738281 200.316406 106.21875 C 200.371094 105.695312 200.425781 105.191406 200.527344 104.722656 C 200.617188 104.25 200.675781 103.796875 200.796875 103.398438 C 200.90625 102.992188 201.003906 102.621094 201.089844 102.292969 C 201.203125 101.972656 201.300781 101.691406 201.382812 101.460938 C 201.546875 101.003906 201.640625 100.742188 201.640625 100.742188 C 201.640625 100.742188 201.554688 101.003906 201.402344 101.46875 C 201.324219 101.699219 201.230469 101.980469 201.128906 102.304688 Z M 237.90625 62.332031 L 238.242188 62.5625 C 238.25 62.566406 238.125 62.523438 238.035156 62.554688 C 238 62.570312 237.976562 62.605469 237.953125 62.648438 C 237.980469 62.609375 238 62.566406 238 62.527344 C 237.988281 62.433594 237.902344 62.324219 237.90625 62.332031 Z M 237.886719 62.761719 C 237.910156 62.722656 237.933594 62.679688 237.953125 62.648438 C 237.933594 62.679688 237.910156 62.722656 237.886719 62.761719 Z M 287.472656 54.882812 C 283.632812 55.917969 278.257812 57.878906 272.285156 61.164062 C 271.878906 61.386719 271.464844 61.628906 271.050781 61.867188 C 271.164062 61.941406 271.300781 62.023438 271.46875 62.132812 C 271.699219 62.277344 271.96875 62.472656 272.320312 62.617188 C 272.671875 62.765625 273.046875 62.96875 273.492188 63.125 C 273.9375 63.265625 274.417969 63.445312 274.9375 63.585938 C 275.46875 63.695312 276.015625 63.847656 276.597656 63.941406 C 277.183594 64.019531 277.78125 64.152344 278.402344 64.1875 C 279.019531 64.242188 279.648438 64.308594 280.28125 64.316406 C 280.914062 64.351562 281.542969 64.359375 282.164062 64.347656 C 282.789062 64.351562 283.398438 64.316406 283.988281 64.296875 C 285.175781 64.234375 286.277344 64.132812 287.21875 64.023438 C 289.109375 63.800781 290.347656 63.554688 290.347656 63.554688 C 290.347656 63.554688 289.113281 63.828125 287.226562 64.085938 C 286.285156 64.214844 285.183594 64.339844 283.996094 64.421875 C 283.40625 64.457031 282.792969 64.507812 282.167969 64.511719 C 281.542969 64.535156 280.910156 64.542969 280.273438 64.523438 C 279.640625 64.523438 279.003906 64.46875 278.378906 64.425781 C 277.753906 64.402344 277.148438 64.285156 276.554688 64.214844 C 275.960938 64.132812 275.398438 63.992188 274.859375 63.886719 C 274.332031 63.753906 273.835938 63.585938 273.375 63.449219 C 272.917969 63.300781 272.527344 63.09375 272.164062 62.945312 C 271.792969 62.808594 271.511719 62.613281 271.265625 62.464844 C 270.984375 62.292969 270.785156 62.167969 270.65625 62.09375 C 265.136719 65.292969 259.253906 69.628906 253.640625 74.96875 C 253.34375 75.25 253.054688 75.546875 252.761719 75.832031 C 253.019531 76.054688 253.78125 76.683594 254.957031 77.394531 C 255.316406 77.625 255.722656 77.851562 256.152344 78.082031 C 256.578125 78.324219 257.058594 78.523438 257.539062 78.757812 C 258.039062 78.949219 258.539062 79.1875 259.074219 79.355469 C 259.609375 79.53125 260.148438 79.714844 260.710938 79.839844 C 260.984375 79.902344 261.261719 79.980469 261.539062 80.039062 C 261.824219 80.082031 262.101562 80.128906 262.378906 80.171875 C 262.933594 80.285156 263.488281 80.304688 264.023438 80.347656 C 264.558594 80.410156 265.078125 80.371094 265.566406 80.363281 C 265.8125 80.355469 266.054688 80.359375 266.285156 80.34375 C 266.515625 80.316406 266.734375 80.289062 266.953125 80.261719 C 267.375 80.203125 267.769531 80.179688 268.113281 80.105469 C 268.453125 80.027344 268.753906 79.960938 268.996094 79.902344 C 269.484375 79.789062 269.765625 79.726562 269.765625 79.726562 C 269.765625 79.726562 269.488281 79.796875 269 79.917969 C 268.757812 79.980469 268.460938 80.054688 268.117188 80.140625 C 267.777344 80.222656 267.382812 80.257812 266.957031 80.324219 C 266.746094 80.355469 266.523438 80.390625 266.292969 80.421875 C 266.0625 80.445312 265.820312 80.445312 265.574219 80.457031 C 265.078125 80.476562 264.554688 80.527344 264.015625 80.476562 C 263.476562 80.445312 262.917969 80.4375 262.355469 80.335938 C 262.074219 80.296875 261.792969 80.257812 261.507812 80.21875 C 261.222656 80.164062 260.945312 80.09375 260.660156 80.035156 C 260.09375 79.925781 259.542969 79.75 259 79.585938 C 258.453125 79.425781 257.941406 79.199219 257.429688 79.015625 C 256.9375 78.785156 256.449219 78.597656 256.007812 78.359375 C 255.566406 78.136719 255.152344 77.914062 254.777344 77.691406 C 253.527344 76.96875 252.714844 76.316406 252.472656 76.113281 C 249.796875 78.738281 247.191406 81.566406 244.707031 84.570312 C 243.257812 86.28125 241.902344 88.109375 240.527344 89.9375 C 240.535156 89.960938 240.539062 89.972656 240.550781 89.996094 C 240.601562 90.121094 240.6875 90.300781 240.804688 90.53125 C 240.929688 90.757812 241.074219 91.039062 241.277344 91.335938 C 241.472656 91.640625 241.71875 91.964844 242.003906 92.308594 C 242.292969 92.644531 242.628906 93 243.007812 93.335938 C 243.203125 93.5 243.40625 93.667969 243.613281 93.839844 C 243.828125 94.003906 244.0625 94.144531 244.296875 94.300781 C 244.742188 94.640625 245.292969 94.84375 245.808594 95.125 C 246.367188 95.308594 246.914062 95.5625 247.5 95.6875 C 248.085938 95.804688 248.664062 95.988281 249.257812 96.007812 C 249.847656 96.058594 250.421875 96.15625 250.988281 96.117188 C 251.554688 96.09375 252.101562 96.117188 252.617188 96.066406 C 253.128906 96.003906 253.613281 95.941406 254.0625 95.882812 C 254.515625 95.84375 254.917969 95.746094 255.277344 95.664062 C 255.636719 95.582031 255.949219 95.511719 256.207031 95.453125 C 256.722656 95.339844 257.015625 95.273438 257.015625 95.273438 C 257.015625 95.273438 256.722656 95.34375 256.210938 95.472656 C 255.957031 95.535156 255.644531 95.609375 255.285156 95.699219 C 254.929688 95.792969 254.523438 95.894531 254.074219 95.945312 C 253.625 96.011719 253.136719 96.085938 252.625 96.160156 C 252.109375 96.222656 251.554688 96.210938 250.992188 96.246094 C 250.421875 96.300781 249.835938 96.210938 249.242188 96.175781 C 248.640625 96.160156 248.050781 95.992188 247.449219 95.886719 C 246.851562 95.769531 246.289062 95.527344 245.714844 95.347656 C 245.183594 95.070312 244.617188 94.875 244.148438 94.539062 C 243.90625 94.382812 243.660156 94.242188 243.4375 94.078125 C 243.222656 93.90625 243.007812 93.738281 242.804688 93.574219 C 242.40625 93.230469 242.050781 92.878906 241.746094 92.53125 C 241.441406 92.1875 241.179688 91.855469 240.972656 91.542969 C 240.753906 91.238281 240.597656 90.949219 240.457031 90.714844 C 240.375 90.550781 240.308594 90.421875 240.25 90.304688 C 238.984375 91.984375 237.695312 93.664062 236.285156 95.253906 C 231.65625 100.605469 226.25 105.226562 220.628906 109.050781 C 220.710938 109.203125 220.863281 109.464844 221.097656 109.839844 C 221.46875 110.429688 222.035156 111.257812 222.796875 112.1875 C 223.566406 113.105469 224.527344 114.136719 225.699219 115.074219 C 226.273438 115.550781 226.914062 115.988281 227.585938 116.40625 C 228.261719 116.796875 228.96875 117.179688 229.71875 117.464844 C 230.460938 117.765625 231.230469 117.984375 232.003906 118.144531 C 232.777344 118.285156 233.550781 118.378906 234.300781 118.375 C 234.679688 118.386719 235.046875 118.382812 235.40625 118.34375 C 235.769531 118.324219 236.121094 118.292969 236.460938 118.226562 C 237.148438 118.140625 237.777344 117.964844 238.363281 117.824219 C 238.933594 117.625 239.472656 117.488281 239.917969 117.285156 C 240.371094 117.09375 240.773438 116.953125 241.082031 116.78125 C 241.714844 116.46875 242.078125 116.289062 242.078125 116.289062 C 242.078125 116.289062 241.71875 116.476562 241.09375 116.800781 C 240.785156 116.96875 240.378906 117.121094 239.929688 117.320312 C 239.488281 117.53125 238.949219 117.675781 238.378906 117.886719 C 237.792969 118.035156 237.167969 118.222656 236.476562 118.320312 C 236.136719 118.394531 235.78125 118.425781 235.414062 118.457031 C 235.054688 118.496094 234.683594 118.507812 234.300781 118.503906 C 233.539062 118.523438 232.757812 118.4375 231.972656 118.308594 C 231.1875 118.160156 230.402344 117.945312 229.644531 117.652344 C 228.878906 117.378906 228.160156 117 227.460938 116.613281 C 226.777344 116.199219 226.117188 115.765625 225.523438 115.289062 C 224.320312 114.355469 223.328125 113.328125 222.535156 112.40625 C 221.277344 110.921875 220.539062 109.710938 220.292969 109.273438 C 218.738281 110.316406 217.171875 111.316406 215.601562 112.238281 C 209.976562 115.519531 204.316406 118.007812 199.058594 119.90625 C 199.144531 119.996094 199.261719 120.113281 199.414062 120.269531 C 199.574219 120.433594 199.773438 120.640625 200.003906 120.871094 C 200.234375 121.097656 200.480469 121.375 200.777344 121.640625 C 201.078125 121.910156 201.402344 122.199219 201.742188 122.507812 C 202.074219 122.824219 202.449219 123.128906 202.851562 123.429688 C 203.253906 123.726562 203.640625 124.074219 204.089844 124.351562 C 204.535156 124.628906 204.960938 124.960938 205.433594 125.203125 C 205.90625 125.449219 206.355469 125.742188 206.851562 125.929688 C 207.09375 126.03125 207.332031 126.132812 207.570312 126.238281 C 207.808594 126.332031 208.054688 126.394531 208.292969 126.472656 C 208.765625 126.644531 209.246094 126.710938 209.695312 126.8125 C 210.148438 126.855469 210.582031 126.921875 210.984375 126.898438 C 211.382812 126.90625 211.746094 126.851562 212.070312 126.808594 C 212.390625 126.738281 212.667969 126.671875 212.886719 126.589844 C 213.332031 126.4375 213.554688 126.289062 213.554688 126.289062 C 213.554688 126.289062 213.335938 126.441406 212.894531 126.605469 C 212.675781 126.695312 212.398438 126.765625 212.078125 126.84375 C 211.753906 126.894531 211.390625 126.964844 210.984375 126.960938 C 210.578125 126.996094 210.140625 126.9375 209.679688 126.902344 C 209.226562 126.8125 208.734375 126.761719 208.257812 126.597656 C 208.015625 126.523438 207.761719 126.464844 207.515625 126.375 C 207.277344 126.277344 207.03125 126.179688 206.785156 126.082031 C 206.28125 125.902344 205.820312 125.617188 205.335938 125.382812 C 204.847656 125.144531 204.414062 124.820312 203.953125 124.550781 C 203.492188 124.28125 203.09375 123.941406 202.683594 123.648438 C 202.269531 123.351562 201.882812 123.058594 201.539062 122.746094 C 201.1875 122.445312 200.851562 122.160156 200.546875 121.894531 C 200.238281 121.636719 199.984375 121.359375 199.746094 121.132812 C 199.511719 120.90625 199.304688 120.707031 199.136719 120.539062 C 198.871094 120.285156 198.699219 120.117188 198.636719 120.054688 C 197.113281 120.597656 195.617188 121.097656 194.175781 121.542969 C 190.90625 122.5625 187.855469 123.304688 185.140625 123.902344 C 182.425781 124.488281 180.039062 124.902344 178.066406 125.195312 C 174.121094 125.777344 171.839844 125.878906 171.839844 125.878906 C 171.839844 125.878906 174.117188 125.734375 178.046875 125.070312 C 180.011719 124.742188 182.382812 124.277344 185.082031 123.636719 C 187.78125 123 190.796875 122.164062 194.042969 121.128906 C 199.960938 119.226562 206.636719 116.515625 213.3125 112.75 C 213.296875 112.722656 213.28125 112.691406 213.265625 112.65625 C 213.113281 112.386719 212.921875 111.976562 212.679688 111.457031 C 212.472656 110.925781 212.175781 110.296875 211.941406 109.535156 C 211.820312 109.160156 211.671875 108.761719 211.550781 108.332031 C 211.4375 107.902344 211.320312 107.445312 211.195312 106.972656 C 211.054688 106.503906 210.992188 105.996094 210.890625 105.480469 C 210.804688 104.960938 210.671875 104.429688 210.632812 103.875 C 210.574219 103.3125 210.515625 102.742188 210.457031 102.160156 C 210.398438 101.574219 210.421875 100.972656 210.398438 100.363281 C 210.324219 99.144531 210.480469 97.890625 210.554688 96.609375 C 210.582031 95.96875 210.738281 95.339844 210.828125 94.699219 C 210.941406 94.0625 211.015625 93.414062 211.167969 92.785156 C 211.332031 92.152344 211.5 91.527344 211.664062 90.902344 C 211.835938 90.277344 211.964844 89.644531 212.210938 89.054688 C 212.433594 88.453125 212.652344 87.859375 212.871094 87.273438 C 213.101562 86.691406 213.273438 86.09375 213.5625 85.554688 C 214.089844 84.460938 214.601562 83.402344 215.089844 82.398438 C 215.660156 81.441406 216.199219 80.539062 216.699219 79.707031 C 216.953125 79.289062 217.191406 78.890625 217.421875 78.511719 C 217.664062 78.144531 217.925781 77.8125 218.152344 77.492188 C 218.621094 76.851562 219.027344 76.296875 219.363281 75.839844 C 220.03125 74.925781 220.414062 74.402344 220.414062 74.402344 C 220.414062 74.402344 220.035156 74.929688 219.375 75.851562 C 219.046875 76.3125 218.648438 76.871094 218.1875 77.511719 C 217.957031 77.835938 217.703125 78.171875 217.460938 78.539062 C 217.238281 78.917969 217.003906 79.320312 216.753906 79.738281 C 216.261719 80.578125 215.734375 81.484375 215.171875 82.441406 C 214.695312 83.449219 214.199219 84.511719 213.679688 85.605469 C 213.398438 86.148438 213.230469 86.742188 213.007812 87.324219 C 212.796875 87.910156 212.582031 88.507812 212.367188 89.105469 C 212.125 89.695312 212.007812 90.332031 211.839844 90.949219 C 211.683594 91.574219 211.523438 92.199219 211.367188 92.828125 C 211.222656 93.457031 211.15625 94.097656 211.046875 94.734375 C 210.964844 95.371094 210.8125 95.996094 210.792969 96.632812 C 210.730469 97.902344 210.589844 99.148438 210.675781 100.359375 C 210.703125 100.964844 210.6875 101.558594 210.75 102.136719 C 210.816406 102.714844 210.878906 103.28125 210.941406 103.832031 C 210.988281 104.382812 211.121094 104.910156 211.214844 105.421875 C 211.320312 105.929688 211.386719 106.429688 211.53125 106.894531 C 211.65625 107.359375 211.777344 107.804688 211.890625 108.230469 C 212.015625 108.652344 212.164062 109.042969 212.289062 109.414062 C 212.523438 110.164062 212.824219 110.777344 213.035156 111.296875 C 213.277344 111.804688 213.464844 112.203125 213.613281 112.460938 C 213.632812 112.492188 213.648438 112.519531 213.664062 112.550781 C 214.191406 112.25 214.722656 111.957031 215.25 111.640625 C 220.734375 108.40625 226.152344 104.394531 231.011719 99.695312 C 230.984375 98.863281 230.933594 96.792969 230.992188 94.019531 C 231.023438 93.113281 231.058594 92.128906 231.09375 91.082031 C 231.164062 90.042969 231.183594 88.941406 231.28125 87.808594 C 231.363281 86.675781 231.449219 85.5 231.582031 84.3125 C 231.691406 83.121094 231.855469 81.921875 232.023438 80.71875 C 232.167969 79.511719 232.417969 78.324219 232.617188 77.144531 C 232.824219 75.96875 233.125 74.832031 233.367188 73.71875 C 233.648438 72.617188 233.976562 71.566406 234.261719 70.566406 C 234.59375 69.578125 234.953125 68.65625 235.261719 67.804688 C 235.597656 66.957031 235.984375 66.21875 236.289062 65.542969 C 236.574219 64.859375 236.9375 64.324219 237.207031 63.867188 C 237.484375 63.417969 237.703125 63.058594 237.847656 62.816406 C 237.859375 62.796875 237.871094 62.78125 237.886719 62.761719 C 237.871094 62.78125 237.867188 62.796875 237.851562 62.820312 C 237.703125 63.0625 237.492188 63.417969 237.21875 63.875 C 236.949219 64.332031 236.59375 64.871094 236.308594 65.554688 C 236.011719 66.230469 235.628906 66.972656 235.296875 67.820312 C 234.996094 68.675781 234.644531 69.59375 234.320312 70.582031 C 234.042969 71.589844 233.722656 72.640625 233.449219 73.742188 C 233.21875 74.855469 232.921875 75.988281 232.726562 77.167969 C 232.535156 78.34375 232.292969 79.53125 232.160156 80.738281 C 231.996094 81.9375 231.84375 83.140625 231.746094 84.328125 C 231.617188 85.515625 231.542969 86.683594 231.46875 87.820312 C 231.378906 88.953125 231.359375 90.050781 231.316406 91.09375 C 231.300781 92.132812 231.285156 93.117188 231.273438 94.027344 C 231.273438 96.449219 231.34375 98.324219 231.390625 99.308594 C 232.882812 97.847656 234.324219 96.328125 235.691406 94.734375 C 238.671875 91.328125 241.164062 87.507812 244.105469 84.070312 C 245.570312 82.3125 247.082031 80.613281 248.617188 78.976562 L 248.609375 78.976562 C 248.609375 78.976562 248.683594 77.300781 249.054688 74.835938 C 249.144531 74.214844 249.253906 73.550781 249.386719 72.847656 C 249.503906 72.140625 249.675781 71.402344 249.828125 70.640625 C 250.003906 69.878906 250.191406 69.097656 250.398438 68.304688 C 250.632812 67.519531 250.820312 66.707031 251.09375 65.921875 C 251.347656 65.128906 251.59375 64.335938 251.894531 63.574219 C 252.171875 62.804688 252.464844 62.054688 252.785156 61.339844 C 252.9375 60.984375 253.089844 60.632812 253.242188 60.289062 C 253.40625 59.953125 253.566406 59.621094 253.726562 59.300781 C 254.046875 58.664062 254.332031 58.050781 254.65625 57.519531 C 254.96875 56.980469 255.253906 56.484375 255.507812 56.046875 C 255.789062 55.625 256.035156 55.257812 256.234375 54.960938 C 256.640625 54.355469 256.875 54.011719 256.875 54.011719 C 256.875 54.011719 256.644531 54.359375 256.25 54.96875 C 256.054688 55.273438 255.8125 55.640625 255.539062 56.066406 C 255.292969 56.507812 255.015625 57.007812 254.710938 57.550781 C 254.394531 58.085938 254.117188 58.703125 253.808594 59.34375 C 253.65625 59.664062 253.5 59.996094 253.339844 60.332031 C 253.199219 60.679688 253.050781 61.03125 252.90625 61.390625 C 252.59375 62.105469 252.316406 62.855469 252.050781 63.628906 C 251.765625 64.394531 251.53125 65.1875 251.285156 65.980469 C 251.027344 66.765625 250.851562 67.578125 250.632812 68.363281 C 250.4375 69.15625 250.261719 69.941406 250.101562 70.699219 C 249.957031 71.460938 249.800781 72.195312 249.695312 72.898438 C 249.574219 73.601562 249.476562 74.265625 249.394531 74.882812 C 249.164062 76.597656 249.070312 77.898438 249.035156 78.546875 C 250.386719 77.128906 251.753906 75.75 253.144531 74.445312 C 256.265625 71.507812 259.460938 68.851562 262.664062 66.578125 C 262.804688 66.476562 262.945312 66.386719 263.085938 66.289062 L 262.921875 66.246094 C 262.921875 66.246094 263.035156 65.898438 263.230469 65.289062 C 263.277344 65.136719 263.332031 64.96875 263.394531 64.785156 C 263.46875 64.609375 263.550781 64.417969 263.640625 64.214844 C 263.820312 63.808594 263.992188 63.332031 264.257812 62.859375 C 264.515625 62.378906 264.757812 61.839844 265.085938 61.308594 C 265.40625 60.773438 265.71875 60.199219 266.101562 59.636719 C 266.828125 58.488281 267.648438 57.296875 268.511719 56.144531 C 271.941406 51.484375 275.949219 47.3125 275.949219 47.3125 C 275.949219 47.3125 272.015625 51.554688 268.679688 56.261719 C 267.832031 57.429688 267.039062 58.632812 266.332031 59.78125 C 265.96875 60.347656 265.664062 60.925781 265.359375 61.464844 C 265.039062 61.992188 264.8125 62.53125 264.566406 63.007812 C 264.3125 63.484375 264.152344 63.949219 263.980469 64.351562 C 263.898438 64.554688 263.820312 64.742188 263.75 64.917969 C 263.695312 65.097656 263.644531 65.261719 263.601562 65.410156 C 263.515625 65.691406 263.449219 65.910156 263.402344 66.070312 C 266.347656 64.007812 269.265625 62.226562 272.054688 60.738281 C 275.082031 59.128906 277.953125 57.835938 280.566406 56.875 C 283.171875 55.90625 285.5 55.21875 287.4375 54.738281 C 291.316406 53.78125 293.605469 53.664062 293.605469 53.664062 C 293.605469 53.664062 291.320312 53.839844 287.472656 54.882812 Z M 65.222656 182.1875 C 65.179688 182.195312 65.136719 182.199219 65.101562 182.207031 C 65.136719 182.203125 65.179688 182.191406 65.222656 182.1875 Z M 64.925781 182.460938 L 64.832031 182.035156 C 64.832031 182.027344 64.894531 182.15625 64.980469 182.203125 C 65.015625 182.222656 65.054688 182.214844 65.101562 182.207031 C 65.054688 182.214844 65.015625 182.222656 64.992188 182.253906 C 64.933594 182.328125 64.929688 182.46875 64.925781 182.460938 Z M 147.304688 147.507812 C 149.617188 143.785156 150.769531 141.5625 150.769531 141.5625 C 150.769531 141.5625 149.570312 143.761719 147.191406 147.433594 C 146.003906 149.273438 144.515625 151.472656 142.730469 153.9375 C 140.949219 156.410156 138.855469 159.136719 136.484375 162.035156 C 132.457031 166.945312 127.550781 172.332031 121.769531 177.507812 C 121.75 177.488281 121.738281 177.480469 121.714844 177.457031 C 121.59375 177.339844 121.421875 177.1875 121.195312 176.992188 C 120.964844 176.804688 120.6875 176.578125 120.351562 176.34375 C 120.023438 176.097656 119.636719 175.847656 119.214844 175.578125 C 118.367188 175.046875 117.332031 174.496094 116.195312 173.984375 C 115.625 173.734375 115.027344 173.492188 114.417969 173.261719 C 113.796875 173.054688 113.183594 172.808594 112.542969 172.636719 C 111.902344 172.464844 111.273438 172.246094 110.632812 172.121094 C 109.996094 171.984375 109.382812 171.808594 108.765625 171.710938 C 108.15625 171.605469 107.566406 171.503906 107.007812 171.40625 C 106.445312 171.335938 105.914062 171.273438 105.421875 171.214844 C 104.445312 171.074219 103.613281 171.066406 103.042969 171.011719 C 102.464844 170.972656 102.136719 170.953125 102.136719 170.953125 C 102.136719 170.953125 102.464844 170.988281 103.039062 171.046875 C 103.613281 171.121094 104.433594 171.15625 105.410156 171.332031 C 105.894531 171.410156 106.421875 171.488281 106.980469 171.578125 C 107.53125 171.695312 108.117188 171.820312 108.71875 171.945312 C 109.324219 172.058594 109.933594 172.257812 110.558594 172.414062 C 111.1875 172.5625 111.800781 172.796875 112.425781 172.992188 C 113.054688 173.183594 113.652344 173.449219 114.257812 173.675781 C 114.851562 173.925781 115.429688 174.179688 115.980469 174.449219 C 117.078125 174.992188 118.066406 175.558594 118.871094 176.105469 C 119.273438 176.382812 119.636719 176.640625 119.945312 176.886719 C 120.257812 177.125 120.515625 177.347656 120.726562 177.535156 C 120.929688 177.722656 121.09375 177.875 121.1875 177.976562 C 121.203125 177.988281 121.207031 177.996094 121.21875 178.007812 C 120.363281 178.765625 119.488281 179.515625 118.59375 180.257812 C 112.742188 185.167969 106.019531 189.761719 98.664062 193.203125 C 97.988281 192.742188 96.375 191.667969 94.148438 190.367188 C 91.164062 188.640625 87.109375 186.445312 82.820312 184.785156 C 81.75 184.367188 80.671875 183.976562 79.59375 183.636719 C 78.515625 183.285156 77.445312 182.988281 76.398438 182.730469 C 75.347656 182.480469 74.328125 182.285156 73.351562 182.125 C 72.863281 182.066406 72.386719 182 71.925781 181.945312 C 71.464844 181.90625 71.015625 181.871094 70.585938 181.835938 C 69.726562 181.800781 68.9375 181.78125 68.238281 181.824219 C 67.539062 181.835938 66.933594 181.929688 66.433594 181.980469 C 65.9375 182.039062 65.550781 182.128906 65.285156 182.175781 C 65.261719 182.175781 65.242188 182.179688 65.222656 182.1875 C 65.242188 182.179688 65.261719 182.179688 65.285156 182.175781 C 65.550781 182.136719 65.9375 182.042969 66.433594 181.992188 C 66.9375 181.945312 67.539062 181.855469 68.238281 181.851562 C 68.9375 181.8125 69.726562 181.84375 70.585938 181.882812 C 71.011719 181.921875 71.457031 181.957031 71.921875 182 C 72.378906 182.058594 72.851562 182.128906 73.339844 182.191406 C 74.316406 182.355469 75.332031 182.558594 76.375 182.824219 C 77.417969 183.089844 78.484375 183.390625 79.554688 183.746094 C 80.628906 184.09375 81.703125 184.496094 82.769531 184.921875 C 84.898438 185.769531 86.976562 186.742188 88.886719 187.730469 C 90.796875 188.710938 92.53125 189.722656 93.992188 190.625 C 96 191.863281 97.472656 192.878906 98.214844 193.40625 C 96.722656 194.089844 95.214844 194.730469 93.675781 195.3125 C 89.050781 197.15625 84.132812 198.042969 79.421875 199.644531 C 77.144531 200.386719 74.90625 201.207031 72.726562 202.085938 C 72.644531 202.042969 71.277344 201.300781 69.128906 200.488281 C 68.578125 200.273438 67.96875 200.054688 67.328125 199.84375 C 66.6875 199.613281 65.996094 199.433594 65.285156 199.214844 C 64.570312 199.027344 63.832031 198.828125 63.074219 198.664062 C 62.308594 198.515625 61.542969 198.328125 60.757812 198.226562 C 59.976562 198.101562 59.199219 197.988281 58.425781 197.929688 C 58.035156 197.894531 57.65625 197.863281 57.277344 197.828125 C 56.894531 197.816406 56.519531 197.804688 56.152344 197.792969 C 55.78125 197.78125 55.417969 197.773438 55.0625 197.765625 C 54.707031 197.777344 54.359375 197.789062 54.023438 197.804688 C 53.34375 197.828125 52.703125 197.851562 52.121094 197.9375 C 51.53125 198.007812 50.992188 198.070312 50.519531 198.128906 C 50.046875 198.222656 49.640625 198.304688 49.300781 198.375 C 48.625 198.511719 48.242188 198.585938 48.242188 198.585938 C 48.242188 198.585938 48.625 198.519531 49.304688 198.394531 C 49.640625 198.328125 50.050781 198.253906 50.523438 198.167969 C 51 198.121094 51.539062 198.066406 52.125 198.003906 C 52.710938 197.925781 53.347656 197.914062 54.023438 197.90625 C 54.359375 197.898438 54.707031 197.890625 55.058594 197.882812 C 55.414062 197.898438 55.777344 197.914062 56.144531 197.929688 C 56.511719 197.949219 56.886719 197.964844 57.261719 197.984375 C 57.640625 198.023438 58.019531 198.066406 58.40625 198.109375 C 59.175781 198.175781 59.949219 198.304688 60.722656 198.441406 C 61.5 198.554688 62.261719 198.753906 63.015625 198.914062 C 63.765625 199.09375 64.496094 199.300781 65.203125 199.5 C 65.902344 199.730469 66.585938 199.921875 67.21875 200.160156 C 67.855469 200.382812 68.449219 200.605469 68.992188 200.828125 C 70.558594 201.457031 71.6875 202.023438 72.210938 202.300781 C 70.078125 203.175781 68 204.109375 65.988281 205.105469 C 62.015625 207.070312 58.304688 209.238281 54.917969 211.53125 L 54.957031 211.371094 C 54.957031 211.371094 54.597656 211.3125 53.96875 211.214844 C 53.65625 211.148438 53.273438 211.132812 52.835938 211.125 C 52.394531 211.105469 51.898438 211.082031 51.363281 211.132812 C 50.824219 211.164062 50.242188 211.183594 49.632812 211.273438 C 49.023438 211.347656 48.378906 211.425781 47.722656 211.558594 C 47.066406 211.664062 46.386719 211.796875 45.703125 211.960938 C 45.015625 212.101562 44.324219 212.28125 43.636719 212.460938 C 38.113281 213.890625 32.855469 216.105469 32.855469 216.105469 C 32.855469 216.105469 38.15625 213.992188 43.6875 212.671875 C 44.378906 212.507812 45.070312 212.339844 45.757812 212.210938 C 46.441406 212.066406 47.117188 211.945312 47.773438 211.847656 C 48.429688 211.730469 49.066406 211.667969 49.671875 211.609375 C 50.273438 211.527344 50.847656 211.519531 51.375 211.496094 C 51.90625 211.460938 52.386719 211.496094 52.816406 211.519531 C 53.242188 211.535156 53.613281 211.558594 53.910156 211.625 C 54.203125 211.675781 54.433594 211.71875 54.59375 211.746094 C 54.492188 211.8125 54.386719 211.882812 54.285156 211.949219 C 50.730469 214.390625 47.53125 216.929688 44.722656 219.433594 C 39.101562 224.445312 35.089844 229.304688 32.511719 232.835938 C 29.925781 236.382812 28.761719 238.605469 28.761719 238.605469 C 28.761719 238.605469 29.980469 236.410156 32.640625 232.933594 C 35.285156 229.457031 39.4375 224.753906 45.070312 219.824219 C 45.738281 219.238281 46.441406 218.652344 47.160156 218.066406 C 47.15625 218.21875 47.160156 218.394531 47.15625 218.609375 C 47.15625 218.941406 47.167969 219.339844 47.097656 219.800781 C 47.035156 220.257812 47.003906 220.78125 46.902344 221.335938 C 46.78125 221.894531 46.675781 222.503906 46.519531 223.136719 C 46.339844 223.765625 46.175781 224.4375 45.953125 225.117188 C 45.710938 225.785156 45.503906 226.5 45.21875 227.191406 C 44.9375 227.890625 44.675781 228.605469 44.355469 229.300781 C 43.753906 230.703125 43.070312 232.074219 42.410156 233.34375 C 41.746094 234.617188 41.082031 235.777344 40.496094 236.765625 C 39.328125 238.738281 38.457031 240 38.457031 240 C 38.457031 240 39.347656 238.753906 40.554688 236.800781 C 41.15625 235.824219 41.839844 234.667969 42.527344 233.410156 C 43.214844 232.148438 43.925781 230.789062 44.550781 229.386719 C 44.886719 228.699219 45.164062 227.984375 45.457031 227.289062 C 45.757812 226.59375 45.980469 225.882812 46.234375 225.207031 C 46.472656 224.527344 46.648438 223.851562 46.84375 223.222656 C 47.011719 222.582031 47.132812 221.964844 47.261719 221.402344 C 47.382812 220.835938 47.417969 220.304688 47.488281 219.839844 C 47.570312 219.375 47.566406 218.960938 47.570312 218.621094 C 47.582031 218.1875 47.585938 217.890625 47.589844 217.71875 C 52.804688 213.503906 59.140625 209.328125 66.332031 205.800781 C 66.878906 205.53125 67.445312 205.277344 68.007812 205.019531 C 68.054688 205.460938 68.160156 206.628906 68.125 208.242188 C 68.121094 208.753906 68.089844 209.316406 68.050781 209.90625 C 68.019531 210.496094 67.933594 211.117188 67.871094 211.757812 C 67.765625 212.394531 67.703125 213.058594 67.554688 213.722656 C 67.417969 214.386719 67.289062 215.0625 67.097656 215.726562 L 66.832031 216.726562 C 66.71875 217.050781 66.613281 217.371094 66.507812 217.695312 C 66.3125 218.347656 66.046875 218.960938 65.800781 219.558594 C 65.578125 220.167969 65.285156 220.722656 65.019531 221.25 C 64.890625 221.519531 64.761719 221.777344 64.636719 222.027344 C 64.492188 222.265625 64.355469 222.496094 64.222656 222.71875 C 63.949219 223.160156 63.71875 223.574219 63.484375 223.925781 C 63.238281 224.269531 63.023438 224.566406 62.847656 224.8125 C 62.492188 225.300781 62.289062 225.582031 62.289062 225.582031 C 62.289062 225.582031 62.496094 225.304688 62.859375 224.820312 C 63.042969 224.578125 63.265625 224.285156 63.515625 223.949219 C 63.757812 223.601562 64 223.191406 64.28125 222.753906 C 64.417969 222.535156 64.558594 222.304688 64.710938 222.066406 C 64.839844 221.820312 64.972656 221.5625 65.109375 221.300781 C 65.386719 220.769531 65.691406 220.21875 65.929688 219.617188 C 66.1875 219.019531 66.464844 218.402344 66.675781 217.753906 C 66.789062 217.433594 66.902344 217.105469 67.015625 216.78125 L 67.308594 215.785156 C 67.511719 215.117188 67.660156 214.441406 67.804688 213.773438 C 67.964844 213.109375 68.046875 212.441406 68.167969 211.796875 C 68.242188 211.152344 68.339844 210.527344 68.382812 209.929688 C 68.433594 209.339844 68.476562 208.773438 68.492188 208.253906 C 68.570312 206.402344 68.453125 205.097656 68.421875 204.824219 C 72.007812 203.175781 75.777344 201.699219 79.679688 200.441406 C 80.851562 200.089844 82.015625 199.707031 83.207031 199.378906 C 84.074219 199.144531 84.941406 198.914062 85.8125 198.679688 C 85.828125 198.699219 85.835938 198.710938 85.847656 198.734375 C 85.933594 198.867188 86.042969 199.082031 86.183594 199.351562 C 86.304688 199.632812 86.46875 199.964844 86.601562 200.371094 C 86.765625 200.765625 86.875 201.234375 87.015625 201.742188 C 87.113281 202.261719 87.246094 202.816406 87.285156 203.421875 C 87.375 204.023438 87.359375 204.660156 87.367188 205.324219 C 87.339844 205.980469 87.289062 206.667969 87.191406 207.355469 C 87.050781 208.035156 86.976562 208.746094 86.753906 209.417969 C 86.5625 210.097656 86.382812 210.785156 86.105469 211.429688 C 85.851562 212.078125 85.625 212.730469 85.304688 213.316406 C 85.003906 213.90625 84.75 214.5 84.4375 215.027344 C 84.121094 215.554688 83.824219 216.046875 83.546875 216.503906 C 83.285156 216.96875 82.996094 217.363281 82.742188 217.714844 C 82.488281 218.066406 82.265625 218.371094 82.085938 218.625 C 81.726562 219.132812 81.519531 219.421875 81.519531 219.421875 C 81.519531 219.421875 81.730469 219.136719 82.101562 218.636719 C 82.289062 218.390625 82.515625 218.085938 82.773438 217.738281 C 83.039062 217.390625 83.332031 217 83.605469 216.539062 C 83.890625 216.085938 84.199219 215.597656 84.523438 215.078125 C 84.84375 214.558594 85.113281 213.964844 85.429688 213.378906 C 85.761719 212.792969 86.003906 212.144531 86.269531 211.492188 C 86.5625 210.851562 86.753906 210.160156 86.964844 209.476562 C 87.199219 208.800781 87.292969 208.082031 87.445312 207.394531 C 87.558594 206.699219 87.625 206.003906 87.664062 205.332031 C 87.671875 204.660156 87.695312 204.003906 87.617188 203.390625 C 87.589844 202.769531 87.460938 202.195312 87.375 201.660156 C 87.238281 201.136719 87.132812 200.652344 86.976562 200.238281 C 86.84375 199.816406 86.679688 199.464844 86.558594 199.171875 C 86.429688 198.910156 86.332031 198.710938 86.246094 198.558594 C 86.429688 198.511719 86.617188 198.460938 86.804688 198.410156 C 89.230469 197.777344 91.628906 197.003906 93.976562 196.101562 C 100.335938 193.667969 106.28125 190.316406 111.679688 186.527344 C 111.765625 186.722656 111.90625 187.027344 112.078125 187.460938 C 112.375 188.222656 112.769531 189.324219 113.117188 190.683594 C 113.472656 192.039062 113.769531 193.65625 113.902344 195.40625 C 113.964844 196.277344 113.992188 197.1875 113.953125 198.105469 C 113.929688 199.027344 113.816406 199.957031 113.675781 200.882812 C 113.519531 201.808594 113.3125 202.71875 113.035156 203.601562 C 112.761719 204.480469 112.445312 205.332031 112.066406 206.128906 C 111.882812 206.527344 111.699219 206.917969 111.484375 207.285156 C 111.277344 207.652344 111.085938 208.023438 110.859375 208.355469 C 110.441406 209.046875 109.980469 209.65625 109.5625 210.222656 C 109.109375 210.757812 108.710938 211.273438 108.308594 211.679688 C 107.90625 212.085938 107.582031 212.464844 107.265625 212.734375 C 106.660156 213.289062 106.3125 213.609375 106.3125 213.609375 C 106.3125 213.609375 106.664062 213.296875 107.28125 212.75 C 107.597656 212.484375 107.929688 212.105469 108.339844 211.707031 C 108.75 211.304688 109.152344 210.796875 109.613281 210.261719 C 110.042969 209.703125 110.515625 209.097656 110.945312 208.410156 C 111.175781 208.078125 111.375 207.710938 111.589844 207.339844 C 111.808594 206.976562 111.996094 206.585938 112.1875 206.1875 C 112.582031 205.390625 112.914062 204.539062 113.203125 203.65625 C 113.492188 202.773438 113.71875 201.851562 113.890625 200.921875 C 114.046875 199.992188 114.175781 199.050781 114.210938 198.121094 C 114.261719 197.1875 114.25 196.269531 114.199219 195.382812 C 114.089844 193.613281 113.8125 191.972656 113.472656 190.59375 C 112.929688 188.339844 112.265625 186.777344 112.039062 186.277344 C 114.5 184.53125 116.851562 182.699219 119.070312 180.824219 C 123.699219 176.886719 127.796875 172.765625 131.386719 168.761719 C 131.578125 169.1875 131.863281 169.859375 132.179688 170.722656 C 132.449219 171.480469 132.761719 172.375 133.027344 173.347656 C 133.308594 174.316406 133.539062 175.371094 133.738281 176.433594 C 133.8125 176.96875 133.910156 177.5 133.960938 178.027344 C 133.996094 178.554688 134.078125 179.078125 134.074219 179.582031 C 134.078125 180.085938 134.125 180.578125 134.082031 181.042969 C 134.050781 181.503906 134.054688 181.945312 133.992188 182.347656 C 133.9375 182.75 133.882812 183.117188 133.839844 183.445312 C 133.785156 183.769531 133.699219 184.046875 133.648438 184.277344 C 133.535156 184.738281 133.46875 185.003906 133.46875 185.003906 C 133.46875 185.003906 133.546875 184.742188 133.679688 184.285156 C 133.742188 184.054688 133.839844 183.785156 133.90625 183.457031 C 133.96875 183.132812 134.035156 182.761719 134.109375 182.363281 C 134.1875 181.960938 134.203125 181.519531 134.253906 181.050781 C 134.320312 180.585938 134.292969 180.089844 134.3125 179.578125 C 134.335938 179.0625 134.277344 178.539062 134.261719 178 C 134.234375 177.464844 134.15625 176.921875 134.105469 176.378906 C 133.953125 175.296875 133.765625 174.214844 133.523438 173.222656 C 133.296875 172.21875 133.019531 171.304688 132.777344 170.519531 C 132.414062 169.375 132.078125 168.53125 131.921875 168.15625 C 133.683594 166.167969 135.332031 164.210938 136.84375 162.328125 C 139.195312 159.398438 141.21875 156.609375 142.964844 154.105469 C 144.703125 151.597656 146.152344 149.367188 147.304688 147.507812 " fill-opacity="1" fill-rule="nonzero"/></g></g></g></g></svg>