<svg xmlns="http://www.w3.org/2000/svg" xmlns:xlink="http://www.w3.org/1999/xlink" width="1920" zoomAndPan="magnify" viewBox="0 0 1440 809.999993" height="1080" preserveAspectRatio="xMidYMid meet" version="1.0"><defs><clipPath id="b0913be361"><path d="M 962 407 L 1397 407 L 1397 810 L 962 810 Z M 962 407 " clip-rule="nonzero"/></clipPath><clipPath id="aa6fed83f1"><path d="M 963.167969 405 L 1430.1875 486.039062 L 1361.074219 884.335938 L 894.054688 803.296875 Z M 963.167969 405 " clip-rule="nonzero"/></clipPath><clipPath id="904433f2de"><path d="M 963.167969 405 L 1430.1875 486.039062 L 1361.074219 884.335938 L 894.054688 803.296875 Z M 963.167969 405 " clip-rule="nonzero"/></clipPath><clipPath id="42e2c24a08"><path d="M 963.167969 405 L 1430.1875 486.039062 L 1361.074219 884.335938 L 894.054688 803.296875 Z M 963.167969 405 " clip-rule="nonzero"/></clipPath><clipPath id="9948d4431a"><path d="M 963.359375 405.035156 L 1430.210938 486.042969 L 1361.0625 884.558594 L 894.207031 803.550781 Z M 963.359375 405.035156 " clip-rule="nonzero"/></clipPath><clipPath id="f75c7440f0"><path d="M 963.359375 405.035156 L 1429.984375 486.003906 L 1360.878906 884.261719 L 894.253906 803.289062 Z M 963.359375 405.035156 " clip-rule="nonzero"/></clipPath><clipPath id="e770a09e7f"><path d="M 976 418 L 1381 418 L 1381 685 L 976 685 Z M 976 418 " clip-rule="nonzero"/></clipPath><clipPath id="b467dc2828"><path d="M 963.167969 405 L 1430.1875 486.039062 L 1361.074219 884.335938 L 894.054688 803.296875 Z M 963.167969 405 " clip-rule="nonzero"/></clipPath><clipPath id="7e067e28ef"><path d="M 963.167969 405 L 1430.1875 486.039062 L 1361.074219 884.335938 L 894.054688 803.296875 Z M 963.167969 405 " clip-rule="nonzero"/></clipPath><clipPath id="03695d59d7"><path d="M 963.167969 405 L 1430.1875 486.039062 L 1361.074219 884.335938 L 894.054688 803.296875 Z M 963.167969 405 " clip-rule="nonzero"/></clipPath><clipPath id="015d002908"><path d="M 18 0 L 253 0 L 253 183 L 18 183 Z M 18 0 " clip-rule="nonzero"/></clipPath><clipPath id="533e159186"><path d="M 276.949219 126.179688 L 19.375 184.078125 L -30.132812 -36.175781 L 227.441406 -94.074219 Z M 276.949219 126.179688 " clip-rule="nonzero"/></clipPath><clipPath id="0738d5b390"><path d="M 19.042969 184.152344 L 276.617188 126.253906 L 227.109375 -94 L -30.464844 -36.101562 Z M 19.042969 184.152344 " clip-rule="nonzero"/></clipPath><clipPath id="c99e1421bc"><path d="M 19.042969 184.152344 L 276.617188 126.253906 L 227.109375 -94 L -30.464844 -36.101562 Z M 19.042969 184.152344 " clip-rule="nonzero"/></clipPath><clipPath id="3ab1a55be5"><path d="M 19.148438 184.128906 L 276.632812 126.25 L 227.097656 -94.121094 L -30.386719 -36.246094 Z M 19.148438 184.128906 " clip-rule="nonzero"/></clipPath><clipPath id="a3f07ebd0e"><path d="M 19.148438 184.128906 L 276.507812 126.28125 L 227.003906 -93.949219 L -30.355469 -36.101562 Z M 19.148438 184.128906 " clip-rule="nonzero"/></clipPath><clipPath id="26568ce420"><path d="M 26 17 L 244 17 L 244 176 L 26 176 Z M 26 17 " clip-rule="nonzero"/></clipPath><clipPath id="0ff43905b0"><path d="M 276.949219 126.179688 L 19.375 184.078125 L -30.132812 -36.175781 L 227.441406 -94.074219 Z M 276.949219 126.179688 " clip-rule="nonzero"/></clipPath><clipPath id="957f2ed2d8"><path d="M 19.042969 184.152344 L 276.617188 126.253906 L 227.109375 -94 L -30.464844 -36.101562 Z M 19.042969 184.152344 " clip-rule="nonzero"/></clipPath><clipPath id="e7700d3305"><path d="M 19.042969 184.152344 L 276.617188 126.253906 L 227.109375 -94 L -30.464844 -36.101562 Z M 19.042969 184.152344 " clip-rule="nonzero"/></clipPath></defs><rect x="-144" width="1728" fill="#ffffff" y="-80.999999" height="971.999992" fill-opacity="1"/><rect x="-144" width="1728" fill="#ffffff" y="-80.999999" height="971.999992" fill-opacity="1"/><g clip-path="url(#b0913be361)"><g clip-path="url(#aa6fed83f1)"><g clip-path="url(#904433f2de)"><g clip-path="url(#42e2c24a08)"><g clip-path="url(#9948d4431a)"><g clip-path="url(#f75c7440f0)"><path fill="#216b39" d="M 1396.429688 679.375 C 1396.429688 679.375 1321.648438 710.414062 1277.394531 673.765625 C 1233.136719 637.121094 1209.226562 580.640625 1194.722656 580.722656 C 1186.339844 580.773438 1165.375 596.871094 1162.6875 599.269531 C 1159.953125 601.746094 1156.625 604.753906 1152.933594 608.34375 C 1149.222656 611.898438 1145.132812 616.023438 1140.757812 620.59375 C 1138.601562 622.910156 1136.308594 625.28125 1134.050781 627.832031 C 1132.90625 629.097656 1131.75 630.386719 1130.570312 631.691406 C 1129.421875 633.023438 1128.253906 634.371094 1127.070312 635.746094 C 1124.671875 638.457031 1122.355469 641.367188 1119.925781 644.289062 C 1117.550781 647.25 1115.144531 650.292969 1112.753906 653.425781 C 1110.417969 656.597656 1107.953125 659.757812 1105.664062 663.105469 C 1104.5 664.761719 1103.328125 666.425781 1102.152344 668.101562 C 1101.023438 669.8125 1099.886719 671.523438 1098.75 673.25 C 1096.429688 676.660156 1094.320312 680.246094 1092.121094 683.785156 C 1091 685.546875 1090.015625 687.386719 1088.972656 689.195312 L 1085.875 694.644531 L 1082.988281 700.195312 C 1082.027344 702.046875 1081.027344 703.875 1080.175781 705.765625 C 1078.429688 709.53125 1076.558594 713.21875 1075.046875 717.023438 C 1074.253906 718.90625 1073.460938 720.78125 1072.671875 722.652344 C 1071.910156 724.523438 1071.261719 726.433594 1070.554688 728.304688 C 1069.871094 730.183594 1069.152344 732.039062 1068.515625 733.902344 C 1067.921875 735.777344 1067.335938 737.644531 1066.753906 739.496094 C 1066.199219 741.347656 1065.53125 743.152344 1065.085938 745.003906 C 1064.613281 746.839844 1064.144531 748.664062 1063.679688 750.460938 C 1062.660156 754.042969 1062.019531 757.625 1061.324219 761.085938 C 1061.003906 762.820312 1060.570312 764.511719 1060.359375 766.214844 C 1060.121094 767.90625 1059.890625 769.574219 1059.660156 771.21875 C 1059.433594 772.855469 1059.207031 774.46875 1058.984375 776.050781 C 1058.863281 777.640625 1058.742188 779.203125 1058.625 780.734375 C 1058.507812 782.261719 1058.390625 783.757812 1058.277344 785.21875 C 1058.230469 785.949219 1058.152344 786.667969 1058.125 787.378906 C 1058.113281 788.097656 1058.109375 788.800781 1058.101562 789.5 C 1058.066406 792.285156 1058.035156 794.929688 1058.003906 797.410156 C 1057.945312 798.648438 1058.097656 799.847656 1058.136719 801.007812 C 1058.203125 802.160156 1058.261719 803.273438 1058.328125 804.34375 C 1058.457031 806.484375 1058.519531 808.453125 1058.679688 810.21875 C 1059.5625 817.261719 1060.070312 821.289062 1060.070312 821.289062 L 1060.132812 821.820312 C 1060.671875 826.097656 1057.640625 830.007812 1053.355469 830.546875 C 1049.074219 831.085938 1045.164062 828.046875 1044.628906 823.769531 C 1044.617188 823.660156 1044.601562 823.523438 1044.59375 823.417969 C 1044.59375 823.417969 1044.238281 818.996094 1043.617188 811.257812 C 1043.535156 809.320312 1043.558594 807.171875 1043.515625 804.839844 C 1043.507812 803.671875 1043.492188 802.460938 1043.480469 801.199219 C 1043.496094 799.9375 1043.402344 798.632812 1043.519531 797.289062 C 1043.671875 794.601562 1043.835938 791.742188 1044.011719 788.726562 C 1044.054688 787.976562 1044.101562 787.210938 1044.140625 786.441406 C 1044.210938 785.667969 1044.324219 784.894531 1044.414062 784.109375 C 1044.609375 782.539062 1044.804688 780.9375 1045 779.292969 C 1045.207031 777.652344 1045.414062 775.980469 1045.628906 774.28125 C 1045.9375 772.589844 1046.257812 770.871094 1046.582031 769.128906 C 1046.90625 767.378906 1047.238281 765.605469 1047.574219 763.804688 C 1047.890625 761.996094 1048.421875 760.210938 1048.851562 758.375 C 1049.757812 754.722656 1050.617188 750.953125 1051.863281 747.207031 C 1052.4375 745.320312 1053.027344 743.417969 1053.617188 741.496094 C 1054.179688 739.5625 1054.964844 737.6875 1055.640625 735.761719 C 1056.339844 733.847656 1057.046875 731.910156 1057.753906 729.964844 C 1058.519531 728.039062 1059.355469 726.125 1060.164062 724.191406 C 1060.992188 722.261719 1061.765625 720.304688 1062.648438 718.378906 C 1063.558594 716.46875 1064.472656 714.546875 1065.386719 712.617188 C 1067.148438 708.730469 1069.261719 704.984375 1071.253906 701.164062 C 1072.230469 699.246094 1073.34375 697.398438 1074.421875 695.527344 L 1077.671875 689.929688 L 1081.113281 684.453125 C 1082.273438 682.640625 1083.375 680.792969 1084.609375 679.035156 C 1087.03125 675.496094 1089.363281 671.921875 1091.902344 668.53125 C 1093.148438 666.820312 1094.390625 665.117188 1095.621094 663.425781 C 1096.902344 661.769531 1098.175781 660.121094 1099.445312 658.476562 C 1101.933594 655.171875 1104.59375 652.058594 1107.121094 648.933594 C 1109.703125 645.855469 1112.292969 642.867188 1114.839844 639.96875 C 1117.445312 637.113281 1119.929688 634.265625 1122.488281 631.625 C 1123.753906 630.289062 1125 628.972656 1126.226562 627.675781 C 1127.480469 626.40625 1128.714844 625.15625 1129.929688 623.921875 C 1132.335938 621.441406 1134.765625 619.148438 1137.050781 616.902344 C 1141.691406 612.476562 1146.011719 608.496094 1149.929688 605.074219 C 1153.824219 601.621094 1157.320312 598.730469 1160.203125 596.351562 C 1162.65625 594.355469 1164.691406 592.753906 1166.230469 591.570312 C 1166.230469 591.570312 1166.1875 567.261719 1161.078125 558.523438 C 1152.242188 543.40625 1095.007812 552.019531 1040.230469 527.746094 C 985.457031 503.472656 962.949219 407.40625 962.949219 407.40625 C 962.949219 407.40625 1007.21875 415.105469 1061.179688 422.085938 C 1130.453125 431.058594 1159.503906 525.363281 1165.777344 552.835938 C 1169.527344 569.269531 1170.421875 581.050781 1170.539062 587.871094 C 1175.078125 584.324219 1183.28125 578.820312 1196.03125 573.421875 C 1217.332031 564.394531 1294.332031 540.230469 1336.019531 598.214844 C 1368.496094 643.378906 1396.429688 679.375 1396.429688 679.375 " fill-opacity="1" fill-rule="nonzero"/></g></g></g></g></g></g><g clip-path="url(#e770a09e7f)"><g clip-path="url(#b467dc2828)"><g clip-path="url(#7e067e28ef)"><g clip-path="url(#03695d59d7)"><path fill="#2d9d49" d="M 1240.46875 609.273438 C 1240.328125 608.792969 1240.167969 608.253906 1239.996094 607.660156 C 1239.800781 607.078125 1239.695312 606.417969 1239.542969 605.730469 C 1239.378906 605.046875 1239.273438 604.3125 1239.175781 603.546875 C 1239.050781 602.789062 1238.996094 602 1238.9375 601.195312 C 1238.855469 600.394531 1238.859375 599.574219 1238.835938 598.757812 C 1238.820312 597.117188 1238.898438 595.484375 1239.046875 593.957031 C 1239.191406 592.429688 1239.394531 591.015625 1239.613281 589.804688 C 1240.035156 587.390625 1240.511719 585.832031 1240.511719 585.832031 L 1239.933594 585.671875 C 1239.933594 585.671875 1239.488281 587.28125 1239.117188 589.726562 C 1238.921875 590.949219 1238.75 592.378906 1238.636719 593.921875 C 1238.527344 595.464844 1238.480469 597.113281 1238.539062 598.761719 C 1238.582031 599.585938 1238.589844 600.410156 1238.695312 601.21875 C 1238.773438 602.023438 1238.84375 602.816406 1238.988281 603.574219 C 1239.109375 604.339844 1239.226562 605.074219 1239.410156 605.757812 C 1239.578125 606.449219 1239.695312 607.105469 1239.902344 607.6875 C 1240.089844 608.277344 1240.261719 608.8125 1240.414062 609.292969 C 1240.601562 609.753906 1240.769531 610.160156 1240.90625 610.492188 C 1241.179688 611.15625 1241.339844 611.535156 1241.339844 611.535156 C 1241.339844 611.535156 1241.191406 611.152344 1240.929688 610.480469 C 1240.800781 610.148438 1240.644531 609.738281 1240.46875 609.273438 Z M 1297.492188 665.402344 L 1297.964844 665.039062 C 1297.972656 665.035156 1297.796875 665.101562 1297.664062 665.066406 C 1297.609375 665.042969 1297.570312 664.992188 1297.535156 664.929688 C 1297.574219 664.992188 1297.609375 665.046875 1297.613281 665.105469 C 1297.601562 665.25 1297.480469 665.410156 1297.492188 665.402344 Z M 1297.425781 664.773438 C 1297.464844 664.828125 1297.5 664.886719 1297.535156 664.929688 C 1297.5 664.886719 1297.464844 664.828125 1297.425781 664.773438 Z M 1370.960938 672.765625 C 1365.238281 671.519531 1357.183594 669.027344 1348.160156 664.628906 C 1347.542969 664.328125 1346.917969 664 1346.289062 663.683594 C 1346.449219 663.566406 1346.644531 663.433594 1346.882812 663.261719 C 1347.210938 663.03125 1347.59375 662.722656 1348.105469 662.488281 C 1348.609375 662.246094 1349.148438 661.914062 1349.789062 661.65625 C 1350.4375 661.414062 1351.128906 661.117188 1351.886719 660.875 C 1352.65625 660.671875 1353.453125 660.40625 1354.300781 660.226562 C 1355.15625 660.074219 1356.027344 659.835938 1356.9375 659.734375 C 1357.84375 659.613281 1358.761719 659.46875 1359.691406 659.410156 C 1360.617188 659.3125 1361.546875 659.253906 1362.457031 659.230469 C 1363.375 659.175781 1364.28125 659.183594 1365.152344 659.171875 C 1366.898438 659.175781 1368.527344 659.242188 1369.921875 659.335938 C 1372.71875 659.527344 1374.5625 659.800781 1374.5625 659.800781 C 1374.5625 659.800781 1372.722656 659.492188 1369.929688 659.246094 C 1368.535156 659.128906 1366.902344 659.023438 1365.152344 658.984375 C 1364.28125 658.980469 1363.371094 658.949219 1362.453125 658.984375 C 1361.535156 658.996094 1360.601562 659.035156 1359.667969 659.109375 C 1358.734375 659.152344 1357.800781 659.277344 1356.886719 659.386719 C 1355.96875 659.46875 1355.085938 659.683594 1354.214844 659.828125 C 1353.347656 659.992188 1352.53125 660.242188 1351.746094 660.433594 C 1350.976562 660.667969 1350.261719 660.953125 1349.59375 661.1875 C 1348.933594 661.441406 1348.371094 661.769531 1347.847656 662.015625 C 1347.3125 662.242188 1346.910156 662.554688 1346.5625 662.785156 C 1346.164062 663.0625 1345.875 663.257812 1345.691406 663.378906 C 1337.339844 659.070312 1328.367188 653.121094 1319.722656 645.671875 C 1319.265625 645.28125 1318.816406 644.867188 1318.363281 644.46875 C 1318.726562 644.121094 1319.800781 643.140625 1321.480469 642.007812 C 1321.992188 641.644531 1322.570312 641.28125 1323.191406 640.910156 C 1323.800781 640.523438 1324.488281 640.199219 1325.179688 639.816406 C 1325.898438 639.5 1326.621094 639.113281 1327.398438 638.828125 C 1328.167969 638.53125 1328.953125 638.21875 1329.769531 638 C 1330.167969 637.882812 1330.574219 637.75 1330.976562 637.644531 C 1331.386719 637.558594 1331.796875 637.472656 1332.199219 637.386719 C 1333.007812 637.179688 1333.820312 637.109375 1334.605469 637.011719 C 1335.390625 636.878906 1336.15625 636.898438 1336.875 636.871094 C 1337.238281 636.867188 1337.59375 636.84375 1337.933594 636.851562 C 1338.273438 636.875 1338.601562 636.894531 1338.921875 636.921875 C 1339.546875 636.976562 1340.132812 636.984375 1340.644531 637.066406 C 1341.148438 637.160156 1341.59375 637.234375 1341.957031 637.304688 C 1342.683594 637.433594 1343.101562 637.507812 1343.101562 637.507812 C 1343.101562 637.507812 1342.6875 637.421875 1341.960938 637.277344 C 1341.597656 637.207031 1341.152344 637.117188 1340.648438 637.015625 C 1340.140625 636.917969 1339.558594 636.894531 1338.921875 636.828125 C 1338.609375 636.796875 1338.277344 636.765625 1337.941406 636.734375 C 1337.597656 636.71875 1337.242188 636.734375 1336.878906 636.734375 C 1336.148438 636.742188 1335.375 636.707031 1334.585938 636.820312 C 1333.792969 636.90625 1332.972656 636.960938 1332.152344 637.144531 C 1331.742188 637.222656 1331.332031 637.304688 1330.910156 637.378906 C 1330.5 637.480469 1330.09375 637.605469 1329.683594 637.710938 C 1328.855469 637.914062 1328.058594 638.214844 1327.269531 638.496094 C 1326.476562 638.769531 1325.738281 639.140625 1325 639.449219 C 1324.292969 639.820312 1323.589844 640.132812 1322.957031 640.511719 C 1322.324219 640.875 1321.730469 641.230469 1321.195312 641.589844 C 1319.410156 642.738281 1318.257812 643.757812 1317.917969 644.074219 C 1313.792969 640.410156 1309.75 636.4375 1305.878906 632.195312 C 1303.617188 629.785156 1301.496094 627.195312 1299.335938 624.605469 C 1299.351562 624.570312 1299.355469 624.554688 1299.367188 624.519531 C 1299.433594 624.332031 1299.550781 624.058594 1299.703125 623.710938 C 1299.871094 623.367188 1300.0625 622.945312 1300.339844 622.492188 C 1300.605469 622.03125 1300.945312 621.535156 1301.339844 621.011719 C 1301.742188 620.496094 1302.207031 619.949219 1302.742188 619.425781 C 1303.019531 619.167969 1303.304688 618.910156 1303.59375 618.640625 C 1303.898438 618.386719 1304.234375 618.160156 1304.566406 617.914062 C 1305.199219 617.378906 1305.996094 617.046875 1306.734375 616.59375 C 1307.539062 616.285156 1308.328125 615.871094 1309.179688 615.640625 C 1310.035156 615.425781 1310.875 615.117188 1311.742188 615.042969 C 1312.605469 614.929688 1313.445312 614.738281 1314.28125 614.757812 C 1315.113281 614.75 1315.917969 614.679688 1316.679688 614.714844 C 1317.4375 614.773438 1318.160156 614.828125 1318.820312 614.882812 C 1319.492188 614.90625 1320.089844 615.019531 1320.625 615.117188 C 1321.160156 615.207031 1321.625 615.289062 1322.007812 615.355469 C 1322.773438 615.488281 1323.210938 615.5625 1323.210938 615.5625 C 1323.210938 615.5625 1322.777344 615.480469 1322.011719 615.328125 C 1321.632812 615.253906 1321.167969 615.164062 1320.632812 615.058594 C 1320.101562 614.949219 1319.5 614.828125 1318.832031 614.785156 C 1318.167969 614.722656 1317.445312 614.652344 1316.6875 614.574219 C 1315.921875 614.523438 1315.109375 614.578125 1314.277344 614.570312 C 1313.433594 614.53125 1312.578125 614.707031 1311.707031 614.800781 C 1310.820312 614.863281 1309.964844 615.15625 1309.09375 615.355469 C 1308.222656 615.566406 1307.410156 615.96875 1306.578125 616.273438 C 1305.816406 616.71875 1304.996094 617.046875 1304.332031 617.574219 C 1303.988281 617.820312 1303.636719 618.046875 1303.316406 618.304688 C 1303.011719 618.574219 1302.714844 618.835938 1302.425781 619.09375 C 1301.859375 619.625 1301.367188 620.171875 1300.941406 620.699219 C 1300.519531 621.230469 1300.15625 621.734375 1299.878906 622.210938 C 1299.574219 622.675781 1299.367188 623.113281 1299.179688 623.46875 C 1299.066406 623.714844 1298.980469 623.910156 1298.90625 624.085938 C 1296.921875 621.707031 1294.898438 619.328125 1292.710938 617.09375 C 1285.507812 609.558594 1277.222656 603.152344 1268.667969 597.933594 C 1268.785156 597.703125 1268.984375 597.304688 1269.304688 596.738281 C 1269.808594 595.847656 1270.578125 594.585938 1271.632812 593.164062 C 1272.699219 591.757812 1274.035156 590.171875 1275.691406 588.710938 C 1276.503906 587.960938 1277.417969 587.273438 1278.371094 586.613281 C 1279.339844 585.988281 1280.351562 585.371094 1281.433594 584.898438 C 1282.503906 584.402344 1283.621094 584.023438 1284.746094 583.734375 C 1285.875 583.472656 1287.007812 583.273438 1288.109375 583.226562 C 1288.664062 583.183594 1289.207031 583.164062 1289.742188 583.195312 C 1290.273438 583.199219 1290.792969 583.21875 1291.296875 583.289062 C 1292.316406 583.367188 1293.257812 583.578125 1294.128906 583.746094 C 1294.980469 583.996094 1295.78125 584.160156 1296.453125 584.425781 C 1297.132812 584.675781 1297.738281 584.851562 1298.203125 585.078125 C 1299.160156 585.492188 1299.703125 585.730469 1299.703125 585.730469 C 1299.703125 585.730469 1299.160156 585.484375 1298.21875 585.054688 C 1297.75 584.824219 1297.144531 584.632812 1296.46875 584.371094 C 1295.800781 584.09375 1295.003906 583.917969 1294.148438 583.652344 C 1293.273438 583.476562 1292.335938 583.242188 1291.3125 583.148438 C 1290.808594 583.070312 1290.285156 583.042969 1289.746094 583.027344 C 1289.207031 582.992188 1288.660156 583.003906 1288.101562 583.035156 C 1286.980469 583.066406 1285.835938 583.25 1284.6875 583.496094 C 1283.542969 583.769531 1282.402344 584.140625 1281.308594 584.628906 C 1280.203125 585.085938 1279.171875 585.695312 1278.171875 586.316406 C 1277.199219 586.972656 1276.257812 587.660156 1275.421875 588.40625 C 1273.71875 589.863281 1272.332031 591.445312 1271.230469 592.859375 C 1269.488281 595.132812 1268.492188 596.972656 1268.160156 597.628906 C 1265.796875 596.207031 1263.421875 594.851562 1261.039062 593.613281 C 1252.527344 589.195312 1244.019531 585.941406 1236.144531 583.527344 C 1236.265625 583.390625 1236.425781 583.210938 1236.640625 582.972656 C 1236.867188 582.714844 1237.144531 582.402344 1237.464844 582.039062 C 1237.789062 581.691406 1238.128906 581.265625 1238.550781 580.851562 C 1238.972656 580.4375 1239.425781 579.988281 1239.90625 579.511719 C 1240.371094 579.019531 1240.902344 578.546875 1241.46875 578.074219 C 1242.039062 577.605469 1242.582031 577.066406 1243.222656 576.628906 C 1243.859375 576.183594 1244.460938 575.667969 1245.140625 575.277344 C 1245.820312 574.882812 1246.460938 574.417969 1247.171875 574.109375 C 1247.519531 573.9375 1247.863281 573.769531 1248.207031 573.601562 C 1248.550781 573.445312 1248.910156 573.335938 1249.25 573.203125 C 1249.933594 572.914062 1250.640625 572.78125 1251.292969 572.601562 C 1251.960938 572.503906 1252.589844 572.375 1253.183594 572.382812 C 1253.769531 572.339844 1254.3125 572.398438 1254.789062 572.4375 C 1255.265625 572.515625 1255.675781 572.589844 1256.007812 572.695312 C 1256.671875 572.890625 1257.011719 573.09375 1257.011719 573.09375 C 1257.011719 573.09375 1256.675781 572.882812 1256.015625 572.671875 C 1255.683594 572.558594 1255.273438 572.472656 1254.796875 572.382812 C 1254.316406 572.332031 1253.777344 572.257812 1253.179688 572.289062 C 1252.582031 572.269531 1251.941406 572.382812 1251.265625 572.46875 C 1250.605469 572.632812 1249.886719 572.75 1249.191406 573.019531 C 1248.84375 573.148438 1248.472656 573.253906 1248.121094 573.402344 C 1247.773438 573.566406 1247.421875 573.726562 1247.066406 573.890625 C 1246.335938 574.1875 1245.679688 574.640625 1244.984375 575.023438 C 1244.28125 575.40625 1243.664062 575.910156 1243.011719 576.34375 C 1242.351562 576.769531 1241.789062 577.304688 1241.203125 577.761719 C 1240.621094 578.226562 1240.074219 578.691406 1239.585938 579.175781 C 1239.089844 579.644531 1238.621094 580.085938 1238.191406 580.496094 C 1237.753906 580.902344 1237.402344 581.328125 1237.066406 581.675781 C 1236.738281 582.027344 1236.449219 582.335938 1236.210938 582.59375 C 1235.839844 582.988281 1235.601562 583.246094 1235.511719 583.34375 C 1233.230469 582.65625 1230.996094 582.027344 1228.84375 581.480469 C 1223.957031 580.21875 1219.414062 579.339844 1215.378906 578.664062 C 1211.339844 577.996094 1207.796875 577.5625 1204.871094 577.273438 C 1199.023438 576.703125 1195.664062 576.71875 1195.664062 576.71875 C 1195.664062 576.71875 1199.023438 576.769531 1204.851562 577.457031 C 1207.769531 577.800781 1211.292969 578.308594 1215.308594 579.058594 C 1219.328125 579.796875 1223.824219 580.808594 1228.679688 582.097656 C 1237.519531 584.460938 1247.542969 587.964844 1257.640625 593.023438 C 1257.617188 593.066406 1257.597656 593.109375 1257.574219 593.164062 C 1257.367188 593.574219 1257.121094 594.191406 1256.804688 594.96875 C 1256.535156 595.765625 1256.140625 596.714844 1255.851562 597.851562 C 1255.703125 598.414062 1255.511719 599.011719 1255.367188 599.648438 C 1255.234375 600.289062 1255.089844 600.96875 1254.945312 601.671875 C 1254.769531 602.371094 1254.714844 603.125 1254.601562 603.890625 C 1254.515625 604.660156 1254.355469 605.449219 1254.339844 606.273438 C 1254.296875 607.101562 1254.25 607.945312 1254.207031 608.808594 C 1254.160156 609.671875 1254.238281 610.554688 1254.25 611.453125 C 1254.226562 613.253906 1254.546875 615.089844 1254.75 616.964844 C 1254.835938 617.90625 1255.117188 618.816406 1255.292969 619.753906 C 1255.507812 620.683594 1255.664062 621.628906 1255.933594 622.546875 C 1256.21875 623.460938 1256.511719 624.375 1256.800781 625.28125 C 1257.101562 626.183594 1257.332031 627.105469 1257.742188 627.960938 C 1258.109375 628.824219 1258.476562 629.683594 1258.839844 630.53125 C 1259.21875 631.371094 1259.519531 632.234375 1259.984375 633.007812 C 1260.839844 634.574219 1261.667969 636.09375 1262.457031 637.539062 C 1263.367188 638.902344 1264.230469 640.191406 1265.023438 641.382812 C 1265.425781 641.976562 1265.808594 642.546875 1266.171875 643.085938 C 1266.558594 643.613281 1266.964844 644.082031 1267.324219 644.535156 C 1268.058594 645.441406 1268.695312 646.226562 1269.21875 646.875 C 1270.269531 648.175781 1270.871094 648.914062 1270.871094 648.914062 C 1270.871094 648.914062 1270.277344 648.167969 1269.238281 646.859375 C 1268.71875 646.207031 1268.09375 645.410156 1267.367188 644.503906 C 1267.011719 644.042969 1266.613281 643.570312 1266.226562 643.042969 C 1265.871094 642.5 1265.496094 641.929688 1265.101562 641.332031 C 1264.316406 640.132812 1263.472656 638.839844 1262.574219 637.46875 C 1261.800781 636.023438 1260.992188 634.496094 1260.152344 632.921875 C 1259.695312 632.148438 1259.40625 631.285156 1259.039062 630.445312 C 1258.683594 629.597656 1258.328125 628.734375 1257.964844 627.871094 C 1257.566406 627.019531 1257.347656 626.097656 1257.058594 625.199219 C 1256.777344 624.289062 1256.5 623.378906 1256.21875 622.46875 C 1255.964844 621.554688 1255.816406 620.613281 1255.617188 619.6875 C 1255.449219 618.757812 1255.179688 617.847656 1255.101562 616.910156 C 1254.917969 615.046875 1254.621094 613.226562 1254.65625 611.441406 C 1254.652344 610.550781 1254.585938 609.671875 1254.640625 608.820312 C 1254.691406 607.964844 1254.746094 607.125 1254.800781 606.316406 C 1254.824219 605.496094 1254.984375 604.71875 1255.082031 603.957031 C 1255.199219 603.199219 1255.261719 602.457031 1255.441406 601.769531 C 1255.589844 601.074219 1255.738281 600.410156 1255.875 599.777344 C 1256.027344 599.148438 1256.21875 598.5625 1256.371094 598.007812 C 1256.667969 596.886719 1257.0625 595.957031 1257.335938 595.179688 C 1257.65625 594.414062 1257.902344 593.816406 1258.101562 593.425781 C 1258.128906 593.378906 1258.148438 593.335938 1258.167969 593.289062 C 1258.96875 593.695312 1259.769531 594.089844 1260.570312 594.511719 C 1268.871094 598.878906 1277.136719 604.382812 1284.628906 610.945312 C 1284.648438 612.171875 1284.722656 615.214844 1285.011719 619.292969 C 1285.125 620.625 1285.246094 622.070312 1285.371094 623.605469 C 1285.554688 625.132812 1285.660156 626.75 1285.890625 628.410156 C 1286.089844 630.070312 1286.304688 631.789062 1286.585938 633.527344 C 1286.832031 635.269531 1287.160156 637.027344 1287.496094 638.78125 C 1287.796875 640.546875 1288.25 642.277344 1288.628906 643.992188 C 1289.015625 645.707031 1289.546875 647.359375 1289.980469 648.980469 C 1290.472656 650.578125 1291.035156 652.101562 1291.527344 653.554688 C 1292.085938 654.984375 1292.679688 656.3125 1293.195312 657.546875 C 1293.753906 658.765625 1294.378906 659.824219 1294.875 660.792969 C 1295.34375 661.78125 1295.917969 662.539062 1296.351562 663.191406 C 1296.789062 663.835938 1297.136719 664.347656 1297.371094 664.691406 C 1297.386719 664.722656 1297.40625 664.742188 1297.425781 664.773438 C 1297.40625 664.742188 1297.394531 664.71875 1297.371094 664.6875 C 1297.136719 664.34375 1296.796875 663.832031 1296.363281 663.179688 C 1295.9375 662.53125 1295.371094 661.761719 1294.902344 660.777344 C 1294.417969 659.804688 1293.796875 658.742188 1293.25 657.519531 C 1292.742188 656.28125 1292.160156 654.953125 1291.609375 653.527344 C 1291.132812 652.066406 1290.582031 650.542969 1290.101562 648.941406 C 1289.679688 647.324219 1289.164062 645.671875 1288.789062 643.957031 C 1288.421875 642.238281 1287.980469 640.507812 1287.695312 638.742188 C 1287.367188 636.988281 1287.054688 635.234375 1286.824219 633.492188 C 1286.546875 631.757812 1286.351562 630.039062 1286.160156 628.378906 C 1285.949219 626.714844 1285.839844 625.101562 1285.699219 623.574219 C 1285.605469 622.046875 1285.507812 620.601562 1285.425781 619.261719 C 1285.246094 615.695312 1285.214844 612.933594 1285.214844 611.484375 C 1287.515625 613.523438 1289.746094 615.65625 1291.871094 617.898438 C 1296.507812 622.699219 1300.453125 628.136719 1305.027344 632.976562 C 1307.3125 635.457031 1309.660156 637.847656 1312.039062 640.140625 L 1312.027344 640.140625 C 1312.027344 640.140625 1312.253906 642.601562 1312.984375 646.203125 C 1313.160156 647.105469 1313.371094 648.078125 1313.617188 649.105469 C 1313.839844 650.132812 1314.144531 651.203125 1314.425781 652.316406 C 1314.738281 653.421875 1315.074219 654.558594 1315.433594 655.710938 C 1315.832031 656.851562 1316.171875 658.027344 1316.628906 659.164062 C 1317.0625 660.3125 1317.484375 661.460938 1317.980469 662.5625 C 1318.445312 663.675781 1318.929688 664.753906 1319.453125 665.78125 C 1319.703125 666.292969 1319.953125 666.796875 1320.199219 667.296875 C 1320.464844 667.777344 1320.726562 668.253906 1320.984375 668.710938 C 1321.503906 669.628906 1321.964844 670.507812 1322.484375 671.265625 C 1322.980469 672.039062 1323.4375 672.742188 1323.839844 673.371094 C 1324.289062 673.96875 1324.671875 674.488281 1324.992188 674.917969 C 1325.632812 675.777344 1326 676.261719 1326 676.261719 C 1326 676.261719 1325.640625 675.769531 1325.011719 674.902344 C 1324.703125 674.46875 1324.320312 673.945312 1323.886719 673.339844 C 1323.492188 672.707031 1323.046875 671.992188 1322.5625 671.214844 C 1322.058594 670.453125 1321.605469 669.566406 1321.105469 668.644531 C 1320.855469 668.183594 1320.601562 667.707031 1320.34375 667.222656 C 1320.109375 666.726562 1319.867188 666.214844 1319.625 665.695312 C 1319.117188 664.667969 1318.652344 663.582031 1318.207031 662.464844 C 1317.726562 661.367188 1317.324219 660.210938 1316.910156 659.066406 C 1316.472656 657.925781 1316.152344 656.746094 1315.773438 655.609375 C 1315.433594 654.457031 1315.113281 653.3125 1314.820312 652.210938 C 1314.554688 651.097656 1314.269531 650.03125 1314.066406 649.003906 C 1313.835938 647.980469 1313.644531 647.007812 1313.480469 646.109375 C 1313.015625 643.601562 1312.785156 641.691406 1312.6875 640.746094 C 1314.773438 642.734375 1316.886719 644.660156 1319.027344 646.480469 C 1323.832031 650.574219 1328.726562 654.25 1333.605469 657.359375 C 1333.820312 657.5 1334.035156 657.625 1334.246094 657.757812 L 1334.011719 657.828125 C 1334.011719 657.828125 1334.199219 658.332031 1334.53125 659.21875 C 1334.617188 659.4375 1334.710938 659.679688 1334.8125 659.945312 C 1334.933594 660.199219 1335.070312 660.476562 1335.214844 660.769531 C 1335.511719 661.351562 1335.796875 662.035156 1336.222656 662.71875 C 1336.636719 663.402344 1337.03125 664.179688 1337.554688 664.9375 C 1338.0625 665.699219 1338.566406 666.523438 1339.167969 667.324219 C 1340.320312 668.957031 1341.613281 670.652344 1342.972656 672.285156 C 1348.355469 678.894531 1354.554688 684.734375 1354.554688 684.734375 C 1354.554688 684.734375 1348.460938 678.78125 1343.203125 672.101562 C 1341.875 670.445312 1340.621094 668.734375 1339.5 667.09375 C 1338.917969 666.285156 1338.433594 665.457031 1337.941406 664.6875 C 1337.4375 663.933594 1337.0625 663.15625 1336.667969 662.476562 C 1336.257812 661.792969 1335.988281 661.117188 1335.703125 660.539062 C 1335.570312 660.25 1335.445312 659.976562 1335.324219 659.726562 C 1335.230469 659.464844 1335.144531 659.226562 1335.070312 659.011719 C 1334.921875 658.601562 1334.8125 658.285156 1334.730469 658.054688 C 1339.210938 660.871094 1343.636719 663.285156 1347.851562 665.269531 C 1352.417969 667.417969 1356.738281 669.109375 1360.648438 670.332031 C 1364.558594 671.570312 1368.035156 672.414062 1370.914062 672.980469 C 1376.695312 674.105469 1380.074219 674.113281 1380.074219 674.113281 C 1380.074219 674.113281 1376.699219 674.023438 1370.960938 672.765625 Z M 1034.695312 501.625 C 1034.636719 501.613281 1034.570312 501.609375 1034.519531 501.601562 C 1034.570312 501.605469 1034.636719 501.617188 1034.695312 501.625 Z M 1034.242188 501.242188 L 1034.136719 501.875 C 1034.132812 501.890625 1034.21875 501.695312 1034.339844 501.613281 C 1034.390625 501.589844 1034.453125 501.59375 1034.519531 501.601562 C 1034.453125 501.59375 1034.390625 501.585938 1034.351562 501.542969 C 1034.261719 501.4375 1034.242188 501.230469 1034.242188 501.242188 Z M 1157.992188 546.683594 C 1161.660156 551.992188 1163.519531 555.175781 1163.519531 555.175781 C 1163.519531 555.175781 1161.597656 552.027344 1157.832031 546.800781 C 1155.949219 544.183594 1153.597656 541.054688 1150.792969 537.554688 C 1147.996094 534.046875 1144.714844 530.191406 1141.015625 526.097656 C 1134.730469 519.164062 1127.117188 511.601562 1118.234375 504.40625 C 1118.210938 504.4375 1118.195312 504.449219 1118.160156 504.484375 C 1117.992188 504.667969 1117.753906 504.902344 1117.429688 505.203125 C 1117.105469 505.5 1116.714844 505.851562 1116.238281 506.222656 C 1115.773438 506.609375 1115.222656 507.003906 1114.621094 507.429688 C 1113.410156 508.273438 1111.929688 509.15625 1110.292969 509.992188 C 1109.472656 510.398438 1108.613281 510.800781 1107.730469 511.1875 C 1106.832031 511.53125 1105.945312 511.941406 1105.015625 512.238281 C 1104.085938 512.542969 1103.179688 512.902344 1102.246094 513.140625 C 1101.316406 513.386719 1100.425781 513.6875 1099.527344 513.875 C 1098.636719 514.074219 1097.777344 514.265625 1096.964844 514.453125 C 1096.140625 514.59375 1095.363281 514.722656 1094.640625 514.847656 C 1093.214844 515.125 1091.996094 515.199219 1091.15625 515.320312 C 1090.308594 515.417969 1089.828125 515.472656 1089.828125 515.472656 C 1089.828125 515.472656 1090.308594 515.398438 1091.148438 515.269531 C 1091.988281 515.117188 1093.195312 515.003906 1094.613281 514.675781 C 1095.320312 514.53125 1096.097656 514.371094 1096.910156 514.203125 C 1097.714844 513.988281 1098.566406 513.765625 1099.4375 513.535156 C 1100.324219 513.320312 1101.203125 512.988281 1102.113281 512.710938 C 1103.027344 512.445312 1103.910156 512.058594 1104.820312 511.726562 C 1105.730469 511.398438 1106.589844 510.960938 1107.464844 510.589844 C 1108.316406 510.179688 1109.152344 509.757812 1109.941406 509.328125 C 1111.519531 508.449219 1112.929688 507.539062 1114.078125 506.675781 C 1114.644531 506.242188 1115.164062 505.839844 1115.597656 505.457031 C 1116.039062 505.078125 1116.40625 504.734375 1116.699219 504.445312 C 1116.988281 504.152344 1117.21875 503.914062 1117.347656 503.757812 C 1117.367188 503.738281 1117.375 503.730469 1117.390625 503.710938 C 1116.074219 502.660156 1114.734375 501.617188 1113.367188 500.589844 C 1104.402344 493.792969 1094.175781 487.523438 1083.101562 483 C 1082.140625 483.722656 1079.84375 485.417969 1076.660156 487.496094 C 1072.398438 490.25 1066.589844 493.769531 1060.402344 496.523438 C 1058.859375 497.21875 1057.300781 497.875 1055.734375 498.449219 C 1054.175781 499.042969 1052.621094 499.554688 1051.101562 500.011719 C 1049.578125 500.457031 1048.089844 500.820312 1046.664062 501.121094 C 1045.949219 501.246094 1045.253906 501.375 1044.578125 501.496094 C 1043.902344 501.582031 1043.246094 501.664062 1042.617188 501.75 C 1041.355469 501.863281 1040.191406 501.949219 1039.164062 501.9375 C 1038.128906 501.96875 1037.234375 501.875 1036.496094 501.839844 C 1035.757812 501.789062 1035.183594 501.683594 1034.792969 501.636719 C 1034.753906 501.632812 1034.730469 501.628906 1034.695312 501.625 C 1034.730469 501.628906 1034.753906 501.628906 1034.792969 501.636719 C 1035.183594 501.671875 1035.761719 501.78125 1036.496094 501.824219 C 1037.238281 501.855469 1038.132812 501.941406 1039.160156 501.894531 C 1040.191406 501.902344 1041.347656 501.804688 1042.609375 501.683594 C 1043.238281 501.59375 1043.890625 501.507812 1044.566406 501.414062 C 1045.238281 501.289062 1045.929688 501.15625 1046.640625 501.027344 C 1048.0625 500.714844 1049.542969 500.34375 1051.0625 499.878906 C 1052.574219 499.414062 1054.125 498.890625 1055.671875 498.289062 C 1057.230469 497.699219 1058.78125 497.035156 1060.316406 496.328125 C 1063.390625 494.925781 1066.371094 493.34375 1069.113281 491.753906 C 1071.855469 490.175781 1074.332031 488.558594 1076.414062 487.125 C 1079.277344 485.160156 1081.371094 483.558594 1082.425781 482.726562 C 1080.183594 481.832031 1077.917969 480.996094 1075.609375 480.25 C 1068.671875 477.878906 1061.371094 476.929688 1054.324219 474.914062 C 1050.914062 473.988281 1047.566406 472.945312 1044.292969 471.808594 C 1044.175781 471.878906 1042.214844 473.066406 1039.113281 474.421875 C 1038.316406 474.777344 1037.441406 475.140625 1036.511719 475.5 C 1035.585938 475.886719 1034.582031 476.199219 1033.554688 476.574219 C 1032.515625 476.898438 1031.441406 477.246094 1030.335938 477.542969 C 1029.222656 477.816406 1028.109375 478.148438 1026.964844 478.351562 C 1025.824219 478.59375 1024.6875 478.816406 1023.550781 478.957031 C 1022.984375 479.039062 1022.421875 479.113281 1021.867188 479.195312 C 1021.308594 479.238281 1020.757812 479.28125 1020.214844 479.328125 C 1019.671875 479.367188 1019.140625 479.40625 1018.617188 479.445312 C 1018.09375 479.453125 1017.582031 479.457031 1017.082031 479.460938 C 1016.082031 479.480469 1015.140625 479.488281 1014.273438 479.40625 C 1013.40625 479.347656 1012.605469 479.289062 1011.902344 479.238281 C 1011.207031 479.136719 1010.597656 479.042969 1010.09375 478.96875 C 1009.089844 478.816406 1008.519531 478.730469 1008.519531 478.730469 C 1008.519531 478.730469 1009.09375 478.804688 1010.097656 478.9375 C 1010.597656 479.007812 1011.210938 479.085938 1011.910156 479.183594 C 1012.617188 479.21875 1013.40625 479.257812 1014.277344 479.304688 C 1015.144531 479.375 1016.082031 479.347656 1017.078125 479.316406 C 1017.574219 479.300781 1018.085938 479.285156 1018.605469 479.273438 C 1019.125 479.222656 1019.65625 479.171875 1020.199219 479.121094 C 1020.734375 479.070312 1021.285156 479.019531 1021.839844 478.964844 C 1022.390625 478.878906 1022.949219 478.785156 1023.511719 478.695312 C 1024.636719 478.542969 1025.769531 478.296875 1026.894531 478.039062 C 1028.03125 477.816406 1029.136719 477.46875 1030.234375 477.175781 C 1031.324219 476.863281 1032.382812 476.5 1033.414062 476.160156 C 1034.421875 475.769531 1035.414062 475.441406 1036.328125 475.042969 C 1037.25 474.671875 1038.109375 474.296875 1038.890625 473.929688 C 1041.148438 472.890625 1042.769531 471.976562 1043.515625 471.53125 C 1040.3125 470.402344 1037.1875 469.175781 1034.160156 467.855469 C 1028.171875 465.253906 1022.554688 462.332031 1017.402344 459.207031 L 1017.472656 459.441406 C 1017.472656 459.441406 1016.949219 459.550781 1016.03125 459.742188 C 1015.578125 459.863281 1015.011719 459.914062 1014.367188 459.957031 C 1013.71875 460.011719 1012.996094 460.085938 1012.203125 460.050781 C 1011.40625 460.046875 1010.550781 460.058594 1009.648438 459.96875 C 1008.746094 459.902344 1007.792969 459.835938 1006.816406 459.691406 C 1005.839844 459.582031 1004.828125 459.433594 1003.8125 459.242188 C 1002.792969 459.082031 1001.765625 458.871094 1000.734375 458.65625 C 992.503906 456.953125 984.609375 454.078125 984.609375 454.078125 C 984.609375 454.078125 992.558594 456.804688 1000.796875 458.34375 C 1001.828125 458.535156 1002.855469 458.730469 1003.875 458.867188 C 1004.890625 459.035156 1005.894531 459.164062 1006.871094 459.257812 C 1007.839844 459.382812 1008.785156 459.433594 1009.675781 459.472656 C 1010.570312 459.550781 1011.417969 459.519531 1012.195312 459.511719 C 1012.976562 459.53125 1013.683594 459.445312 1014.3125 459.378906 C 1014.9375 459.324219 1015.484375 459.261719 1015.914062 459.140625 C 1016.34375 459.042969 1016.675781 458.964844 1016.910156 458.914062 C 1016.757812 458.824219 1016.59375 458.730469 1016.445312 458.636719 C 1011.03125 455.304688 1006.140625 451.804688 1001.828125 448.324219 C 993.195312 441.359375 986.9375 434.503906 982.886719 429.492188 C 978.828125 424.464844 976.949219 421.277344 976.949219 421.277344 C 976.949219 421.277344 978.90625 424.417969 983.070312 429.339844 C 987.214844 434.261719 993.664062 440.878906 1002.308594 447.722656 C 1003.339844 448.535156 1004.414062 449.34375 1005.511719 450.15625 C 1005.5 449.929688 1005.488281 449.675781 1005.46875 449.359375 C 1005.445312 448.867188 1005.433594 448.28125 1005.296875 447.609375 C 1005.171875 446.941406 1005.089844 446.175781 1004.894531 445.367188 C 1004.675781 444.554688 1004.476562 443.667969 1004.203125 442.746094 C 1003.890625 441.835938 1003.601562 440.859375 1003.226562 439.875 C 1002.820312 438.90625 1002.464844 437.875 1001.996094 436.875 C 1001.53125 435.867188 1001.089844 434.835938 1000.570312 433.835938 C 999.582031 431.816406 998.476562 429.851562 997.414062 428.03125 C 996.34375 426.207031 995.28125 424.546875 994.351562 423.136719 C 992.484375 420.320312 991.113281 418.527344 991.113281 418.527344 C 991.113281 418.527344 992.515625 420.296875 994.4375 423.078125 C 995.390625 424.472656 996.480469 426.121094 997.582031 427.925781 C 998.6875 429.730469 999.828125 431.679688 1000.851562 433.691406 C 1001.394531 434.683594 1001.859375 435.714844 1002.339844 436.714844 C 1002.832031 437.714844 1003.210938 438.746094 1003.632812 439.71875 C 1004.03125 440.703125 1004.339844 441.683594 1004.675781 442.597656 C 1004.96875 443.527344 1005.1875 444.425781 1005.421875 445.242188 C 1005.636719 446.066406 1005.734375 446.847656 1005.867188 447.527344 C 1006.023438 448.203125 1006.046875 448.8125 1006.078125 449.3125 C 1006.125 449.949219 1006.15625 450.386719 1006.171875 450.636719 C 1014.152344 456.457031 1023.773438 462.144531 1034.613281 466.808594 C 1035.441406 467.164062 1036.292969 467.496094 1037.136719 467.839844 C 1037.175781 467.1875 1037.242188 465.457031 1037.074219 463.085938 C 1037.03125 462.332031 1036.945312 461.511719 1036.84375 460.644531 C 1036.757812 459.78125 1036.585938 458.875 1036.449219 457.9375 C 1036.246094 457.007812 1036.101562 456.03125 1035.835938 455.070312 C 1035.589844 454.101562 1035.347656 453.113281 1035.019531 452.152344 L 1034.554688 450.703125 C 1034.367188 450.234375 1034.1875 449.765625 1034.007812 449.296875 C 1033.671875 448.351562 1033.238281 447.46875 1032.835938 446.609375 C 1032.457031 445.730469 1031.988281 444.9375 1031.5625 444.175781 C 1031.347656 443.792969 1031.140625 443.421875 1030.9375 443.0625 C 1030.714844 442.722656 1030.492188 442.390625 1030.28125 442.074219 C 1029.847656 441.445312 1029.476562 440.851562 1029.105469 440.355469 C 1028.71875 439.867188 1028.378906 439.449219 1028.105469 439.097656 C 1027.546875 438.402344 1027.226562 438.007812 1027.226562 438.007812 C 1027.226562 438.007812 1027.554688 438.398438 1028.125 439.085938 C 1028.410156 439.425781 1028.757812 439.839844 1029.152344 440.320312 C 1029.535156 440.808594 1029.917969 441.398438 1030.363281 442.019531 C 1030.578125 442.332031 1030.808594 442.660156 1031.046875 443 C 1031.253906 443.355469 1031.46875 443.722656 1031.6875 444.097656 C 1032.132812 444.859375 1032.621094 445.644531 1033.015625 446.519531 C 1033.441406 447.378906 1033.894531 448.261719 1034.25 449.199219 C 1034.441406 449.667969 1034.632812 450.136719 1034.824219 450.605469 L 1035.324219 452.050781 C 1035.671875 453.015625 1035.9375 454.003906 1036.203125 454.976562 C 1036.488281 455.941406 1036.65625 456.917969 1036.878906 457.855469 C 1037.035156 458.800781 1037.222656 459.710938 1037.335938 460.585938 C 1037.449219 461.453125 1037.554688 462.28125 1037.613281 463.046875 C 1037.863281 465.757812 1037.785156 467.6875 1037.761719 468.089844 C 1043.15625 470.261719 1048.8125 472.160156 1054.644531 473.722656 C 1056.394531 474.15625 1058.132812 474.632812 1059.914062 475.035156 C 1061.203125 475.3125 1062.496094 475.589844 1063.792969 475.871094 C 1063.8125 475.839844 1063.824219 475.820312 1063.84375 475.785156 C 1063.957031 475.585938 1064.101562 475.261719 1064.289062 474.859375 C 1064.449219 474.4375 1064.667969 473.9375 1064.835938 473.328125 C 1065.042969 472.734375 1065.171875 472.035156 1065.34375 471.277344 C 1065.445312 470.511719 1065.601562 469.679688 1065.617188 468.789062 C 1065.703125 467.898438 1065.636719 466.960938 1065.597656 465.988281 C 1065.511719 465.019531 1065.382812 464.015625 1065.191406 463.011719 C 1064.9375 462.019531 1064.773438 460.980469 1064.398438 460.007812 C 1064.066406 459.019531 1063.753906 458.023438 1063.300781 457.09375 C 1062.875 456.160156 1062.5 455.21875 1061.984375 454.375 C 1061.5 453.53125 1061.078125 452.675781 1060.585938 451.921875 C 1060.082031 451.175781 1059.605469 450.472656 1059.167969 449.820312 C 1058.746094 449.152344 1058.292969 448.59375 1057.894531 448.09375 C 1057.496094 447.597656 1057.148438 447.160156 1056.863281 446.800781 C 1056.292969 446.082031 1055.96875 445.671875 1055.96875 445.671875 C 1055.96875 445.671875 1056.300781 446.074219 1056.886719 446.785156 C 1057.175781 447.136719 1057.53125 447.566406 1057.9375 448.058594 C 1058.351562 448.550781 1058.816406 449.101562 1059.246094 449.757812 C 1059.699219 450.40625 1060.191406 451.101562 1060.707031 451.84375 C 1061.214844 452.585938 1061.65625 453.4375 1062.164062 454.28125 C 1062.695312 455.117188 1063.097656 456.054688 1063.535156 456.992188 C 1064.015625 457.914062 1064.347656 458.914062 1064.703125 459.90625 C 1065.101562 460.886719 1065.289062 461.929688 1065.5625 462.933594 C 1065.78125 463.949219 1065.925781 464.964844 1066.035156 465.949219 C 1066.097656 466.9375 1066.179688 467.902344 1066.109375 468.8125 C 1066.109375 469.726562 1065.96875 470.578125 1065.878906 471.371094 C 1065.714844 472.152344 1065.59375 472.875 1065.394531 473.496094 C 1065.230469 474.125 1065.015625 474.652344 1064.855469 475.089844 C 1064.683594 475.484375 1064.554688 475.785156 1064.4375 476.015625 C 1064.714844 476.074219 1064.996094 476.132812 1065.273438 476.195312 C 1068.890625 476.949219 1072.472656 477.917969 1075.992188 479.074219 C 1085.527344 482.191406 1094.515625 486.691406 1102.734375 491.871094 C 1102.851562 491.578125 1103.03125 491.117188 1103.253906 490.46875 C 1103.640625 489.328125 1104.140625 487.679688 1104.550781 485.65625 C 1104.972656 483.632812 1105.292969 481.234375 1105.363281 478.652344 C 1105.394531 477.363281 1105.363281 476.023438 1105.238281 474.675781 C 1105.140625 473.320312 1104.90625 471.960938 1104.632812 470.613281 C 1104.335938 469.261719 1103.960938 467.933594 1103.492188 466.660156 C 1103.023438 465.386719 1102.496094 464.152344 1101.878906 463.011719 C 1101.582031 462.441406 1101.28125 461.875 1100.941406 461.355469 C 1100.613281 460.824219 1100.300781 460.296875 1099.945312 459.824219 C 1099.28125 458.835938 1098.554688 457.972656 1097.898438 457.171875 C 1097.191406 456.417969 1096.570312 455.6875 1095.949219 455.117188 C 1095.328125 454.550781 1094.820312 454.015625 1094.339844 453.640625 C 1093.410156 452.867188 1092.875 452.425781 1092.875 452.425781 C 1092.875 452.425781 1093.414062 452.859375 1094.359375 453.617188 C 1094.84375 453.988281 1095.359375 454.519531 1095.992188 455.078125 C 1096.625 455.636719 1097.253906 456.359375 1097.972656 457.109375 C 1098.648438 457.902344 1099.386719 458.753906 1100.066406 459.734375 C 1100.429688 460.207031 1100.75 460.730469 1101.089844 461.261719 C 1101.441406 461.78125 1101.746094 462.34375 1102.058594 462.914062 C 1102.695312 464.058594 1103.246094 465.289062 1103.734375 466.566406 C 1104.226562 467.84375 1104.621094 469.183594 1104.941406 470.539062 C 1105.242188 471.898438 1105.5 473.269531 1105.617188 474.636719 C 1105.765625 476.003906 1105.8125 477.351562 1105.800781 478.660156 C 1105.765625 481.273438 1105.480469 483.707031 1105.082031 485.757812 C 1104.445312 489.113281 1103.578125 491.464844 1103.28125 492.214844 C 1107.03125 494.601562 1110.621094 497.125 1114.023438 499.726562 C 1121.125 505.183594 1127.449219 510.945312 1133.023438 516.574219 C 1133.273438 515.933594 1133.644531 514.925781 1134.046875 513.632812 C 1134.390625 512.496094 1134.789062 511.160156 1135.105469 509.710938 C 1135.449219 508.261719 1135.710938 506.695312 1135.929688 505.121094 C 1135.996094 504.328125 1136.101562 503.539062 1136.136719 502.757812 C 1136.152344 501.980469 1136.234375 501.207031 1136.195312 500.464844 C 1136.160156 499.722656 1136.195312 498.992188 1136.097656 498.316406 C 1136.015625 497.636719 1135.988281 496.988281 1135.871094 496.402344 C 1135.761719 495.816406 1135.65625 495.277344 1135.566406 494.796875 C 1135.464844 494.324219 1135.320312 493.925781 1135.222656 493.589844 C 1135.027344 492.917969 1134.910156 492.535156 1134.910156 492.535156 C 1134.910156 492.535156 1135.039062 492.910156 1135.269531 493.574219 C 1135.378906 493.910156 1135.542969 494.300781 1135.664062 494.777344 C 1135.78125 495.25 1135.90625 495.789062 1136.042969 496.371094 C 1136.1875 496.957031 1136.238281 497.605469 1136.351562 498.289062 C 1136.480469 498.972656 1136.476562 499.699219 1136.542969 500.449219 C 1136.617188 501.207031 1136.566406 501.984375 1136.582031 502.777344 C 1136.582031 503.570312 1136.507812 504.367188 1136.472656 505.175781 C 1136.328125 506.777344 1136.125 508.378906 1135.84375 509.859375 C 1135.585938 511.347656 1135.242188 512.71875 1134.945312 513.890625 C 1134.488281 515.597656 1134.054688 516.863281 1133.859375 517.429688 C 1136.59375 520.222656 1139.164062 522.984375 1141.523438 525.644531 C 1145.195312 529.78125 1148.375 533.738281 1151.121094 537.292969 C 1153.863281 540.855469 1156.15625 544.03125 1157.992188 546.683594 " fill-opacity="1" fill-rule="nonzero"/></g></g></g></g><g clip-path="url(#015d002908)"><g clip-path="url(#533e159186)"><g clip-path="url(#0738d5b390)"><g clip-path="url(#c99e1421bc)"><g clip-path="url(#3ab1a55be5)"><g clip-path="url(#a3f07ebd0e)"><path fill="#216b39" d="M 252.46875 19.347656 C 252.46875 19.347656 210.003906 4.070312 186.402344 25.714844 C 162.796875 47.355469 151.0625 79.503906 142.988281 79.851562 C 138.324219 80.054688 126.214844 71.644531 124.652344 70.378906 C 123.0625 69.074219 121.125 67.488281 118.972656 65.585938 C 116.808594 63.703125 114.421875 61.515625 111.859375 59.085938 C 110.597656 57.851562 109.253906 56.59375 107.925781 55.230469 C 107.253906 54.554688 106.574219 53.867188 105.882812 53.171875 C 105.207031 52.460938 104.519531 51.742188 103.824219 51.007812 C 102.414062 49.558594 101.042969 48 99.613281 46.4375 C 98.207031 44.851562 96.785156 43.21875 95.367188 41.535156 C 93.980469 39.832031 92.523438 38.136719 91.15625 36.332031 C 90.460938 35.4375 89.761719 34.542969 89.0625 33.640625 C 88.386719 32.71875 87.707031 31.792969 87.027344 30.863281 C 85.640625 29.023438 84.367188 27.082031 83.046875 25.164062 C 82.371094 24.214844 81.773438 23.214844 81.144531 22.234375 L 79.269531 19.277344 L 77.507812 16.261719 C 76.921875 15.253906 76.316406 14.261719 75.789062 13.230469 C 74.714844 11.179688 73.570312 9.171875 72.625 7.09375 C 72.128906 6.066406 71.636719 5.039062 71.148438 4.019531 C 70.671875 2.996094 70.253906 1.949219 69.8125 0.921875 C 69.378906 -0.105469 68.925781 -1.121094 68.519531 -2.140625 C 68.140625 -3.171875 67.761719 -4.195312 67.386719 -5.214844 C 67.027344 -6.230469 66.605469 -7.222656 66.304688 -8.242188 C 65.992188 -9.253906 65.679688 -10.257812 65.371094 -11.246094 C 64.703125 -13.214844 64.25 -15.195312 63.765625 -17.109375 C 63.539062 -18.066406 63.253906 -19 63.085938 -19.941406 C 62.910156 -20.878906 62.734375 -21.804688 62.558594 -22.714844 C 62.386719 -23.621094 62.214844 -24.515625 62.050781 -25.390625 C 61.9375 -26.273438 61.828125 -27.140625 61.71875 -27.992188 C 61.609375 -28.839844 61.503906 -29.671875 61.402344 -30.484375 C 61.355469 -30.890625 61.289062 -31.289062 61.253906 -31.683594 C 61.230469 -32.085938 61.207031 -32.476562 61.183594 -32.867188 C 61.089844 -34.421875 60.996094 -35.890625 60.910156 -37.277344 C 60.84375 -37.964844 60.894531 -38.636719 60.882812 -39.285156 C 60.890625 -39.929688 60.890625 -40.554688 60.898438 -41.152344 C 60.910156 -42.347656 60.890625 -43.449219 60.929688 -44.4375 C 61.226562 -48.390625 61.394531 -50.648438 61.394531 -50.648438 L 61.417969 -50.945312 C 61.597656 -53.347656 59.800781 -55.445312 57.402344 -55.632812 C 55.007812 -55.8125 52.917969 -54.015625 52.738281 -51.613281 C 52.734375 -51.550781 52.726562 -51.476562 52.726562 -51.414062 C 52.726562 -51.414062 52.652344 -48.941406 52.523438 -44.609375 C 52.53125 -43.527344 52.601562 -42.328125 52.644531 -41.027344 C 52.671875 -40.375 52.699219 -39.695312 52.726562 -38.992188 C 52.769531 -38.292969 52.753906 -37.5625 52.855469 -36.816406 C 53.015625 -35.320312 53.1875 -33.730469 53.367188 -32.054688 C 53.410156 -31.636719 53.457031 -31.210938 53.503906 -30.78125 C 53.5625 -30.351562 53.644531 -29.921875 53.71875 -29.488281 C 53.871094 -28.617188 54.023438 -27.730469 54.179688 -26.816406 C 54.339844 -25.910156 54.5 -24.984375 54.667969 -24.039062 C 54.886719 -23.105469 55.113281 -22.15625 55.339844 -21.191406 C 55.570312 -20.226562 55.804688 -19.246094 56.042969 -18.25 C 56.265625 -17.25 56.613281 -16.269531 56.902344 -15.257812 C 57.507812 -13.246094 58.089844 -11.164062 58.886719 -9.109375 C 59.261719 -8.074219 59.640625 -7.027344 60.023438 -5.972656 C 60.390625 -4.910156 60.878906 -3.886719 61.304688 -2.828125 C 61.75 -1.78125 62.195312 -0.722656 62.644531 0.347656 C 63.121094 1.398438 63.640625 2.445312 64.144531 3.5 C 64.660156 4.554688 65.144531 5.625 65.6875 6.675781 C 66.246094 7.714844 66.808594 8.761719 67.371094 9.8125 C 68.460938 11.933594 69.742188 13.964844 70.953125 16.039062 C 71.550781 17.085938 72.222656 18.082031 72.871094 19.097656 L 74.835938 22.132812 L 76.902344 25.09375 C 77.601562 26.070312 78.261719 27.074219 79 28.019531 C 80.445312 29.925781 81.84375 31.855469 83.347656 33.679688 C 84.085938 34.601562 84.828125 35.515625 85.558594 36.425781 C 86.316406 37.3125 87.070312 38.199219 87.824219 39.082031 C 89.300781 40.859375 90.867188 42.519531 92.359375 44.195312 C 93.878906 45.839844 95.402344 47.4375 96.902344 48.984375 C 98.429688 50.507812 99.894531 52.027344 101.386719 53.429688 C 102.128906 54.140625 102.859375 54.839844 103.578125 55.53125 C 104.3125 56.207031 105.035156 56.867188 105.742188 57.523438 C 107.152344 58.84375 108.566406 60.054688 109.898438 61.246094 C 112.601562 63.585938 115.117188 65.6875 117.394531 67.492188 C 119.65625 69.3125 121.679688 70.828125 123.351562 72.074219 C 124.769531 73.125 125.949219 73.960938 126.835938 74.578125 C 126.835938 74.578125 127.488281 88.136719 124.886719 93.148438 C 120.390625 101.820312 88.308594 98.574219 58.507812 113.601562 C 28.710938 128.628906 18.855469 182.820312 18.855469 182.820312 C 18.855469 182.820312 43.269531 177.320312 73.097656 171.957031 C 111.386719 165.070312 124.933594 111.683594 127.660156 96.195312 C 129.289062 86.925781 129.460938 80.332031 129.335938 76.523438 C 131.960938 78.378906 136.679688 81.226562 143.921875 83.890625 C 156.023438 88.34375 199.53125 99.726562 221.117188 66.253906 C 237.929688 40.183594 252.46875 19.347656 252.46875 19.347656 " fill-opacity="1" fill-rule="nonzero"/></g></g></g></g></g></g><g clip-path="url(#26568ce420)"><g clip-path="url(#0ff43905b0)"><g clip-path="url(#957f2ed2d8)"><g clip-path="url(#e7700d3305)"><path fill="#2d9d49" d="M 167.648438 62.6875 C 167.582031 62.957031 167.507812 63.261719 167.429688 63.597656 C 167.335938 63.929688 167.296875 64.300781 167.230469 64.6875 C 167.160156 65.074219 167.121094 65.484375 167.085938 65.914062 C 167.039062 66.339844 167.03125 66.785156 167.019531 67.234375 C 166.996094 67.683594 167.023438 68.140625 167.03125 68.597656 C 167.066406 69.511719 167.15625 70.417969 167.28125 71.269531 C 167.40625 72.113281 167.558594 72.898438 167.710938 73.566406 C 168.015625 74.902344 168.320312 75.757812 168.320312 75.757812 L 168.003906 75.863281 C 168.003906 75.863281 167.710938 74.976562 167.4375 73.625 C 167.296875 72.949219 167.160156 72.15625 167.054688 71.296875 C 166.949219 70.441406 166.878906 69.523438 166.867188 68.601562 C 166.867188 68.140625 166.847656 67.679688 166.882812 67.226562 C 166.90625 66.777344 166.921875 66.332031 166.980469 65.90625 C 167.027344 65.476562 167.074219 65.0625 167.15625 64.675781 C 167.230469 64.285156 167.277344 63.917969 167.378906 63.585938 C 167.464844 63.253906 167.546875 62.949219 167.617188 62.675781 C 167.707031 62.414062 167.789062 62.183594 167.859375 61.996094 C 167.992188 61.617188 168.070312 61.402344 168.070312 61.402344 C 168.070312 61.402344 167.996094 61.617188 167.871094 62 C 167.808594 62.191406 167.734375 62.421875 167.648438 62.6875 Z M 197.8125 29.832031 L 198.085938 30.019531 C 198.09375 30.023438 197.992188 29.992188 197.917969 30.015625 C 197.890625 30.027344 197.871094 30.058594 197.851562 30.09375 C 197.871094 30.058594 197.890625 30.027344 197.890625 29.992188 C 197.878906 29.914062 197.808594 29.828125 197.8125 29.832031 Z M 197.792969 30.183594 C 197.816406 30.152344 197.835938 30.121094 197.851562 30.09375 C 197.835938 30.121094 197.816406 30.152344 197.792969 30.183594 Z M 238.484375 23.726562 C 235.335938 24.578125 230.921875 26.183594 226.023438 28.886719 C 225.6875 29.070312 225.351562 29.269531 225.011719 29.464844 C 225.101562 29.523438 225.214844 29.59375 225.351562 29.683594 C 225.542969 29.800781 225.761719 29.960938 226.054688 30.078125 C 226.34375 30.203125 226.648438 30.371094 227.011719 30.5 C 227.382812 30.617188 227.773438 30.761719 228.203125 30.878906 C 228.636719 30.96875 229.085938 31.09375 229.5625 31.171875 C 230.042969 31.234375 230.535156 31.34375 231.042969 31.375 C 231.550781 31.417969 232.066406 31.476562 232.585938 31.480469 C 233.105469 31.511719 233.621094 31.519531 234.128906 31.507812 C 234.640625 31.511719 235.144531 31.484375 235.628906 31.464844 C 236.601562 31.417969 237.507812 31.335938 238.28125 31.246094 C 239.828125 31.0625 240.847656 30.859375 240.847656 30.859375 C 240.847656 30.859375 239.832031 31.082031 238.285156 31.292969 C 237.515625 31.398438 236.609375 31.5 235.636719 31.570312 C 235.152344 31.597656 234.644531 31.640625 234.132812 31.644531 C 233.621094 31.664062 233.101562 31.667969 232.578125 31.652344 C 232.058594 31.652344 231.539062 31.605469 231.027344 31.570312 C 230.511719 31.550781 230.015625 31.453125 229.527344 31.398438 C 229.039062 31.332031 228.578125 31.210938 228.136719 31.125 C 227.703125 31.015625 227.296875 30.875 226.917969 30.765625 C 226.542969 30.640625 226.222656 30.472656 225.921875 30.351562 C 225.621094 30.238281 225.386719 30.078125 225.1875 29.957031 C 224.957031 29.8125 224.792969 29.710938 224.6875 29.648438 C 220.160156 32.277344 215.332031 35.839844 210.730469 40.230469 C 210.488281 40.460938 210.25 40.703125 210.007812 40.9375 C 210.21875 41.121094 210.84375 41.640625 211.808594 42.226562 C 212.105469 42.414062 212.4375 42.601562 212.792969 42.792969 C 213.140625 42.992188 213.535156 43.152344 213.929688 43.347656 C 214.339844 43.503906 214.75 43.703125 215.191406 43.839844 C 215.628906 43.984375 216.070312 44.136719 216.53125 44.238281 C 216.757812 44.289062 216.984375 44.355469 217.214844 44.402344 C 217.445312 44.4375 217.675781 44.476562 217.902344 44.511719 C 218.355469 44.605469 218.8125 44.621094 219.25 44.65625 C 219.691406 44.707031 220.117188 44.675781 220.515625 44.671875 C 220.71875 44.664062 220.917969 44.667969 221.105469 44.65625 C 221.296875 44.632812 221.476562 44.613281 221.652344 44.589844 C 222 44.539062 222.328125 44.523438 222.609375 44.460938 C 222.886719 44.394531 223.132812 44.339844 223.332031 44.292969 C 223.734375 44.199219 223.964844 44.148438 223.964844 44.148438 C 223.964844 44.148438 223.734375 44.207031 223.335938 44.308594 C 223.136719 44.355469 222.890625 44.417969 222.613281 44.488281 C 222.332031 44.558594 222.007812 44.585938 221.65625 44.640625 C 221.484375 44.667969 221.300781 44.691406 221.113281 44.71875 C 220.921875 44.738281 220.722656 44.738281 220.523438 44.75 C 220.117188 44.765625 219.6875 44.804688 219.246094 44.761719 C 218.800781 44.738281 218.34375 44.730469 217.882812 44.648438 C 217.652344 44.617188 217.421875 44.582031 217.183594 44.550781 C 216.953125 44.507812 216.726562 44.449219 216.492188 44.398438 C 216.027344 44.308594 215.574219 44.164062 215.128906 44.027344 C 214.679688 43.898438 214.257812 43.710938 213.839844 43.558594 C 213.4375 43.371094 213.035156 43.214844 212.671875 43.019531 C 212.308594 42.835938 211.96875 42.652344 211.664062 42.46875 C 210.636719 41.875 209.96875 41.339844 209.769531 41.171875 C 207.578125 43.328125 205.4375 45.652344 203.402344 48.121094 C 202.210938 49.527344 201.101562 51.03125 199.972656 52.535156 C 199.980469 52.554688 199.984375 52.5625 199.992188 52.582031 C 200.035156 52.683594 200.105469 52.832031 200.199219 53.023438 C 200.304688 53.210938 200.421875 53.441406 200.589844 53.683594 C 200.75 53.933594 200.953125 54.203125 201.1875 54.484375 C 201.425781 54.761719 201.699219 55.050781 202.011719 55.328125 C 202.171875 55.464844 202.339844 55.605469 202.507812 55.746094 C 202.683594 55.878906 202.875 55.996094 203.066406 56.125 C 203.433594 56.40625 203.886719 56.570312 204.3125 56.800781 C 204.765625 56.953125 205.21875 57.160156 205.699219 57.265625 C 206.179688 57.363281 206.65625 57.511719 207.140625 57.53125 C 207.625 57.570312 208.097656 57.652344 208.5625 57.621094 C 209.023438 57.601562 209.472656 57.621094 209.894531 57.578125 C 210.316406 57.527344 210.714844 57.476562 211.082031 57.429688 C 211.453125 57.394531 211.785156 57.316406 212.082031 57.25 C 212.375 57.183594 212.632812 57.125 212.84375 57.078125 C 213.265625 56.980469 213.507812 56.925781 213.507812 56.925781 C 213.507812 56.925781 213.265625 56.984375 212.847656 57.089844 C 212.636719 57.144531 212.378906 57.207031 212.085938 57.277344 C 211.792969 57.355469 211.460938 57.4375 211.09375 57.480469 C 210.722656 57.535156 210.324219 57.59375 209.902344 57.65625 C 209.480469 57.707031 209.027344 57.699219 208.5625 57.726562 C 208.097656 57.769531 207.613281 57.695312 207.128906 57.667969 C 206.632812 57.65625 206.148438 57.515625 205.65625 57.425781 C 205.167969 57.332031 204.703125 57.132812 204.234375 56.984375 C 203.796875 56.757812 203.332031 56.59375 202.945312 56.320312 C 202.75 56.191406 202.546875 56.074219 202.363281 55.941406 C 202.1875 55.796875 202.011719 55.660156 201.84375 55.523438 C 201.515625 55.242188 201.226562 54.953125 200.972656 54.667969 C 200.726562 54.382812 200.507812 54.113281 200.339844 53.855469 C 200.160156 53.605469 200.03125 53.363281 199.917969 53.171875 C 199.847656 53.039062 199.792969 52.933594 199.75 52.835938 C 198.710938 54.214844 197.652344 55.597656 196.496094 56.90625 C 192.695312 61.300781 188.265625 65.101562 183.652344 68.242188 C 183.722656 68.367188 183.84375 68.585938 184.039062 68.894531 C 184.34375 69.375 184.808594 70.058594 185.433594 70.824219 C 186.066406 71.578125 186.851562 72.425781 187.816406 73.195312 C 188.285156 73.589844 188.816406 73.949219 189.363281 74.292969 C 189.921875 74.617188 190.5 74.933594 191.117188 75.164062 C 191.722656 75.414062 192.355469 75.59375 192.992188 75.726562 C 193.625 75.839844 194.261719 75.921875 194.875 75.917969 C 195.1875 75.925781 195.488281 75.921875 195.785156 75.890625 C 196.082031 75.875 196.371094 75.847656 196.648438 75.796875 C 197.210938 75.726562 197.730469 75.582031 198.210938 75.464844 C 198.675781 75.300781 199.117188 75.1875 199.484375 75.023438 C 199.855469 74.863281 200.1875 74.75 200.441406 74.609375 C 200.960938 74.351562 201.257812 74.203125 201.257812 74.203125 C 201.257812 74.203125 200.960938 74.355469 200.449219 74.621094 C 200.195312 74.761719 199.863281 74.886719 199.496094 75.050781 C 199.132812 75.222656 198.691406 75.34375 198.222656 75.515625 C 197.742188 75.636719 197.226562 75.792969 196.660156 75.875 C 196.382812 75.929688 196.089844 75.960938 195.789062 75.984375 C 195.492188 76.015625 195.1875 76.027344 194.875 76.023438 C 194.253906 76.039062 193.609375 75.964844 192.964844 75.859375 C 192.320312 75.738281 191.675781 75.5625 191.054688 75.320312 C 190.425781 75.09375 189.835938 74.785156 189.261719 74.464844 C 188.703125 74.125 188.160156 73.769531 187.671875 73.375 C 186.683594 72.605469 185.871094 71.761719 185.21875 71.003906 C 184.183594 69.78125 183.578125 68.785156 183.375 68.425781 C 182.101562 69.285156 180.816406 70.105469 179.527344 70.859375 C 174.914062 73.558594 170.269531 75.601562 165.957031 77.160156 C 166.027344 77.234375 166.121094 77.332031 166.246094 77.457031 C 166.382812 77.597656 166.542969 77.765625 166.734375 77.957031 C 166.921875 78.140625 167.125 78.371094 167.367188 78.589844 C 167.613281 78.808594 167.878906 79.046875 168.160156 79.300781 C 168.433594 79.5625 168.742188 79.8125 169.070312 80.058594 C 169.402344 80.304688 169.71875 80.589844 170.085938 80.816406 C 170.453125 81.046875 170.800781 81.320312 171.191406 81.519531 C 171.578125 81.722656 171.949219 81.964844 172.355469 82.117188 C 172.550781 82.203125 172.75 82.285156 172.945312 82.371094 C 173.136719 82.445312 173.339844 82.5 173.535156 82.566406 C 173.925781 82.707031 174.320312 82.761719 174.6875 82.84375 C 175.0625 82.878906 175.414062 82.9375 175.746094 82.914062 C 176.074219 82.921875 176.371094 82.875 176.636719 82.839844 C 176.898438 82.785156 177.125 82.730469 177.308594 82.664062 C 177.671875 82.535156 177.855469 82.414062 177.855469 82.414062 C 177.855469 82.414062 177.675781 82.542969 177.3125 82.675781 C 177.132812 82.75 176.90625 82.808594 176.644531 82.871094 C 176.378906 82.910156 176.078125 82.96875 175.746094 82.96875 C 175.414062 82.996094 175.054688 82.949219 174.675781 82.917969 C 174.304688 82.84375 173.902344 82.800781 173.507812 82.667969 C 173.308594 82.605469 173.101562 82.554688 172.902344 82.484375 C 172.703125 82.402344 172.503906 82.320312 172.300781 82.242188 C 171.886719 82.09375 171.507812 81.859375 171.109375 81.667969 C 170.710938 81.46875 170.351562 81.207031 169.976562 80.980469 C 169.597656 80.761719 169.269531 80.480469 168.933594 80.242188 C 168.59375 79.996094 168.277344 79.753906 167.992188 79.496094 C 167.703125 79.25 167.429688 79.015625 167.179688 78.796875 C 166.925781 78.582031 166.71875 78.355469 166.519531 78.171875 C 166.328125 77.984375 166.160156 77.820312 166.019531 77.683594 C 165.804688 77.472656 165.660156 77.335938 165.609375 77.28125 C 164.359375 77.726562 163.132812 78.140625 161.949219 78.503906 C 159.269531 79.339844 156.765625 79.953125 154.539062 80.441406 C 152.308594 80.921875 150.351562 81.261719 148.730469 81.503906 C 145.496094 81.976562 143.625 82.0625 143.625 82.0625 C 143.625 82.0625 145.492188 81.941406 148.714844 81.398438 C 150.328125 81.128906 152.277344 80.75 154.488281 80.222656 C 156.703125 79.699219 159.179688 79.011719 161.84375 78.164062 C 166.695312 76.605469 172.175781 74.378906 177.652344 71.28125 C 177.640625 71.257812 177.625 71.234375 177.613281 71.207031 C 177.484375 70.984375 177.332031 70.644531 177.132812 70.21875 C 176.960938 69.78125 176.714844 69.261719 176.523438 68.636719 C 176.425781 68.328125 176.300781 68 176.203125 67.648438 C 176.109375 67.292969 176.011719 66.921875 175.914062 66.53125 C 175.796875 66.144531 175.746094 65.730469 175.660156 65.304688 C 175.589844 64.875 175.480469 64.441406 175.449219 63.980469 C 175.402344 63.523438 175.351562 63.050781 175.304688 62.574219 C 175.253906 62.089844 175.273438 61.597656 175.253906 61.09375 C 175.191406 60.089844 175.320312 59.058594 175.378906 58.007812 C 175.402344 57.480469 175.53125 56.964844 175.605469 56.4375 C 175.699219 55.914062 175.757812 55.382812 175.882812 54.863281 C 176.015625 54.34375 176.152344 53.828125 176.289062 53.316406 C 176.429688 52.804688 176.535156 52.28125 176.738281 51.796875 C 176.921875 51.304688 177.101562 50.8125 177.277344 50.332031 C 177.464844 49.851562 177.609375 49.363281 177.847656 48.917969 C 178.277344 48.019531 178.695312 47.152344 179.097656 46.324219 C 179.566406 45.539062 180.007812 44.796875 180.417969 44.109375 C 180.625 43.769531 180.820312 43.441406 181.007812 43.128906 C 181.210938 42.824219 181.421875 42.554688 181.609375 42.289062 C 181.992188 41.765625 182.324219 41.308594 182.601562 40.933594 C 183.148438 40.179688 183.460938 39.75 183.460938 39.75 C 183.460938 39.75 183.152344 40.183594 182.609375 40.941406 C 182.339844 41.320312 182.011719 41.78125 181.636719 42.304688 C 181.449219 42.574219 181.242188 42.847656 181.042969 43.152344 C 180.859375 43.464844 180.664062 43.792969 180.460938 44.136719 C 180.058594 44.828125 179.625 45.574219 179.164062 46.359375 C 178.773438 47.1875 178.367188 48.0625 177.941406 48.960938 C 177.710938 49.40625 177.570312 49.894531 177.390625 50.375 C 177.21875 50.855469 177.042969 51.347656 176.867188 51.835938 C 176.667969 52.324219 176.570312 52.84375 176.433594 53.355469 C 176.304688 53.867188 176.175781 54.382812 176.042969 54.898438 C 175.925781 55.414062 175.871094 55.945312 175.785156 56.464844 C 175.71875 56.988281 175.59375 57.503906 175.578125 58.027344 C 175.527344 59.074219 175.414062 60.097656 175.480469 61.089844 C 175.503906 61.589844 175.492188 62.078125 175.542969 62.554688 C 175.597656 63.027344 175.648438 63.496094 175.703125 63.945312 C 175.738281 64.402344 175.851562 64.832031 175.925781 65.253906 C 176.011719 65.671875 176.066406 66.085938 176.183594 66.464844 C 176.289062 66.847656 176.386719 67.214844 176.484375 67.5625 C 176.582031 67.910156 176.707031 68.234375 176.808594 68.539062 C 177.003906 69.152344 177.25 69.660156 177.421875 70.085938 C 177.621094 70.507812 177.777344 70.832031 177.898438 71.046875 C 177.914062 71.070312 177.925781 71.09375 177.9375 71.121094 C 178.371094 70.871094 178.808594 70.628906 179.242188 70.371094 C 183.738281 67.710938 188.183594 64.417969 192.171875 60.554688 C 192.144531 59.867188 192.101562 58.167969 192.152344 55.886719 C 192.175781 55.140625 192.203125 54.332031 192.230469 53.472656 C 192.289062 52.617188 192.304688 51.710938 192.386719 50.777344 C 192.453125 49.847656 192.523438 48.882812 192.632812 47.90625 C 192.71875 46.925781 192.851562 45.9375 192.992188 44.949219 C 193.109375 43.957031 193.3125 42.980469 193.476562 42.011719 C 193.644531 41.046875 193.894531 40.109375 194.09375 39.195312 C 194.320312 38.289062 194.589844 37.425781 194.824219 36.601562 C 195.097656 35.789062 195.390625 35.03125 195.644531 34.332031 C 195.917969 33.636719 196.238281 33.027344 196.484375 32.472656 C 196.71875 31.910156 197.015625 31.472656 197.238281 31.097656 C 197.464844 30.726562 197.644531 30.429688 197.765625 30.230469 C 197.773438 30.214844 197.785156 30.203125 197.792969 30.183594 C 197.785156 30.203125 197.78125 30.214844 197.765625 30.234375 C 197.644531 30.433594 197.472656 30.726562 197.25 31.101562 C 197.027344 31.476562 196.734375 31.917969 196.503906 32.480469 C 196.257812 33.035156 195.945312 33.648438 195.671875 34.34375 C 195.425781 35.046875 195.136719 35.804688 194.871094 36.617188 C 194.648438 37.441406 194.382812 38.308594 194.160156 39.210938 C 193.96875 40.128906 193.726562 41.0625 193.566406 42.027344 C 193.410156 43 193.214844 43.972656 193.105469 44.96875 C 192.96875 45.953125 192.84375 46.941406 192.765625 47.917969 C 192.660156 48.894531 192.597656 49.855469 192.539062 50.789062 C 192.46875 51.722656 192.449219 52.625 192.414062 53.480469 C 192.402344 54.335938 192.390625 55.144531 192.382812 55.890625 C 192.382812 57.886719 192.441406 59.429688 192.480469 60.238281 C 193.703125 59.035156 194.886719 57.785156 196.007812 56.476562 C 198.453125 53.675781 200.496094 50.535156 202.90625 47.710938 C 204.109375 46.265625 205.347656 44.867188 206.609375 43.527344 L 206.601562 43.523438 C 206.601562 43.523438 206.660156 42.144531 206.96875 40.117188 C 207.039062 39.609375 207.128906 39.0625 207.238281 38.484375 C 207.332031 37.902344 207.472656 37.296875 207.601562 36.667969 C 207.742188 36.042969 207.898438 35.398438 208.066406 34.75 C 208.257812 34.101562 208.410156 33.4375 208.632812 32.789062 C 208.84375 32.140625 209.046875 31.484375 209.292969 30.859375 C 209.519531 30.226562 209.761719 29.609375 210.019531 29.023438 C 210.148438 28.730469 210.273438 28.441406 210.394531 28.160156 C 210.527344 27.882812 210.660156 27.609375 210.792969 27.347656 C 211.054688 26.824219 211.289062 26.320312 211.554688 25.882812 C 211.808594 25.4375 212.046875 25.03125 212.253906 24.671875 C 212.484375 24.324219 212.683594 24.023438 212.851562 23.777344 C 213.183594 23.28125 213.371094 23 213.371094 23 C 213.371094 23 213.1875 23.285156 212.863281 23.785156 C 212.703125 24.035156 212.503906 24.339844 212.277344 24.6875 C 212.078125 25.050781 211.851562 25.460938 211.601562 25.910156 C 211.339844 26.347656 211.113281 26.855469 210.859375 27.382812 C 210.734375 27.644531 210.609375 27.917969 210.476562 28.195312 C 210.359375 28.480469 210.238281 28.769531 210.121094 29.066406 C 209.867188 29.652344 209.636719 30.269531 209.417969 30.90625 C 209.183594 31.53125 208.992188 32.1875 208.792969 32.839844 C 208.582031 33.484375 208.4375 34.152344 208.257812 34.796875 C 208.097656 35.449219 207.953125 36.09375 207.820312 36.71875 C 207.703125 37.347656 207.574219 37.949219 207.492188 38.527344 C 207.390625 39.105469 207.3125 39.652344 207.246094 40.15625 C 207.054688 41.566406 206.980469 42.640625 206.953125 43.171875 C 208.058594 42.003906 209.179688 40.871094 210.320312 39.796875 C 212.882812 37.382812 215.5 35.203125 218.128906 33.335938 C 218.246094 33.25 218.359375 33.175781 218.476562 33.097656 L 218.34375 33.0625 C 218.34375 33.0625 218.433594 32.777344 218.59375 32.273438 C 218.632812 32.148438 218.679688 32.011719 218.726562 31.859375 C 218.789062 31.714844 218.855469 31.558594 218.929688 31.390625 C 219.078125 31.054688 219.21875 30.667969 219.4375 30.277344 C 219.648438 29.882812 219.84375 29.4375 220.117188 29 C 220.378906 28.5625 220.636719 28.089844 220.945312 27.628906 C 221.542969 26.683594 222.214844 25.703125 222.925781 24.753906 C 225.738281 20.925781 229.023438 17.496094 229.023438 17.496094 C 229.023438 17.496094 225.796875 20.984375 223.0625 24.851562 C 222.367188 25.8125 221.71875 26.800781 221.136719 27.746094 C 220.839844 28.214844 220.589844 28.6875 220.339844 29.128906 C 220.078125 29.566406 219.890625 30.007812 219.691406 30.398438 C 219.480469 30.789062 219.351562 31.175781 219.207031 31.503906 C 219.144531 31.667969 219.078125 31.824219 219.019531 31.96875 C 218.976562 32.117188 218.933594 32.25 218.898438 32.371094 C 218.828125 32.605469 218.773438 32.785156 218.734375 32.917969 C 221.152344 31.222656 223.546875 29.757812 225.835938 28.535156 C 228.316406 27.210938 230.671875 26.152344 232.816406 25.363281 C 234.957031 24.566406 236.867188 24.003906 238.453125 23.609375 C 241.636719 22.824219 243.515625 22.726562 243.515625 22.726562 C 243.515625 22.726562 241.640625 22.871094 238.484375 23.726562 Z M 56.15625 128.320312 C 56.121094 128.328125 56.085938 128.332031 56.058594 128.335938 C 56.085938 128.332031 56.121094 128.324219 56.15625 128.320312 Z M 55.914062 128.546875 L 55.835938 128.195312 C 55.835938 128.1875 55.886719 128.292969 55.957031 128.335938 C 55.984375 128.347656 56.019531 128.34375 56.058594 128.335938 C 56.019531 128.34375 55.988281 128.351562 55.964844 128.375 C 55.917969 128.4375 55.914062 128.550781 55.914062 128.546875 Z M 123.5 99.835938 C 125.394531 96.777344 126.339844 94.949219 126.339844 94.949219 C 126.339844 94.949219 125.355469 96.757812 123.40625 99.777344 C 122.429688 101.285156 121.210938 103.097656 119.746094 105.121094 C 118.289062 107.15625 116.570312 109.394531 114.625 111.777344 C 111.324219 115.816406 107.296875 120.242188 102.554688 124.496094 C 102.539062 124.480469 102.53125 124.472656 102.511719 124.453125 C 102.414062 124.355469 102.273438 124.234375 102.085938 124.074219 C 101.898438 123.917969 101.667969 123.734375 101.394531 123.539062 C 101.125 123.335938 100.804688 123.128906 100.460938 122.90625 C 99.761719 122.46875 98.914062 122.019531 97.980469 121.597656 C 97.511719 121.390625 97.023438 121.191406 96.523438 121 C 96.011719 120.832031 95.507812 120.628906 94.984375 120.488281 C 94.457031 120.34375 93.941406 120.167969 93.417969 120.058594 C 92.894531 119.949219 92.390625 119.804688 91.882812 119.726562 C 91.382812 119.636719 90.898438 119.554688 90.441406 119.472656 C 89.980469 119.417969 89.542969 119.363281 89.136719 119.316406 C 88.335938 119.199219 87.65625 119.191406 87.1875 119.148438 C 86.710938 119.117188 86.441406 119.097656 86.441406 119.097656 C 86.441406 119.097656 86.710938 119.125 87.183594 119.175781 C 87.652344 119.238281 88.328125 119.265625 89.128906 119.410156 C 89.527344 119.472656 89.960938 119.542969 90.417969 119.613281 C 90.871094 119.710938 91.351562 119.8125 91.84375 119.917969 C 92.34375 120.011719 92.839844 120.171875 93.355469 120.304688 C 93.871094 120.425781 94.375 120.621094 94.886719 120.78125 C 95.402344 120.9375 95.894531 121.15625 96.390625 121.339844 C 96.878906 121.546875 97.351562 121.757812 97.804688 121.976562 C 98.707031 122.425781 99.515625 122.894531 100.179688 123.34375 C 100.507812 123.570312 100.808594 123.78125 101.058594 123.984375 C 101.316406 124.183594 101.527344 124.363281 101.699219 124.515625 C 101.867188 124.671875 102.003906 124.796875 102.078125 124.882812 C 102.089844 124.890625 102.09375 124.894531 102.105469 124.90625 C 101.402344 125.53125 100.683594 126.148438 99.953125 126.757812 C 95.152344 130.789062 89.636719 134.566406 83.601562 137.390625 C 83.046875 137.011719 81.722656 136.128906 79.894531 135.058594 C 77.449219 133.636719 74.117188 131.832031 70.597656 130.464844 C 69.71875 130.121094 68.835938 129.796875 67.949219 129.519531 C 67.066406 129.230469 66.183594 128.984375 65.324219 128.773438 C 64.464844 128.566406 63.628906 128.40625 62.828125 128.273438 C 62.425781 128.222656 62.035156 128.171875 61.65625 128.125 C 61.277344 128.09375 60.910156 128.066406 60.558594 128.035156 C 59.851562 128.007812 59.203125 127.988281 58.632812 128.023438 C 58.054688 128.035156 57.558594 128.109375 57.152344 128.152344 C 56.742188 128.199219 56.425781 128.273438 56.207031 128.3125 C 56.1875 128.3125 56.171875 128.316406 56.15625 128.320312 C 56.171875 128.316406 56.1875 128.316406 56.207031 128.3125 C 56.425781 128.28125 56.742188 128.203125 57.152344 128.160156 C 57.5625 128.121094 58.058594 128.050781 58.632812 128.046875 C 59.203125 128.015625 59.851562 128.039062 60.554688 128.074219 C 60.90625 128.105469 61.273438 128.136719 61.652344 128.167969 C 62.027344 128.21875 62.417969 128.277344 62.816406 128.328125 C 63.617188 128.464844 64.453125 128.632812 65.308594 128.847656 C 66.164062 129.066406 67.039062 129.316406 67.917969 129.609375 C 68.800781 129.894531 69.683594 130.226562 70.554688 130.578125 C 72.304688 131.273438 74.007812 132.078125 75.578125 132.890625 C 77.144531 133.695312 78.570312 134.527344 79.769531 135.273438 C 81.414062 136.289062 82.625 137.125 83.234375 137.558594 C 82.011719 138.121094 80.773438 138.648438 79.507812 139.128906 C 75.714844 140.640625 71.679688 141.367188 67.816406 142.683594 C 65.945312 143.292969 64.113281 143.964844 62.324219 144.6875 C 62.253906 144.652344 61.128906 144.042969 59.367188 143.371094 C 58.914062 143.195312 58.417969 143.015625 57.890625 142.839844 C 57.367188 142.652344 56.796875 142.503906 56.214844 142.324219 C 55.628906 142.167969 55.019531 142.003906 54.398438 141.867188 C 53.769531 141.746094 53.140625 141.59375 52.5 141.507812 C 51.859375 141.40625 51.21875 141.3125 50.585938 141.265625 C 50.265625 141.234375 49.953125 141.207031 49.640625 141.179688 C 49.328125 141.171875 49.019531 141.160156 48.71875 141.148438 C 48.414062 141.140625 48.117188 141.132812 47.824219 141.125 C 47.53125 141.136719 47.246094 141.148438 46.972656 141.160156 C 46.414062 141.175781 45.890625 141.195312 45.410156 141.265625 C 44.929688 141.324219 44.484375 141.375 44.097656 141.425781 C 43.710938 141.5 43.375 141.570312 43.097656 141.625 C 42.542969 141.738281 42.226562 141.800781 42.226562 141.800781 C 42.226562 141.800781 42.542969 141.746094 43.101562 141.640625 C 43.375 141.589844 43.714844 141.527344 44.101562 141.457031 C 44.492188 141.417969 44.933594 141.371094 45.414062 141.324219 C 45.894531 141.257812 46.417969 141.25 46.972656 141.242188 C 47.25 141.234375 47.535156 141.230469 47.824219 141.222656 C 48.113281 141.238281 48.410156 141.25 48.714844 141.265625 C 49.015625 141.277344 49.324219 141.292969 49.628906 141.308594 C 49.941406 141.339844 50.253906 141.375 50.566406 141.410156 C 51.199219 141.464844 51.835938 141.574219 52.46875 141.6875 C 53.109375 141.78125 53.730469 141.941406 54.351562 142.078125 C 54.964844 142.222656 55.566406 142.394531 56.148438 142.558594 C 56.722656 142.746094 57.28125 142.902344 57.800781 143.101562 C 58.324219 143.28125 58.8125 143.46875 59.257812 143.652344 C 60.542969 144.167969 61.46875 144.636719 61.898438 144.863281 C 60.148438 145.582031 58.441406 146.347656 56.792969 147.167969 C 53.535156 148.78125 50.488281 150.5625 47.710938 152.449219 L 47.742188 152.316406 C 47.742188 152.316406 47.449219 152.265625 46.933594 152.1875 C 46.675781 152.128906 46.363281 152.117188 46.003906 152.113281 C 45.640625 152.097656 45.234375 152.078125 44.792969 152.117188 C 44.351562 152.144531 43.875 152.160156 43.375 152.234375 C 42.875 152.292969 42.347656 152.355469 41.808594 152.464844 C 41.269531 152.554688 40.710938 152.664062 40.152344 152.796875 C 39.585938 152.914062 39.019531 153.058594 38.453125 153.207031 C 33.921875 154.382812 29.609375 156.199219 29.609375 156.199219 C 29.609375 156.199219 33.957031 154.460938 38.496094 153.378906 C 39.0625 153.246094 39.628906 153.109375 40.195312 153.003906 C 40.753906 152.882812 41.308594 152.785156 41.851562 152.707031 C 42.386719 152.609375 42.910156 152.554688 43.40625 152.507812 C 43.902344 152.441406 44.371094 152.4375 44.804688 152.417969 C 45.242188 152.386719 45.636719 152.417969 45.988281 152.4375 C 46.335938 152.449219 46.640625 152.46875 46.886719 152.523438 C 47.125 152.566406 47.3125 152.601562 47.445312 152.621094 C 47.363281 152.679688 47.273438 152.734375 47.195312 152.789062 C 44.277344 154.796875 41.652344 156.882812 39.347656 158.941406 C 34.738281 163.058594 31.449219 167.054688 29.332031 169.957031 C 27.214844 172.871094 26.257812 174.699219 26.257812 174.699219 C 26.257812 174.699219 27.257812 172.894531 29.441406 170.039062 C 31.609375 167.179688 35.011719 163.316406 39.632812 159.261719 C 40.183594 158.78125 40.757812 158.300781 41.347656 157.816406 C 41.347656 157.945312 41.347656 158.085938 41.34375 158.265625 C 41.34375 158.539062 41.355469 158.867188 41.296875 159.242188 C 41.246094 159.621094 41.222656 160.050781 41.136719 160.507812 C 41.039062 160.964844 40.953125 161.464844 40.824219 161.988281 C 40.675781 162.503906 40.542969 163.054688 40.359375 163.613281 C 40.164062 164.164062 39.992188 164.75 39.757812 165.320312 C 39.527344 165.894531 39.3125 166.484375 39.050781 167.054688 C 38.558594 168.207031 37.996094 169.335938 37.457031 170.378906 C 36.910156 171.425781 36.367188 172.378906 35.890625 173.191406 C 34.929688 174.8125 34.214844 175.847656 34.214844 175.847656 C 34.214844 175.847656 34.945312 174.824219 35.9375 173.21875 C 36.429688 172.417969 36.992188 171.46875 37.554688 170.433594 C 38.117188 169.394531 38.699219 168.277344 39.210938 167.128906 C 39.488281 166.558594 39.714844 165.972656 39.957031 165.398438 C 40.203125 164.828125 40.382812 164.242188 40.589844 163.691406 C 40.785156 163.132812 40.929688 162.578125 41.09375 162.058594 C 41.230469 161.53125 41.328125 161.023438 41.433594 160.5625 C 41.53125 160.09375 41.5625 159.65625 41.617188 159.273438 C 41.683594 158.894531 41.683594 158.554688 41.6875 158.273438 C 41.695312 157.917969 41.699219 157.671875 41.703125 157.53125 C 45.980469 154.070312 51.175781 150.636719 57.074219 147.742188 C 57.527344 147.519531 57.992188 147.308594 58.449219 147.097656 C 58.492188 147.460938 58.578125 148.421875 58.546875 149.746094 C 58.542969 150.167969 58.519531 150.632812 58.488281 151.117188 C 58.464844 151.601562 58.394531 152.109375 58.34375 152.636719 C 58.257812 153.160156 58.203125 153.707031 58.082031 154.253906 C 57.972656 154.800781 57.867188 155.355469 57.707031 155.902344 L 57.488281 156.722656 C 57.398438 156.988281 57.3125 157.253906 57.222656 157.523438 C 57.0625 158.058594 56.847656 158.5625 56.648438 159.054688 C 56.460938 159.554688 56.222656 160.007812 56.007812 160.445312 C 55.898438 160.664062 55.792969 160.875 55.691406 161.082031 C 55.574219 161.277344 55.460938 161.46875 55.351562 161.652344 C 55.128906 162.015625 54.9375 162.355469 54.746094 162.640625 C 54.542969 162.925781 54.367188 163.167969 54.222656 163.371094 C 53.933594 163.773438 53.765625 164.003906 53.765625 164.003906 C 53.765625 164.003906 53.9375 163.773438 54.234375 163.378906 C 54.382812 163.179688 54.566406 162.9375 54.773438 162.660156 C 54.972656 162.378906 55.167969 162.039062 55.398438 161.679688 C 55.511719 161.5 55.628906 161.308594 55.75 161.113281 C 55.859375 160.910156 55.96875 160.699219 56.078125 160.484375 C 56.304688 160.050781 56.554688 159.597656 56.75 159.097656 C 56.960938 158.609375 57.191406 158.101562 57.363281 157.570312 C 57.457031 157.304688 57.550781 157.035156 57.640625 156.769531 L 57.878906 155.949219 C 58.046875 155.402344 58.167969 154.84375 58.289062 154.296875 C 58.421875 153.75 58.484375 153.199219 58.582031 152.671875 C 58.644531 152.140625 58.726562 151.628906 58.761719 151.136719 C 58.800781 150.648438 58.839844 150.183594 58.851562 149.757812 C 58.914062 148.238281 58.816406 147.164062 58.792969 146.9375 C 61.734375 145.582031 64.828125 144.371094 68.027344 143.339844 C 68.988281 143.050781 69.945312 142.734375 70.921875 142.464844 C 71.632812 142.273438 72.34375 142.082031 73.058594 141.890625 C 73.070312 141.90625 73.078125 141.917969 73.089844 141.9375 C 73.15625 142.046875 73.246094 142.222656 73.363281 142.441406 C 73.464844 142.675781 73.597656 142.945312 73.707031 143.28125 C 73.839844 143.605469 73.933594 143.992188 74.046875 144.410156 C 74.125 144.835938 74.238281 145.292969 74.269531 145.792969 C 74.339844 146.285156 74.332031 146.8125 74.335938 147.355469 C 74.316406 147.894531 74.273438 148.460938 74.191406 149.023438 C 74.078125 149.585938 74.019531 150.167969 73.835938 150.722656 C 73.679688 151.28125 73.53125 151.847656 73.304688 152.375 C 73.09375 152.910156 72.910156 153.445312 72.648438 153.929688 C 72.402344 154.414062 72.191406 154.902344 71.9375 155.335938 C 71.679688 155.765625 71.433594 156.171875 71.207031 156.546875 C 70.992188 156.929688 70.753906 157.253906 70.546875 157.542969 C 70.339844 157.832031 70.15625 158.082031 70.011719 158.292969 C 69.714844 158.707031 69.542969 158.945312 69.542969 158.945312 C 69.542969 158.945312 69.714844 158.710938 70.023438 158.300781 C 70.175781 158.097656 70.359375 157.847656 70.574219 157.5625 C 70.789062 157.277344 71.03125 156.957031 71.253906 156.578125 C 71.488281 156.207031 71.742188 155.804688 72.007812 155.375 C 72.269531 154.949219 72.492188 154.460938 72.75 153.976562 C 73.023438 153.496094 73.21875 152.960938 73.4375 152.425781 C 73.679688 151.902344 73.835938 151.332031 74.007812 150.769531 C 74.203125 150.214844 74.277344 149.625 74.402344 149.058594 C 74.496094 148.488281 74.546875 147.914062 74.582031 147.363281 C 74.585938 146.808594 74.605469 146.269531 74.542969 145.765625 C 74.519531 145.257812 74.414062 144.785156 74.34375 144.34375 C 74.230469 143.914062 74.144531 143.515625 74.015625 143.171875 C 73.90625 142.828125 73.773438 142.539062 73.671875 142.296875 C 73.5625 142.082031 73.484375 141.917969 73.414062 141.792969 C 73.566406 141.753906 73.71875 141.710938 73.871094 141.671875 C 75.863281 141.152344 77.832031 140.515625 79.753906 139.773438 C 84.976562 137.773438 89.851562 135.019531 94.28125 131.910156 C 94.351562 132.070312 94.464844 132.320312 94.605469 132.679688 C 94.851562 133.300781 95.175781 134.207031 95.460938 135.328125 C 95.753906 136.441406 95.996094 137.773438 96.105469 139.210938 C 96.160156 139.929688 96.179688 140.675781 96.148438 141.429688 C 96.132812 142.1875 96.039062 142.953125 95.925781 143.714844 C 95.796875 144.476562 95.625 145.226562 95.402344 145.949219 C 95.175781 146.671875 94.914062 147.375 94.605469 148.027344 C 94.453125 148.355469 94.304688 148.675781 94.128906 148.976562 C 93.960938 149.28125 93.800781 149.585938 93.617188 149.859375 C 93.273438 150.425781 92.894531 150.925781 92.550781 151.390625 C 92.179688 151.832031 91.855469 152.253906 91.523438 152.589844 C 91.195312 152.925781 90.929688 153.238281 90.671875 153.457031 C 90.171875 153.914062 89.886719 154.175781 89.886719 154.175781 C 89.886719 154.175781 90.175781 153.917969 90.679688 153.46875 C 90.941406 153.25 91.210938 152.941406 91.550781 152.613281 C 91.886719 152.28125 92.214844 151.863281 92.59375 151.425781 C 92.949219 150.964844 93.335938 150.46875 93.6875 149.902344 C 93.875 149.628906 94.039062 149.328125 94.214844 149.023438 C 94.394531 148.726562 94.550781 148.40625 94.707031 148.074219 C 95.027344 147.421875 95.300781 146.71875 95.539062 145.992188 C 95.777344 145.269531 95.960938 144.507812 96.101562 143.746094 C 96.226562 142.980469 96.332031 142.207031 96.359375 141.441406 C 96.40625 140.675781 96.394531 139.921875 96.351562 139.191406 C 96.261719 137.738281 96.035156 136.386719 95.753906 135.253906 C 95.308594 133.398438 94.761719 132.113281 94.574219 131.703125 C 96.59375 130.269531 98.519531 128.765625 100.34375 127.222656 C 104.140625 123.984375 107.5 120.597656 110.445312 117.308594 C 110.601562 117.660156 110.835938 118.210938 111.097656 118.921875 C 111.316406 119.546875 111.574219 120.277344 111.792969 121.078125 C 112.023438 121.878906 112.214844 122.746094 112.378906 123.617188 C 112.4375 124.058594 112.519531 124.496094 112.558594 124.929688 C 112.589844 125.363281 112.65625 125.792969 112.65625 126.207031 C 112.65625 126.621094 112.699219 127.027344 112.664062 127.40625 C 112.636719 127.789062 112.636719 128.152344 112.589844 128.480469 C 112.542969 128.8125 112.5 129.113281 112.464844 129.382812 C 112.417969 129.648438 112.351562 129.878906 112.308594 130.066406 C 112.214844 130.445312 112.160156 130.664062 112.160156 130.664062 C 112.160156 130.664062 112.222656 130.449219 112.332031 130.074219 C 112.382812 129.882812 112.464844 129.660156 112.519531 129.394531 C 112.570312 129.125 112.625 128.824219 112.683594 128.492188 C 112.75 128.164062 112.761719 127.800781 112.804688 127.414062 C 112.855469 127.03125 112.832031 126.625 112.847656 126.203125 C 112.871094 125.78125 112.820312 125.347656 112.808594 124.90625 C 112.785156 124.464844 112.722656 124.019531 112.679688 123.570312 C 112.554688 122.683594 112.398438 121.792969 112.199219 120.976562 C 112.015625 120.152344 111.785156 119.398438 111.585938 118.753906 C 111.289062 117.8125 111.011719 117.117188 110.882812 116.808594 C 112.328125 115.175781 113.683594 113.566406 114.921875 112.019531 C 116.851562 109.609375 118.507812 107.320312 119.9375 105.261719 C 121.363281 103.199219 122.550781 101.367188 123.5 99.835938 " fill-opacity="1" fill-rule="nonzero"/></g></g></g></g></svg>